<?xml version="1.0" standalone="no"?>
<!DOCTYPE svg PUBLIC "-//W3C//DTD SVG 1.1//EN" "http://www.w3.org/Graphics/SVG/1.1/DTD/svg11.dtd" >
<svg xmlns="http://www.w3.org/2000/svg" xmlns:xlink="http://www.w3.org/1999/xlink" version="1.1">
<metadata>
Created by FontForge 20170925 at Tue Aug 15 20:52:25 2017
 By Jimmy Wärting
Copyright (c) 2016 by Alberto Romanos. All rights reserved.
</metadata>
<defs>
<font id="BwModelicaLGC-Black" horiz-adv-x="695" >
  <font-face 
    font-family="Bw Modelica LGC Black"
    font-weight="900"
    font-stretch="normal"
    units-per-em="1000"
    panose-1="0 0 10 0 0 0 0 0 0 0"
    ascent="780"
    descent="-220"
    x-height="550"
    cap-height="740"
    bbox="-892 -230 1386 1020"
    underline-thickness="50"
    underline-position="-100"
    unicode-range="U+000D-FB02"
  />
<missing-glyph horiz-adv-x="1274" 
d="M87 -10q-8 0 -12.5 5t-4.5 13q0 10 5 15l342 341h-324q-8 0 -15.5 3t-7.5 16q0 5 2 8.5t5 7.5l340 342h-327q-20 0 -20 19v1q0 19 20 19h370q8 0 15.5 -3t7.5 -17q0 -10 -8 -17l-341 -340h330q8 0 14 -6t6 -14v-327l339 338q7 8 17 8q13 0 15.5 -7.5t2.5 -14.5v-324
l340 338q6 8 16 8q8 0 12.5 -5.5t4.5 -13.5q0 -3 -1 -7t-5 -7l-368 -372q-7 -7 -17 -7q-14 0 -17 7.5t-3 15.5v324l-339 -340q-7 -7 -17 -7q-14 0 -17 7.5t-3 15.5v324l-340 -340q-7 -7 -17 -7z" />
    <glyph glyph-name="fi" unicode="fi" horiz-adv-x="749" 
d="M113 599q0 43 14 78.5t39.5 60.5t61.5 38.5t79 13.5q35 0 70 -5.5t61 -17.5l-13 -154q-13 4 -24.5 5t-25.5 1q-28 0 -45 -14t-17 -37v-18h105v-163h-105v-387h-200v387h-83v163h83v49zM493 550h200v-550h-200v550zM594 591q-50 0 -82 31.5t-32 81.5t32 82t82 32t81.5 -32
t31.5 -82t-31.5 -81.5t-81.5 -31.5z" />
    <glyph glyph-name="fl" unicode="fl" horiz-adv-x="749" 
d="M113 599q0 43 14 78.5t39.5 60.5t61.5 38.5t79 13.5q35 0 70 -5.5t61 -17.5l-13 -154q-13 4 -24.5 5t-25.5 1q-28 0 -45 -14t-17 -37v-18h105v-163h-105v-387h-200v387h-83v163h83v49zM693 780v-780h-200v780h200z" />
    <glyph glyph-name=".notdef" horiz-adv-x="1274" 
d="M87 -10q-8 0 -12.5 5t-4.5 13q0 10 5 15l342 341h-324q-8 0 -15.5 3t-7.5 16q0 5 2 8.5t5 7.5l340 342h-327q-20 0 -20 19v1q0 19 20 19h370q8 0 15.5 -3t7.5 -17q0 -10 -8 -17l-341 -340h330q8 0 14 -6t6 -14v-327l339 338q7 8 17 8q13 0 15.5 -7.5t2.5 -14.5v-324
l340 338q6 8 16 8q8 0 12.5 -5.5t4.5 -13.5q0 -3 -1 -7t-5 -7l-368 -372q-7 -7 -17 -7q-14 0 -17 7.5t-3 15.5v324l-339 -340q-7 -7 -17 -7q-14 0 -17 7.5t-3 15.5v324l-340 -340q-7 -7 -17 -7z" />
    <glyph glyph-name="uni0000" horiz-adv-x="0" 
 />
    <glyph glyph-name="uni0000" horiz-adv-x="0" 
 />
    <glyph glyph-name="uni000D" unicode="&#xd;" horiz-adv-x="195" 
 />
    <glyph glyph-name="space" unicode=" " horiz-adv-x="229" 
 />
    <glyph glyph-name="exclam" unicode="!" horiz-adv-x="321" 
d="M161 -10q-50 0 -82 32t-32 82t32 81.5t82 31.5t81.5 -31.5t31.5 -81.5t-31.5 -82t-81.5 -32zM57 740h207l-18 -470h-170z" />
    <glyph glyph-name="quotedbl" unicode="&#x22;" horiz-adv-x="475" 
d="M48 780h156l-4 -216h-148zM271 780h156l-4 -216h-148z" />
    <glyph glyph-name="numbersign" unicode="#" horiz-adv-x="802" 
d="M617 404l-25 -112h124l-31 -128h-123l-38 -164h-141l38 164h-128l-38 -164h-141l38 164h-121l31 128h120l25 112h-120l29 128h121l39 168h141l-39 -168h128l39 168h141l-39 -168h123l-29 -128h-124zM476 404h-128l-25 -112h128z" />
    <glyph glyph-name="dollar" unicode="$" horiz-adv-x="678" 
d="M642 226q0 -85 -53 -143.5t-145 -80.5v-92h-206v91q-105 23 -184 88l76 138q52 -38 102.5 -52.5t95.5 -14.5q51 0 76 10.5t25 35.5q0 28 -32 42t-86 28l-35 9q-52 14 -95 32t-74 43.5t-48 60.5t-17 83q0 88 52.5 149.5t143.5 84.5v92h206v-92q42 -10 83 -27.5t79 -45.5
l-89 -143q-44 29 -86 43.5t-90 14.5q-40 0 -63 -11t-23 -31q0 -26 31.5 -39.5t81.5 -26.5l34 -9q46 -12 89 -31.5t76.5 -48.5t54 -68t20.5 -89z" />
    <glyph glyph-name="percent" unicode="%" horiz-adv-x="956" 
d="M718 -10q-47 0 -85.5 12.5t-66 35.5t-42.5 55.5t-15 72.5t15 72.5t42.5 55.5t66 35.5t85.5 12.5t85.5 -12.5t65.5 -35.5t42 -55.5t15 -72.5t-15 -72.5t-42 -55.5t-65.5 -35.5t-85.5 -12.5zM220 52l409 698l102 -61l-409 -699zM239 398q-47 0 -85.5 12.5t-66 35.5
t-42.5 55.5t-15 72.5t15 72.5t42.5 55.5t66 35.5t85.5 12.5t85.5 -12.5t65.5 -35.5t42 -55.5t15 -72.5t-15 -72.5t-42 -55.5t-65.5 -35.5t-85.5 -12.5zM718 116q21 0 34.5 13.5t13.5 36.5t-13.5 36.5t-34.5 13.5q-23 0 -36.5 -13.5t-13.5 -36.5t13.5 -36.5t36.5 -13.5z
M240 524q21 0 34.5 13.5t13.5 36.5t-13.5 36.5t-34.5 13.5q-23 0 -36.5 -13.5t-13.5 -36.5t13.5 -36.5t36.5 -13.5z" />
    <glyph glyph-name="ampersand" unicode="&#x26;" horiz-adv-x="775" 
d="M654 161q41 0 81 17v-160q-35 -14 -73.5 -21t-73.5 -7q-48 0 -85.5 17.5t-62.5 49.5q-35 -32 -77.5 -49.5t-93.5 -17.5t-94 16t-73.5 44.5t-47.5 69t-17 89.5q0 64 32.5 113.5t91.5 78.5q-41 26 -63 64t-22 86q0 45 19 81.5t54 62.5t84 40.5t109 14.5q58 0 106 -15
t82 -42t52.5 -64.5t18.5 -83.5v-70h126v-156h-127v-94q0 -29 15 -46.5t39 -17.5zM319 161q35 0 58 20t23 74v64h-59q-45 0 -71 -22t-26 -58q0 -35 20.5 -56.5t54.5 -21.5zM342 579q-27 0 -43 -13.5t-16 -36.5q0 -24 16 -39t43 -15h59v51q0 24 -16.5 38.5t-42.5 14.5z" />
    <glyph glyph-name="quotesingle" unicode="'" horiz-adv-x="252" 
d="M48 780h156l-4 -216h-148z" />
    <glyph glyph-name="parenleft" unicode="(" horiz-adv-x="381" 
d="M182 -180q-21 33 -46.5 81t-48 109t-38 134.5t-15.5 155.5q0 83 15.5 156t38 134t48 109t46.5 81h186q-15 -26 -37 -70t-42 -105t-34.5 -137.5t-14.5 -167.5t14.5 -167.5t34.5 -137.5t42 -105t37 -70h-186z" />
    <glyph glyph-name="parenright" unicode=")" horiz-adv-x="381" 
d="M13 -180q15 26 37 70t42.5 105t35 137.5t14.5 167.5t-14.5 167.5t-35 137.5t-42.5 105t-37 70h186q21 -33 47 -81t48.5 -109t37.5 -134t15 -156q0 -82 -15 -155.5t-37.5 -134.5t-48.5 -109t-47 -81h-186z" />
    <glyph glyph-name="asterisk" unicode="*" horiz-adv-x="392" 
d="M290 560l43 -56l-97 -70l-40 59l-40 -59l-97 70l43 56l-67 19l37 114l66 -24l-2 71h120l-2 -71l66 24l37 -114z" />
    <glyph glyph-name="plus" unicode="+" horiz-adv-x="586" 
d="M551 272h-158v-168h-200v168h-158v164h158v168h200v-168h158v-164z" />
    <glyph glyph-name="comma" unicode="," horiz-adv-x="346" 
d="M75 177h228l-98 -322h-201z" />
    <glyph glyph-name="hyphen" unicode="-" horiz-adv-x="523" 
d="M54 363h415v-141h-415v141z" />
    <glyph glyph-name="period" unicode="." horiz-adv-x="317" 
d="M159 -10q-25 0 -48 10t-39.5 26.5t-26.5 39.5t-10 48q0 26 10 48t26.5 39t39.5 26.5t48 9.5q26 0 48 -9.5t39 -26.5t26.5 -39t9.5 -48q0 -25 -9.5 -48t-26.5 -39.5t-39 -26.5t-48 -10z" />
    <glyph glyph-name="slash" unicode="/" horiz-adv-x="502" 
d="M270 780h201l-239 -880h-201z" />
    <glyph glyph-name="zero" unicode="0" horiz-adv-x="684" 
d="M342 -10q-68 0 -123.5 27.5t-95.5 77t-61.5 120t-21.5 155.5q0 86 21.5 156t61.5 119.5t95.5 77t123.5 27.5t123.5 -27.5t95.5 -77t61.5 -119.5t21.5 -156q0 -85 -21.5 -155.5t-61.5 -120t-95.5 -77t-123.5 -27.5zM342 160q41 0 65 58t24 152q0 95 -24 152.5t-65 57.5
q-20 0 -36.5 -15t-28 -42.5t-18 -66.5t-6.5 -86t6.5 -86t18 -66.5t28 -42.5t36.5 -15z" />
    <glyph glyph-name="one" unicode="1" horiz-adv-x="482" 
d="M204 478l-104 -70l-101 145l254 187h157v-740h-206v478z" />
    <glyph glyph-name="two" unicode="2" horiz-adv-x="620" 
d="M37 129l234 255q8 8 22.5 25t29.5 38t26 43t11 40q0 21 -13 35.5t-34 14.5q-26 0 -42 -21t-16 -55l-209 19q0 51 19 93t53.5 72t82.5 46t107 16t107 -14.5t82 -41.5t52.5 -64.5t18.5 -83.5q0 -33 -9.5 -64t-29.5 -64t-50 -68.5t-71 -77.5l-104 -106l272 4v-170h-539v129z
" />
    <glyph glyph-name="three" unicode="3" horiz-adv-x="600" 
d="M376 467q86 -14 136.5 -74.5t50.5 -151.5q0 -57 -21 -103t-60.5 -79t-96 -51t-127.5 -18q-69 0 -133.5 17.5t-103.5 46.5l77 150q24 -19 61 -31.5t76 -12.5q56 0 86 22t30 57q0 36 -27 56.5t-73 20.5q-26 0 -47 -6t-41 -17l-55 103l144 174h-191v170h452v-127z" />
    <glyph glyph-name="four" unicode="4" horiz-adv-x="675" 
d="M339 126h-319v139l367 475h158v-444h93v-170h-93v-126h-206v126zM345 290l3 163l-130 -163h127z" />
    <glyph glyph-name="five" unicode="5" horiz-adv-x="614" 
d="M247 -10q-70 0 -130 16t-102 46l61 148q31 -20 70.5 -30t81.5 -10q62 0 99 26t37 70q0 29 -19.5 47t-51.5 18q-31 0 -53 -12t-27 -31l-137 19l51 443h410v-170h-234l-12 -82q3 1 12 2t27 1q53 0 98.5 -16t78.5 -44.5t51.5 -69t18.5 -90.5q0 -63 -24.5 -115t-68 -89
t-104 -57t-133.5 -20z" />
    <glyph glyph-name="six" unicode="6" horiz-adv-x="616" 
d="M357 458q46 0 88 -16t74.5 -45.5t51.5 -71t19 -92.5q0 -54 -20 -99t-56.5 -77t-87.5 -49.5t-113 -17.5q-63 0 -114 17.5t-87.5 49t-56.5 75.5t-20 98q0 39 7 72.5t20 65t32 62.5t43 65l185 245h230l-223 -282h28zM312 160q29 0 47 19.5t18 51.5t-18 52t-47 20t-47 -20
t-18 -52t18 -51.5t47 -19.5z" />
    <glyph glyph-name="seven" unicode="7" horiz-adv-x="570" 
d="M556 740l-235 -740h-217l189 570h-270v170h533z" />
    <glyph glyph-name="eight" unicode="8" horiz-adv-x="635" 
d="M489 386q51 -27 78.5 -70.5t27.5 -99.5q0 -51 -20 -92.5t-56.5 -71t-87.5 -46t-113 -16.5q-63 0 -114 16t-87.5 45.5t-56.5 70.5t-20 91q0 57 27.5 101t78.5 71q-41 26 -63.5 64.5t-22.5 87.5q0 48 18.5 87.5t52.5 67t81.5 43t105.5 15.5t105.5 -15t81 -43t52 -66.5
t18.5 -86.5q0 -49 -22.5 -88t-63.5 -65zM317 160q29 0 47 18.5t18 50.5q0 31 -18 50t-47 19t-47 -19t-18 -50q0 -32 18 -50.5t47 -18.5zM317 580q-20 0 -32.5 -15.5t-12.5 -40.5q0 -26 12.5 -41t32.5 -15t32.5 15t12.5 41q0 25 -12.5 40.5t-32.5 15.5z" />
    <glyph glyph-name="nine" unicode="9" horiz-adv-x="615" 
d="M302 750q63 0 114 -17t87.5 -48.5t56.5 -76t20 -98.5q0 -39 -7 -72.5t-20 -65t-32 -62.5t-43 -65l-185 -245h-230l223 282h-28q-46 0 -88 16t-74 45.5t-51.5 71t-19.5 92.5q0 54 20 99t56.5 77t87.5 49.5t113 17.5zM238 509q0 -32 18 -52t47 -20t47 20t18 52t-18 51.5
t-47 19.5t-47 -19.5t-18 -51.5z" />
    <glyph glyph-name="colon" unicode=":" horiz-adv-x="335" 
d="M168 -10q-25 0 -48 10t-39.5 26.5t-26.5 39.5t-10 48q0 26 10 48t26.5 39t39.5 26.5t48 9.5q26 0 48 -9.5t39 -26.5t26.5 -39t9.5 -48q0 -25 -9.5 -48t-26.5 -39.5t-39 -26.5t-48 -10zM168 313q-25 0 -48 10t-39.5 26.5t-26.5 39.5t-10 48q0 26 10 48t26.5 39t39.5 26.5
t48 9.5q26 0 48 -9.5t39 -26.5t26.5 -39t9.5 -48q0 -25 -9.5 -48t-26.5 -39.5t-39 -26.5t-48 -10z" />
    <glyph glyph-name="semicolon" unicode=";" horiz-adv-x="350" 
d="M73 177h228l-98 -322h-201zM183 313q-25 0 -48 10t-39.5 26.5t-26.5 39.5t-10 48q0 26 10 48t26.5 39t39.5 26.5t48 9.5q26 0 48 -9.5t39 -26.5t26.5 -39t9.5 -48q0 -25 -9.5 -48t-26.5 -39.5t-39 -26.5t-48 -10z" />
    <glyph glyph-name="less" unicode="&#x3c;" horiz-adv-x="623" 
d="M556 449l-275 -99l275 -99v-186l-522 220v130l522 220v-186z" />
    <glyph glyph-name="equal" unicode="=" horiz-adv-x="630" 
d="M57 331h516v-164h-516v164zM57 541h516v-164h-516v164z" />
    <glyph glyph-name="greater" unicode="&#x3e;" horiz-adv-x="623" 
d="M589 415v-130l-522 -220v186l275 99l-275 99v186z" />
    <glyph glyph-name="question" unicode="?" horiz-adv-x="579" 
d="M286 -10q-50 0 -82 32t-32 82t32 81.5t82 31.5t81.5 -31.5t31.5 -81.5t-31.5 -82t-81.5 -32zM201 270q0 41 8.5 72t22 54.5t29.5 41.5t31 32q18 17 30 32.5t12 29.5q0 22 -15 35t-39 13q-23 0 -39 -13t-21 -35l-190 9q3 47 22.5 85.5t52 66t77 42.5t98.5 15q60 0 109 -15
t84 -42t54 -65t19 -85q0 -28 -8 -50t-21 -40t-29.5 -33t-33.5 -30q-32 -27 -57.5 -55t-25.5 -65h-170z" />
    <glyph glyph-name="at" unicode="@" horiz-adv-x="1181" 
d="M836 488v-246q0 -17 11 -28t28 -11q16 0 28.5 10.5t21 28t13 40t4.5 47.5q0 59 -23.5 105t-66.5 78t-103 49t-133 17q-85 0 -154 -23t-118 -65t-75 -100.5t-26 -130.5t25.5 -130.5t73.5 -100t117 -64.5t156 -23q27 0 62.5 2t72.5 6t74 10t67 13l57 -156
q-36 -11 -80 -19.5t-89.5 -14.5t-90 -9t-83.5 -3q-130 0 -235 35.5t-179 100t-114.5 155t-40.5 200.5q0 111 41 201t117 154t183 98.5t239 34.5q119 0 215.5 -28t165.5 -80.5t106.5 -128t37.5 -169.5q0 -67 -18.5 -124t-53 -98.5t-83 -65t-107.5 -23.5t-104.5 22.5
t-72.5 64.5q-25 -40 -64.5 -63t-93.5 -23q-45 0 -84.5 16.5t-69.5 46.5t-47 72.5t-17 94.5q0 53 17.5 95.5t46.5 73.5t67.5 47.5t80.5 16.5q64 0 104 -40l2 32h192zM584 204q24 0 38 17t14 43q0 28 -14 44.5t-38 16.5q-23 0 -37 -16.5t-14 -44.5q0 -26 14 -43t37 -17z" />
    <glyph glyph-name="A" unicode="A" horiz-adv-x="789" 
d="M538 101h-288l-38 -101h-220l307 740h191l306 -740h-220zM474 271l-79 212l-80 -212h159z" />
    <glyph glyph-name="B" unicode="B" horiz-adv-x="732" 
d="M574 397q60 -24 94 -68.5t34 -104.5q0 -50 -20 -91.5t-56 -71t-87 -45.5t-114 -16h-350v740h358q50 0 91.5 -14.5t71 -40.5t45.5 -63.5t16 -82.5q0 -43 -21.5 -79t-61.5 -63zM415 170q34 0 54.5 17t20.5 46q0 28 -20.5 45t-52.5 17h-136v-125h134zM281 465h101
q29 0 46 14.5t17 38.5q0 23 -16 37.5t-42 14.5h-106v-105z" />
    <glyph glyph-name="C" unicode="C" horiz-adv-x="779" 
d="M446 -10q-92 0 -168 27.5t-130 78t-84 121t-30 156.5q0 85 29.5 154.5t83.5 119t129.5 76.5t167.5 27q91 0 168.5 -27.5t135.5 -90.5l-129 -132q-25 37 -71 58.5t-103 21.5q-45 0 -81.5 -15t-62.5 -42.5t-40 -66t-14 -85.5q0 -48 14.5 -86.5t41.5 -66.5t64.5 -43
t83.5 -15q68 0 110.5 28t74.5 79l138 -124q-58 -78 -140 -115.5t-188 -37.5z" />
    <glyph glyph-name="D" unicode="D" horiz-adv-x="811" 
d="M406 740q83 0 151.5 -26.5t117 -74.5t75 -116t26.5 -151q0 -84 -26.5 -152.5t-75 -117t-117 -75.5t-151.5 -27h-331v740h331zM411 170q34 0 62 14.5t48 41t31 64t11 82.5t-11 81.5t-31 62.5t-48 40t-62 14h-130v-400h130z" />
    <glyph glyph-name="E" unicode="E" horiz-adv-x="676" 
d="M631 170v-170h-556v740h549v-170h-343v-112h305v-170h-305v-118h350z" />
    <glyph glyph-name="F" unicode="F" horiz-adv-x="622" 
d="M281 570v-132h255v-170h-255v-268h-206v740h516v-170h-310z" />
    <glyph glyph-name="G" unicode="G" horiz-adv-x="836" 
d="M812 441q3 -36 3 -71q0 -84 -27 -154t-76.5 -120t-120 -78t-157.5 -28q-90 0 -163.5 27.5t-126 77t-81.5 120t-29 155.5q0 86 28.5 156t80.5 119.5t126 77t165 27.5q86 0 157 -23t120 -64l-135 -128q-19 21 -53.5 33t-85.5 12q-43 0 -78 -15t-60 -42.5t-38.5 -66.5
t-13.5 -86t13.5 -86t38 -66.5t59.5 -42.5t77 -15q65 0 107 30t55 81h-145v170h360z" />
    <glyph glyph-name="H" unicode="H" horiz-adv-x="896" 
d="M821 740v-740h-206v293h-334v-293h-206v740h206v-277h334v277h206z" />
    <glyph glyph-name="I" unicode="I" horiz-adv-x="356" 
d="M75 740h206v-740h-206v740z" />
    <glyph glyph-name="J" unicode="J" horiz-adv-x="446" 
d="M157 -10q-52 0 -90.5 16.5t-67.5 48.5l54 137q15 -17 30 -24.5t32 -7.5q26 0 40 14.5t14 37.5v528h206v-564q0 -42 -16.5 -76.5t-45.5 -58.5t-69 -37.5t-87 -13.5z" />
    <glyph glyph-name="K" unicode="K" horiz-adv-x="735" 
d="M282 292h-1v-292h-206v740h206v-273l208 273h246l-283 -360l300 -380h-246z" />
    <glyph glyph-name="L" unicode="L" horiz-adv-x="601" 
d="M585 170v-170h-510v740h206v-570h304z" />
    <glyph glyph-name="M" unicode="M" horiz-adv-x="1012" 
d="M756 0l-23 397l-173 -397h-108l-172 395l-24 -395h-206l55 740h231l170 -398l170 398h231l55 -740h-206z" />
    <glyph glyph-name="N" unicode="N" horiz-adv-x="896" 
d="M75 740h127l418 -393l-5 393h206v-740h-126l-418 393l4 -393h-206v740z" />
    <glyph glyph-name="O" unicode="O" horiz-adv-x="882" 
d="M442 -10q-92 0 -167 27.5t-128.5 77t-83 120t-29.5 155.5q0 86 29.5 156t83 119.5t128.5 77t167 27.5q91 0 166 -27.5t128 -77t82.5 -119.5t29.5 -156q0 -85 -29.5 -155.5t-82.5 -120t-128 -77t-166 -27.5zM442 160q44 0 79.5 15t61 42.5t39.5 66.5t14 86t-14 86
t-39.5 66.5t-61 42.5t-79.5 15t-80 -15t-61.5 -42.5t-39.5 -66.5t-14 -86t14 -86t39.5 -66.5t61.5 -42.5t80 -15z" />
    <glyph glyph-name="P" unicode="P" horiz-adv-x="704" 
d="M406 740q62 0 113 -18t87 -51.5t56 -80t20 -103.5q0 -60 -20.5 -109t-58 -84.5t-90.5 -54.5t-118 -19h-114v-220h-206v740h331zM385 390q42 0 63.5 24.5t21.5 65.5t-23 65.5t-62 24.5h-104v-180h104z" />
    <glyph glyph-name="Q" unicode="Q" horiz-adv-x="882" 
d="M634 0l-16 21q-81 -31 -176 -31q-92 0 -167 27.5t-128.5 77t-83 120t-29.5 155.5q0 86 29.5 156t83 119.5t128.5 77t167 27.5q91 0 166 -27.5t128 -77t82.5 -119.5t29.5 -156q0 -72 -20 -131.5t-58 -107.5l107 -131h-243zM442 160q33 0 61 9l-103 132h227q9 32 9 69
q0 47 -14 86t-39.5 66.5t-61 42.5t-79.5 15t-80 -15t-61.5 -42.5t-39.5 -66.5t-14 -86t14 -86t39.5 -66.5t61.5 -42.5t80 -15z" />
    <glyph glyph-name="R" unicode="R" horiz-adv-x="763" 
d="M371 242h-90v-242h-206v740h347q61 0 110.5 -18t85 -50.5t55 -78.5t19.5 -102q0 -68 -31 -121t-88 -85l183 -285h-241zM281 412h99q45 0 72.5 22t27.5 57t-21.5 57t-58.5 22h-119v-158z" />
    <glyph glyph-name="S" unicode="S" horiz-adv-x="674" 
d="M338 -10q-82 0 -154.5 25.5t-130.5 73.5l76 138q52 -38 102.5 -52.5t95.5 -14.5q51 0 76 10.5t25 35.5q0 28 -32 42t-86 28l-35 9q-52 14 -95 32t-74 43.5t-48 60.5t-17 83q0 55 21 100.5t60 77.5t93.5 50t121.5 18t136 -20t132 -65l-89 -143q-44 29 -86 43.5t-90 14.5
q-40 0 -63 -11t-23 -31q0 -26 31.5 -39.5t81.5 -26.5l34 -9q46 -12 89 -31.5t76.5 -48.5t54 -68t20.5 -89q0 -53 -22 -96.5t-61.5 -74.5t-95.5 -48t-124 -17z" />
    <glyph glyph-name="T" unicode="T" horiz-adv-x="664" 
d="M648 570h-213v-570h-206v570h-213v170h632v-170z" />
    <glyph glyph-name="U" unicode="U" horiz-adv-x="821" 
d="M412 -10q-78 0 -141.5 22t-108.5 62t-70 96.5t-25 125.5v444h206v-435q0 -66 38 -105.5t101 -39.5q61 0 98.5 39.5t37.5 105.5v435h206v-444q0 -69 -24.5 -125.5t-69.5 -96.5t-108 -62t-140 -22z" />
    <glyph glyph-name="V" unicode="V" horiz-adv-x="789" 
d="M-8 740h220l183 -481l181 481h220l-306 -740h-191z" />
    <glyph glyph-name="W" unicode="W" horiz-adv-x="1165" 
d="M1171 740l-246 -740h-191l-152 455l-151 -455h-191l-247 740h220l133 -464l141 464h190l142 -464l132 464h220z" />
    <glyph glyph-name="X" unicode="X" horiz-adv-x="731" 
d="M505 0l-139 217l-139 -217h-237l262 384l-247 356h237l123 -191l123 191h237l-247 -355l264 -385h-237z" />
    <glyph glyph-name="Y" unicode="Y" horiz-adv-x="726" 
d="M721 740l-255 -494v-246h-206v246l-255 494h219l140 -312l139 312h218z" />
    <glyph glyph-name="Z" unicode="Z" horiz-adv-x="707" 
d="M671 170v-170h-634v127l338 443h-332v170h618v-126l-338 -444h348z" />
    <glyph glyph-name="bracketleft" unicode="[" horiz-adv-x="429" 
d="M67 780h330v-171h-122v-618h122v-171h-330v960z" />
    <glyph glyph-name="backslash" unicode="\" horiz-adv-x="502" 
d="M31 780h201l239 -880h-201z" />
    <glyph glyph-name="bracketright" unicode="]" horiz-adv-x="429" 
d="M32 -9h122v618h-122v171h330v-960h-330v171z" />
    <glyph glyph-name="asciicircum" unicode="^" horiz-adv-x="614" 
d="M387 300l-80 159l-80 -159h-192l176 350h192l176 -350h-192z" />
    <glyph glyph-name="underscore" unicode="_" horiz-adv-x="656" 
d="M25 0h606v-141h-606v141z" />
    <glyph glyph-name="grave" unicode="`" horiz-adv-x="600" 
d="M-34 790h229l141 -173h-168z" />
    <glyph glyph-name="a" unicode="a" horiz-adv-x="599" 
d="M300 560q56 0 101.5 -15.5t78.5 -43.5t51 -67.5t18 -88.5v-345h-193l-2 49q-26 -29 -60.5 -44t-72.5 -15q-45 0 -81.5 13t-62.5 36.5t-40.5 57t-14.5 74.5t17.5 75t49 58t76.5 37t99 13q20 0 40.5 -1.5t42.5 -5.5q-10 57 -100 57q-60 0 -107 -28l-84 117
q51 34 108.5 50.5t135.5 16.5zM279 131q31 0 50 22t20 61q-16 2 -30.5 3.5t-28.5 1.5q-28 0 -44.5 -12t-16.5 -32t11 -32t39 -12z" />
    <glyph glyph-name="b" unicode="b" 
d="M403 560q54 0 101.5 -21t83 -58.5t56.5 -90.5t21 -118q0 -64 -21 -116t-56.5 -89t-83 -57t-101.5 -20q-97 0 -152 66l-2 -56h-193v780h200v-281q27 29 63.5 45t83.5 16zM358 161q45 0 73 31t28 82q0 52 -28 83.5t-73 31.5q-46 0 -74 -31.5t-28 -82.5q0 -52 28 -83t74 -31
z" />
    <glyph glyph-name="c" unicode="c" horiz-adv-x="560" 
d="M335 -10q-69 0 -125.5 20.5t-96.5 58t-62 90t-22 116.5t22 116.5t62.5 90t97.5 58t127 20.5q57 0 107.5 -18.5t89.5 -48.5l-112 -135q-14 14 -33.5 22.5t-47.5 8.5q-48 0 -77 -31t-29 -83q0 -51 28.5 -82.5t77.5 -31.5q66 0 99 40l113 -132q-42 -41 -98 -60t-121 -19z
" />
    <glyph glyph-name="d" unicode="d" 
d="M639 780v-780h-192l-3 56q-27 -32 -65 -49t-87 -17q-54 0 -101.5 20t-83 57t-56.5 89t-21 116q0 65 21 118t56.5 90.5t83 58.5t101.5 21q47 0 83.5 -16t63.5 -45v281h200zM337 161q46 0 74 31t28 83q0 51 -28 82.5t-74 31.5q-45 0 -73 -31.5t-28 -83.5q0 -51 28 -82
t73 -31z" />
    <glyph glyph-name="e" unicode="e" horiz-adv-x="636" 
d="M606 284q0 -20 -1.5 -41t-3.5 -38h-358q7 -28 25.5 -43.5t56.5 -15.5q57 0 92 38l155 -75q-34 -52 -97.5 -85.5t-146.5 -33.5q-67 0 -122 20t-94 56t-60.5 87t-21.5 114q0 66 20.5 120t58.5 92.5t91 59.5t118 21t118 -20t91 -56t58.5 -87t20.5 -113zM318 404
q-32 0 -49.5 -17t-25.5 -49h153q-8 33 -26.5 49.5t-51.5 16.5z" />
    <glyph glyph-name="f" unicode="f" horiz-adv-x="437" 
d="M375 619q-28 0 -45 -14t-17 -37v-18h105v-163h-105v-387h-200v387h-83v163h83v49q0 43 14 78.5t39.5 60.5t61.5 38.5t79 13.5q35 0 70 -5.5t61 -17.5l-13 -154q-13 4 -24.5 5t-25.5 1z" />
    <glyph glyph-name="g" unicode="g" 
d="M640 550v-487q0 -66 -25 -120.5t-70.5 -92.5t-109.5 -59t-143 -21q-74 0 -137.5 17t-109.5 50l43 156q48 -32 98 -42t101 -10q66 0 106.5 29.5t45.5 79.5q-26 -29 -62.5 -44.5t-83.5 -15.5q-54 0 -101.5 21t-83 58.5t-56.5 91t-21 117.5t21 116t56.5 89t83 57t101.5 20
q49 0 87 -17t65 -49l3 56h192zM338 161q46 0 74 31.5t28 82.5q0 52 -28 83t-74 31q-45 0 -73 -31t-28 -82q0 -52 28 -83.5t73 -31.5z" />
    <glyph glyph-name="h" unicode="h" horiz-adv-x="674" 
d="M412 560q48 0 87 -15.5t66.5 -44t43 -68t15.5 -88.5v-344h-200v315q0 34 -23 54t-61 20t-61 -20t-23 -54v-315h-200v780h200v-280q32 31 73 45.5t83 14.5z" />
    <glyph glyph-name="i" unicode="i" horiz-adv-x="312" 
d="M56 550h200v-550h-200v550zM157 591q-50 0 -82 31.5t-32 81.5t32 82t82 32t81.5 -32t31.5 -82t-31.5 -81.5t-81.5 -31.5z" />
    <glyph glyph-name="j" unicode="j" horiz-adv-x="316" 
d="M67 -230q-33 0 -65 4.5t-55 13.5l13 157q20 -4 44 -4q25 0 40.5 16.5t15.5 45.5v547h200v-594q0 -42 -14 -76.5t-39 -58.5t-60.5 -37.5t-79.5 -13.5zM158 591q-50 0 -82 31.5t-32 81.5t32 82t82 32t81.5 -32t31.5 -82t-31.5 -81.5t-81.5 -31.5z" />
    <glyph glyph-name="k" unicode="k" horiz-adv-x="643" 
d="M410 0l-154 187v-187h-200v780h200v-392l141 162h252l-243 -260l256 -290h-252z" />
    <glyph glyph-name="l" unicode="l" horiz-adv-x="312" 
d="M56 780h200v-780h-200v780z" />
    <glyph glyph-name="m" unicode="m" horiz-adv-x="990" 
d="M712 560q51 0 93 -15.5t72 -44t46.5 -68t16.5 -88.5v-344h-200v315q0 34 -19.5 54t-51.5 20t-51.5 -20t-19.5 -54v-315h-200v315q0 34 -19.5 54t-51.5 20t-51.5 -20t-19.5 -54v-315h-200v550h193l2 -49q31 30 69.5 44.5t78.5 14.5q47 0 84.5 -16.5t63.5 -47.5
q33 34 76.5 49t88.5 15z" />
    <glyph glyph-name="n" unicode="n" horiz-adv-x="674" 
d="M412 560q48 0 87 -15.5t66.5 -44t43 -68t15.5 -88.5v-344h-200v315q0 34 -23 54t-61 20t-61 -20t-23 -54v-315h-200v550h193l2 -54q33 33 75.5 48.5t85.5 15.5z" />
    <glyph glyph-name="o" unicode="o" horiz-adv-x="672" 
d="M337 -10q-69 0 -126 20.5t-97.5 58t-62.5 90t-22 116.5t22 116.5t62.5 90t97.5 58t126 20.5t125 -20.5t96.5 -58t62.5 -90t22 -116.5t-22 -116.5t-62.5 -90t-96.5 -58t-125 -20.5zM336 161q45 0 72.5 31.5t27.5 82.5q0 52 -27.5 83t-72.5 31t-73 -31t-28 -83
q0 -51 28 -82.5t73 -31.5z" />
    <glyph glyph-name="p" unicode="p" 
d="M403 560q54 0 101.5 -20t83 -57t56.5 -89t21 -116t-21 -117.5t-56.5 -91t-83 -58.5t-101.5 -21q-47 0 -83.5 16t-63.5 45v-271h-200v770h193l2 -56q55 66 152 66zM358 161q45 0 73 31.5t28 83.5q0 51 -28 82t-73 31q-46 0 -74 -31t-28 -83q0 -51 28 -82.5t74 -31.5z" />
    <glyph glyph-name="q" unicode="q" 
d="M639 550v-770h-200v271q-27 -29 -63.5 -45t-83.5 -16q-54 0 -101.5 21t-83 58.5t-56.5 91t-21 117.5t21 116t56.5 89t83 57t101.5 20q49 0 87 -17t65 -49l3 56h192zM337 161q46 0 74 31.5t28 82.5q0 52 -28 83t-74 31q-45 0 -73 -31t-28 -82q0 -52 28 -83.5t73 -31.5z
" />
    <glyph glyph-name="r" unicode="r" horiz-adv-x="445" 
d="M252 489q34 33 81.5 52t104.5 19l-13 -184q-36 0 -67 -7.5t-53.5 -21.5t-35.5 -33t-13 -42v-272h-200v550h193z" />
    <glyph glyph-name="s" unicode="s" horiz-adv-x="547" 
d="M264 -10q-68 0 -125.5 17.5t-102.5 54.5l74 120q43 -21 81 -29t76 -8q19 0 31 4t12 14q0 12 -19.5 19t-53.5 15l-33 8q-37 9 -67.5 21t-52.5 30t-34 42.5t-12 58.5q0 46 17 83.5t48 64t75 41t98 14.5q69 0 127 -15.5t100 -44.5l-83 -129q-64 33 -131 33q-22 0 -35 -3.5
t-13 -11.5q0 -10 17.5 -16.5t45.5 -13.5l32 -8q39 -10 72 -24t56 -34.5t36 -48.5t13 -67q0 -42 -18 -76.5t-51 -59t-78.5 -38t-101.5 -13.5z" />
    <glyph glyph-name="t" unicode="t" horiz-adv-x="473" 
d="M359 161q41 0 81 17v-160q-35 -14 -73.5 -21t-73.5 -7q-42 0 -76.5 14t-59.5 39t-38.5 61t-13.5 79v204h-86v163h86v161h200v-161h127v-163h-127v-162q0 -29 15 -46.5t39 -17.5z" />
    <glyph glyph-name="u" unicode="u" horiz-adv-x="647" 
d="M591 550v-550h-192l-3 51q-30 -32 -69 -46.5t-78 -14.5q-45 0 -81.5 15.5t-62.5 43.5t-40.5 68t-14.5 89v344h200v-315q0 -33 19.5 -53.5t51.5 -20.5t51 20.5t19 53.5v315h200z" />
    <glyph glyph-name="v" unicode="v" horiz-adv-x="638" 
d="M0 550h218l101 -324l101 324h218l-219 -550h-199z" />
    <glyph glyph-name="w" unicode="w" horiz-adv-x="921" 
d="M922 550l-190 -550h-199l-72 268l-73 -268h-199l-190 550h218l86 -324l77 324h161l77 -324l86 324h218z" />
    <glyph glyph-name="x" unicode="x" horiz-adv-x="622" 
d="M390 0l-78 122l-79 -122h-237l198 281l-186 269h238l65 -104l66 104h237l-185 -268l198 -282h-237z" />
    <glyph glyph-name="y" unicode="y" horiz-adv-x="637" 
d="M171 -230q-58 0 -96 19l20 161q18 -9 43 -9q31 0 47.5 17t32.5 46l7 13l-224 533h218l108 -318l94 318h218l-226 -571q-19 -49 -41 -87.5t-50.5 -65.5t-65 -41.5t-85.5 -14.5z" />
    <glyph glyph-name="z" unicode="z" horiz-adv-x="581" 
d="M39 128l212 259h-207v163h491l1 -127l-212 -259h220v-164h-505v128z" />
    <glyph glyph-name="braceleft" unicode="{" horiz-adv-x="446" 
d="M289 -190q-87 0 -138.5 48t-51.5 128v184q0 21 -18.5 33t-48.5 12h-4v170h4q30 0 48.5 12.5t18.5 32.5v184q0 80 51.5 128t138.5 48q39 0 68.5 -3.5t57.5 -9.5v-160q-16 3 -44 3q-30 0 -48 -18.5t-18 -49.5v-146q0 -38 -25 -67t-67 -39q42 -10 67 -38.5t25 -66.5v-147
q0 -31 18 -49.5t48 -18.5q28 0 44 3v-160q-28 -6 -57.5 -9.5t-68.5 -3.5z" />
    <glyph glyph-name="bar" unicode="|" horiz-adv-x="340" 
d="M67 780h206v-1000h-206v1000z" />
    <glyph glyph-name="braceright" unicode="}" horiz-adv-x="446" 
d="M157 -190q-39 0 -68.5 3.5t-57.5 9.5v160q17 -3 44 -3q30 0 48 18.5t18 49.5v147q0 38 25 66.5t67 38.5q-42 10 -67 39t-25 67v146q0 31 -18 49.5t-48 18.5q-27 0 -44 -3v160q28 6 57.5 9.5t68.5 3.5q87 0 138.5 -48t51.5 -128v-184q0 -20 18.5 -32.5t48.5 -12.5h4v-170
h-4q-30 0 -48.5 -12t-18.5 -33v-184q0 -80 -51.5 -128t-138.5 -48z" />
    <glyph glyph-name="asciitilde" unicode="~" horiz-adv-x="624" 
d="M421 205q-30 0 -60.5 6.5t-58.5 14.5t-52 14.5t-40 6.5q-48 0 -48 -32h-104q0 78 40 124.5t108 46.5q31 0 61.5 -6t58 -13.5t51 -14t40.5 -6.5q23 0 35.5 6.5t12.5 23.5h104q0 -83 -40 -127t-108 -44z" />
    <glyph glyph-name="uni00A0" unicode="&#xa0;" horiz-adv-x="229" 
 />
    <glyph glyph-name="exclamdown" unicode="&#xa1;" horiz-adv-x="309" 
d="M70 281h170l18 -501h-207zM155 333q-50 0 -82 32t-32 82t32 81.5t82 31.5t81.5 -31.5t31.5 -81.5t-31.5 -82t-81.5 -32z" />
    <glyph glyph-name="cent" unicode="&#xa2;" horiz-adv-x="598" 
d="M565 119q-24 -24 -53.5 -40t-63.5 -26v-93h-186v89q-51 11 -92 35.5t-70 60t-44.5 81t-15.5 99.5q0 108 59.5 180.5t162.5 95.5v89h186v-96q56 -18 98 -51l-112 -135q-14 14 -33.5 22.5t-47.5 8.5q-48 0 -77 -31t-29 -83q0 -51 28.5 -82.5t77.5 -31.5q66 0 99 40z" />
    <glyph glyph-name="sterling" unicode="&#xa3;" horiz-adv-x="655" 
d="M612 163v-163h-567v160h72v115h-62v163h62v110q0 45 17.5 82.5t50 64t77.5 41t100 14.5t100 -14.5t77 -41.5t49.5 -65t17.5 -84l-202 -13q0 22 -11.5 35t-30.5 13q-17 0 -28 -10t-11 -28v-104h242v-163h-242v-112h289z" />
    <glyph glyph-name="currency" unicode="&#xa4;" horiz-adv-x="673" 
d="M575 344q0 -51 -20 -97l77 -78l-120 -120l-78 77q-46 -20 -98 -20q-51 0 -96 20l-79 -78l-120 120l76 77q-10 23 -15.5 48t-5.5 51t5.5 51t15.5 48l-76 76l120 121l79 -79q48 19 96 19q52 0 97 -20l79 78l120 -120l-77 -77q20 -46 20 -97zM336 253q35 0 58.5 26.5
t23.5 64.5t-23.5 65t-58.5 27q-34 0 -58.5 -27t-24.5 -65t24.5 -64.5t58.5 -26.5z" />
    <glyph glyph-name="yen" unicode="&#xa5;" horiz-adv-x="768" 
d="M552 372h72v-125h-136l-1 -1v-35h137v-125h-137v-86h-206v86h-137v125h137v35l-1 1h-136v125h72l-190 368h219l140 -312l139 312h218z" />
    <glyph glyph-name="brokenbar" unicode="&#xa6;" horiz-adv-x="340" 
d="M67 780h206v-400h-206v400zM67 180h206v-400h-206v400z" />
    <glyph glyph-name="section" unicode="&#xa7;" horiz-adv-x="644" 
d="M603 266q0 -81 -45 -138q21 -24 33 -54t12 -68q0 -53 -20.5 -96.5t-57 -74.5t-88.5 -48t-115 -17q-76 0 -143 25.5t-122 73.5l75 138q49 -38 94.5 -52.5t84.5 -14.5q42 0 60.5 10.5t18.5 34.5q0 27 -25.5 40t-70.5 27l-30 9q-49 15 -89.5 33.5t-69 44.5t-44.5 61.5
t-16 83.5q0 42 11.5 77.5t31.5 64.5q-20 23 -31.5 51.5t-11.5 66.5q0 55 20 100.5t56 77.5t86.5 50t112.5 18q60 0 124.5 -20t124.5 -65l-88 -143q-41 29 -78.5 43.5t-78.5 14.5q-31 0 -48.5 -11t-17.5 -31q0 -26 26.5 -39t71.5 -27l28 -9q42 -13 81.5 -33t70 -48.5t49 -67
t18.5 -88.5zM243 318q0 -33 31 -48.5t82 -32.5l28 -9q4 -2 7.5 -2.5t7.5 -2.5q6 9 6 23q0 32 -30 49t-81 32l-30 9q-4 1 -7 2t-7 2q-7 -10 -7 -22z" />
    <glyph glyph-name="dieresis" unicode="&#xa8;" horiz-adv-x="600" 
d="M151 591q-51 0 -82.5 31t-31.5 82t31.5 82.5t82.5 31.5t82 -31.5t31 -82.5t-31 -82t-82 -31zM438 591q-51 0 -82.5 31t-31.5 82t31.5 82.5t82.5 31.5t82 -31.5t31 -82.5t-31 -82t-82 -31z" />
    <glyph glyph-name="copyright" unicode="&#xa9;" horiz-adv-x="879" 
d="M449 158q-52 0 -94.5 15.5t-73 43t-47.5 66.5t-17 86t16.5 85t46.5 65t72.5 42t94.5 15q51 0 95 -14.5t76 -50.5l-83 -84q-11 20 -34.5 30.5t-52.5 10.5q-44 0 -70 -28t-26 -73q0 -46 27.5 -73.5t72.5 -27.5q35 0 56 14t38 42l88 -80q-33 -45 -79 -64.5t-106 -19.5z
M440 -10q-91 0 -165 27.5t-126.5 77t-81.5 120t-29 155.5q0 86 29 156t81.5 119.5t126.5 77t165 27.5q90 0 164 -27.5t126.5 -77t81.5 -119.5t29 -156q0 -85 -29 -155.5t-81.5 -120t-126.5 -77t-164 -27.5zM440 75q66 0 120 21t93 60t60.5 93.5t21.5 120.5t-21.5 120.5
t-60.5 93.5t-93 60.5t-120 21.5t-120.5 -21.5t-93.5 -60.5t-60.5 -93.5t-21.5 -120.5t21.5 -120.5t60.5 -93.5t93.5 -60t120.5 -21z" />
    <glyph glyph-name="ordfeminine" unicode="&#xaa;" horiz-adv-x="404" 
d="M201 750q67 0 108 -34.5t41 -93.5v-207h-116l-1 29q-15 -17 -35.5 -26t-43.5 -9q-54 0 -87 29.5t-33 78.5q0 51 40 81t106 30q11 0 23.5 -1t25.5 -3q-6 33 -59 33q-18 0 -34 -3.5t-30 -13.5l-52 71q31 20 65.5 29.5t81.5 9.5zM189 494q18 0 29 13t12 36q-19 3 -35 3
q-17 0 -27 -7t-10 -19t7 -19t24 -7z" />
    <glyph glyph-name="guillemotleft" unicode="&#xab;" horiz-adv-x="758" 
d="M245 270l177 -235h-212l-184 235l184 235h212zM551 270l177 -235h-212l-184 235l184 235h212z" />
    <glyph glyph-name="logicalnot" unicode="&#xac;" horiz-adv-x="623" 
d="M561 150h-200v177h-316v163h516v-340z" />
    <glyph glyph-name="uni00AD" unicode="&#xad;" horiz-adv-x="523" 
d="M54 363h415v-141h-415v141z" />
    <glyph glyph-name="registered" unicode="&#xae;" horiz-adv-x="403" 
d="M203 790q72 0 116.5 -42.5t44.5 -113.5t-44.5 -114t-116.5 -43q-75 0 -119.5 43t-44.5 114t44.5 113.5t119.5 42.5zM268 660q0 -32 -28 -46l39 -62h-50l-32 54h-20v-54h-45v163h76q28 0 44 -15t16 -40zM177 642h22q23 0 23 18q0 17 -19 17h-26v-35zM203 507q56 0 90 34.5
t34 92.5t-34 92.5t-90 34.5q-57 0 -92 -34.5t-35 -92.5t35 -92.5t92 -34.5z" />
    <glyph glyph-name="macron" unicode="&#xaf;" horiz-adv-x="600" 
d="M20 757h400v-156h-400v156z" />
    <glyph glyph-name="degree" unicode="&#xb0;" horiz-adv-x="365" 
d="M183 519q-69 0 -111.5 37t-42.5 99q0 61 42.5 98t111.5 37t111 -37t42 -98q0 -62 -42 -99t-111 -37zM183 617q15 0 24.5 10.5t9.5 27.5t-9.5 27.5t-24.5 10.5q-16 0 -25.5 -10.5t-9.5 -27.5t9.5 -27.5t25.5 -10.5z" />
    <glyph glyph-name="plusminus" unicode="&#xb1;" horiz-adv-x="635" 
d="M54 155h527v-164h-527v164zM581 534v-163h-163v-169h-201v169h-163v163h163v168h201v-168h163z" />
    <glyph glyph-name="twosuperior" unicode="&#xb2;" horiz-adv-x="380" 
d="M26 474l140 152q5 5 14 15.5t18 23t15.5 26t6.5 24.5q0 13 -7.5 21.5t-20.5 8.5q-17 0 -26 -13t-9 -33l-125 11q0 62 43 99t114 37t113 -34t42 -89q0 -39 -22.5 -76t-73.5 -88l-62 -63l164 1v-101h-324v78z" />
    <glyph glyph-name="threesuperior" unicode="&#xb3;" horiz-adv-x="367" 
d="M228 677q52 -9 82.5 -45.5t30.5 -91.5q0 -68 -49 -109t-135 -41q-41 0 -80 10.5t-62 27.5l46 90q14 -11 36.5 -19t45.5 -8q34 0 51.5 14t17.5 35t-16 33.5t-43 12.5q-29 0 -52 -15l-34 63l88 105h-116v101h272v-76z" />
    <glyph glyph-name="acute" unicode="&#xb4;" horiz-adv-x="600" 
d="M229 790h229l-202 -173h-168z" />
    <glyph glyph-name="paragraph" unicode="&#xb6;" horiz-adv-x="681" 
d="M597 -220h-146v819h-65v-819h-146v590h-66q-33 0 -59.5 13.5t-45.5 38t-29.5 59t-10.5 76.5q0 41 12.5 75t35.5 58t55 37t71 13h394v-960z" />
    <glyph glyph-name="periodcentered" unicode="&#xb7;" horiz-adv-x="324" 
d="M162 170q-25 0 -48 10t-39.5 26.5t-26.5 39.5t-10 48q0 26 10 48t26.5 39t39.5 26.5t48 9.5q26 0 48 -9.5t39 -26.5t26.5 -39t9.5 -48q0 -25 -9.5 -48t-26.5 -39.5t-39 -26.5t-48 -10z" />
    <glyph glyph-name="cedilla" unicode="&#xb8;" horiz-adv-x="600" 
d="M173 -45q41 -6 64.5 -29t23.5 -58q0 -44 -38 -71t-104 -27q-30 0 -58.5 6.5t-45.5 15.5l33 68q9 -5 22.5 -9t27.5 -4q17 0 26 6t9 14q0 16 -28 16q-14 0 -28 -7l-24 42l40 82h107z" />
    <glyph glyph-name="onesuperior" unicode="&#xb9;" horiz-adv-x="293" 
d="M122 684l-62 -43l-61 87l152 112h95v-444h-124v288z" />
    <glyph glyph-name="ordmasculine" unicode="&#xba;" horiz-adv-x="430" 
d="M216 409q-42 0 -76 12t-58 34.5t-37.5 54t-13.5 70.5t13.5 70t37.5 53.5t58 34.5t76 12q83 0 133 -46t50 -124q0 -39 -13 -70.5t-37 -54t-58 -34.5t-75 -12zM216 513q26 0 43 18t17 49t-17 50t-43 19q-28 0 -44.5 -19t-16.5 -50t16.5 -49t44.5 -18z" />
    <glyph glyph-name="guillemotright" unicode="&#xbb;" horiz-adv-x="758" 
d="M426 270l-184 -235h-212l177 235l-177 235h212zM732 270l-184 -235h-212l177 235l-177 235h212z" />
    <glyph glyph-name="onequarter" unicode="&#xbc;" horiz-adv-x="954" 
d="M735 75h-192v84l221 285h95v-266h55v-103h-55v-75h-124v75zM151 584l-62 -43l-61 87l152 112h95v-444h-124v288zM191 52l409 698l102 -61l-409 -699zM738 174l1 97l-77 -97h76z" />
    <glyph glyph-name="onehalf" unicode="&#xbd;" horiz-adv-x="967" 
d="M191 52l409 698l102 -61l-409 -699zM598 78l140 152q5 5 14 15.5t18 23t15.5 26t6.5 24.5q0 13 -7.5 21.5t-20.5 8.5q-17 0 -26 -13t-9 -33l-125 11q0 62 43 99t114 37t113 -34t42 -89q0 -39 -22.5 -76t-73.5 -88l-62 -63l164 1v-101h-324v78zM151 584l-62 -43l-61 87
l152 112h95v-444h-124v288z" />
    <glyph glyph-name="threequarters" unicode="&#xbe;" horiz-adv-x="1010" 
d="M976 178v-103h-55v-75h-124v75h-192v84l221 285h95v-266h55zM358 440q0 -68 -49 -109t-135 -41q-41 0 -80 10.5t-62 27.5l46 90q14 -11 36.5 -19t45.5 -8q34 0 51.5 14t17.5 35t-16 33.5t-43 12.5q-29 0 -52 -15l-34 63l88 105h-116v101h272v-76l-83 -87
q52 -9 82.5 -45.5t30.5 -91.5zM764 689l-409 -699l-102 62l409 698zM801 271l-77 -97h76z" />
    <glyph glyph-name="questiondown" unicode="&#xbf;" horiz-adv-x="574" 
d="M298 -230q-60 0 -109 15t-84.5 42t-54.5 65t-19 85q0 28 8 49.5t21 39.5t29.5 33.5t32.5 31.5q17 16 32 32t27 34t19 38.5t7 45.5h170q0 -48 -8.5 -84t-22 -63t-29.5 -47t-31 -36q-18 -18 -30 -33t-12 -30q0 -22 14.5 -35t39.5 -13q22 0 38.5 13t21.5 35l189 -9
q-3 -47 -22 -85.5t-51.5 -66t-77 -42.5t-98.5 -15zM292 333q-50 0 -82 32t-32 82t32 81.5t82 31.5t81.5 -31.5t31.5 -81.5t-31.5 -82t-81.5 -32z" />
    <glyph glyph-name="Agrave" unicode="&#xc0;" horiz-adv-x="789" 
d="M538 101h-288l-38 -101h-220l307 740h191l306 -740h-220zM350 807l-202 173h229l141 -173h-168zM474 271l-79 212l-80 -212h159z" />
    <glyph glyph-name="Aacute" unicode="&#xc1;" horiz-adv-x="789" 
d="M538 101h-288l-38 -101h-220l307 740h191l306 -740h-220zM439 807h-168l141 173h229zM474 271l-79 212l-80 -212h159z" />
    <glyph glyph-name="Acircumflex" unicode="&#xc2;" horiz-adv-x="789" 
d="M538 101h-288l-38 -101h-220l307 740h191l306 -740h-220zM350 807h-182l133 173h186l132 -173h-181l-44 56zM474 271l-79 212l-80 -212h159z" />
    <glyph glyph-name="Atilde" unicode="&#xc3;" horiz-adv-x="789" 
d="M538 101h-288l-38 -101h-220l307 740h191l306 -740h-220zM316 842q-28 0 -28 -32h-104q0 78 34.5 124.5t93.5 46.5q24 0 47.5 -6t44.5 -13.5t39 -14t30 -6.5q14 0 21 6.5t7 23.5h104q0 -83 -34.5 -127t-93.5 -44q-22 0 -45.5 6.5t-45 14.5t-40 14.5t-30.5 6.5zM474 271
l-79 212l-80 -212h159z" />
    <glyph glyph-name="Adieresis" unicode="&#xc4;" horiz-adv-x="789" 
d="M538 101h-288l-38 -101h-220l307 740h191l306 -740h-220zM252 781q-51 0 -82.5 31t-31.5 82t31.5 82.5t82.5 31.5t82 -31.5t31 -82.5t-31 -82t-82 -31zM539 781q-51 0 -82.5 31t-31.5 82t31.5 82.5t82.5 31.5t82 -31.5t31 -82.5t-31 -82t-82 -31zM474 271l-79 212
l-80 -212h159z" />
    <glyph glyph-name="Aring" unicode="&#xc5;" horiz-adv-x="789" 
d="M538 101h-288l-38 -101h-220l307 740h191l306 -740h-220zM395 774q-57 0 -91.5 30t-34.5 81q0 50 34.5 80t91.5 30t91 -30t34 -80q0 -51 -34 -81t-91 -30zM474 271l-79 212l-80 -212h159zM395 909q-11 0 -18.5 -6.5t-7.5 -17.5t7.5 -18t18.5 -7t17.5 7t6.5 18t-6.5 17.5
t-17.5 6.5z" />
    <glyph glyph-name="AE" unicode="&#xc6;" horiz-adv-x="1122" 
d="M1078 170v-170h-507l-21 101h-279l-59 -101h-235l479 740h614v-170h-421l28 -112h355v-170h-313l30 -118h329zM515 271l-38 181l-106 -181h144z" />
    <glyph glyph-name="Ccedilla" unicode="&#xc7;" horiz-adv-x="779" 
d="M774 143q-52 -70 -123.5 -107t-162.5 -44l-22 -37q41 -6 64.5 -29t23.5 -58q0 -44 -38 -71t-104 -27q-30 0 -58.5 6.5t-45.5 15.5l33 68q9 -5 22.5 -9t27.5 -4q17 0 26 6t9 14q0 16 -28 16q-14 0 -28 -7l-24 42l37 76q-79 9 -143.5 40t-110 80t-70.5 115t-25 144
q0 85 29.5 154.5t83.5 119t129.5 76.5t167.5 27q91 0 168.5 -27.5t135.5 -90.5l-129 -132q-25 37 -71 58.5t-103 21.5q-45 0 -81.5 -15t-62.5 -42.5t-40 -66t-14 -85.5q0 -48 14.5 -86.5t41.5 -66.5t64.5 -43t83.5 -15q68 0 110.5 28t74.5 79z" />
    <glyph glyph-name="Egrave" unicode="&#xc8;" horiz-adv-x="676" 
d="M631 170v-170h-556v740h549v-170h-343v-112h305v-170h-305v-118h350zM304 807l-202 173h229l141 -173h-168z" />
    <glyph glyph-name="Eacute" unicode="&#xc9;" horiz-adv-x="676" 
d="M631 170v-170h-556v740h549v-170h-343v-112h305v-170h-305v-118h350zM393 807h-168l141 173h229z" />
    <glyph glyph-name="Ecircumflex" unicode="&#xca;" horiz-adv-x="676" 
d="M631 170v-170h-556v740h549v-170h-343v-112h305v-170h-305v-118h350zM304 807h-182l133 173h186l132 -173h-181l-44 56z" />
    <glyph glyph-name="Edieresis" unicode="&#xcb;" horiz-adv-x="676" 
d="M631 170v-170h-556v740h549v-170h-343v-112h305v-170h-305v-118h350zM206 781q-51 0 -82.5 31t-31.5 82t31.5 82.5t82.5 31.5t82 -31.5t31 -82.5t-31 -82t-82 -31zM493 781q-51 0 -82.5 31t-31.5 82t31.5 82.5t82.5 31.5t82 -31.5t31 -82.5t-31 -82t-82 -31z" />
    <glyph glyph-name="Igrave" unicode="&#xcc;" horiz-adv-x="356" 
d="M75 740h206v-740h-206v740zM-70 980h229l141 -173h-168z" />
    <glyph glyph-name="Iacute" unicode="&#xcd;" horiz-adv-x="356" 
d="M75 740h206v-740h-206v740zM194 980h229l-202 -173h-168z" />
    <glyph glyph-name="Icircumflex" unicode="&#xce;" horiz-adv-x="356" 
d="M75 740h206v-740h-206v740zM132 807h-182l133 173h186l132 -173h-181l-44 56z" />
    <glyph glyph-name="Idieresis" unicode="&#xcf;" horiz-adv-x="356" 
d="M75 740h206v-740h-206v740zM34 781q-51 0 -82.5 31t-31.5 82t31.5 82.5t82.5 31.5t82 -31.5t31 -82.5t-31 -82t-82 -31zM321 781q-51 0 -82.5 31t-31.5 82t31.5 82.5t82.5 31.5t82 -31.5t31 -82.5t-31 -82t-82 -31z" />
    <glyph glyph-name="Eth" unicode="&#xd0;" horiz-adv-x="824" 
d="M419 740q83 0 151.5 -26.5t117 -74.5t75 -116t26.5 -151q0 -84 -26.5 -152.5t-75 -117t-117 -75.5t-151.5 -27h-331v301h-70v141h70v298h331zM424 170q34 0 62 14.5t48 41t31 64t11 82.5t-11 81.5t-31 62.5t-48 40t-62 14h-130v-128h131v-141h-131v-131h130z" />
    <glyph glyph-name="Ntilde" unicode="&#xd1;" horiz-adv-x="896" 
d="M75 740h127l418 -393l-5 393h206v-740h-126l-418 393l4 -393h-206v740zM530 800q-22 0 -45.5 6.5t-45 14.5t-40 14.5t-30.5 6.5q-28 0 -28 -32h-104q0 78 34.5 124.5t93.5 46.5q24 0 47.5 -6t44.5 -13.5t39 -14t30 -6.5q14 0 21 6.5t7 23.5h104q0 -83 -34.5 -127
t-93.5 -44z" />
    <glyph glyph-name="Ograve" unicode="&#xd2;" horiz-adv-x="882" 
d="M442 -10q-92 0 -167 27.5t-128.5 77t-83 120t-29.5 155.5q0 86 29.5 156t83 119.5t128.5 77t167 27.5q91 0 166 -27.5t128 -77t82.5 -119.5t29.5 -156q0 -85 -29.5 -155.5t-82.5 -120t-128 -77t-166 -27.5zM195 980h229l141 -173h-168zM442 160q44 0 79.5 15t61 42.5
t39.5 66.5t14 86t-14 86t-39.5 66.5t-61 42.5t-79.5 15t-80 -15t-61.5 -42.5t-39.5 -66.5t-14 -86t14 -86t39.5 -66.5t61.5 -42.5t80 -15z" />
    <glyph glyph-name="Oacute" unicode="&#xd3;" horiz-adv-x="882" 
d="M442 -10q-92 0 -167 27.5t-128.5 77t-83 120t-29.5 155.5q0 86 29.5 156t83 119.5t128.5 77t167 27.5q91 0 166 -27.5t128 -77t82.5 -119.5t29.5 -156q0 -85 -29.5 -155.5t-82.5 -120t-128 -77t-166 -27.5zM459 980h229l-202 -173h-168zM442 160q44 0 79.5 15t61 42.5
t39.5 66.5t14 86t-14 86t-39.5 66.5t-61 42.5t-79.5 15t-80 -15t-61.5 -42.5t-39.5 -66.5t-14 -86t14 -86t39.5 -66.5t61.5 -42.5t80 -15z" />
    <glyph glyph-name="Ocircumflex" unicode="&#xd4;" horiz-adv-x="882" 
d="M442 750q91 0 166 -27.5t128 -77t82.5 -119.5t29.5 -156q0 -85 -29.5 -155.5t-82.5 -120t-128 -77t-166 -27.5q-92 0 -167 27.5t-128.5 77t-83 120t-29.5 155.5q0 86 29.5 156t83 119.5t128.5 77t167 27.5zM397 807h-182l133 173h186l132 -173h-181l-44 56zM442 160
q44 0 79.5 15t61 42.5t39.5 66.5t14 86t-14 86t-39.5 66.5t-61 42.5t-79.5 15t-80 -15t-61.5 -42.5t-39.5 -66.5t-14 -86t14 -86t39.5 -66.5t61.5 -42.5t80 -15z" />
    <glyph glyph-name="Otilde" unicode="&#xd5;" horiz-adv-x="882" 
d="M442 -10q-92 0 -167 27.5t-128.5 77t-83 120t-29.5 155.5q0 86 29.5 156t83 119.5t128.5 77t167 27.5q91 0 166 -27.5t128 -77t82.5 -119.5t29.5 -156q0 -85 -29.5 -155.5t-82.5 -120t-128 -77t-166 -27.5zM524 800q-22 0 -45.5 6.5t-45 14.5t-40 14.5t-30.5 6.5
q-28 0 -28 -32h-104q0 78 34.5 124.5t93.5 46.5q24 0 47.5 -6t44.5 -13.5t39 -14t30 -6.5q14 0 21 6.5t7 23.5h104q0 -83 -34.5 -127t-93.5 -44zM442 160q44 0 79.5 15t61 42.5t39.5 66.5t14 86t-14 86t-39.5 66.5t-61 42.5t-79.5 15t-80 -15t-61.5 -42.5t-39.5 -66.5
t-14 -86t14 -86t39.5 -66.5t61.5 -42.5t80 -15z" />
    <glyph glyph-name="Odieresis" unicode="&#xd6;" horiz-adv-x="882" 
d="M442 -10q-92 0 -167 27.5t-128.5 77t-83 120t-29.5 155.5q0 86 29.5 156t83 119.5t128.5 77t167 27.5q91 0 166 -27.5t128 -77t82.5 -119.5t29.5 -156q0 -85 -29.5 -155.5t-82.5 -120t-128 -77t-166 -27.5zM299 781q-51 0 -82.5 31t-31.5 82t31.5 82.5t82.5 31.5
t82 -31.5t31 -82.5t-31 -82t-82 -31zM586 781q-51 0 -82.5 31t-31.5 82t31.5 82.5t82.5 31.5t82 -31.5t31 -82.5t-31 -82t-82 -31zM442 160q44 0 79.5 15t61 42.5t39.5 66.5t14 86t-14 86t-39.5 66.5t-61 42.5t-79.5 15t-80 -15t-61.5 -42.5t-39.5 -66.5t-14 -86t14 -86
t39.5 -66.5t61.5 -42.5t80 -15z" />
    <glyph glyph-name="multiply" unicode="&#xd7;" horiz-adv-x="546" 
d="M396 353l109 -110l-123 -122l-109 109l-109 -109l-123 122l110 110l-112 111l123 122l111 -111l111 111l123 -122z" />
    <glyph glyph-name="Oslash" unicode="&#xd8;" horiz-adv-x="882" 
d="M759 622q43 -49 66 -112.5t23 -139.5q0 -85 -29.5 -155.5t-82.5 -120t-128 -77t-166 -27.5q-132 0 -227 55l-52 -55l-85 78l46 49q-44 49 -67 112.5t-23 140.5q0 86 29.5 156t83 119.5t128.5 77t167 27.5q66 0 122.5 -14.5t104.5 -40.5l52 55l85 -78zM247 370
q0 -56 20 -101l272 288q-43 23 -97 23q-44 0 -80 -15t-61.5 -42.5t-39.5 -66.5t-14 -86zM442 160q44 0 79.5 15t61 42.5t39.5 66.5t14 86q0 56 -20 101l-271 -288q43 -23 97 -23z" />
    <glyph glyph-name="Ugrave" unicode="&#xd9;" horiz-adv-x="821" 
d="M412 -10q-78 0 -141.5 22t-108.5 62t-70 96.5t-25 125.5v444h206v-435q0 -66 38 -105.5t101 -39.5q61 0 98.5 39.5t37.5 105.5v435h206v-444q0 -69 -24.5 -125.5t-69.5 -96.5t-108 -62t-140 -22zM164 980h229l141 -173h-168z" />
    <glyph glyph-name="Uacute" unicode="&#xda;" horiz-adv-x="821" 
d="M412 -10q-78 0 -141.5 22t-108.5 62t-70 96.5t-25 125.5v444h206v-435q0 -66 38 -105.5t101 -39.5q61 0 98.5 39.5t37.5 105.5v435h206v-444q0 -69 -24.5 -125.5t-69.5 -96.5t-108 -62t-140 -22zM428 980h229l-202 -173h-168z" />
    <glyph glyph-name="Ucircumflex" unicode="&#xdb;" horiz-adv-x="821" 
d="M754 740v-444q0 -69 -24.5 -125.5t-69.5 -96.5t-108 -62t-140 -22q-78 0 -141.5 22t-108.5 62t-70 96.5t-25 125.5v444h206v-435q0 -66 38 -105.5t101 -39.5q61 0 98.5 39.5t37.5 105.5v435h206zM366 807h-182l133 173h186l132 -173h-181l-44 56z" />
    <glyph glyph-name="Udieresis" unicode="&#xdc;" horiz-adv-x="821" 
d="M412 -10q-78 0 -141.5 22t-108.5 62t-70 96.5t-25 125.5v444h206v-435q0 -66 38 -105.5t101 -39.5q61 0 98.5 39.5t37.5 105.5v435h206v-444q0 -69 -24.5 -125.5t-69.5 -96.5t-108 -62t-140 -22zM268 781q-51 0 -82.5 31t-31.5 82t31.5 82.5t82.5 31.5t82 -31.5t31 -82.5
t-31 -82t-82 -31zM555 781q-51 0 -82.5 31t-31.5 82t31.5 82.5t82.5 31.5t82 -31.5t31 -82.5t-31 -82t-82 -31z" />
    <glyph glyph-name="Yacute" unicode="&#xdd;" horiz-adv-x="726" 
d="M721 740l-255 -494v-246h-206v246l-255 494h219l140 -312l139 312h218zM408 807h-168l141 173h229z" />
    <glyph glyph-name="Thorn" unicode="&#xde;" horiz-adv-x="711" 
d="M406 637q62 0 113 -18t87 -51.5t56 -80t20 -103.5q0 -60 -20.5 -109t-58 -84.5t-90.5 -54.5t-118 -19h-114v-117h-206v740h206v-103h125zM385 287q42 0 63.5 24.5t21.5 65.5t-23 65.5t-62 24.5h-104v-180h104z" />
    <glyph glyph-name="germandbls" unicode="&#xdf;" horiz-adv-x="649" 
d="M494 422q60 -29 93 -77t33 -111q0 -55 -18 -100t-51 -77t-79.5 -49.5t-103.5 -17.5q-23 0 -48.5 3t-40.5 8l18 164q13 -4 34 -4q37 0 59.5 24t22.5 64q0 41 -26 65.5t-71 24.5v156q26 0 42 17.5t16 46.5q0 27 -16 43.5t-43 16.5q-26 0 -42.5 -15.5t-16.5 -41.5v-562h-200
v581q0 47 18.5 85.5t52.5 66t82 42.5t106 15q60 0 109 -15t84 -42.5t54 -66t19 -85.5q0 -51 -22.5 -91t-64.5 -68z" />
    <glyph glyph-name="agrave" unicode="&#xe0;" horiz-adv-x="599" 
d="M300 560q56 0 101.5 -15.5t78.5 -43.5t51 -67.5t18 -88.5v-345h-193l-2 49q-26 -29 -60.5 -44t-72.5 -15q-45 0 -81.5 13t-62.5 36.5t-40.5 57t-14.5 74.5t17.5 75t49 58t76.5 37t99 13q20 0 40.5 -1.5t42.5 -5.5q-10 57 -100 57q-60 0 -107 -28l-84 117
q51 34 108.5 50.5t135.5 16.5zM264 617l-202 173h229l141 -173h-168zM279 131q31 0 50 22t20 61q-16 2 -30.5 3.5t-28.5 1.5q-28 0 -44.5 -12t-16.5 -32t11 -32t39 -12z" />
    <glyph glyph-name="aacute" unicode="&#xe1;" horiz-adv-x="599" 
d="M300 560q56 0 101.5 -15.5t78.5 -43.5t51 -67.5t18 -88.5v-345h-193l-2 49q-26 -29 -60.5 -44t-72.5 -15q-45 0 -81.5 13t-62.5 36.5t-40.5 57t-14.5 74.5t17.5 75t49 58t76.5 37t99 13q20 0 40.5 -1.5t42.5 -5.5q-10 57 -100 57q-60 0 -107 -28l-84 117
q51 34 108.5 50.5t135.5 16.5zM353 617h-168l141 173h229zM279 131q31 0 50 22t20 61q-16 2 -30.5 3.5t-28.5 1.5q-28 0 -44.5 -12t-16.5 -32t11 -32t39 -12z" />
    <glyph glyph-name="acircumflex" unicode="&#xe2;" horiz-adv-x="599" 
d="M300 560q56 0 101.5 -15.5t78.5 -43.5t51 -67.5t18 -88.5v-345h-193l-2 49q-26 -29 -60.5 -44t-72.5 -15q-45 0 -81.5 13t-62.5 36.5t-40.5 57t-14.5 74.5t17.5 75t49 58t76.5 37t99 13q20 0 40.5 -1.5t42.5 -5.5q-10 57 -100 57q-60 0 -107 -28l-84 117
q51 34 108.5 50.5t135.5 16.5zM264 617h-182l133 173h186l132 -173h-181l-44 56zM279 131q31 0 50 22t20 61q-16 2 -30.5 3.5t-28.5 1.5q-28 0 -44.5 -12t-16.5 -32t11 -32t39 -12z" />
    <glyph glyph-name="atilde" unicode="&#xe3;" horiz-adv-x="599" 
d="M300 560q56 0 101.5 -15.5t78.5 -43.5t51 -67.5t18 -88.5v-345h-193l-2 49q-26 -29 -60.5 -44t-72.5 -15q-45 0 -81.5 13t-62.5 36.5t-40.5 57t-14.5 74.5t17.5 75t49 58t76.5 37t99 13q20 0 40.5 -1.5t42.5 -5.5q-10 57 -100 57q-60 0 -107 -28l-84 117
q51 34 108.5 50.5t135.5 16.5zM230 652q-28 0 -28 -32h-104q0 78 34.5 124.5t93.5 46.5q24 0 47.5 -6t44.5 -13.5t39 -14t30 -6.5q14 0 21 6.5t7 23.5h104q0 -83 -34.5 -127t-93.5 -44q-22 0 -45.5 6.5t-45 14.5t-40 14.5t-30.5 6.5zM279 131q31 0 50 22t20 61
q-16 2 -30.5 3.5t-28.5 1.5q-28 0 -44.5 -12t-16.5 -32t11 -32t39 -12z" />
    <glyph glyph-name="adieresis" unicode="&#xe4;" horiz-adv-x="599" 
d="M300 560q56 0 101.5 -15.5t78.5 -43.5t51 -67.5t18 -88.5v-345h-193l-2 49q-26 -29 -60.5 -44t-72.5 -15q-45 0 -81.5 13t-62.5 36.5t-40.5 57t-14.5 74.5t17.5 75t49 58t76.5 37t99 13q20 0 40.5 -1.5t42.5 -5.5q-10 57 -100 57q-60 0 -107 -28l-84 117
q51 34 108.5 50.5t135.5 16.5zM166 591q-51 0 -82.5 31t-31.5 82t31.5 82.5t82.5 31.5t82 -31.5t31 -82.5t-31 -82t-82 -31zM453 591q-51 0 -82.5 31t-31.5 82t31.5 82.5t82.5 31.5t82 -31.5t31 -82.5t-31 -82t-82 -31zM279 131q31 0 50 22t20 61q-16 2 -30.5 3.5t-28.5 1.5
q-28 0 -44.5 -12t-16.5 -32t11 -32t39 -12z" />
    <glyph glyph-name="aring" unicode="&#xe5;" horiz-adv-x="599" 
d="M300 560q56 0 101.5 -15.5t78.5 -43.5t51 -67.5t18 -88.5v-345h-193l-2 49q-26 -29 -60.5 -44t-72.5 -15q-45 0 -81.5 13t-62.5 36.5t-40.5 57t-14.5 74.5t17.5 75t49 58t76.5 37t99 13q20 0 40.5 -1.5t42.5 -5.5q-10 57 -100 57q-60 0 -107 -28l-84 117
q51 34 108.5 50.5t135.5 16.5zM309 584q-57 0 -91.5 30t-34.5 81q0 50 34.5 80t91.5 30t91 -30t34 -80q0 -51 -34 -81t-91 -30zM279 131q31 0 50 22t20 61q-16 2 -30.5 3.5t-28.5 1.5q-28 0 -44.5 -12t-16.5 -32t11 -32t39 -12zM309 719q-11 0 -18.5 -6.5t-7.5 -17.5
t7.5 -18t18.5 -7t17.5 7t6.5 18t-6.5 17.5t-17.5 6.5z" />
    <glyph glyph-name="ae" unicode="&#xe6;" horiz-adv-x="940" 
d="M910 284q0 -20 -1.5 -41t-3.5 -38h-358q7 -28 25.5 -43.5t56.5 -15.5q57 0 92 38l155 -75q-32 -52 -91.5 -85.5t-137.5 -33.5q-63 0 -114 20.5t-89 55.5q-33 -38 -84.5 -57t-108.5 -19q-51 0 -93.5 13t-72.5 36.5t-46.5 57t-16.5 74.5t17.5 75t49 58t76.5 37t99 13
q20 0 40.5 -1.5t42.5 -5.5q-10 57 -100 57q-60 0 -107 -28l-84 117q48 34 101.5 50.5t127.5 16.5q54 0 97.5 -18t74.5 -50q35 32 80.5 50t99.5 18q62 0 112 -20t86 -56t55.5 -87t19.5 -113zM279 131q31 0 50 22t20 61q-16 2 -30.5 3.5t-28.5 1.5q-28 0 -44.5 -12t-16.5 -32
t11 -32t39 -12zM622 404q-32 0 -49.5 -17t-25.5 -49h153q-8 33 -26.5 49.5t-51.5 16.5z" />
    <glyph glyph-name="ccedilla" unicode="&#xe7;" horiz-adv-x="560" 
d="M352 -45q41 -6 64.5 -29t23.5 -58q0 -44 -38 -71t-104 -27q-30 0 -58.5 6.5t-45.5 15.5l33 68q9 -5 22.5 -9t27.5 -4q17 0 26 6t9 14q0 16 -28 16q-14 0 -28 -7l-24 42l38 77q-55 9 -99.5 33t-76 60t-48.5 83.5t-17 103.5q0 64 22 116.5t62.5 90t97.5 58t127 20.5
q57 0 107.5 -18.5t89.5 -48.5l-112 -135q-14 14 -33.5 22.5t-47.5 8.5q-48 0 -77 -31t-29 -83q0 -51 28.5 -82.5t77.5 -31.5q66 0 99 40l113 -132q-35 -35 -81 -53.5t-99 -23.5z" />
    <glyph glyph-name="egrave" unicode="&#xe8;" horiz-adv-x="636" 
d="M606 284q0 -20 -1.5 -41t-3.5 -38h-358q7 -28 25.5 -43.5t56.5 -15.5q57 0 92 38l155 -75q-34 -52 -97.5 -85.5t-146.5 -33.5q-67 0 -122 20t-94 56t-60.5 87t-21.5 114q0 66 20.5 120t58.5 92.5t91 59.5t118 21t118 -20t91 -56t58.5 -87t20.5 -113zM273 617l-202 173
h229l141 -173h-168zM318 404q-32 0 -49.5 -17t-25.5 -49h153q-8 33 -26.5 49.5t-51.5 16.5z" />
    <glyph glyph-name="eacute" unicode="&#xe9;" horiz-adv-x="636" 
d="M606 284q0 -20 -1.5 -41t-3.5 -38h-358q7 -28 25.5 -43.5t56.5 -15.5q57 0 92 38l155 -75q-34 -52 -97.5 -85.5t-146.5 -33.5q-67 0 -122 20t-94 56t-60.5 87t-21.5 114q0 66 20.5 120t58.5 92.5t91 59.5t118 21t118 -20t91 -56t58.5 -87t20.5 -113zM362 617h-168
l141 173h229zM318 404q-32 0 -49.5 -17t-25.5 -49h153q-8 33 -26.5 49.5t-51.5 16.5z" />
    <glyph glyph-name="ecircumflex" unicode="&#xea;" horiz-adv-x="636" 
d="M606 284q0 -20 -1.5 -41t-3.5 -38h-358q7 -28 25.5 -43.5t56.5 -15.5q57 0 92 38l155 -75q-34 -52 -97.5 -85.5t-146.5 -33.5q-67 0 -122 20t-94 56t-60.5 87t-21.5 114q0 66 20.5 120t58.5 92.5t91 59.5t118 21t118 -20t91 -56t58.5 -87t20.5 -113zM273 617h-182
l133 173h186l132 -173h-181l-44 56zM318 404q-32 0 -49.5 -17t-25.5 -49h153q-8 33 -26.5 49.5t-51.5 16.5z" />
    <glyph glyph-name="edieresis" unicode="&#xeb;" horiz-adv-x="636" 
d="M606 284q0 -20 -1.5 -41t-3.5 -38h-358q7 -28 25.5 -43.5t56.5 -15.5q57 0 92 38l155 -75q-34 -52 -97.5 -85.5t-146.5 -33.5q-67 0 -122 20t-94 56t-60.5 87t-21.5 114q0 66 20.5 120t58.5 92.5t91 59.5t118 21t118 -20t91 -56t58.5 -87t20.5 -113zM175 591
q-51 0 -82.5 31t-31.5 82t31.5 82.5t82.5 31.5t82 -31.5t31 -82.5t-31 -82t-82 -31zM462 591q-51 0 -82.5 31t-31.5 82t31.5 82.5t82.5 31.5t82 -31.5t31 -82.5t-31 -82t-82 -31zM318 404q-32 0 -49.5 -17t-25.5 -49h153q-8 33 -26.5 49.5t-51.5 16.5z" />
    <glyph glyph-name="igrave" unicode="&#xec;" horiz-adv-x="312" 
d="M56 550h200v-550h-200v550zM-90 790h229l141 -173h-168z" />
    <glyph glyph-name="iacute" unicode="&#xed;" horiz-adv-x="312" 
d="M56 550h200v-550h-200v550zM174 790h229l-202 -173h-168z" />
    <glyph glyph-name="icircumflex" unicode="&#xee;" horiz-adv-x="312" 
d="M56 550h200v-550h-200v550zM112 617h-182l133 173h186l132 -173h-181l-44 56z" />
    <glyph glyph-name="idieresis" unicode="&#xef;" horiz-adv-x="312" 
d="M56 550h200v-550h-200v550zM14 591q-51 0 -82.5 31t-31.5 82t31.5 82.5t82.5 31.5t82 -31.5t31 -82.5t-31 -82t-82 -31zM301 591q-51 0 -82.5 31t-31.5 82t31.5 82.5t82.5 31.5t82 -31.5t31 -82.5t-31 -82t-82 -31z" />
    <glyph glyph-name="eth" unicode="&#xf0;" horiz-adv-x="677" 
d="M455 689q92 -75 140.5 -165.5t48.5 -196.5q0 -75 -22 -137t-62.5 -106.5t-96.5 -69t-125 -24.5t-126 20.5t-97.5 58t-62.5 90.5t-22 118q0 61 21 110.5t57 84.5t83.5 54t100.5 19q37 0 67 -9q-14 14 -30 27.5t-33 26.5l-42 -26l-108 70l37 24l-51 24l166 108
q13 -7 25 -13t23 -13l41 26l106 -78zM338 161q45 0 72.5 31.5t27.5 82.5q0 52 -27.5 83t-72.5 31q-46 0 -73.5 -31t-27.5 -83q0 -51 27.5 -82.5t73.5 -31.5z" />
    <glyph glyph-name="ntilde" unicode="&#xf1;" horiz-adv-x="674" 
d="M412 560q48 0 87 -15.5t66.5 -44t43 -68t15.5 -88.5v-344h-200v315q0 34 -23 54t-61 20t-61 -20t-23 -54v-315h-200v550h193l2 -54q33 33 75.5 48.5t85.5 15.5zM264 652q-28 0 -28 -32h-104q0 78 34.5 124.5t93.5 46.5q24 0 47.5 -6t44.5 -13.5t39 -14t30 -6.5
q14 0 21 6.5t7 23.5h104q0 -83 -34.5 -127t-93.5 -44q-22 0 -45.5 6.5t-45 14.5t-40 14.5t-30.5 6.5z" />
    <glyph glyph-name="ograve" unicode="&#xf2;" horiz-adv-x="672" 
d="M337 -10q-69 0 -126 20.5t-97.5 58t-62.5 90t-22 116.5t22 116.5t62.5 90t97.5 58t126 20.5t125 -20.5t96.5 -58t62.5 -90t22 -116.5t-22 -116.5t-62.5 -90t-96.5 -58t-125 -20.5zM90 790h229l141 -173h-168zM336 161q45 0 72.5 31.5t27.5 82.5q0 52 -27.5 83t-72.5 31
t-73 -31t-28 -83q0 -51 28 -82.5t73 -31.5z" />
    <glyph glyph-name="oacute" unicode="&#xf3;" horiz-adv-x="672" 
d="M337 -10q-69 0 -126 20.5t-97.5 58t-62.5 90t-22 116.5t22 116.5t62.5 90t97.5 58t126 20.5t125 -20.5t96.5 -58t62.5 -90t22 -116.5t-22 -116.5t-62.5 -90t-96.5 -58t-125 -20.5zM354 790h229l-202 -173h-168zM336 161q45 0 72.5 31.5t27.5 82.5q0 52 -27.5 83t-72.5 31
t-73 -31t-28 -83q0 -51 28 -82.5t73 -31.5z" />
    <glyph glyph-name="ocircumflex" unicode="&#xf4;" horiz-adv-x="672" 
d="M337 560q69 0 125 -20.5t96.5 -58t62.5 -90t22 -116.5t-22 -116.5t-62.5 -90t-96.5 -58t-125 -20.5t-126 20.5t-97.5 58t-62.5 90t-22 116.5t22 116.5t62.5 90t97.5 58t126 20.5zM292 617h-182l133 173h186l132 -173h-181l-44 56zM336 161q45 0 72.5 31.5t27.5 82.5
q0 52 -27.5 83t-72.5 31t-73 -31t-28 -83q0 -51 28 -82.5t73 -31.5z" />
    <glyph glyph-name="otilde" unicode="&#xf5;" horiz-adv-x="672" 
d="M337 -10q-69 0 -126 20.5t-97.5 58t-62.5 90t-22 116.5t22 116.5t62.5 90t97.5 58t126 20.5t125 -20.5t96.5 -58t62.5 -90t22 -116.5t-22 -116.5t-62.5 -90t-96.5 -58t-125 -20.5zM419 610q-22 0 -45.5 6.5t-45 14.5t-40 14.5t-30.5 6.5q-28 0 -28 -32h-104
q0 78 34.5 124.5t93.5 46.5q24 0 47.5 -6t44.5 -13.5t39 -14t30 -6.5q14 0 21 6.5t7 23.5h104q0 -83 -34.5 -127t-93.5 -44zM336 161q45 0 72.5 31.5t27.5 82.5q0 52 -27.5 83t-72.5 31t-73 -31t-28 -83q0 -51 28 -82.5t73 -31.5z" />
    <glyph glyph-name="odieresis" unicode="&#xf6;" horiz-adv-x="672" 
d="M337 -10q-69 0 -126 20.5t-97.5 58t-62.5 90t-22 116.5t22 116.5t62.5 90t97.5 58t126 20.5t125 -20.5t96.5 -58t62.5 -90t22 -116.5t-22 -116.5t-62.5 -90t-96.5 -58t-125 -20.5zM194 591q-51 0 -82.5 31t-31.5 82t31.5 82.5t82.5 31.5t82 -31.5t31 -82.5t-31 -82
t-82 -31zM481 591q-51 0 -82.5 31t-31.5 82t31.5 82.5t82.5 31.5t82 -31.5t31 -82.5t-31 -82t-82 -31zM336 161q45 0 72.5 31.5t27.5 82.5q0 52 -27.5 83t-72.5 31t-73 -31t-28 -83q0 -51 28 -82.5t73 -31.5z" />
    <glyph glyph-name="divide" unicode="&#xf7;" horiz-adv-x="586" 
d="M294 20q-50 0 -82 32t-32 82t32 81.5t82 31.5t81.5 -31.5t31.5 -81.5t-31.5 -82t-81.5 -32zM35 436h516v-164h-516v164zM294 462q-50 0 -82 32t-32 82t32 81.5t82 31.5t81.5 -31.5t31.5 -81.5t-31.5 -82t-81.5 -32z" />
    <glyph glyph-name="oslash" unicode="&#xf8;" horiz-adv-x="672" 
d="M561 479q39 -38 60.5 -89.5t21.5 -114.5q0 -64 -22 -116.5t-62.5 -90t-96.5 -58t-125 -20.5q-89 0 -159 34l-29 -34l-66 49l27 32q-38 38 -59.5 89.5t-21.5 114.5q0 64 22 116.5t62.5 90t97.5 58t126 20.5q89 0 157 -34l29 34l66 -48zM235 275q0 -25 8 -47l130 154
q-15 7 -37 7q-45 0 -73 -31t-28 -83zM336 161q45 0 72.5 31.5t27.5 82.5q0 13 -2 24.5t-5 22.5l-130 -154q15 -7 37 -7z" />
    <glyph glyph-name="ugrave" unicode="&#xf9;" horiz-adv-x="647" 
d="M591 550v-550h-192l-3 51q-30 -32 -69 -46.5t-78 -14.5q-45 0 -81.5 15.5t-62.5 43.5t-40.5 68t-14.5 89v344h200v-315q0 -33 19.5 -53.5t51.5 -20.5t51 20.5t19 53.5v315h200zM276 617l-202 173h229l141 -173h-168z" />
    <glyph glyph-name="uacute" unicode="&#xfa;" horiz-adv-x="647" 
d="M591 550v-550h-192l-3 51q-30 -32 -69 -46.5t-78 -14.5q-45 0 -81.5 15.5t-62.5 43.5t-40.5 68t-14.5 89v344h200v-315q0 -33 19.5 -53.5t51.5 -20.5t51 20.5t19 53.5v315h200zM365 617h-168l141 173h229z" />
    <glyph glyph-name="ucircumflex" unicode="&#xfb;" horiz-adv-x="647" 
d="M591 550v-550h-192l-3 51q-30 -32 -69 -46.5t-78 -14.5q-45 0 -81.5 15.5t-62.5 43.5t-40.5 68t-14.5 89v344h200v-315q0 -33 19.5 -53.5t51.5 -20.5t51 20.5t19 53.5v315h200zM276 617h-182l133 173h186l132 -173h-181l-44 56z" />
    <glyph glyph-name="udieresis" unicode="&#xfc;" horiz-adv-x="647" 
d="M591 550v-550h-192l-3 51q-30 -32 -69 -46.5t-78 -14.5q-45 0 -81.5 15.5t-62.5 43.5t-40.5 68t-14.5 89v344h200v-315q0 -33 19.5 -53.5t51.5 -20.5t51 20.5t19 53.5v315h200zM178 591q-51 0 -82.5 31t-31.5 82t31.5 82.5t82.5 31.5t82 -31.5t31 -82.5t-31 -82t-82 -31z
M465 591q-51 0 -82.5 31t-31.5 82t31.5 82.5t82.5 31.5t82 -31.5t31 -82.5t-31 -82t-82 -31z" />
    <glyph glyph-name="yacute" unicode="&#xfd;" horiz-adv-x="637" 
d="M171 -230q-58 0 -96 19l20 161q18 -9 43 -9q31 0 47.5 17t32.5 46l7 13l-224 533h218l108 -318l94 318h218l-226 -571q-19 -49 -41 -87.5t-50.5 -65.5t-65 -41.5t-85.5 -14.5zM340 790h229l-202 -173h-168z" />
    <glyph glyph-name="thorn" unicode="&#xfe;" 
d="M403 560q54 0 101.5 -20t83 -57t56.5 -89t21 -116t-21 -117.5t-56.5 -91t-83 -58.5t-101.5 -21q-47 0 -83.5 16t-63.5 45v-271h-200v1000h200v-280q27 29 63.5 44.5t83.5 15.5zM358 161q45 0 73 31.5t28 83.5q0 51 -28 82t-73 31q-46 0 -74 -31t-28 -83q0 -51 28 -82.5
t74 -31.5z" />
    <glyph glyph-name="ydieresis" unicode="&#xff;" horiz-adv-x="637" 
d="M171 -230q-58 0 -96 19l20 161q18 -9 43 -9q31 0 47.5 17t32.5 46l7 13l-224 533h218l108 -318l94 318h218l-226 -571q-19 -49 -41 -87.5t-50.5 -65.5t-65 -41.5t-85.5 -14.5zM180 591q-51 0 -82.5 31t-31.5 82t31.5 82.5t82.5 31.5t82 -31.5t31 -82.5t-31 -82t-82 -31z
M467 591q-51 0 -82.5 31t-31.5 82t31.5 82.5t82.5 31.5t82 -31.5t31 -82.5t-31 -82t-82 -31z" />
    <glyph glyph-name="Amacron" unicode="&#x100;" horiz-adv-x="789" 
d="M538 101h-288l-38 -101h-220l307 740h191l306 -740h-220zM595 791h-400v156h400v-156zM474 271l-79 212l-80 -212h159z" />
    <glyph glyph-name="amacron" unicode="&#x101;" horiz-adv-x="599" 
d="M300 560q56 0 101.5 -15.5t78.5 -43.5t51 -67.5t18 -88.5v-345h-193l-2 49q-26 -29 -60.5 -44t-72.5 -15q-45 0 -81.5 13t-62.5 36.5t-40.5 57t-14.5 74.5t17.5 75t49 58t76.5 37t99 13q20 0 40.5 -1.5t42.5 -5.5q-10 57 -100 57q-60 0 -107 -28l-84 117
q51 34 108.5 50.5t135.5 16.5zM509 601h-400v156h400v-156zM279 131q31 0 50 22t20 61q-16 2 -30.5 3.5t-28.5 1.5q-28 0 -44.5 -12t-16.5 -32t11 -32t39 -12z" />
    <glyph glyph-name="Abreve" unicode="&#x102;" horiz-adv-x="789" 
d="M538 101h-288l-38 -101h-220l307 740h191l306 -740h-220zM395 799q-46 0 -83.5 13t-64 36.5t-41 57t-14.5 74.5h148q0 -31 15.5 -50t39.5 -19q25 0 40 19t15 50h148q0 -41 -14.5 -74.5t-41 -57t-64 -36.5t-83.5 -13zM474 271l-79 212l-80 -212h159z" />
    <glyph glyph-name="abreve" unicode="&#x103;" horiz-adv-x="599" 
d="M300 560q56 0 101.5 -15.5t78.5 -43.5t51 -67.5t18 -88.5v-345h-193l-2 49q-26 -29 -60.5 -44t-72.5 -15q-45 0 -81.5 13t-62.5 36.5t-40.5 57t-14.5 74.5t17.5 75t49 58t76.5 37t99 13q20 0 40.5 -1.5t42.5 -5.5q-10 57 -100 57q-60 0 -107 -28l-84 117
q51 34 108.5 50.5t135.5 16.5zM309 609q-46 0 -83.5 13t-64 36.5t-41 57t-14.5 74.5h148q0 -31 15.5 -50t39.5 -19q25 0 40 19t15 50h148q0 -41 -14.5 -74.5t-41 -57t-64 -36.5t-83.5 -13zM279 131q31 0 50 22t20 61q-16 2 -30.5 3.5t-28.5 1.5q-28 0 -44.5 -12t-16.5 -32
t11 -32t39 -12z" />
    <glyph glyph-name="Aogonek" unicode="&#x104;" horiz-adv-x="789" 
d="M799 -202q-19 -12 -42.5 -20t-61.5 -8q-54 0 -85.5 27t-31.5 72q0 37 20.5 70t53.5 61h-76l-38 101h-288l-38 -101h-220l307 740h191l306 -740q-77 -47 -77 -96q0 -23 27 -23q21 0 37 11zM474 271l-79 212l-80 -212h159z" />
    <glyph glyph-name="aogonek" unicode="&#x105;" horiz-adv-x="599" 
d="M552 -202q-19 -12 -42.5 -20t-61.5 -8q-54 0 -85.5 27t-31.5 72q0 36 20 68t57 63h-52l-2 49q-26 -29 -60.5 -44t-72.5 -15q-45 0 -81.5 13t-62.5 36.5t-40.5 57t-14.5 74.5t17.5 75t49 58t76.5 37t99 13q20 0 40.5 -1.5t42.5 -5.5q-10 57 -100 57q-60 0 -107 -28
l-84 117q51 34 108.5 50.5t135.5 16.5q56 0 101.5 -15.5t78.5 -43.5t51 -67.5t18 -88.5v-345q-77 -47 -77 -96q0 -23 27 -23q21 0 37 11zM279 131q31 0 50 22t20 61q-16 2 -30.5 3.5t-28.5 1.5q-28 0 -44.5 -12t-16.5 -32t11 -32t39 -12z" />
    <glyph glyph-name="Cacute" unicode="&#x106;" horiz-adv-x="779" 
d="M446 -10q-92 0 -168 27.5t-130 78t-84 121t-30 156.5q0 85 29.5 154.5t83.5 119t129.5 76.5t167.5 27q91 0 168.5 -27.5t135.5 -90.5l-129 -132q-25 37 -71 58.5t-103 21.5q-45 0 -81.5 -15t-62.5 -42.5t-40 -66t-14 -85.5q0 -48 14.5 -86.5t41.5 -66.5t64.5 -43
t83.5 -15q68 0 110.5 28t74.5 79l138 -124q-58 -78 -140 -115.5t-188 -37.5zM452 980h229l-202 -173h-168z" />
    <glyph glyph-name="cacute" unicode="&#x107;" horiz-adv-x="560" 
d="M335 -10q-69 0 -125.5 20.5t-96.5 58t-62 90t-22 116.5t22 116.5t62.5 90t97.5 58t127 20.5q57 0 107.5 -18.5t89.5 -48.5l-112 -135q-14 14 -33.5 22.5t-47.5 8.5q-48 0 -77 -31t-29 -83q0 -51 28.5 -82.5t77.5 -31.5q66 0 99 40l113 -132q-42 -41 -98 -60t-121 -19z
M339 790h229l-202 -173h-168z" />
    <glyph glyph-name="Cdotaccent" unicode="&#x10a;" horiz-adv-x="779" 
d="M446 -10q-92 0 -168 27.5t-130 78t-84 121t-30 156.5q0 85 29.5 154.5t83.5 119t129.5 76.5t167.5 27q91 0 168.5 -27.5t135.5 -90.5l-129 -132q-25 37 -71 58.5t-103 21.5q-45 0 -81.5 -15t-62.5 -42.5t-40 -66t-14 -85.5q0 -48 14.5 -86.5t41.5 -66.5t64.5 -43
t83.5 -15q68 0 110.5 28t74.5 79l138 -124q-58 -78 -140 -115.5t-188 -37.5zM435 781q-50 0 -82 31.5t-32 81.5t32 82t82 32t81.5 -32t31.5 -82t-31.5 -81.5t-81.5 -31.5z" />
    <glyph glyph-name="cdotaccent" unicode="&#x10b;" horiz-adv-x="560" 
d="M335 -10q-69 0 -125.5 20.5t-96.5 58t-62 90t-22 116.5t22 116.5t62.5 90t97.5 58t127 20.5q57 0 107.5 -18.5t89.5 -48.5l-112 -135q-14 14 -33.5 22.5t-47.5 8.5q-48 0 -77 -31t-29 -83q0 -51 28.5 -82.5t77.5 -31.5q66 0 99 40l113 -132q-42 -41 -98 -60t-121 -19z
M322 591q-50 0 -82 31.5t-32 81.5t32 82t82 32t81.5 -32t31.5 -82t-31.5 -81.5t-81.5 -31.5z" />
    <glyph glyph-name="Ccaron" unicode="&#x10c;" horiz-adv-x="779" 
d="M774 143q-58 -78 -140 -115.5t-188 -37.5q-92 0 -168 27.5t-130 78t-84 121t-30 156.5q0 85 29.5 154.5t83.5 119t129.5 76.5t167.5 27q91 0 168.5 -27.5t135.5 -90.5l-129 -132q-25 37 -71 58.5t-103 21.5q-45 0 -81.5 -15t-62.5 -42.5t-40 -66t-14 -85.5
q0 -48 14.5 -86.5t41.5 -66.5t64.5 -43t83.5 -15q68 0 110.5 28t74.5 79zM208 980h182l44 -56l44 56h181l-132 -173h-186z" />
    <glyph glyph-name="ccaron" unicode="&#x10d;" horiz-adv-x="560" 
d="M554 69q-42 -41 -98 -60t-121 -19q-69 0 -125.5 20.5t-96.5 58t-62 90t-22 116.5t22 116.5t62.5 90t97.5 58t127 20.5q57 0 107.5 -18.5t89.5 -48.5l-112 -135q-14 14 -33.5 22.5t-47.5 8.5q-48 0 -77 -31t-29 -83q0 -51 28.5 -82.5t77.5 -31.5q66 0 99 40zM95 790h182
l44 -56l44 56h181l-132 -173h-186z" />
    <glyph glyph-name="Dcaron" unicode="&#x10e;" horiz-adv-x="811" 
d="M406 740q83 0 151.5 -26.5t117 -74.5t75 -116t26.5 -151q0 -84 -26.5 -152.5t-75 -117t-117 -75.5t-151.5 -27h-331v740h331zM130 980h182l44 -56l44 56h181l-132 -173h-186zM411 170q34 0 62 14.5t48 41t31 64t11 82.5t-11 81.5t-31 62.5t-48 40t-62 14h-130v-400h130z
" />
    <glyph glyph-name="dcaron" unicode="&#x10f;" horiz-adv-x="719" 
d="M439 780h200v-780h-192l-3 56q-27 -32 -65 -49t-87 -17q-54 0 -101.5 20t-83 57t-56.5 89t-21 116q0 65 21 118t56.5 90.5t83 58.5t101.5 21q47 0 83.5 -16t63.5 -45v281zM902 780l-65 -187h-150l37 187h178zM337 161q46 0 74 31t28 83q0 51 -28 82.5t-74 31.5
q-45 0 -73 -31.5t-28 -83.5q0 -51 28 -82t73 -31z" />
    <glyph glyph-name="Dcroat" unicode="&#x110;" horiz-adv-x="824" 
d="M419 740q83 0 151.5 -26.5t117 -74.5t75 -116t26.5 -151q0 -84 -26.5 -152.5t-75 -117t-117 -75.5t-151.5 -27h-331v301h-70v141h70v298h331zM424 170q34 0 62 14.5t48 41t31 64t11 82.5t-11 81.5t-31 62.5t-48 40t-62 14h-130v-128h131v-141h-131v-131h130z" />
    <glyph glyph-name="dcroat" unicode="&#x111;" 
d="M707 584h-68v-584h-192l-3 56q-27 -32 -65 -49t-87 -17q-54 0 -101.5 20t-83 57t-56.5 89t-21 116q0 65 21 118t56.5 90.5t83 58.5t101.5 21q47 0 83.5 -16t63.5 -45v85h-139v141h139v55h200v-55h68v-141zM337 161q46 0 74 31t28 83q0 51 -28 82.5t-74 31.5
q-45 0 -73 -31.5t-28 -83.5q0 -51 28 -82t73 -31z" />
    <glyph glyph-name="Emacron" unicode="&#x112;" horiz-adv-x="676" 
d="M631 170v-170h-556v740h549v-170h-343v-112h305v-170h-305v-118h350zM549 791h-400v156h400v-156z" />
    <glyph glyph-name="emacron" unicode="&#x113;" horiz-adv-x="636" 
d="M606 284q0 -20 -1.5 -41t-3.5 -38h-358q7 -28 25.5 -43.5t56.5 -15.5q57 0 92 38l155 -75q-34 -52 -97.5 -85.5t-146.5 -33.5q-67 0 -122 20t-94 56t-60.5 87t-21.5 114q0 66 20.5 120t58.5 92.5t91 59.5t118 21t118 -20t91 -56t58.5 -87t20.5 -113zM518 601h-400v156
h400v-156zM318 404q-32 0 -49.5 -17t-25.5 -49h153q-8 33 -26.5 49.5t-51.5 16.5z" />
    <glyph glyph-name="Edotaccent" unicode="&#x116;" horiz-adv-x="676" 
d="M631 170v-170h-556v740h549v-170h-343v-112h305v-170h-305v-118h350zM349 781q-50 0 -82 31.5t-32 81.5t32 82t82 32t81.5 -32t31.5 -82t-31.5 -81.5t-81.5 -31.5z" />
    <glyph glyph-name="edotaccent" unicode="&#x117;" horiz-adv-x="636" 
d="M606 284q0 -20 -1.5 -41t-3.5 -38h-358q7 -28 25.5 -43.5t56.5 -15.5q57 0 92 38l155 -75q-34 -52 -97.5 -85.5t-146.5 -33.5q-67 0 -122 20t-94 56t-60.5 87t-21.5 114q0 66 20.5 120t58.5 92.5t91 59.5t118 21t118 -20t91 -56t58.5 -87t20.5 -113zM318 591
q-50 0 -82 31.5t-32 81.5t32 82t82 32t81.5 -32t31.5 -82t-31.5 -81.5t-81.5 -31.5zM318 404q-32 0 -49.5 -17t-25.5 -49h153q-8 33 -26.5 49.5t-51.5 16.5z" />
    <glyph glyph-name="Eogonek" unicode="&#x118;" horiz-adv-x="676" 
d="M634 -202q-19 -12 -42.5 -20t-61.5 -8q-54 0 -85.5 27t-31.5 72q0 36 20 68t57 63h-415v740h549v-170h-343v-112h305v-170h-305v-118h350v-170q-77 -47 -77 -96q0 -23 27 -23q21 0 37 11z" />
    <glyph glyph-name="eogonek" unicode="&#x119;" horiz-adv-x="636" 
d="M606 284q0 -20 -1.5 -41t-3.5 -38h-358q7 -28 25.5 -43.5t56.5 -15.5q57 0 92 38l155 -75q-25 -38 -66 -66.5t-95 -42.5q-77 -47 -77 -96q0 -23 27 -23q21 0 37 11l16 -94q-19 -12 -42.5 -20t-61.5 -8q-54 0 -85.5 27t-31.5 72q0 35 18.5 66t52.5 60q-53 9 -96.5 32
t-74 58t-47 81t-16.5 101q0 66 20.5 120t58.5 92.5t91 59.5t118 21t118 -20t91 -56t58.5 -87t20.5 -113zM318 404q-32 0 -49.5 -17t-25.5 -49h153q-8 33 -26.5 49.5t-51.5 16.5z" />
    <glyph glyph-name="Ecaron" unicode="&#x11a;" horiz-adv-x="676" 
d="M631 170v-170h-556v740h549v-170h-343v-112h305v-170h-305v-118h350zM122 980h182l44 -56l44 56h181l-132 -173h-186z" />
    <glyph glyph-name="ecaron" unicode="&#x11b;" horiz-adv-x="636" 
d="M606 284q0 -20 -1.5 -41t-3.5 -38h-358q7 -28 25.5 -43.5t56.5 -15.5q57 0 92 38l155 -75q-34 -52 -97.5 -85.5t-146.5 -33.5q-67 0 -122 20t-94 56t-60.5 87t-21.5 114q0 66 20.5 120t58.5 92.5t91 59.5t118 21t118 -20t91 -56t58.5 -87t20.5 -113zM91 790h182l44 -56
l44 56h181l-132 -173h-186zM318 404q-32 0 -49.5 -17t-25.5 -49h153q-8 33 -26.5 49.5t-51.5 16.5z" />
    <glyph glyph-name="Gbreve" unicode="&#x11e;" horiz-adv-x="836" 
d="M812 441q3 -36 3 -71q0 -84 -27 -154t-76.5 -120t-120 -78t-157.5 -28q-90 0 -163.5 27.5t-126 77t-81.5 120t-29 155.5q0 86 28.5 156t80.5 119.5t126 77t165 27.5q86 0 157 -23t120 -64l-135 -128q-19 21 -53.5 33t-85.5 12q-43 0 -78 -15t-60 -42.5t-38.5 -66.5
t-13.5 -86t13.5 -86t38 -66.5t59.5 -42.5t77 -15q65 0 107 30t55 81h-145v170h360zM434 799q-46 0 -83.5 13t-64 36.5t-41 57t-14.5 74.5h148q0 -31 15.5 -50t39.5 -19q25 0 40 19t15 50h148q0 -41 -14.5 -74.5t-41 -57t-64 -36.5t-83.5 -13z" />
    <glyph glyph-name="gbreve" unicode="&#x11f;" 
d="M640 550v-487q0 -66 -25 -120.5t-70.5 -92.5t-109.5 -59t-143 -21q-74 0 -137.5 17t-109.5 50l43 156q48 -32 98 -42t101 -10q66 0 106.5 29.5t45.5 79.5q-26 -29 -62.5 -44.5t-83.5 -15.5q-54 0 -101.5 21t-83 58.5t-56.5 91t-21 117.5t21 116t56.5 89t83 57t101.5 20
q49 0 87 -17t65 -49l3 56h192zM347 609q-46 0 -83.5 13t-64 36.5t-41 57t-14.5 74.5h148q0 -31 15.5 -50t39.5 -19q25 0 40 19t15 50h148q0 -41 -14.5 -74.5t-41 -57t-64 -36.5t-83.5 -13zM338 161q46 0 74 31.5t28 82.5q0 52 -28 83t-74 31q-45 0 -73 -31t-28 -82
q0 -52 28 -83.5t73 -31.5z" />
    <glyph glyph-name="Gdotaccent" unicode="&#x120;" horiz-adv-x="836" 
d="M812 441q3 -36 3 -71q0 -84 -27 -154t-76.5 -120t-120 -78t-157.5 -28q-90 0 -163.5 27.5t-126 77t-81.5 120t-29 155.5q0 86 28.5 156t80.5 119.5t126 77t165 27.5q86 0 157 -23t120 -64l-135 -128q-19 21 -53.5 33t-85.5 12q-43 0 -78 -15t-60 -42.5t-38.5 -66.5
t-13.5 -86t13.5 -86t38 -66.5t59.5 -42.5t77 -15q65 0 107 30t55 81h-145v170h360zM434 781q-50 0 -82 31.5t-32 81.5t32 82t82 32t81.5 -32t31.5 -82t-31.5 -81.5t-81.5 -31.5z" />
    <glyph glyph-name="gdotaccent" unicode="&#x121;" 
d="M640 550v-487q0 -66 -25 -120.5t-70.5 -92.5t-109.5 -59t-143 -21q-74 0 -137.5 17t-109.5 50l43 156q48 -32 98 -42t101 -10q66 0 106.5 29.5t45.5 79.5q-26 -29 -62.5 -44.5t-83.5 -15.5q-54 0 -101.5 21t-83 58.5t-56.5 91t-21 117.5t21 116t56.5 89t83 57t101.5 20
q49 0 87 -17t65 -49l3 56h192zM347 591q-50 0 -82 31.5t-32 81.5t32 82t82 32t81.5 -32t31.5 -82t-31.5 -81.5t-81.5 -31.5zM338 161q46 0 74 31.5t28 82.5q0 52 -28 83t-74 31q-45 0 -73 -31t-28 -82q0 -52 28 -83.5t73 -31.5z" />
    <glyph glyph-name="uni0122" unicode="&#x122;" horiz-adv-x="836" 
d="M812 441q3 -36 3 -71q0 -84 -27 -154t-76.5 -120t-120 -78t-157.5 -28q-90 0 -163.5 27.5t-126 77t-81.5 120t-29 155.5q0 86 28.5 156t80.5 119.5t126 77t165 27.5q86 0 157 -23t120 -64l-135 -128q-19 21 -53.5 33t-85.5 12q-43 0 -78 -15t-60 -42.5t-38.5 -66.5
t-13.5 -86t13.5 -86t38 -66.5t59.5 -42.5t77 -15q65 0 107 30t55 81h-145v170h360zM327 -52h178l-61 -168h-150z" />
    <glyph glyph-name="uni0123" unicode="&#x123;" 
d="M640 550v-487q0 -66 -25 -120.5t-70.5 -92.5t-109.5 -59t-143 -21q-74 0 -137.5 17t-109.5 50l43 156q48 -32 98 -42t101 -10q66 0 106.5 29.5t45.5 79.5q-26 -29 -62.5 -44.5t-83.5 -15.5q-54 0 -101.5 21t-83 58.5t-56.5 91t-21 117.5t21 116t56.5 89t83 57t101.5 20
q49 0 87 -17t65 -49l3 56h192zM423 593h-178l65 187h150zM338 161q46 0 74 31.5t28 82.5q0 52 -28 83t-74 31q-45 0 -73 -31t-28 -82q0 -52 28 -83.5t73 -31.5z" />
    <glyph glyph-name="Hbar" unicode="&#x126;" horiz-adv-x="916" 
d="M892 528h-61v-528h-206v293h-334v-293h-206v528h-60v141h60v71h206v-71h334v71h206v-71h61v-141zM625 528h-334v-65h334v65z" />
    <glyph glyph-name="hbar" unicode="&#x127;" horiz-adv-x="674" 
d="M412 560q48 0 87 -15.5t66.5 -44t43 -68t15.5 -88.5v-344h-200v315q0 34 -23 54t-61 20t-61 -20t-23 -54v-315h-200v584h-68v141h68v55h200v-55h139v-141h-139v-84q32 31 73 45.5t83 14.5z" />
    <glyph glyph-name="Imacron" unicode="&#x12a;" horiz-adv-x="356" 
d="M75 740h206v-740h-206v740zM-23 947h400v-156h-400v156z" />
    <glyph glyph-name="imacron" unicode="&#x12b;" horiz-adv-x="312" 
d="M56 550h200v-550h-200v550zM-43 757h400v-156h-400v156z" />
    <glyph glyph-name="Iogonek" unicode="&#x12e;" horiz-adv-x="356" 
d="M284 -202q-19 -12 -42.5 -20t-61.5 -8q-54 0 -85.5 27t-31.5 72q0 36 20 68t57 63h-65v740h206v-740q-77 -47 -77 -96q0 -23 27 -23q21 0 37 11z" />
    <glyph glyph-name="iogonek" unicode="&#x12f;" horiz-adv-x="312" 
d="M206 -119q21 0 37 11l16 -94q-19 -12 -42.5 -20t-61.5 -8q-54 0 -85.5 27t-31.5 72q0 36 20 68t57 63h-59v550h200v-550q-77 -47 -77 -96q0 -23 27 -23zM157 591q-50 0 -82 31.5t-32 81.5t32 82t82 32t81.5 -32t31.5 -82t-31.5 -81.5t-81.5 -31.5z" />
    <glyph glyph-name="Idotaccent" unicode="&#x130;" horiz-adv-x="356" 
d="M75 740h206v-740h-206v740zM177 781q-50 0 -82 31.5t-32 81.5t32 82t82 32t81.5 -32t31.5 -82t-31.5 -81.5t-81.5 -31.5z" />
    <glyph glyph-name="dotlessi" unicode="&#x131;" horiz-adv-x="312" 
d="M56 550h200v-550h-200v550z" />
    <glyph glyph-name="uni0136" unicode="&#x136;" horiz-adv-x="735" 
d="M752 0h-246l-224 292h-1v-292h-206v740h206v-273l208 273h246l-283 -360zM291 -52h178l-61 -168h-150z" />
    <glyph glyph-name="uni0137" unicode="&#x137;" horiz-adv-x="643" 
d="M256 0h-200v780h200v-392l141 162h252l-243 -260l256 -290h-252l-154 187v-187zM243 -52h178l-61 -168h-150z" />
    <glyph glyph-name="Lacute" unicode="&#x139;" horiz-adv-x="601" 
d="M585 170v-170h-510v740h206v-570h304zM221 807h-168l141 173h229z" />
    <glyph glyph-name="lacute" unicode="&#x13a;" horiz-adv-x="312" 
d="M56 780h200v-780h-200v780zM174 1020h229l-202 -173h-168z" />
    <glyph glyph-name="uni013B" unicode="&#x13b;" horiz-adv-x="601" 
d="M585 170v-170h-510v740h206v-570h304zM211 -52h178l-61 -168h-150z" />
    <glyph glyph-name="uni013C" unicode="&#x13c;" horiz-adv-x="312" 
d="M56 780h200v-780h-200v780zM59 -52h178l-61 -168h-150z" />
    <glyph glyph-name="Lcaron" unicode="&#x13d;" horiz-adv-x="621" 
d="M281 170h304v-170h-510v740h206v-570zM526 510h-180l46 230h208z" />
    <glyph glyph-name="lcaron" unicode="&#x13e;" horiz-adv-x="336" 
d="M56 780h200v-780h-200v780zM341 780h178l-65 -187h-150z" />
    <glyph glyph-name="Lslash" unicode="&#x141;" horiz-adv-x="604" 
d="M588 170v-170h-510v215l-40 -28v158l40 28v367h206v-249l99 70v-158l-99 -70v-163h304z" />
    <glyph glyph-name="lslash" unicode="&#x142;" horiz-adv-x="377" 
d="M362 403l-74 -52v-351h-200v237l-71 -50v158l71 50v385h200v-271l74 52v-158z" />
    <glyph glyph-name="Nacute" unicode="&#x143;" horiz-adv-x="896" 
d="M75 740h127l418 -393l-5 393h206v-740h-126l-418 393l4 -393h-206v740zM465 980h229l-202 -173h-168z" />
    <glyph glyph-name="nacute" unicode="&#x144;" horiz-adv-x="674" 
d="M412 560q48 0 87 -15.5t66.5 -44t43 -68t15.5 -88.5v-344h-200v315q0 34 -23 54t-61 20t-61 -20t-23 -54v-315h-200v550h193l2 -54q33 33 75.5 48.5t85.5 15.5zM387 617h-168l141 173h229z" />
    <glyph glyph-name="uni0145" unicode="&#x145;" horiz-adv-x="896" 
d="M75 740h127l418 -393l-5 393h206v-740h-126l-418 393l4 -393h-206v740zM351 -52h178l-61 -168h-150z" />
    <glyph glyph-name="uni0146" unicode="&#x146;" horiz-adv-x="674" 
d="M412 560q48 0 87 -15.5t66.5 -44t43 -68t15.5 -88.5v-344h-200v315q0 34 -23 54t-61 20t-61 -20t-23 -54v-315h-200v550h193l2 -54q33 33 75.5 48.5t85.5 15.5zM242 -52h178l-61 -168h-150z" />
    <glyph glyph-name="Ncaron" unicode="&#x147;" horiz-adv-x="896" 
d="M821 740v-740h-126l-418 393l4 -393h-206v740h127l418 -393l-5 393h206zM221 980h182l44 -56l44 56h181l-132 -173h-186z" />
    <glyph glyph-name="ncaron" unicode="&#x148;" horiz-adv-x="674" 
d="M412 560q48 0 87 -15.5t66.5 -44t43 -68t15.5 -88.5v-344h-200v315q0 34 -23 54t-61 20t-61 -20t-23 -54v-315h-200v550h193l2 -54q33 33 75.5 48.5t85.5 15.5zM116 790h182l44 -56l44 56h181l-132 -173h-186z" />
    <glyph glyph-name="Eng" unicode="&#x14a;" horiz-adv-x="896" 
d="M821 740v-784q0 -42 -16.5 -76.5t-45.5 -58.5t-69 -37.5t-87 -13.5q-52 0 -90.5 16t-67.5 48l54 137q28 -31 62 -31q26 0 40 14.5t14 37.5v83l-338 318l4 -393h-206v740h127l418 -393l-5 393h206z" />
    <glyph glyph-name="eng" unicode="&#x14b;" horiz-adv-x="674" 
d="M412 560q48 0 87 -15.5t66.5 -44t43 -68t15.5 -88.5v-388q0 -42 -14 -76.5t-39 -58.5t-60.5 -37.5t-79.5 -13.5q-33 0 -64.5 4.5t-55.5 13.5l14 154q11 -1 20.5 -1h22.5q25 0 40.5 16.5t15.5 45.5v312q0 34 -23 54t-61 20t-61 -20t-23 -54v-315h-200v550h193l2 -54
q33 33 75.5 48.5t85.5 15.5z" />
    <glyph glyph-name="Omacron" unicode="&#x14c;" horiz-adv-x="882" 
d="M442 -10q-92 0 -167 27.5t-128.5 77t-83 120t-29.5 155.5q0 86 29.5 156t83 119.5t128.5 77t167 27.5q91 0 166 -27.5t128 -77t82.5 -119.5t29.5 -156q0 -85 -29.5 -155.5t-82.5 -120t-128 -77t-166 -27.5zM242 947h400v-156h-400v156zM442 160q44 0 79.5 15t61 42.5
t39.5 66.5t14 86t-14 86t-39.5 66.5t-61 42.5t-79.5 15t-80 -15t-61.5 -42.5t-39.5 -66.5t-14 -86t14 -86t39.5 -66.5t61.5 -42.5t80 -15z" />
    <glyph glyph-name="omacron" unicode="&#x14d;" horiz-adv-x="672" 
d="M337 -10q-69 0 -126 20.5t-97.5 58t-62.5 90t-22 116.5t22 116.5t62.5 90t97.5 58t126 20.5t125 -20.5t96.5 -58t62.5 -90t22 -116.5t-22 -116.5t-62.5 -90t-96.5 -58t-125 -20.5zM137 757h400v-156h-400v156zM336 161q45 0 72.5 31.5t27.5 82.5q0 52 -27.5 83t-72.5 31
t-73 -31t-28 -83q0 -51 28 -82.5t73 -31.5z" />
    <glyph glyph-name="Ohungarumlaut" unicode="&#x150;" horiz-adv-x="882" 
d="M442 -10q-92 0 -167 27.5t-128.5 77t-83 120t-29.5 155.5q0 86 29.5 156t83 119.5t128.5 77t167 27.5q91 0 166 -27.5t128 -77t82.5 -119.5t29.5 -156q0 -85 -29.5 -155.5t-82.5 -120t-128 -77t-166 -27.5zM333 980h229l-167 -173h-168zM578 980h229l-167 -173h-168z
M442 160q44 0 79.5 15t61 42.5t39.5 66.5t14 86t-14 86t-39.5 66.5t-61 42.5t-79.5 15t-80 -15t-61.5 -42.5t-39.5 -66.5t-14 -86t14 -86t39.5 -66.5t61.5 -42.5t80 -15z" />
    <glyph glyph-name="ohungarumlaut" unicode="&#x151;" horiz-adv-x="672" 
d="M337 -10q-69 0 -126 20.5t-97.5 58t-62.5 90t-22 116.5t22 116.5t62.5 90t97.5 58t126 20.5t125 -20.5t96.5 -58t62.5 -90t22 -116.5t-22 -116.5t-62.5 -90t-96.5 -58t-125 -20.5zM228 790h229l-167 -173h-168zM473 790h229l-167 -173h-168zM336 161q45 0 72.5 31.5
t27.5 82.5q0 52 -27.5 83t-72.5 31t-73 -31t-28 -83q0 -51 28 -82.5t73 -31.5z" />
    <glyph glyph-name="OE" unicode="&#x152;" horiz-adv-x="1244" 
d="M1199 170v-170h-556v48q-90 -58 -215 -58q-88 0 -160.5 27.5t-124.5 77t-80 120t-28 155.5q0 86 28 156t80 119.5t124.5 77t160.5 27.5q125 0 215 -58v48h549v-170h-343v-112h305v-170h-305v-118h350zM443 160q44 0 79.5 15t61 42.5t39.5 66.5t14 86t-14 86t-39.5 66.5
t-61 42.5t-79.5 15t-80 -15t-61.5 -42.5t-39.5 -66.5t-14 -86t14 -86t39.5 -66.5t61.5 -42.5t80 -15z" />
    <glyph glyph-name="oe" unicode="&#x153;" horiz-adv-x="1044" 
d="M1013 284q0 -20 -1 -41t-3 -38h-359q7 -28 25.5 -43.5t57.5 -15.5q56 0 91 38l155 -75q-32 -52 -91 -85.5t-137 -33.5q-68 0 -122 24.5t-90 69.5q-37 -45 -92 -69.5t-124 -24.5q-66 0 -120 20.5t-92.5 58t-59.5 90t-21 116.5t21 116.5t59.5 90t92.5 58t120 20.5
q69 0 124.5 -25t92.5 -70q35 45 85.5 70t114.5 25q62 0 112 -20t86 -56t55.5 -87t19.5 -113zM337 161q45 0 72.5 31.5t27.5 82.5q0 52 -27.5 83t-72.5 31t-73 -31t-28 -83q0 -51 28 -82.5t73 -31.5zM725 404q-31 0 -48.5 -17t-25.5 -49h153q-8 33 -27 49.5t-52 16.5z" />
    <glyph glyph-name="Racute" unicode="&#x154;" horiz-adv-x="763" 
d="M371 242h-90v-242h-206v740h347q61 0 110.5 -18t85 -50.5t55 -78.5t19.5 -102q0 -68 -31 -121t-88 -85l183 -285h-241zM393 807h-168l141 173h229zM281 412h99q45 0 72.5 22t27.5 57t-21.5 57t-58.5 22h-119v-158z" />
    <glyph glyph-name="racute" unicode="&#x155;" horiz-adv-x="445" 
d="M252 489q34 33 81.5 52t104.5 19l-13 -184q-36 0 -67 -7.5t-53.5 -21.5t-35.5 -33t-13 -42v-272h-200v550h193zM283 617h-168l141 173h229z" />
    <glyph glyph-name="uni0156" unicode="&#x156;" horiz-adv-x="763" 
d="M756 0h-241l-144 242h-90v-242h-206v740h347q61 0 110.5 -18t85 -50.5t55 -78.5t19.5 -102q0 -68 -31 -121t-88 -85zM298 -52h178l-61 -168h-150zM281 412h99q45 0 72.5 22t27.5 57t-21.5 57t-58.5 22h-119v-158z" />
    <glyph glyph-name="uni0157" unicode="&#x157;" horiz-adv-x="445" 
d="M252 489q34 33 81.5 52t104.5 19l-13 -184q-36 0 -67 -7.5t-53.5 -21.5t-35.5 -33t-13 -42v-272h-200v550h193zM108 -52h178l-61 -168h-150z" />
    <glyph glyph-name="Rcaron" unicode="&#x158;" horiz-adv-x="763" 
d="M371 242h-90v-242h-206v740h347q61 0 110.5 -18t85 -50.5t55 -78.5t19.5 -102q0 -68 -31 -121t-88 -85l183 -285h-241zM122 980h182l44 -56l44 56h181l-132 -173h-186zM281 412h99q45 0 72.5 22t27.5 57t-21.5 57t-58.5 22h-119v-158z" />
    <glyph glyph-name="rcaron" unicode="&#x159;" horiz-adv-x="445" 
d="M252 489q34 33 81.5 52t104.5 19l-13 -184q-36 0 -67 -7.5t-53.5 -21.5t-35.5 -33t-13 -42v-272h-200v550h193zM12 790h182l44 -56l44 56h181l-132 -173h-186z" />
    <glyph glyph-name="Sacute" unicode="&#x15a;" horiz-adv-x="674" 
d="M338 -10q-82 0 -154.5 25.5t-130.5 73.5l76 138q52 -38 102.5 -52.5t95.5 -14.5q51 0 76 10.5t25 35.5q0 28 -32 42t-86 28l-35 9q-52 14 -95 32t-74 43.5t-48 60.5t-17 83q0 55 21 100.5t60 77.5t93.5 50t121.5 18t136 -20t132 -65l-89 -143q-44 29 -86 43.5t-90 14.5
q-40 0 -63 -11t-23 -31q0 -26 31.5 -39.5t81.5 -26.5l34 -9q46 -12 89 -31.5t76.5 -48.5t54 -68t20.5 -89q0 -53 -22 -96.5t-61.5 -74.5t-95.5 -48t-124 -17zM355 980h229l-202 -173h-168z" />
    <glyph glyph-name="sacute" unicode="&#x15b;" horiz-adv-x="547" 
d="M264 -10q-68 0 -125.5 17.5t-102.5 54.5l74 120q43 -21 81 -29t76 -8q19 0 31 4t12 14q0 12 -19.5 19t-53.5 15l-33 8q-37 9 -67.5 21t-52.5 30t-34 42.5t-12 58.5q0 46 17 83.5t48 64t75 41t98 14.5q69 0 127 -15.5t100 -44.5l-83 -129q-64 33 -131 33q-22 0 -35 -3.5
t-13 -11.5q0 -10 17.5 -16.5t45.5 -13.5l32 -8q39 -10 72 -24t56 -34.5t36 -48.5t13 -67q0 -42 -18 -76.5t-51 -59t-78.5 -38t-101.5 -13.5zM294 790h229l-202 -173h-168z" />
    <glyph glyph-name="Scedilla" unicode="&#x15e;" horiz-adv-x="674" 
d="M641 226q0 -48 -17.5 -87.5t-49.5 -69.5t-78 -49.5t-102 -26.5l-23 -38q41 -6 64.5 -29t23.5 -58q0 -44 -38 -71t-104 -27q-30 0 -58.5 6.5t-45.5 15.5l33 68q9 -5 22.5 -9t27.5 -4q17 0 26 6t9 14q0 16 -28 16q-14 0 -28 -7l-24 42l36 75q-67 7 -126 31.5t-108 64.5
l76 138q52 -38 102.5 -52.5t95.5 -14.5q51 0 76 10.5t25 35.5q0 28 -32 42t-86 28l-35 9q-52 14 -95 32t-74 43.5t-48 60.5t-17 83q0 55 21 100.5t60 77.5t93.5 50t121.5 18t136 -20t132 -65l-89 -143q-44 29 -86 43.5t-90 14.5q-40 0 -63 -11t-23 -31q0 -26 31.5 -39.5
t81.5 -26.5l34 -9q46 -12 89 -31.5t76.5 -48.5t54 -68t20.5 -89z" />
    <glyph glyph-name="scedilla" unicode="&#x15f;" horiz-adv-x="547" 
d="M513 177q0 -72 -49.5 -120t-134.5 -62l-24 -40q41 -6 64.5 -29t23.5 -58q0 -44 -38 -71t-104 -27q-30 0 -58.5 6.5t-45.5 15.5l33 68q9 -5 22.5 -9t27.5 -4q17 0 26 6t9 14q0 16 -28 16q-14 0 -28 -7l-24 42l36 74q-54 5 -101 22t-84 48l74 120q43 -21 81 -29t76 -8
q19 0 31 4t12 14q0 12 -19.5 19t-53.5 15l-33 8q-37 9 -67.5 21t-52.5 30t-34 42.5t-12 58.5q0 46 17 83.5t48 64t75 41t98 14.5q69 0 127 -15.5t100 -44.5l-83 -129q-64 33 -131 33q-22 0 -35 -3.5t-13 -11.5q0 -10 17.5 -16.5t45.5 -13.5l32 -8q39 -10 72 -24t56 -34.5
t36 -48.5t13 -67z" />
    <glyph glyph-name="Scaron" unicode="&#x160;" horiz-adv-x="674" 
d="M401 463q46 -12 89 -31.5t76.5 -48.5t54 -68t20.5 -89q0 -53 -22 -96.5t-61.5 -74.5t-95.5 -48t-124 -17q-82 0 -154.5 25.5t-130.5 73.5l76 138q52 -38 102.5 -52.5t95.5 -14.5q51 0 76 10.5t25 35.5q0 28 -32 42t-86 28l-35 9q-52 14 -95 32t-74 43.5t-48 60.5t-17 83
q0 55 21 100.5t60 77.5t93.5 50t121.5 18t136 -20t132 -65l-89 -143q-44 29 -86 43.5t-90 14.5q-40 0 -63 -11t-23 -31q0 -26 31.5 -39.5t81.5 -26.5zM111 980h182l44 -56l44 56h181l-132 -173h-186z" />
    <glyph glyph-name="scaron" unicode="&#x161;" horiz-adv-x="547" 
d="M336 351q39 -10 72 -24t56 -34.5t36 -48.5t13 -67q0 -42 -18 -76.5t-51 -59t-78.5 -38t-101.5 -13.5q-68 0 -125.5 17.5t-102.5 54.5l74 120q43 -21 81 -29t76 -8q19 0 31 4t12 14q0 12 -19.5 19t-53.5 15l-33 8q-37 9 -67.5 21t-52.5 30t-34 42.5t-12 58.5q0 46 17 83.5
t48 64t75 41t98 14.5q69 0 127 -15.5t100 -44.5l-83 -129q-64 33 -131 33q-22 0 -35 -3.5t-13 -11.5q0 -10 17.5 -16.5t45.5 -13.5zM50 790h182l44 -56l44 56h181l-132 -173h-186z" />
    <glyph glyph-name="uni0162" unicode="&#x162;" horiz-adv-x="664" 
d="M388 0l-27 -45q41 -6 64.5 -29t23.5 -58q0 -44 -38 -71t-104 -27q-30 0 -58.5 6.5t-45.5 15.5l33 68q9 -5 22.5 -9t27.5 -4q17 0 26 6t9 14q0 16 -28 16q-14 0 -28 -7l-24 42l40 82h-52v570h-213v170h632v-170h-213v-570h-47z" />
    <glyph glyph-name="uni0163" unicode="&#x163;" horiz-adv-x="475" 
d="M295 -10h-12t-12 1l-22 -36q41 -6 64.5 -29t23.5 -58q0 -44 -38 -71t-104 -27q-30 0 -58.5 6.5t-45.5 15.5l33 68q9 -5 22.5 -9t27.5 -4q17 0 26 6t9 14q0 16 -28 16q-14 0 -28 -7l-24 42l52 106q-35 26 -54.5 66t-19.5 93v204h-86v163h86v161h200v-161h127v-163h-127
v-162q0 -29 15 -46.5t39 -17.5q41 0 81 17v-160q-35 -14 -73.5 -21t-73.5 -7z" />
    <glyph glyph-name="Tcaron" unicode="&#x164;" horiz-adv-x="664" 
d="M648 570h-213v-570h-206v570h-213v170h632v-170zM105 980h182l44 -56l44 56h181l-132 -173h-186z" />
    <glyph glyph-name="tcaron" unicode="&#x165;" horiz-adv-x="473" 
d="M305 225q0 -29 15 -46.5t39 -17.5q41 0 81 17v-160q-35 -14 -73.5 -21t-73.5 -7q-42 0 -76.5 14t-59.5 39t-38.5 61t-13.5 79v204h-86v163h86v161h200v-161h127v-163h-127v-162zM566 780l-65 -187h-150l37 187h178z" />
    <glyph glyph-name="Tbar" unicode="&#x166;" horiz-adv-x="670" 
d="M438 570v-137h101v-141h-101v-292h-206v292h-100v141h100v137h-213v170h632v-170h-213z" />
    <glyph glyph-name="tbar" unicode="&#x167;" horiz-adv-x="479" 
d="M364 161q41 0 81 17v-160q-35 -14 -73.5 -21t-73.5 -7q-42 0 -76.5 14t-59.5 39t-38.5 61t-13.5 79v24h-80v141h80v39h-86v163h86v161h200v-161h127v-163h-127v-39h118v-141h-116q5 -21 18.5 -33.5t33.5 -12.5z" />
    <glyph glyph-name="Umacron" unicode="&#x16a;" horiz-adv-x="821" 
d="M412 -10q-78 0 -141.5 22t-108.5 62t-70 96.5t-25 125.5v444h206v-435q0 -66 38 -105.5t101 -39.5q61 0 98.5 39.5t37.5 105.5v435h206v-444q0 -69 -24.5 -125.5t-69.5 -96.5t-108 -62t-140 -22zM211 947h400v-156h-400v156z" />
    <glyph glyph-name="umacron" unicode="&#x16b;" horiz-adv-x="647" 
d="M591 550v-550h-192l-3 51q-30 -32 -69 -46.5t-78 -14.5q-45 0 -81.5 15.5t-62.5 43.5t-40.5 68t-14.5 89v344h200v-315q0 -33 19.5 -53.5t51.5 -20.5t51 20.5t19 53.5v315h200zM521 601h-400v156h400v-156z" />
    <glyph glyph-name="Uring" unicode="&#x16e;" horiz-adv-x="821" 
d="M412 -10q-78 0 -141.5 22t-108.5 62t-70 96.5t-25 125.5v444h206v-435q0 -66 38 -105.5t101 -39.5q61 0 98.5 39.5t37.5 105.5v435h206v-444q0 -69 -24.5 -125.5t-69.5 -96.5t-108 -62t-140 -22zM411 774q-57 0 -91.5 30t-34.5 81q0 50 34.5 80t91.5 30t91 -30t34 -80
q0 -51 -34 -81t-91 -30zM411 860q11 0 17.5 7t6.5 18t-6.5 17.5t-17.5 6.5t-18.5 -6.5t-7.5 -17.5t7.5 -18t18.5 -7z" />
    <glyph glyph-name="uring" unicode="&#x16f;" horiz-adv-x="647" 
d="M591 550v-550h-192l-3 51q-30 -32 -69 -46.5t-78 -14.5q-45 0 -81.5 15.5t-62.5 43.5t-40.5 68t-14.5 89v344h200v-315q0 -33 19.5 -53.5t51.5 -20.5t51 20.5t19 53.5v315h200zM321 584q-57 0 -91.5 30t-34.5 81q0 50 34.5 80t91.5 30t91 -30t34 -80q0 -51 -34 -81
t-91 -30zM321 719q-11 0 -18.5 -6.5t-7.5 -17.5t7.5 -18t18.5 -7t17.5 7t6.5 18t-6.5 17.5t-17.5 6.5z" />
    <glyph glyph-name="Uhungarumlaut" unicode="&#x170;" horiz-adv-x="821" 
d="M412 -10q-78 0 -141.5 22t-108.5 62t-70 96.5t-25 125.5v444h206v-435q0 -66 38 -105.5t101 -39.5q61 0 98.5 39.5t37.5 105.5v435h206v-444q0 -69 -24.5 -125.5t-69.5 -96.5t-108 -62t-140 -22zM302 980h229l-167 -173h-168zM547 980h229l-167 -173h-168z" />
    <glyph glyph-name="uhungarumlaut" unicode="&#x171;" horiz-adv-x="647" 
d="M391 550h200v-550h-192l-3 51q-30 -32 -69 -46.5t-78 -14.5q-45 0 -81.5 15.5t-62.5 43.5t-40.5 68t-14.5 89v344h200v-315q0 -33 19.5 -53.5t51.5 -20.5t51 20.5t19 53.5v315zM274 617h-168l106 173h229zM351 617l106 173h229l-167 -173h-168z" />
    <glyph glyph-name="Uogonek" unicode="&#x172;" horiz-adv-x="821" 
d="M754 740v-444q0 -58 -17.5 -107t-49.5 -87t-77.5 -64t-102.5 -38q-76 -48 -76 -96q0 -23 27 -23q21 0 37 11l16 -94q-19 -12 -42.5 -20t-61.5 -8q-54 0 -85.5 27t-31.5 72q0 34 18 64.5t51 59.5q-66 7 -120 31.5t-92.5 64t-59 92t-20.5 115.5v444h206v-435
q0 -66 38 -105.5t101 -39.5q61 0 98.5 39.5t37.5 105.5v435h206z" />
    <glyph glyph-name="uogonek" unicode="&#x173;" horiz-adv-x="647" 
d="M594 -202q-19 -12 -42.5 -20t-61.5 -8q-54 0 -85.5 27t-31.5 72q0 36 20 68t57 63h-51l-3 51q-30 -32 -69 -46.5t-78 -14.5q-45 0 -81.5 15.5t-62.5 43.5t-40.5 68t-14.5 89v344h200v-315q0 -33 19.5 -53.5t51.5 -20.5t51 20.5t19 53.5v315h200v-550q-77 -47 -77 -96
q0 -23 27 -23q21 0 37 11z" />
    <glyph glyph-name="Wcircumflex" unicode="&#x174;" horiz-adv-x="1165" 
d="M1171 740l-246 -740h-191l-152 455l-151 -455h-191l-247 740h220l133 -464l141 464h190l142 -464l132 464h220zM538 807h-182l133 173h186l132 -173h-181l-44 56z" />
    <glyph glyph-name="wcircumflex" unicode="&#x175;" horiz-adv-x="921" 
d="M922 550l-190 -550h-199l-72 268l-73 -268h-199l-190 550h218l86 -324l77 324h161l77 -324l86 324h218zM416 617h-182l133 173h186l132 -173h-181l-44 56z" />
    <glyph glyph-name="Ycircumflex" unicode="&#x176;" horiz-adv-x="726" 
d="M721 740l-255 -494v-246h-206v246l-255 494h219l140 -312l139 312h218zM319 807h-182l133 173h186l132 -173h-181l-44 56z" />
    <glyph glyph-name="ycircumflex" unicode="&#x177;" horiz-adv-x="637" 
d="M639 550l-226 -571q-19 -49 -41 -87.5t-50.5 -65.5t-65 -41.5t-85.5 -14.5q-58 0 -96 19l20 161q18 -9 43 -9q31 0 47.5 17t32.5 46l7 13l-224 533h218l108 -318l94 318h218zM278 617h-182l133 173h186l132 -173h-181l-44 56z" />
    <glyph glyph-name="Ydieresis" unicode="&#x178;" horiz-adv-x="726" 
d="M721 740l-255 -494v-246h-206v246l-255 494h219l140 -312l139 312h218zM221 781q-51 0 -82.5 31t-31.5 82t31.5 82.5t82.5 31.5t82 -31.5t31 -82.5t-31 -82t-82 -31zM508 781q-51 0 -82.5 31t-31.5 82t31.5 82.5t82.5 31.5t82 -31.5t31 -82.5t-31 -82t-82 -31z" />
    <glyph glyph-name="Zacute" unicode="&#x179;" horiz-adv-x="707" 
d="M671 170v-170h-634v127l338 443h-332v170h618v-126l-338 -444h348zM396 807h-168l141 173h229z" />
    <glyph glyph-name="zacute" unicode="&#x17a;" horiz-adv-x="581" 
d="M39 128l212 259h-207v163h491l1 -127l-212 -259h220v-164h-505v128zM307 790h229l-202 -173h-168z" />
    <glyph glyph-name="Zdotaccent" unicode="&#x17b;" horiz-adv-x="707" 
d="M671 170v-170h-634v127l338 443h-332v170h618v-126l-338 -444h348zM352 781q-50 0 -82 31.5t-32 81.5t32 82t82 32t81.5 -32t31.5 -82t-31.5 -81.5t-81.5 -31.5z" />
    <glyph glyph-name="zdotaccent" unicode="&#x17c;" horiz-adv-x="581" 
d="M39 128l212 259h-207v163h491l1 -127l-212 -259h220v-164h-505v128zM290 591q-50 0 -82 31.5t-32 81.5t32 82t82 32t81.5 -32t31.5 -82t-31.5 -81.5t-81.5 -31.5z" />
    <glyph glyph-name="Zcaron" unicode="&#x17d;" horiz-adv-x="707" 
d="M671 170v-170h-634v127l338 443h-332v170h618v-126l-338 -444h348zM125 980h182l44 -56l44 56h181l-132 -173h-186z" />
    <glyph glyph-name="zcaron" unicode="&#x17e;" horiz-adv-x="581" 
d="M544 164v-164h-505v128l212 259h-207v163h491l1 -127l-212 -259h220zM63 790h182l44 -56l44 56h181l-132 -173h-186z" />
    <glyph glyph-name="florin" unicode="&#x192;" horiz-adv-x="534" 
d="M435 580q-20 0 -31.5 -4.5t-18.5 -12t-10 -18.5t-5 -24l-17 -93h125v-163h-154l-65 -365h-199l65 365h-77v163h106l28 155q8 42 28 73t49 52t66.5 31.5t79.5 10.5q35 0 63 -5t46 -13l-22 -160q-12 4 -28.5 6t-28.5 2z" />
    <glyph glyph-name="uni0218" unicode="&#x218;" horiz-adv-x="674" 
d="M338 -10q-82 0 -154.5 25.5t-130.5 73.5l76 138q52 -38 102.5 -52.5t95.5 -14.5q51 0 76 10.5t25 35.5q0 28 -32 42t-86 28l-35 9q-52 14 -95 32t-74 43.5t-48 60.5t-17 83q0 55 21 100.5t60 77.5t93.5 50t121.5 18t136 -20t132 -65l-89 -143q-44 29 -86 43.5t-90 14.5
q-40 0 -63 -11t-23 -31q0 -26 31.5 -39.5t81.5 -26.5l34 -9q46 -12 89 -31.5t76.5 -48.5t54 -68t20.5 -89q0 -53 -22 -96.5t-61.5 -74.5t-95.5 -48t-124 -17zM244 -52h178l-61 -168h-150z" />
    <glyph glyph-name="uni0219" unicode="&#x219;" horiz-adv-x="547" 
d="M264 -10q-68 0 -125.5 17.5t-102.5 54.5l74 120q43 -21 81 -29t76 -8q19 0 31 4t12 14q0 12 -19.5 19t-53.5 15l-33 8q-37 9 -67.5 21t-52.5 30t-34 42.5t-12 58.5q0 46 17 83.5t48 64t75 41t98 14.5q69 0 127 -15.5t100 -44.5l-83 -129q-64 33 -131 33q-22 0 -35 -3.5
t-13 -11.5q0 -10 17.5 -16.5t45.5 -13.5l32 -8q39 -10 72 -24t56 -34.5t36 -48.5t13 -67q0 -42 -18 -76.5t-51 -59t-78.5 -38t-101.5 -13.5zM178 -52h178l-61 -168h-150z" />
    <glyph glyph-name="uni021A" unicode="&#x21a;" horiz-adv-x="664" 
d="M648 570h-213v-570h-206v570h-213v170h632v-170zM234 -52h178l-61 -168h-150z" />
    <glyph glyph-name="uni021B" unicode="&#x21b;" horiz-adv-x="473" 
d="M359 161q41 0 81 17v-160q-35 -14 -73.5 -21t-73.5 -7q-42 0 -76.5 14t-59.5 39t-38.5 61t-13.5 79v204h-86v163h86v161h200v-161h127v-163h-127v-162q0 -29 15 -46.5t39 -17.5zM160 -52h178l-61 -168h-150z" />
    <glyph glyph-name="circumflex" unicode="&#x2c6;" horiz-adv-x="600" 
d="M297 617l-44 56l-44 -56h-182l133 173h186l132 -173h-181z" />
    <glyph glyph-name="caron" unicode="&#x2c7;" horiz-adv-x="600" 
d="M478 790l-132 -173h-186l-133 173h182l44 -56l44 56h181z" />
    <glyph glyph-name="breve" unicode="&#x2d8;" horiz-adv-x="600" 
d="M223 609q-46 0 -83.5 13t-64 36.5t-41 57t-14.5 74.5h148q0 -31 15.5 -50t39.5 -19q25 0 40 19t15 50h148q0 -41 -14.5 -74.5t-41 -57t-64 -36.5t-83.5 -13z" />
    <glyph glyph-name="dotaccent" unicode="&#x2d9;" horiz-adv-x="600" 
d="M151 591q-50 0 -82 31.5t-32 81.5t32 82t82 32t81.5 -32t31.5 -82t-31.5 -81.5t-81.5 -31.5z" />
    <glyph glyph-name="ring" unicode="&#x2da;" horiz-adv-x="600" 
d="M166 584q-57 0 -91.5 30t-34.5 81q0 50 34.5 80t91.5 30t91 -30t34 -80q0 -51 -34 -81t-91 -30zM166 670q11 0 17.5 7t6.5 18t-6.5 17.5t-17.5 6.5t-18.5 -6.5t-7.5 -17.5t7.5 -18t18.5 -7z" />
    <glyph glyph-name="ogonek" unicode="&#x2db;" horiz-adv-x="600" 
d="M158 -230q-54 0 -85.5 27t-31.5 72q0 62 59.5 115.5t158.5 103.5v-88q-77 -47 -77 -96q0 -23 27 -23q21 0 37 11l16 -94q-19 -12 -42.5 -20t-61.5 -8z" />
    <glyph glyph-name="tilde" unicode="&#x2dc;" horiz-adv-x="600" 
d="M309 610q-22 0 -45.5 6.5t-45 14.5t-40 14.5t-30.5 6.5q-28 0 -28 -32h-104q0 78 34.5 124.5t93.5 46.5q24 0 47.5 -6t44.5 -13.5t39 -14t30 -6.5q14 0 21 6.5t7 23.5h104q0 -83 -34.5 -127t-93.5 -44z" />
    <glyph glyph-name="hungarumlaut" unicode="&#x2dd;" horiz-adv-x="600" 
d="M211 790h229l-167 -173h-168zM456 790h229l-167 -173h-168z" />
    <glyph glyph-name="gravecomb" unicode="&#x300;" horiz-adv-x="0" 
d="M-459 790h229l141 -173h-168z" />
    <glyph glyph-name="acutecomb" unicode="&#x301;" horiz-adv-x="0" 
d="M-196 790h229l-202 -173h-168z" />
    <glyph glyph-name="uni0302" unicode="&#x302;" horiz-adv-x="0" 
d="M-209 617l-44 56l-44 -56h-182l133 173h186l132 -173h-181z" />
    <glyph glyph-name="tildecomb" unicode="&#x303;" horiz-adv-x="0" 
d="M-143 610q-22 0 -45.5 6.5t-45 14.5t-40 14.5t-30.5 6.5q-28 0 -28 -32h-104q0 78 34.5 124.5t93.5 46.5q24 0 47.5 -6t44.5 -13.5t39 -14t30 -6.5q14 0 21 6.5t7 23.5h104q0 -83 -34.5 -127t-93.5 -44z" />
    <glyph glyph-name="uni0304" unicode="&#x304;" horiz-adv-x="0" 
d="M-420 757h400v-156h-400v156z" />
    <glyph glyph-name="uni0306" unicode="&#x306;" horiz-adv-x="0" 
d="M-223 609q-46 0 -83.5 13t-64 36.5t-41 57t-14.5 74.5h148q0 -31 15.5 -50t39.5 -19q25 0 40 19t15 50h148q0 -41 -14.5 -74.5t-41 -57t-64 -36.5t-83.5 -13z" />
    <glyph glyph-name="uni0307" unicode="&#x307;" horiz-adv-x="0" 
d="M-150 591q-50 0 -82 31.5t-32 81.5t32 82t82 32t81.5 -32t31.5 -82t-31.5 -81.5t-81.5 -31.5z" />
    <glyph glyph-name="uni0308" unicode="&#x308;" horiz-adv-x="0" 
d="M-438 591q-51 0 -82.5 31t-31.5 82t31.5 82.5t82.5 31.5t82 -31.5t31 -82.5t-31 -82t-82 -31zM-151 591q-51 0 -82.5 31t-31.5 82t31.5 82.5t82.5 31.5t82 -31.5t31 -82.5t-31 -82t-82 -31z" />
    <glyph glyph-name="uni030A" unicode="&#x30a;" horiz-adv-x="0" 
d="M-165 584q-57 0 -91.5 30t-34.5 81q0 50 34.5 80t91.5 30t91 -30t34 -80q0 -51 -34 -81t-91 -30zM-165 670q11 0 17.5 7t6.5 18t-6.5 17.5t-17.5 6.5t-18.5 -6.5t-7.5 -17.5t7.5 -18t18.5 -7z" />
    <glyph glyph-name="uni030B" unicode="&#x30b;" horiz-adv-x="0" 
d="M-427 790h229l-167 -173h-168zM-182 790h229l-167 -173h-168z" />
    <glyph glyph-name="uni030C" unicode="&#x30c;" horiz-adv-x="0" 
d="M-28 790l-132 -173h-186l-133 173h182l44 -56l44 56h181z" />
    <glyph glyph-name="uni0312" unicode="&#x312;" horiz-adv-x="0" 
d="M-203 780h150l-37 -187h-178z" />
    <glyph glyph-name="uni0326" unicode="&#x326;" horiz-adv-x="0" 
d="M-202 -52h178l-61 -168h-150z" />
    <glyph glyph-name="uni0327" unicode="&#x327;" horiz-adv-x="0" 
d="M-97 -45q41 -6 64.5 -29t23.5 -58q0 -44 -38 -71t-104 -27q-30 0 -58.5 6.5t-45.5 15.5l33 68q9 -5 22.5 -9t27.5 -4q17 0 26 6t9 14q0 16 -28 16q-14 0 -28 -7l-24 42l40 82h107z" />
    <glyph glyph-name="uni0328" unicode="&#x328;" horiz-adv-x="0" 
d="M-113 -230q-54 0 -85.5 27t-31.5 72q0 62 59.5 115.5t158.5 103.5v-88q-77 -47 -77 -96q0 -23 27 -23q21 0 37 11l16 -94q-19 -12 -42.5 -20t-61.5 -8z" />
    <glyph glyph-name="uni0335" unicode="&#x335;" horiz-adv-x="0" 
d="M-545 363h407v-141h-407v141z" />
    <glyph glyph-name="uni0336" unicode="&#x336;" horiz-adv-x="0" 
d="M-892 363h867v-141h-867v141z" />
    <glyph glyph-name="uni0337" unicode="&#x337;" horiz-adv-x="0" 
d="M-86 561v-158l-175 -124v27l-170 -119v158l170 119v-27z" />
    <glyph glyph-name="uni0338" unicode="&#x338;" horiz-adv-x="0" 
d="M-552 52l409 698l102 -61l-409 -699z" />
    <glyph glyph-name="tonos" unicode="&#x384;" horiz-adv-x="600" 
d="M171 790h189l-74 -173h-148z" />
    <glyph glyph-name="dieresistonos" unicode="&#x385;" horiz-adv-x="600" 
d="M95 611q-41 0 -67.5 26t-26.5 67t26.5 67.5t67.5 26.5q42 0 67.5 -26.5t25.5 -67.5t-26 -67t-67 -26zM233 790h169l-74 -173h-128zM498 611q-41 0 -67.5 26t-26.5 67t26.5 67.5t67.5 26.5t67 -26.5t26 -67.5t-26 -67t-67 -26z" />
    <glyph glyph-name="Alphatonos" unicode="&#x386;" horiz-adv-x="823" 
d="M572 101h-288l-38 -101h-220l307 740h191l306 -740h-220zM192 567h-148l11 173h189zM508 271l-79 212l-80 -212h159z" />
    <glyph glyph-name="Epsilontonos" unicode="&#x388;" horiz-adv-x="851" 
d="M806 170v-170h-556v740h549v-170h-343v-112h305v-170h-305v-118h350zM6 740h189l-52 -173h-148z" />
    <glyph glyph-name="Etatonos" unicode="&#x389;" horiz-adv-x="1071" 
d="M996 740v-740h-206v293h-334v-293h-206v740h206v-277h334v277h206zM6 740h189l-52 -173h-148z" />
    <glyph glyph-name="Iotatonos" unicode="&#x38a;" horiz-adv-x="531" 
d="M250 740h206v-740h-206v740zM6 740h189l-52 -173h-148z" />
    <glyph glyph-name="Omicrontonos" unicode="&#x38c;" horiz-adv-x="1020" 
d="M580 -10q-92 0 -167 27.5t-128.5 77t-83 120t-29.5 155.5q0 86 29.5 156t83 119.5t128.5 77t167 27.5q91 0 166 -27.5t128 -77t82.5 -119.5t29.5 -156q0 -85 -29.5 -155.5t-82.5 -120t-128 -77t-166 -27.5zM9 740h189l-52 -173h-148zM580 160q44 0 79.5 15t61 42.5
t39.5 66.5t14 86t-14 86t-39.5 66.5t-61 42.5t-79.5 15t-80 -15t-61.5 -42.5t-39.5 -66.5t-14 -86t14 -86t39.5 -66.5t61.5 -42.5t80 -15z" />
    <glyph glyph-name="Upsilontonos" unicode="&#x38e;" horiz-adv-x="973" 
d="M968 740l-255 -494v-246h-206v246l-255 494h219l140 -312l139 312h218zM47 740h189l-52 -173h-148z" />
    <glyph glyph-name="Omegatonos" unicode="&#x38f;" horiz-adv-x="975" 
d="M759 170h157v-170h-318v307q57 11 91 45.5t34 88.5q0 63 -44 101t-116 38t-116 -38t-44 -101q0 -52 33.5 -87t91.5 -47v-307h-318v170h157v3q-84 38 -130.5 107t-46.5 161q0 69 27 126t75.5 97.5t117.5 63t153 22.5q83 0 151.5 -22.5t117.5 -63t75.5 -97.5t26.5 -126
q0 -92 -46 -161.5t-129 -107.5v-2zM199 740l-52 -173h-148l11 173h189z" />
    <glyph glyph-name="iotadieresistonos" unicode="&#x390;" horiz-adv-x="352" 
d="M209 -10q-70 0 -113 40.5t-43 107.5v412h200v-360q0 -13 8 -21t21 -8q22 0 41 13v-156q-27 -14 -56.5 -21t-57.5 -7zM-36 611q-41 0 -67.5 26t-26.5 67t26.5 67.5t67.5 26.5q42 0 67.5 -26.5t25.5 -67.5t-26 -67t-67 -26zM102 790h169l-74 -173h-128zM367 611
q-41 0 -67.5 26t-26.5 67t26.5 67.5t67.5 26.5t67 -26.5t26 -67.5t-26 -67t-67 -26z" />
    <glyph glyph-name="Alpha" unicode="&#x391;" horiz-adv-x="789" 
d="M538 101h-288l-38 -101h-220l307 740h191l306 -740h-220zM474 271l-79 212l-80 -212h159z" />
    <glyph glyph-name="Beta" unicode="&#x392;" horiz-adv-x="732" 
d="M574 397q60 -24 94 -68.5t34 -104.5q0 -50 -20 -91.5t-56 -71t-87 -45.5t-114 -16h-350v740h358q50 0 91.5 -14.5t71 -40.5t45.5 -63.5t16 -82.5q0 -43 -21.5 -79t-61.5 -63zM415 170q34 0 54.5 17t20.5 46q0 28 -20.5 45t-52.5 17h-136v-125h134zM281 465h101
q29 0 46 14.5t17 38.5q0 23 -16 37.5t-42 14.5h-106v-105z" />
    <glyph glyph-name="Gamma" unicode="&#x393;" horiz-adv-x="607" 
d="M591 570h-310v-570h-206v740h516v-170z" />
    <glyph glyph-name="uni0394" unicode="&#x394;" horiz-adv-x="789" 
d="M796 0h-804l307 740h191zM512 170l-117 313l-119 -313h236z" />
    <glyph glyph-name="Epsilon" unicode="&#x395;" horiz-adv-x="676" 
d="M631 170v-170h-556v740h549v-170h-343v-112h305v-170h-305v-118h350z" />
    <glyph glyph-name="Zeta" unicode="&#x396;" horiz-adv-x="707" 
d="M671 170v-170h-634v127l338 443h-332v170h618v-126l-338 -444h348z" />
    <glyph glyph-name="Eta" unicode="&#x397;" horiz-adv-x="896" 
d="M821 740v-740h-206v293h-334v-293h-206v740h206v-277h334v277h206z" />
    <glyph glyph-name="Theta" unicode="&#x398;" horiz-adv-x="882" 
d="M442 -10q-92 0 -167 27.5t-128.5 77t-83 120t-29.5 155.5q0 86 29.5 156t83 119.5t128.5 77t167 27.5q91 0 166 -27.5t128 -77t82.5 -119.5t29.5 -156q0 -85 -29.5 -155.5t-82.5 -120t-128 -77t-166 -27.5zM301 448h280v-156h-280v156zM442 160q44 0 79.5 15t61 42.5
t39.5 66.5t14 86t-14 86t-39.5 66.5t-61 42.5t-79.5 15t-80 -15t-61.5 -42.5t-39.5 -66.5t-14 -86t14 -86t39.5 -66.5t61.5 -42.5t80 -15z" />
    <glyph glyph-name="Iota" unicode="&#x399;" horiz-adv-x="356" 
d="M75 740h206v-740h-206v740z" />
    <glyph glyph-name="Kappa" unicode="&#x39a;" horiz-adv-x="735" 
d="M282 292h-1v-292h-206v740h206v-273l208 273h246l-283 -360l300 -380h-246z" />
    <glyph glyph-name="Lambda" unicode="&#x39b;" horiz-adv-x="789" 
d="M299 740h191l306 -740h-220l-181 483l-183 -483h-220z" />
    <glyph glyph-name="Mu" unicode="&#x39c;" horiz-adv-x="1012" 
d="M756 0l-23 397l-173 -397h-108l-172 395l-24 -395h-206l55 740h231l170 -398l170 398h231l55 -740h-206z" />
    <glyph glyph-name="Nu" unicode="&#x39d;" horiz-adv-x="896" 
d="M75 740h127l418 -393l-5 393h206v-740h-126l-418 393l4 -393h-206v740z" />
    <glyph glyph-name="Xi" unicode="&#x39e;" horiz-adv-x="657" 
d="M50 170h556v-170h-556v170zM73 458h511v-170h-511v170zM54 740h549v-170h-549v170z" />
    <glyph glyph-name="Omicron" unicode="&#x39f;" horiz-adv-x="882" 
d="M442 -10q-92 0 -167 27.5t-128.5 77t-83 120t-29.5 155.5q0 86 29.5 156t83 119.5t128.5 77t167 27.5q91 0 166 -27.5t128 -77t82.5 -119.5t29.5 -156q0 -85 -29.5 -155.5t-82.5 -120t-128 -77t-166 -27.5zM442 160q44 0 79.5 15t61 42.5t39.5 66.5t14 86t-14 86
t-39.5 66.5t-61 42.5t-79.5 15t-80 -15t-61.5 -42.5t-39.5 -66.5t-14 -86t14 -86t39.5 -66.5t61.5 -42.5t80 -15z" />
    <glyph glyph-name="Pi" unicode="&#x3a0;" horiz-adv-x="896" 
d="M821 740v-740h-206v570h-334v-570h-206v740h746z" />
    <glyph glyph-name="Rho" unicode="&#x3a1;" horiz-adv-x="704" 
d="M406 740q62 0 113 -18t87 -51.5t56 -80t20 -103.5q0 -60 -20.5 -109t-58 -84.5t-90.5 -54.5t-118 -19h-114v-220h-206v740h331zM385 390q42 0 63.5 24.5t21.5 65.5t-23 65.5t-62 24.5h-104v-180h104z" />
    <glyph glyph-name="Sigma" unicode="&#x3a3;" horiz-adv-x="669" 
d="M36 130l247 243l-236 237v130h574v-170h-296l210 -197l-222 -203h318v-170h-595v130z" />
    <glyph glyph-name="Tau" unicode="&#x3a4;" horiz-adv-x="664" 
d="M648 570h-213v-570h-206v570h-213v170h632v-170z" />
    <glyph glyph-name="Upsilon" unicode="&#x3a5;" horiz-adv-x="726" 
d="M721 740l-255 -494v-246h-206v246l-255 494h219l140 -312l139 312h218z" />
    <glyph glyph-name="Phi" unicode="&#x3a6;" horiz-adv-x="938" 
d="M910 370q0 -59 -24 -108.5t-68 -85.5t-106.5 -58t-139.5 -27v-91h-206v91q-77 5 -139.5 27t-106.5 58t-68 85.5t-24 108.5t24 108.5t68 85.5t106.5 58t139.5 27v91h206v-91q77 -5 139.5 -27t106.5 -58t68 -85.5t24 -108.5zM241 370q0 -50 34 -80t91 -30v220
q-57 0 -91 -30t-34 -80zM572 260q57 0 91 30t34 80t-34 80t-91 30v-220z" />
    <glyph glyph-name="Chi" unicode="&#x3a7;" horiz-adv-x="731" 
d="M505 0l-139 217l-139 -217h-237l262 384l-247 356h237l123 -191l123 191h237l-247 -355l264 -385h-237z" />
    <glyph glyph-name="Psi" unicode="&#x3a8;" horiz-adv-x="969" 
d="M931 740v-244q0 -65 -24.5 -118.5t-69 -93.5t-107.5 -64t-141 -29v-191h-206v191q-78 5 -142 29t-109 64t-69.5 93.5t-24.5 118.5v244h206v-235q0 -66 38 -105.5t101 -39.5v380h206v-380q61 0 98.5 39.5t37.5 105.5v235h206z" />
    <glyph glyph-name="uni03A9" unicode="&#x3a9;" horiz-adv-x="826" 
d="M610 170h157v-170h-318v307q57 11 91 45.5t34 88.5q0 63 -44 101t-116 38t-116 -38t-44 -101q0 -52 33.5 -87t91.5 -47v-307h-318v170h157v3q-84 38 -130.5 107t-46.5 161q0 69 27 126t75.5 97.5t117.5 63t153 22.5q83 0 151.5 -22.5t117.5 -63t75.5 -97.5t26.5 -126
q0 -92 -46 -161.5t-129 -107.5v-2z" />
    <glyph glyph-name="Iotadieresis" unicode="&#x3aa;" horiz-adv-x="356" 
d="M75 740h206v-740h-206v740zM34 781q-51 0 -82.5 31t-31.5 82t31.5 82.5t82.5 31.5t82 -31.5t31 -82.5t-31 -82t-82 -31zM321 781q-51 0 -82.5 31t-31.5 82t31.5 82.5t82.5 31.5t82 -31.5t31 -82.5t-31 -82t-82 -31z" />
    <glyph glyph-name="Upsilondieresis" unicode="&#x3ab;" horiz-adv-x="726" 
d="M721 740l-255 -494v-246h-206v246l-255 494h219l140 -312l139 312h218zM220 781q-51 0 -82.5 31t-31.5 82t31.5 82.5t82.5 31.5t82 -31.5t31 -82.5t-31 -82t-82 -31zM507 781q-51 0 -82.5 31t-31.5 82t31.5 82.5t82.5 31.5t82 -31.5t31 -82.5t-31 -82t-82 -31z" />
    <glyph glyph-name="alphatonos" unicode="&#x3ac;" horiz-adv-x="738" 
d="M668 161q22 0 41 13v-156q-27 -14 -56.5 -21t-57.5 -7q-50 0 -86.5 21t-54.5 58q-27 -38 -67.5 -58.5t-94.5 -20.5t-101.5 20t-83 57t-56.5 89t-21 116q0 65 21 118t56.5 90.5t83 58.5t101.5 21q49 0 87 -17.5t65 -49.5l3 57h192v-360q0 -13 8 -21t21 -8zM419 617h-148
l33 173h189zM337 161q46 0 74 31t28 83q0 51 -28 82.5t-74 31.5q-45 0 -73 -31.5t-28 -83.5q0 -51 28 -82t73 -31z" />
    <glyph glyph-name="epsilontonos" unicode="&#x3ad;" horiz-adv-x="543" 
d="M536 69q-48 -41 -111.5 -60t-137.5 -19q-54 0 -100.5 11t-81 32t-54 50.5t-19.5 66.5q0 44 30.5 74.5t87.5 48.5q-51 20 -79.5 52.5t-28.5 78.5q0 36 19 65t52.5 49.5t79 31t97.5 10.5q65 0 123.5 -18.5t103.5 -48.5l-104 -115q-17 12 -41 20t-58 8q-30 0 -51 -8t-21 -18
t23.5 -18t83.5 -8v-156q-65 0 -91 -8t-26 -19t22.5 -19t54.5 -8q41 0 70.5 9t50.5 29zM336 617h-148l33 173h189z" />
    <glyph glyph-name="etatonos" unicode="&#x3ae;" horiz-adv-x="674" 
d="M412 560q48 0 87 -15.5t66.5 -44t43 -68t15.5 -88.5v-564h-200v535q0 34 -23 54t-61 20t-61 -20t-23 -54v-315h-200v550h193l2 -54q33 33 75.5 48.5t85.5 15.5zM411 617h-148l33 173h189z" />
    <glyph glyph-name="iotatonos" unicode="&#x3af;" horiz-adv-x="352" 
d="M209 -10q-70 0 -113 40.5t-43 107.5v412h200v-360q0 -13 8 -21t21 -8q22 0 41 13v-156q-27 -14 -56.5 -21t-57.5 -7zM122 790h189l-74 -173h-148z" />
    <glyph glyph-name="upsilondieresistonos" unicode="&#x3b0;" horiz-adv-x="639" 
d="M320 -10q-61 0 -111 17t-85.5 48.5t-55 75t-19.5 97.5v322h200v-315q0 -33 19.5 -53.5t51.5 -20.5t51 20.5t19 53.5v315h200v-322q0 -53 -19.5 -97t-55 -75.5t-85 -48.5t-110.5 -17zM121 611q-41 0 -67.5 26t-26.5 67t26.5 67.5t67.5 26.5q42 0 67.5 -26.5t25.5 -67.5
t-26 -67t-67 -26zM259 790h169l-74 -173h-128zM524 611q-41 0 -67.5 26t-26.5 67t26.5 67.5t67.5 26.5t67 -26.5t26 -67.5t-26 -67t-67 -26z" />
    <glyph glyph-name="alpha" unicode="&#x3b1;" horiz-adv-x="738" 
d="M668 161q22 0 41 13v-156q-27 -14 -56.5 -21t-57.5 -7q-50 0 -86.5 21t-54.5 58q-27 -38 -67.5 -58.5t-94.5 -20.5t-101.5 20t-83 57t-56.5 89t-21 116q0 65 21 118t56.5 90.5t83 58.5t101.5 21q49 0 87 -17.5t65 -49.5l3 57h192v-360q0 -13 8 -21t21 -8zM337 161
q46 0 74 31t28 83q0 51 -28 82.5t-74 31.5q-45 0 -73 -31.5t-28 -83.5q0 -51 28 -82t73 -31z" />
    <glyph glyph-name="beta" unicode="&#x3b2;" horiz-adv-x="649" 
d="M494 422q60 -29 93 -77t33 -111q0 -55 -17.5 -100t-49 -77t-76 -49.5t-98.5 -17.5q-72 0 -123 45v-255h-200v801q0 47 18.5 85.5t52.5 66t82 42.5t106 15q60 0 109 -15t84 -42.5t54 -66t19 -85.5q0 -51 -22.5 -91t-64.5 -68zM334 161q35 0 57 24t22 64q0 41 -26 65.5
t-71 24.5v156q26 0 42 17.5t16 46.5q0 27 -16 43.5t-43 16.5q-26 0 -42.5 -15.5t-16.5 -41.5v-313q0 -40 21.5 -64t56.5 -24z" />
    <glyph glyph-name="gamma" unicode="&#x3b3;" horiz-adv-x="638" 
d="M420 2v-222h-200v220l-220 550h218l101 -324l101 324h218z" />
    <glyph glyph-name="delta" unicode="&#x3b4;" horiz-adv-x="671" 
d="M270 584q0 -21 27.5 -33t69 -24t89.5 -28t89.5 -45.5t69 -77t27.5 -121.5q0 -60 -22 -108.5t-62.5 -83.5t-97 -54t-125.5 -19t-125.5 16.5t-96.5 47.5t-62 74t-22 95q0 77 46 129.5t125 68.5q-28 9 -53.5 21.5t-44.5 32t-30 47.5t-11 67q0 45 19 82.5t54.5 63.5t85 40.5
t109.5 14.5q30 0 63 -3.5t66 -10.5t64.5 -16t58.5 -21l-54 -164q-41 20 -89.5 32t-88.5 12q-35 0 -57 -9.5t-22 -25.5zM335 161q46 0 73.5 26t27.5 68t-27.5 67t-73.5 25t-73.5 -25t-27.5 -67t27.5 -68t73.5 -26z" />
    <glyph glyph-name="epsilon" unicode="&#x3b5;" horiz-adv-x="543" 
d="M536 69q-48 -41 -111.5 -60t-137.5 -19q-54 0 -100.5 11t-81 32t-54 50.5t-19.5 66.5q0 44 30.5 74.5t87.5 48.5q-51 20 -79.5 52.5t-28.5 78.5q0 36 19 65t52.5 49.5t79 31t97.5 10.5q65 0 123.5 -18.5t103.5 -48.5l-104 -115q-17 12 -41 20t-58 8q-30 0 -51 -8t-21 -18
t23.5 -18t83.5 -8v-156q-65 0 -91 -8t-26 -19t22.5 -19t54.5 -8q41 0 70.5 9t50.5 29z" />
    <glyph glyph-name="zeta" unicode="&#x3b6;" horiz-adv-x="570" 
d="M320 -100q5 10 8 21.5t3 20.5q0 13 -8 21.5t-22.5 15t-33 11.5t-39.5 10q-33 8 -68.5 18.5t-65 29t-48.5 49t-19 78.5q0 44 19.5 98.5t55.5 113.5t86.5 119.5t111.5 117.5h-261v156h519v-129q-73 -68 -132.5 -132.5t-102 -120.5t-65.5 -100.5t-23 -73.5q0 -17 10.5 -29
t27.5 -20t39.5 -14.5t47.5 -12.5q31 -8 62 -17.5t56 -25.5t41 -39.5t16 -59.5q0 -21 -8 -50.5t-22 -55.5h-185z" />
    <glyph glyph-name="eta" unicode="&#x3b7;" horiz-adv-x="674" 
d="M412 560q48 0 87 -15.5t66.5 -44t43 -68t15.5 -88.5v-564h-200v535q0 34 -23 54t-61 20t-61 -20t-23 -54v-315h-200v550h193l2 -54q33 33 75.5 48.5t85.5 15.5z" />
    <glyph glyph-name="theta" unicode="&#x3b8;" horiz-adv-x="702" 
d="M352 790q71 0 129 -28.5t99.5 -81t64.5 -126.5t23 -164t-23 -163.5t-64.5 -126t-99.5 -81.5t-129 -29q-72 0 -130.5 29t-100 81.5t-64.5 126t-23 163.5t23 164t64.5 126.5t100 81t130.5 28.5zM351 161q40 0 67 40.5t38 110.5h-211q11 -70 38.5 -110.5t67.5 -40.5z
M351 619q-40 0 -67.5 -40t-38.5 -111h211q-11 71 -38 111t-67 40z" />
    <glyph glyph-name="iota" unicode="&#x3b9;" horiz-adv-x="352" 
d="M209 -10q-70 0 -113 40.5t-43 107.5v412h200v-360q0 -13 8 -21t21 -8q22 0 41 13v-156q-27 -14 -56.5 -21t-57.5 -7z" />
    <glyph glyph-name="kappa" unicode="&#x3ba;" horiz-adv-x="643" 
d="M410 0l-154 187v-187h-200v550h200v-162l141 162h252l-243 -260l256 -290h-252z" />
    <glyph glyph-name="lambda" unicode="&#x3bb;" horiz-adv-x="639" 
d="M214 533l-103 247h218l309 -780h-218l-104 318l-98 -318h-218z" />
    <glyph glyph-name="uni03BC" unicode="&#x3bc;" horiz-adv-x="647" 
d="M597 550v-344q0 -49 -14.5 -89t-40.5 -68t-62.5 -43.5t-81.5 -15.5q-37 0 -74.5 13.5t-67.5 42.5v-266h-200v770h200v-315q0 -33 19 -53.5t51 -20.5t51.5 20.5t19.5 53.5v315h200z" />
    <glyph glyph-name="nu" unicode="&#x3bd;" horiz-adv-x="638" 
d="M0 550h218l101 -324l101 324h218l-219 -550h-199z" />
    <glyph glyph-name="xi" unicode="&#x3be;" horiz-adv-x="543" 
d="M362 151q31 -10 61.5 -21t55 -26.5t40 -36.5t15.5 -51q0 -52 -30 -116h-185q6 12 8.5 23t2.5 19q0 23 -28 36.5t-68 27.5q-33 12 -68.5 27t-65.5 38t-49.5 57t-19.5 84q0 70 45.5 117t127.5 72q-77 25 -120 70.5t-43 112.5q0 48 21.5 86t59 65t88 41t109.5 14
q65 0 123.5 -18.5t103.5 -48.5l-104 -115q-17 12 -41 20t-58 8q-43 0 -72.5 -20t-29.5 -46q0 -16 9.5 -31.5t30.5 -27.5t54.5 -19.5t82.5 -7.5v-156q-51 0 -87 -7.5t-58 -20t-32 -28.5t-10 -33t11 -29.5t29 -23t41.5 -19t49.5 -16.5z" />
    <glyph glyph-name="omicron" unicode="&#x3bf;" horiz-adv-x="672" 
d="M337 -10q-69 0 -126 20.5t-97.5 58t-62.5 90t-22 116.5t22 116.5t62.5 90t97.5 58t126 20.5t125 -20.5t96.5 -58t62.5 -90t22 -116.5t-22 -116.5t-62.5 -90t-96.5 -58t-125 -20.5zM336 161q45 0 72.5 31.5t27.5 82.5q0 52 -27.5 83t-72.5 31t-73 -31t-28 -83
q0 -51 28 -82.5t73 -31.5z" />
    <glyph glyph-name="pi" unicode="&#x3c0;" horiz-adv-x="713" 
d="M628 161q22 0 41 13v-156q-27 -14 -56.5 -21t-57.5 -7q-70 0 -113 40.5t-43 107.5v249h-105v-387h-200v387h-59v163h632v-163h-68v-197q0 -13 8 -21t21 -8z" />
    <glyph glyph-name="rho" unicode="&#x3c1;" horiz-adv-x="681" 
d="M343 560q69 0 126 -20t97.5 -57.5t62.5 -90t22 -117.5q0 -64 -21 -117t-57 -90t-83.5 -57.5t-100.5 -20.5q-47 0 -83 15t-63 44v-269h-200v453q0 72 21.5 132.5t61 103.5t95 67t122.5 24zM343 161q46 0 73.5 31t27.5 83q0 51 -27.5 82.5t-73.5 31.5q-45 0 -72.5 -31.5
t-27.5 -82.5q0 -52 27.5 -83t72.5 -31z" />
    <glyph glyph-name="sigma1" unicode="&#x3c2;" horiz-adv-x="542" 
d="M300 -100q6 12 8.5 23t2.5 19q0 19 -20.5 30t-51.5 22t-67.5 27.5t-67.5 47.5t-52 80t-21 126q0 64 22 116.5t62.5 90t97.5 58t127 20.5q57 0 107.5 -18.5t89.5 -48.5l-112 -135q-14 14 -33.5 22.5t-47.5 8.5q-48 0 -77 -31t-29 -83q0 -30 12 -51t32 -36t45.5 -26
t51.5 -21t50.5 -20t43.5 -24.5t30.5 -33.5t11.5 -47q0 -52 -30 -116h-185z" />
    <glyph glyph-name="sigma" unicode="&#x3c3;" horiz-adv-x="737" 
d="M730 387h-150q63 -55 63 -147q0 -56 -22 -102t-62.5 -79t-96.5 -51t-125 -18t-126 20t-97.5 57t-62.5 88.5t-22 114.5t22 114.5t62.5 88.5t97.5 57t126 20h393v-163zM336 161q45 0 72.5 30t27.5 79q0 50 -27.5 79.5t-72.5 29.5t-73 -29.5t-28 -79.5q0 -49 28 -79t73 -30z
" />
    <glyph glyph-name="tau" unicode="&#x3c4;" horiz-adv-x="578" 
d="M378 387v-162q0 -29 15 -46.5t39 -17.5q41 0 81 17v-160q-35 -14 -73.5 -21t-73.5 -7q-42 0 -76.5 14t-59.5 39t-38.5 61t-13.5 79v204h-162v163h533v-163h-171z" />
    <glyph glyph-name="upsilon" unicode="&#x3c5;" horiz-adv-x="639" 
d="M320 -10q-61 0 -111 17t-85.5 48.5t-55 75t-19.5 97.5v322h200v-315q0 -33 19.5 -53.5t51.5 -20.5t51 20.5t19 53.5v315h200v-322q0 -53 -19.5 -97t-55 -75.5t-85 -48.5t-110.5 -17z" />
    <glyph glyph-name="phi" unicode="&#x3c6;" horiz-adv-x="872" 
d="M843 275q0 -60 -22 -110t-62 -87t-96.5 -59.5t-126.5 -27.5v-211h-200v211q-70 5 -126.5 27.5t-96.5 59.5t-62 87t-22 110q0 83 53.5 151t146.5 109l69 -163q-29 -14 -46 -43.5t-17 -63.5q0 -47 28 -75.5t73 -28.5v389q39 5 83 7.5t77 2.5q78 0 142 -20.5t109.5 -58
t70.5 -90t25 -116.5zM536 161q45 0 73 31.5t28 82.5q0 52 -28 83t-73 31v-228z" />
    <glyph glyph-name="chi" unicode="&#x3c7;" horiz-adv-x="612" 
d="M391 -220l-84 177l-85 -177h-231l204 392l-192 378h232l71 -154l72 154h231l-192 -377l205 -393h-231z" />
    <glyph glyph-name="psi" unicode="&#x3c8;" horiz-adv-x="839" 
d="M790 550v-322q0 -49 -19 -90.5t-54.5 -72.5t-85 -50t-111.5 -23v-212h-200v212q-61 4 -111.5 23t-85.5 49.5t-54.5 72t-19.5 91.5v322h200v-315q0 -33 19.5 -53.5t51.5 -20.5v389h200v-389q32 0 51 20.5t19 53.5v315h200z" />
    <glyph glyph-name="omega" unicode="&#x3c9;" horiz-adv-x="882" 
d="M787 550q14 -28 25 -62t18.5 -71t12 -75t4.5 -74q0 -63 -16 -114t-44.5 -87.5t-69 -56.5t-90.5 -20q-63 0 -110 30.5t-76 85.5q-28 -55 -75.5 -85.5t-109.5 -30.5q-50 0 -90.5 20t-69.5 56.5t-45 87.5t-16 114q0 36 4.5 74t12 75t19 71t24.5 62h200q-13 -27 -23.5 -60.5
t-18 -69.5t-11.5 -73t-4 -72q0 -51 14.5 -82.5t38.5 -31.5q23 0 37.5 31.5t14.5 82.5v135h196v-135q0 -51 14.5 -82.5t38.5 -31.5q23 0 37.5 31.5t14.5 82.5q0 35 -4 72t-11.5 73t-18 69.5t-23.5 60.5h200z" />
    <glyph glyph-name="iotadieresis" unicode="&#x3ca;" horiz-adv-x="352" 
d="M209 -10q-70 0 -113 40.5t-43 107.5v412h200v-360q0 -13 8 -21t21 -8q22 0 41 13v-156q-27 -14 -56.5 -21t-57.5 -7zM20 591q-51 0 -82.5 31t-31.5 82t31.5 82.5t82.5 31.5t82 -31.5t31 -82.5t-31 -82t-82 -31zM307 591q-51 0 -82.5 31t-31.5 82t31.5 82.5t82.5 31.5
t82 -31.5t31 -82.5t-31 -82t-82 -31z" />
    <glyph glyph-name="upsilondieresis" unicode="&#x3cb;" horiz-adv-x="639" 
d="M320 -10q-61 0 -111 17t-85.5 48.5t-55 75t-19.5 97.5v322h200v-315q0 -33 19.5 -53.5t51.5 -20.5t51 20.5t19 53.5v315h200v-322q0 -53 -19.5 -97t-55 -75.5t-85 -48.5t-110.5 -17zM177 591q-51 0 -82.5 31t-31.5 82t31.5 82.5t82.5 31.5t82 -31.5t31 -82.5t-31 -82
t-82 -31zM464 591q-51 0 -82.5 31t-31.5 82t31.5 82.5t82.5 31.5t82 -31.5t31 -82.5t-31 -82t-82 -31z" />
    <glyph glyph-name="omicrontonos" unicode="&#x3cc;" horiz-adv-x="672" 
d="M337 -10q-69 0 -126 20.5t-97.5 58t-62.5 90t-22 116.5t22 116.5t62.5 90t97.5 58t126 20.5t125 -20.5t96.5 -58t62.5 -90t22 -116.5t-22 -116.5t-62.5 -90t-96.5 -58t-125 -20.5zM296 790h189l-74 -173h-148zM336 161q45 0 72.5 31.5t27.5 82.5q0 52 -27.5 83t-72.5 31
t-73 -31t-28 -83q0 -51 28 -82.5t73 -31.5z" />
    <glyph glyph-name="upsilontonos" unicode="&#x3cd;" horiz-adv-x="639" 
d="M320 -10q-61 0 -111 17t-85.5 48.5t-55 75t-19.5 97.5v322h200v-315q0 -33 19.5 -53.5t51.5 -20.5t51 20.5t19 53.5v315h200v-322q0 -53 -19.5 -97t-55 -75.5t-85 -48.5t-110.5 -17zM279 790h189l-74 -173h-148z" />
    <glyph glyph-name="omegatonos" unicode="&#x3ce;" horiz-adv-x="882" 
d="M787 550q14 -28 25 -62t18.5 -71t12 -75t4.5 -74q0 -63 -16 -114t-44.5 -87.5t-69 -56.5t-90.5 -20q-63 0 -110 30.5t-76 85.5q-28 -55 -75.5 -85.5t-109.5 -30.5q-50 0 -90.5 20t-69.5 56.5t-45 87.5t-16 114q0 36 4.5 74t12 75t19 71t24.5 62h200q-13 -27 -23.5 -60.5
t-18 -69.5t-11.5 -73t-4 -72q0 -51 14.5 -82.5t38.5 -31.5q23 0 37.5 31.5t14.5 82.5v135h196v-135q0 -51 14.5 -82.5t38.5 -31.5q23 0 37.5 31.5t14.5 82.5q0 35 -4 72t-11.5 73t-18 69.5t-23.5 60.5h200zM515 617h-148l33 173h189z" />
    <glyph glyph-name="uni0401" unicode="&#x401;" horiz-adv-x="676" 
d="M631 170v-170h-556v740h549v-170h-343v-112h305v-170h-305v-118h350zM206 781q-51 0 -82.5 31t-31.5 82t31.5 82.5t82.5 31.5t82 -31.5t31 -82.5t-31 -82t-82 -31zM493 781q-51 0 -82.5 31t-31.5 82t31.5 82.5t82.5 31.5t82 -31.5t31 -82.5t-31 -82t-82 -31z" />
    <glyph glyph-name="uni0402" unicode="&#x402;" horiz-adv-x="803" 
d="M562 460q51 0 93 -17t72 -48t46.5 -74.5t16.5 -96.5q0 -52 -18.5 -95.5t-53 -74t-82 -47.5t-106.5 -17q-52 0 -102 10l16 163q24 -6 46 -6q42 0 68 18.5t26 48.5q0 29 -25.5 47t-68.5 18t-68.5 -23t-25.5 -61v-205h-206v570h-173v170h552v-170h-173v-172q35 32 78 47
t88 15z" />
    <glyph glyph-name="uni0403" unicode="&#x403;" horiz-adv-x="580" 
d="M565 570h-284v-570h-206v740h490v-170zM334 807h-168l141 173h229z" />
    <glyph glyph-name="uni0404" unicode="&#x404;" horiz-adv-x="783" 
d="M774 143q-58 -78 -140 -115.5t-188 -37.5q-92 0 -168 27.5t-130 78t-84 121t-30 156.5q0 85 29.5 154.5t83.5 119t129.5 76.5t167.5 27q91 0 168.5 -27.5t135.5 -90.5l-129 -132q-25 37 -71 58.5t-103 21.5q-72 0 -121.5 -37.5t-67.5 -101.5h226v-141h-225
q19 -65 70 -102.5t124 -37.5q68 0 110.5 28t74.5 79z" />
    <glyph glyph-name="uni0405" unicode="&#x405;" horiz-adv-x="674" 
d="M338 -10q-82 0 -154.5 25.5t-130.5 73.5l76 138q52 -38 102.5 -52.5t95.5 -14.5q51 0 76 10.5t25 35.5q0 28 -32 42t-86 28l-35 9q-52 14 -95 32t-74 43.5t-48 60.5t-17 83q0 55 21 100.5t60 77.5t93.5 50t121.5 18t136 -20t132 -65l-89 -143q-44 29 -86 43.5t-90 14.5
q-40 0 -63 -11t-23 -31q0 -26 31.5 -39.5t81.5 -26.5l34 -9q46 -12 89 -31.5t76.5 -48.5t54 -68t20.5 -89q0 -53 -22 -96.5t-61.5 -74.5t-95.5 -48t-124 -17z" />
    <glyph glyph-name="uni0406" unicode="&#x406;" horiz-adv-x="356" 
d="M75 740h206v-740h-206v740z" />
    <glyph glyph-name="uni0407" unicode="&#x407;" horiz-adv-x="356" 
d="M75 740h206v-740h-206v740zM34 781q-51 0 -82.5 31t-31.5 82t31.5 82.5t82.5 31.5t82 -31.5t31 -82.5t-31 -82t-82 -31zM321 781q-51 0 -82.5 31t-31.5 82t31.5 82.5t82.5 31.5t82 -31.5t31 -82.5t-31 -82t-82 -31z" />
    <glyph glyph-name="uni0408" unicode="&#x408;" horiz-adv-x="446" 
d="M157 -10q-52 0 -90.5 16.5t-67.5 48.5l54 137q15 -17 30 -24.5t32 -7.5q26 0 40 14.5t14 37.5v528h206v-564q0 -42 -16.5 -76.5t-45.5 -58.5t-69 -37.5t-87 -13.5z" />
    <glyph glyph-name="uni0409" unicode="&#x409;" horiz-adv-x="1224" 
d="M933 465q62 0 112 -16.5t86 -47t55.5 -73.5t19.5 -95t-20 -95t-56 -73.5t-87 -47.5t-114 -17h-350v570h-235l-24 -348q-3 -52 -25 -95t-59 -73.5t-87 -47t-110 -16.5v180q32 0 52.5 19t22.5 51l35 500h636v-275h148zM919 170q34 0 54.5 17t20.5 46q0 28 -20.5 45
t-52.5 17h-136v-125h134z" />
    <glyph glyph-name="uni040A" unicode="&#x40a;" horiz-adv-x="1260" 
d="M969 465q62 0 112 -16.5t86 -47t55.5 -73.5t19.5 -95t-20 -95t-56 -73.5t-87 -47.5t-114 -17h-350v293h-334v-293h-206v740h206v-277h334v277h206v-275h148zM955 170q34 0 54.5 17t20.5 46q0 28 -20.5 45t-52.5 17h-136v-125h134z" />
    <glyph glyph-name="uni040B" unicode="&#x40b;" horiz-adv-x="822" 
d="M562 460q51 0 93 -16t72 -46t46.5 -71.5t16.5 -92.5v-234h-206v205q0 38 -25.5 61t-68.5 23t-68.5 -23t-25.5 -61v-205h-206v570h-173v170h552v-170h-173v-172q35 32 78 47t88 15z" />
    <glyph glyph-name="uni040C" unicode="&#x40c;" horiz-adv-x="735" 
d="M282 292h-1v-292h-206v740h206v-273l208 273h246l-283 -360l300 -380h-246zM412 807h-168l141 173h229z" />
    <glyph glyph-name="uni040E" unicode="&#x40e;" horiz-adv-x="716" 
d="M723 740l-303 -740h-220l73 178l-270 562h220l154 -338l126 338h220zM364 799q-46 0 -83.5 13t-64 36.5t-41 57t-14.5 74.5h148q0 -31 15.5 -50t39.5 -19q25 0 40 19t15 50h148q0 -41 -14.5 -74.5t-41 -57t-64 -36.5t-83.5 -13z" />
    <glyph glyph-name="uni040F" unicode="&#x40f;" horiz-adv-x="837" 
d="M762 740v-740h-240v-100h-206v100h-241v740h206v-570h275v570h206z" />
    <glyph glyph-name="uni0410" unicode="&#x410;" horiz-adv-x="789" 
d="M538 101h-288l-38 -101h-220l307 740h191l306 -740h-220zM474 271l-79 212l-80 -212h159z" />
    <glyph glyph-name="uni0411" unicode="&#x411;" horiz-adv-x="721" 
d="M429 465q62 0 112 -16.5t86 -47t55.5 -73.5t19.5 -95t-20 -95t-56 -73.5t-87 -47.5t-114 -17h-350v740h540v-170h-334v-105h148zM415 170q34 0 54.5 17t20.5 46q0 28 -20.5 45t-52.5 17h-136v-125h134z" />
    <glyph glyph-name="uni0412" unicode="&#x412;" horiz-adv-x="732" 
d="M574 397q60 -24 94 -68.5t34 -104.5q0 -50 -20 -91.5t-56 -71t-87 -45.5t-114 -16h-350v740h358q50 0 91.5 -14.5t71 -40.5t45.5 -63.5t16 -82.5q0 -43 -21.5 -79t-61.5 -63zM415 170q34 0 54.5 17t20.5 46q0 28 -20.5 45t-52.5 17h-136v-125h134zM281 465h101
q29 0 46 14.5t17 38.5q0 23 -16 37.5t-42 14.5h-106v-105z" />
    <glyph glyph-name="uni0413" unicode="&#x413;" horiz-adv-x="580" 
d="M565 570h-284v-570h-206v740h490v-170z" />
    <glyph glyph-name="uni0414" unicode="&#x414;" horiz-adv-x="979" 
d="M959 170v-270h-206v100h-534v-100h-206v270h70q32 0 52.5 19t22.5 51l35 500h636v-570h130zM623 170v400h-236l-22 -310q-2 -25 -9.5 -47.5t-20.5 -42.5h288z" />
    <glyph glyph-name="uni0415" unicode="&#x415;" horiz-adv-x="676" 
d="M631 170v-170h-556v740h549v-170h-343v-112h305v-170h-305v-118h350z" />
    <glyph glyph-name="uni0416" unicode="&#x416;" horiz-adv-x="1062" 
d="M829 0l-195 280v-280h-206v280l-195 -280h-246l273 380l-256 360h246l178 -259v259h206v-259l178 259h246l-256 -360l273 -380h-246z" />
    <glyph glyph-name="uni0417" unicode="&#x417;" horiz-adv-x="643" 
d="M474 396q65 -25 101.5 -69t36.5 -103q0 -52 -22.5 -95.5t-64 -74t-100 -47.5t-130.5 -17q-73 0 -145 21.5t-145 78.5l100 140q45 -39 90 -54.5t90 -15.5q52 0 83.5 20t31.5 53q0 32 -28.5 52t-74.5 20h-92v150h57q42 0 67.5 17t25.5 46q0 28 -27 45t-71 17
q-33 0 -66 -10.5t-66 -39.5l-90 130q67 51 134 70.5t134 19.5q59 0 108 -15t83.5 -43t53.5 -66.5t19 -86.5q0 -44 -24 -80.5t-69 -62.5z" />
    <glyph glyph-name="uni0418" unicode="&#x418;" horiz-adv-x="896" 
d="M615 0l4 393l-418 -393h-126v740h206l-5 -393l418 393h127v-740h-206z" />
    <glyph glyph-name="uni0419" unicode="&#x419;" horiz-adv-x="896" 
d="M615 0l4 393l-418 -393h-126v740h206l-5 -393l418 393h127v-740h-206zM448 799q-46 0 -83.5 13t-64 36.5t-41 57t-14.5 74.5h148q0 -31 15.5 -50t39.5 -19q25 0 40 19t15 50h148q0 -41 -14.5 -74.5t-41 -57t-64 -36.5t-83.5 -13z" />
    <glyph glyph-name="uni041A" unicode="&#x41a;" horiz-adv-x="735" 
d="M282 292h-1v-292h-206v740h206v-273l208 273h246l-283 -360l300 -380h-246z" />
    <glyph glyph-name="uni041B" unicode="&#x41b;" horiz-adv-x="860" 
d="M785 0h-206v570h-235l-24 -348q-3 -52 -25 -95t-59 -73.5t-87 -47t-110 -16.5v180q32 0 52.5 19t22.5 51l35 500h636v-740z" />
    <glyph glyph-name="uni041C" unicode="&#x41c;" horiz-adv-x="1012" 
d="M756 0l-23 397l-173 -397h-108l-172 395l-24 -395h-206l55 740h231l170 -398l170 398h231l55 -740h-206z" />
    <glyph glyph-name="uni041D" unicode="&#x41d;" horiz-adv-x="896" 
d="M821 740v-740h-206v293h-334v-293h-206v740h206v-277h334v277h206z" />
    <glyph glyph-name="uni041E" unicode="&#x41e;" horiz-adv-x="882" 
d="M442 -10q-92 0 -167 27.5t-128.5 77t-83 120t-29.5 155.5q0 86 29.5 156t83 119.5t128.5 77t167 27.5q91 0 166 -27.5t128 -77t82.5 -119.5t29.5 -156q0 -85 -29.5 -155.5t-82.5 -120t-128 -77t-166 -27.5zM442 160q44 0 79.5 15t61 42.5t39.5 66.5t14 86t-14 86
t-39.5 66.5t-61 42.5t-79.5 15t-80 -15t-61.5 -42.5t-39.5 -66.5t-14 -86t14 -86t39.5 -66.5t61.5 -42.5t80 -15z" />
    <glyph glyph-name="uni041F" unicode="&#x41f;" horiz-adv-x="896" 
d="M821 740v-740h-206v570h-334v-570h-206v740h746z" />
    <glyph glyph-name="uni0420" unicode="&#x420;" horiz-adv-x="704" 
d="M406 740q62 0 113 -18t87 -51.5t56 -80t20 -103.5q0 -60 -20.5 -109t-58 -84.5t-90.5 -54.5t-118 -19h-114v-220h-206v740h331zM385 390q42 0 63.5 24.5t21.5 65.5t-23 65.5t-62 24.5h-104v-180h104z" />
    <glyph glyph-name="uni0421" unicode="&#x421;" horiz-adv-x="779" 
d="M446 -10q-92 0 -168 27.5t-130 78t-84 121t-30 156.5q0 85 29.5 154.5t83.5 119t129.5 76.5t167.5 27q91 0 168.5 -27.5t135.5 -90.5l-129 -132q-25 37 -71 58.5t-103 21.5q-45 0 -81.5 -15t-62.5 -42.5t-40 -66t-14 -85.5q0 -48 14.5 -86.5t41.5 -66.5t64.5 -43
t83.5 -15q68 0 110.5 28t74.5 79l138 -124q-58 -78 -140 -115.5t-188 -37.5z" />
    <glyph glyph-name="uni0422" unicode="&#x422;" horiz-adv-x="664" 
d="M648 570h-213v-570h-206v570h-213v170h632v-170z" />
    <glyph glyph-name="uni0423" unicode="&#x423;" horiz-adv-x="716" 
d="M723 740l-303 -740h-220l73 178l-270 562h220l154 -338l126 338h220z" />
    <glyph glyph-name="uni0424" unicode="&#x424;" horiz-adv-x="938" 
d="M910 370q0 -59 -24 -108.5t-68 -85.5t-106.5 -58t-139.5 -27v-91h-206v91q-77 5 -139.5 27t-106.5 58t-68 85.5t-24 108.5t24 108.5t68 85.5t106.5 58t139.5 27v91h206v-91q77 -5 139.5 -27t106.5 -58t68 -85.5t24 -108.5zM241 370q0 -50 34 -80t91 -30v220
q-57 0 -91 -30t-34 -80zM572 260q57 0 91 30t34 80t-34 80t-91 30v-220z" />
    <glyph glyph-name="uni0425" unicode="&#x425;" horiz-adv-x="731" 
d="M505 0l-139 217l-139 -217h-237l262 384l-247 356h237l123 -191l123 191h237l-247 -355l264 -385h-237z" />
    <glyph glyph-name="uni0426" unicode="&#x426;" horiz-adv-x="912" 
d="M892 170v-270h-206v100h-611v740h206v-570h275v570h206v-570h130z" />
    <glyph glyph-name="uni0427" unicode="&#x427;" horiz-adv-x="735" 
d="M660 740v-740h-206v338q-36 -35 -82.5 -51.5t-93.5 -16.5q-54 0 -97.5 17t-75 48t-48.5 74.5t-17 96.5v234h206v-205q0 -43 28 -68.5t76 -25.5t76 25.5t28 68.5v205h206z" />
    <glyph glyph-name="uni0428" unicode="&#x428;" horiz-adv-x="1258" 
d="M1183 740v-740h-1108v740h206v-570h245v570h206v-570h245v570h206z" />
    <glyph glyph-name="uni0429" unicode="&#x429;" horiz-adv-x="1333" 
d="M1313 170v-270h-206v100h-1032v740h206v-570h245v570h206v-570h245v570h206v-570h130z" />
    <glyph glyph-name="uni042A" unicode="&#x42a;" horiz-adv-x="813" 
d="M522 465q62 0 112 -16.5t86 -47t55.5 -73.5t19.5 -95t-20 -95t-56 -73.5t-87 -47.5t-114 -17h-350v570h-150v170h356v-275h148zM508 170q34 0 54.5 17t20.5 46q0 28 -20.5 45t-52.5 17h-136v-125h134z" />
    <glyph glyph-name="uni042B" unicode="&#x42b;" horiz-adv-x="1069" 
d="M429 465q62 0 112 -16.5t86 -47t55.5 -73.5t19.5 -95t-20 -95t-56 -73.5t-87 -47.5t-114 -17h-350v740h206v-275h148zM994 740v-740h-206v740h206zM415 170q34 0 54.5 17t20.5 46q0 28 -20.5 45t-52.5 17h-136v-125h134z" />
    <glyph glyph-name="uni042C" unicode="&#x42c;" horiz-adv-x="720" 
d="M429 465q62 0 112 -16.5t86 -47t55.5 -73.5t19.5 -95t-20 -95t-56 -73.5t-87 -47.5t-114 -17h-350v740h206v-275h148zM415 170q34 0 54.5 17t20.5 46q0 28 -20.5 45t-52.5 17h-136v-125h134z" />
    <glyph glyph-name="uni042D" unicode="&#x42d;" horiz-adv-x="783" 
d="M339 750q92 0 167.5 -27t129.5 -76.5t83.5 -119t29.5 -154.5q0 -86 -30 -156.5t-84 -121t-130 -78t-168 -27.5q-106 0 -188 37.5t-140 115.5l138 124q32 -51 74.5 -79t110.5 -28q73 0 124 37.5t70 102.5h-225v141h226q-18 64 -67.5 101.5t-121.5 37.5q-57 0 -103 -21.5
t-71 -58.5l-129 132q58 63 135.5 90.5t168.5 27.5z" />
    <glyph glyph-name="uni042E" unicode="&#x42e;" horiz-adv-x="1238" 
d="M798 750q91 0 166 -27.5t128 -77t82.5 -119.5t29.5 -156q0 -85 -29.5 -155.5t-82.5 -120t-128 -77t-166 -27.5q-81 0 -149.5 21.5t-120 61t-85.5 95.5t-46 125h-116v-293h-206v740h206v-277h119q14 66 48.5 119t86 90.5t118 57.5t145.5 20zM798 160q44 0 79.5 15t61 42.5
t39.5 66.5t14 86t-14 86t-39.5 66.5t-61 42.5t-79.5 15t-80 -15t-61.5 -42.5t-39.5 -66.5t-14 -86t14 -86t39.5 -66.5t61.5 -42.5t80 -15z" />
    <glyph glyph-name="uni042F" unicode="&#x42f;" horiz-adv-x="765" 
d="M690 0h-206v242h-90l-144 -242h-241l183 285q-57 32 -88 85t-31 121q0 56 19.5 102t55 78.5t85 50.5t110.5 18h347v-740zM484 570h-119q-37 0 -58.5 -22t-21.5 -57t27.5 -57t72.5 -22h99v158z" />
    <glyph glyph-name="uni0430" unicode="&#x430;" horiz-adv-x="599" 
d="M300 560q56 0 101.5 -15.5t78.5 -43.5t51 -67.5t18 -88.5v-345h-193l-2 49q-26 -29 -60.5 -44t-72.5 -15q-45 0 -81.5 13t-62.5 36.5t-40.5 57t-14.5 74.5t17.5 75t49 58t76.5 37t99 13q20 0 40.5 -1.5t42.5 -5.5q-10 57 -100 57q-60 0 -107 -28l-84 117
q51 34 108.5 50.5t135.5 16.5zM279 131q31 0 50 22t20 61q-16 2 -30.5 3.5t-28.5 1.5q-28 0 -44.5 -12t-16.5 -32t11 -32t39 -12z" />
    <glyph glyph-name="uni0431" unicode="&#x431;" horiz-adv-x="677" 
d="M386 545q53 0 100.5 -19t83.5 -54t57 -84.5t21 -110.5q0 -65 -22 -118t-62.5 -90.5t-97.5 -58t-126 -20.5t-125 24.5t-96.5 69t-62.5 106.5t-22 137q0 86 23.5 159.5t66.5 130t103.5 93t134.5 48.5l206 32l35 -173l-230 -36q-60 -9 -91 -60q44 24 104 24zM340 161
q46 0 73.5 31.5t27.5 82.5q0 52 -27.5 83t-73.5 31q-45 0 -72.5 -31t-27.5 -83q0 -51 27.5 -82.5t72.5 -31.5z" />
    <glyph glyph-name="uni0432" unicode="&#x432;" horiz-adv-x="630" 
d="M496 275q49 -15 76.5 -44.5t27.5 -70.5q0 -36 -14.5 -65.5t-40.5 -50.5t-63.5 -32.5t-82.5 -11.5h-343v550h323q45 0 82.5 -11t63.5 -31.5t40.5 -49.5t14.5 -64q0 -40 -22 -70.5t-62 -48.5zM256 399v-58h93q14 0 22.5 8t8.5 21t-8.5 21t-22.5 8h-93zM369 151q14 0 22.5 8
t8.5 22t-8.5 22t-22.5 8h-113v-60h113z" />
    <glyph glyph-name="uni0433" unicode="&#x433;" horiz-adv-x="474" 
d="M457 387h-201v-387h-200v550h401v-163z" />
    <glyph glyph-name="uni0434" unicode="&#x434;" horiz-adv-x="782" 
d="M764 163v-263h-200v100h-353v-100h-200v263h75q26 0 42 15.5t18 41.5l16 330h492v-387h110zM454 163v224h-103l-12 -171q-2 -29 -15 -53h130z" />
    <glyph glyph-name="uni0435" unicode="&#x435;" horiz-adv-x="636" 
d="M606 284q0 -20 -1.5 -41t-3.5 -38h-358q7 -28 25.5 -43.5t56.5 -15.5q57 0 92 38l155 -75q-34 -52 -97.5 -85.5t-146.5 -33.5q-67 0 -122 20t-94 56t-60.5 87t-21.5 114q0 66 20.5 120t58.5 92.5t91 59.5t118 21t118 -20t91 -56t58.5 -87t20.5 -113zM318 404
q-32 0 -49.5 -17t-25.5 -49h153q-8 33 -26.5 49.5t-51.5 16.5z" />
    <glyph glyph-name="uni0436" unicode="&#x436;" horiz-adv-x="934" 
d="M691 0l-124 170v-170h-200v170l-124 -170h-252l229 290l-216 260h252l111 -144v144h200v-144l111 144h252l-216 -260l229 -290h-252z" />
    <glyph glyph-name="uni0437" unicode="&#x437;" horiz-adv-x="543" 
d="M393 273q57 -18 87.5 -48.5t30.5 -74.5q0 -37 -19.5 -66.5t-54 -50.5t-81 -32t-100.5 -11q-74 0 -137.5 19t-111.5 60l106 113q21 -20 50.5 -29t70.5 -9q32 0 54.5 8t22.5 19t-26 19t-91 8v156q60 0 83.5 8t23.5 18t-21 18t-51 8q-34 0 -58 -8t-41 -20l-104 115
q45 30 103.5 48.5t123.5 18.5q53 0 98 -10.5t78.5 -31t52.5 -49.5t19 -65q0 -46 -28.5 -78.5t-79.5 -52.5z" />
    <glyph glyph-name="uni0438" unicode="&#x438;" horiz-adv-x="680" 
d="M624 550v-550h-195v239l-223 -239h-150v550h195v-247l223 247h150z" />
    <glyph glyph-name="uni0439" unicode="&#x439;" horiz-adv-x="680" 
d="M624 550v-550h-195v239l-223 -239h-150v550h195v-247l223 247h150zM340 609q-46 0 -83.5 13t-64 36.5t-41 57t-14.5 74.5h148q0 -31 15.5 -50t39.5 -19q25 0 40 19t15 50h148q0 -41 -14.5 -74.5t-41 -57t-64 -36.5t-83.5 -13z" />
    <glyph glyph-name="uni043A" unicode="&#x43a;" horiz-adv-x="643" 
d="M410 0l-154 187v-187h-200v550h200v-162l141 162h252l-243 -260l256 -290h-252z" />
    <glyph glyph-name="uni043B" unicode="&#x43b;" horiz-adv-x="657" 
d="M601 0h-200v387h-103l-12 -188q-3 -47 -22.5 -85.5t-53 -66t-78.5 -42.5t-99 -15v173q26 0 42 15.5t18 41.5l16 330h492v-550z" />
    <glyph glyph-name="uni043C" unicode="&#x43c;" horiz-adv-x="792" 
d="M560 0l-13 246l-101 -246h-100l-100 246l-14 -246h-195l45 550h220l94 -234l94 234h220l45 -550h-195z" />
    <glyph glyph-name="uni043D" unicode="&#x43d;" horiz-adv-x="680" 
d="M624 550v-550h-200v194h-168v-194h-200v550h200v-193h168v193h200z" />
    <glyph glyph-name="uni043E" unicode="&#x43e;" horiz-adv-x="672" 
d="M337 -10q-69 0 -126 20.5t-97.5 58t-62.5 90t-22 116.5t22 116.5t62.5 90t97.5 58t126 20.5t125 -20.5t96.5 -58t62.5 -90t22 -116.5t-22 -116.5t-62.5 -90t-96.5 -58t-125 -20.5zM336 161q45 0 72.5 31.5t27.5 82.5q0 52 -27.5 83t-72.5 31t-73 -31t-28 -83
q0 -51 28 -82.5t73 -31.5z" />
    <glyph glyph-name="uni043F" unicode="&#x43f;" horiz-adv-x="680" 
d="M624 550v-550h-200v387h-168v-387h-200v550h568z" />
    <glyph glyph-name="uni0440" unicode="&#x440;" 
d="M403 560q54 0 101.5 -20t83 -57t56.5 -89t21 -116t-21 -117.5t-56.5 -91t-83 -58.5t-101.5 -21q-47 0 -83.5 16t-63.5 45v-271h-200v770h193l2 -56q55 66 152 66zM358 161q45 0 73 31.5t28 83.5q0 51 -28 82t-73 31q-46 0 -74 -31t-28 -83q0 -51 28 -82.5t74 -31.5z" />
    <glyph glyph-name="uni0441" unicode="&#x441;" horiz-adv-x="560" 
d="M335 -10q-69 0 -125.5 20.5t-96.5 58t-62 90t-22 116.5t22 116.5t62.5 90t97.5 58t127 20.5q57 0 107.5 -18.5t89.5 -48.5l-112 -135q-14 14 -33.5 22.5t-47.5 8.5q-48 0 -77 -31t-29 -83q0 -51 28.5 -82.5t77.5 -31.5q66 0 99 40l113 -132q-42 -41 -98 -60t-121 -19z
" />
    <glyph glyph-name="uni0442" unicode="&#x442;" horiz-adv-x="593" 
d="M588 387h-186v-387h-200v387h-187v163h573v-163z" />
    <glyph glyph-name="uni0443" unicode="&#x443;" horiz-adv-x="637" 
d="M171 -230q-58 0 -96 19l20 161q18 -9 43 -9q31 0 47.5 17t32.5 46l7 13l-224 533h218l108 -318l94 318h218l-226 -571q-19 -49 -41 -87.5t-50.5 -65.5t-65 -41.5t-85.5 -14.5z" />
    <glyph glyph-name="uni0444" unicode="&#x444;" horiz-adv-x="870" 
d="M842 275q0 -60 -22 -110t-62 -87t-96.5 -59.5t-126.5 -27.5v-211h-200v211q-70 5 -126.5 27.5t-96.5 59.5t-62 87t-22 110t22 110t62 87t96.5 59.5t126.5 27.5v221h200v-221q70 -5 126.5 -27.5t96.5 -59.5t62 -87t22 -110zM234 275q0 -51 27.5 -82.5t73.5 -31.5v228
q-46 0 -73.5 -31.5t-27.5 -82.5zM535 161q46 0 73.5 31.5t27.5 82.5t-27.5 82.5t-73.5 31.5v-228z" />
    <glyph glyph-name="uni0445" unicode="&#x445;" horiz-adv-x="622" 
d="M390 0l-78 122l-79 -122h-237l198 281l-186 269h238l65 -104l66 104h237l-185 -268l198 -282h-237z" />
    <glyph glyph-name="uni0446" unicode="&#x446;" horiz-adv-x="725" 
d="M707 163v-263h-200v100h-451v550h200v-387h141v387h200v-387h110z" />
    <glyph glyph-name="uni0447" unicode="&#x447;" horiz-adv-x="631" 
d="M575 550v-550h-200v196q-30 -29 -67.5 -42.5t-74.5 -13.5q-45 0 -81.5 15.5t-62.5 43.5t-40.5 68t-14.5 89v194h200v-165q0 -33 19.5 -53.5t51.5 -20.5t51 20.5t19 53.5v165h200z" />
    <glyph glyph-name="uni0448" unicode="&#x448;" horiz-adv-x="954" 
d="M898 550v-550h-842v550h200v-387h121v387h200v-387h121v387h200z" />
    <glyph glyph-name="uni0449" unicode="&#x449;" horiz-adv-x="1026" 
d="M1008 163v-263h-200v100h-752v550h200v-387h121v387h200v-387h121v387h200v-387h110z" />
    <glyph glyph-name="uni044A" unicode="&#x44a;" horiz-adv-x="685" 
d="M467 362q45 0 82.5 -13t63.5 -37t40.5 -57t14.5 -74t-14.5 -74.5t-40.5 -57t-63.5 -36.5t-82.5 -13h-313v387h-136v163h336v-188h113zM432 146q17 0 26.5 9.5t9.5 25.5t-9.5 25.5t-26.5 9.5h-78v-70h78z" />
    <glyph glyph-name="uni044B" unicode="&#x44b;" horiz-adv-x="902" 
d="M369 362q45 0 82.5 -13t63.5 -37t40.5 -57t14.5 -74t-14.5 -74.5t-40.5 -57t-63.5 -36.5t-82.5 -13h-313v550h200v-188h113zM846 550v-550h-200v550h200zM334 146q17 0 26.5 9.5t9.5 25.5t-9.5 25.5t-26.5 9.5h-78v-70h78z" />
    <glyph glyph-name="uni044C" unicode="&#x44c;" horiz-adv-x="587" 
d="M369 362q45 0 82.5 -13t63.5 -37t40.5 -57t14.5 -74t-14.5 -74.5t-40.5 -57t-63.5 -36.5t-82.5 -13h-313v550h200v-188h113zM334 146q17 0 26.5 9.5t9.5 25.5t-9.5 25.5t-26.5 9.5h-78v-70h78z" />
    <glyph glyph-name="uni044D" unicode="&#x44d;" horiz-adv-x="563" 
d="M225 560q70 0 127 -20.5t97.5 -58t62.5 -90t22 -116.5t-22 -116.5t-62 -90t-96.5 -58t-125.5 -20.5q-65 0 -121 19t-98 60l113 132q33 -40 99 -40q59 0 87 44h-99v141h98q-14 20 -35.5 31.5t-50.5 11.5q-28 0 -47.5 -8.5t-33.5 -22.5l-112 135q39 30 89.5 48.5
t107.5 18.5z" />
    <glyph glyph-name="uni044E" unicode="&#x44e;" horiz-adv-x="984" 
d="M649 560q69 0 125 -20.5t96.5 -58t62.5 -90t22 -116.5t-22 -116.5t-62.5 -90t-96.5 -58t-125 -20.5q-116 0 -194.5 55t-103.5 149h-95v-194h-200v550h200v-193h95q26 94 104 148.5t194 54.5zM648 161q45 0 72.5 31.5t27.5 82.5q0 52 -27.5 83t-72.5 31t-73 -31t-28 -83
q0 -51 28 -82.5t73 -31.5z" />
    <glyph glyph-name="uni044F" unicode="&#x44f;" horiz-adv-x="618" 
d="M562 0h-200v168h-28l-101 -168h-222l135 199q-42 24 -65 65t-23 95q0 43 15 78.5t43 60.5t66.5 38.5t86.5 13.5h293v-550zM299 399q-19 0 -30 -11t-11 -29t11 -29t30 -11h63v80h-63z" />
    <glyph glyph-name="uni0451" unicode="&#x451;" horiz-adv-x="636" 
d="M606 284q0 -20 -1.5 -41t-3.5 -38h-358q7 -28 25.5 -43.5t56.5 -15.5q57 0 92 38l155 -75q-34 -52 -97.5 -85.5t-146.5 -33.5q-67 0 -122 20t-94 56t-60.5 87t-21.5 114q0 66 20.5 120t58.5 92.5t91 59.5t118 21t118 -20t91 -56t58.5 -87t20.5 -113zM175 591
q-51 0 -82.5 31t-31.5 82t31.5 82.5t82.5 31.5t82 -31.5t31 -82.5t-31 -82t-82 -31zM462 591q-51 0 -82.5 31t-31.5 82t31.5 82.5t82.5 31.5t82 -31.5t31 -82.5t-31 -82t-82 -31zM318 404q-32 0 -49.5 -17t-25.5 -49h153q-8 33 -26.5 49.5t-51.5 16.5z" />
    <glyph glyph-name="uni0452" unicode="&#x452;" horiz-adv-x="674" 
d="M412 560q48 0 87 -15.5t66.5 -44t43 -68t15.5 -88.5v-388q0 -42 -14 -76.5t-39 -58.5t-60.5 -37.5t-79.5 -13.5q-33 0 -64.5 4.5t-55.5 13.5l14 154q11 -1 20.5 -1h22.5q25 0 40.5 16.5t15.5 45.5v312q0 34 -23 54t-61 20t-61 -20t-23 -54v-315h-200v584h-68v141h68v55
h200v-55h139v-141h-139v-84q32 31 73 45.5t83 14.5z" />
    <glyph glyph-name="uni0453" unicode="&#x453;" horiz-adv-x="474" 
d="M457 387h-201v-387h-200v550h401v-163zM277 617h-168l141 173h229z" />
    <glyph glyph-name="uni0454" unicode="&#x454;" horiz-adv-x="563" 
d="M554 69q-42 -41 -98 -60t-121 -19q-69 0 -125.5 20.5t-96.5 58t-62 90t-22 116.5t22 116.5t62.5 90t97.5 58t127 20.5q57 0 107.5 -18.5t89.5 -48.5l-112 -135q-14 14 -33.5 22.5t-47.5 8.5q-29 0 -50.5 -11.5t-35.5 -31.5h98v-141h-99q28 -44 87 -44q66 0 99 40z" />
    <glyph glyph-name="uni0455" unicode="&#x455;" horiz-adv-x="547" 
d="M264 -10q-68 0 -125.5 17.5t-102.5 54.5l74 120q43 -21 81 -29t76 -8q19 0 31 4t12 14q0 12 -19.5 19t-53.5 15l-33 8q-37 9 -67.5 21t-52.5 30t-34 42.5t-12 58.5q0 46 17 83.5t48 64t75 41t98 14.5q69 0 127 -15.5t100 -44.5l-83 -129q-64 33 -131 33q-22 0 -35 -3.5
t-13 -11.5q0 -10 17.5 -16.5t45.5 -13.5l32 -8q39 -10 72 -24t56 -34.5t36 -48.5t13 -67q0 -42 -18 -76.5t-51 -59t-78.5 -38t-101.5 -13.5z" />
    <glyph glyph-name="uni0456" unicode="&#x456;" horiz-adv-x="312" 
d="M56 550h200v-550h-200v550zM157 591q-50 0 -82 31.5t-32 81.5t32 82t82 32t81.5 -32t31.5 -82t-31.5 -81.5t-81.5 -31.5z" />
    <glyph glyph-name="uni0457" unicode="&#x457;" horiz-adv-x="312" 
d="M56 550h200v-550h-200v550zM14 591q-51 0 -82.5 31t-31.5 82t31.5 82.5t82.5 31.5t82 -31.5t31 -82.5t-31 -82t-82 -31zM301 591q-51 0 -82.5 31t-31.5 82t31.5 82.5t82.5 31.5t82 -31.5t31 -82.5t-31 -82t-82 -31z" />
    <glyph glyph-name="uni0458" unicode="&#x458;" horiz-adv-x="316" 
d="M67 -230q-33 0 -65 4.5t-55 13.5l13 157q20 -4 44 -4q25 0 40.5 16.5t15.5 45.5v547h200v-594q0 -42 -14 -76.5t-39 -58.5t-60.5 -37.5t-79.5 -13.5zM158 591q-50 0 -82 31.5t-32 81.5t32 82t82 32t81.5 -32t31.5 -82t-31.5 -81.5t-81.5 -31.5z" />
    <glyph glyph-name="uni0459" unicode="&#x459;" horiz-adv-x="932" 
d="M714 362q45 0 82.5 -13t63.5 -37t40.5 -57t14.5 -74t-14.5 -74.5t-40.5 -57t-63.5 -36.5t-82.5 -13h-313v387h-103l-12 -188q-3 -47 -22.5 -85.5t-53 -66t-78.5 -42.5t-99 -15v173q26 0 42 15.5t18 41.5l16 330h492v-188h113zM679 146q17 0 26.5 9.5t9.5 25.5t-9.5 25.5
t-26.5 9.5h-78v-70h78z" />
    <glyph glyph-name="uni045A" unicode="&#x45a;" horiz-adv-x="955" 
d="M737 362q45 0 82.5 -13t63.5 -37t40.5 -57t14.5 -74t-14.5 -74.5t-40.5 -57t-63.5 -36.5t-82.5 -13h-313v194h-168v-194h-200v550h200v-193h168v193h200v-188h113zM702 146q17 0 26.5 9.5t9.5 25.5t-9.5 25.5t-26.5 9.5h-78v-70h78z" />
    <glyph glyph-name="uni045B" unicode="&#x45b;" horiz-adv-x="674" 
d="M412 560q48 0 87 -15.5t66.5 -44t43 -68t15.5 -88.5v-344h-200v315q0 34 -23 54t-61 20t-61 -20t-23 -54v-315h-200v584h-68v141h68v55h200v-55h139v-141h-139v-84q32 31 73 45.5t83 14.5z" />
    <glyph glyph-name="uni045C" unicode="&#x45c;" horiz-adv-x="643" 
d="M410 0l-154 187v-187h-200v550h200v-162l141 162h252l-243 -260l256 -290h-252zM366 617h-168l141 173h229z" />
    <glyph glyph-name="uni045D" unicode="&#x45d;" horiz-adv-x="680" 
d="M624 550v-550h-195v239l-223 -239h-150v550h195v-247l223 247h150zM295 617l-202 173h229l141 -173h-168z" />
    <glyph glyph-name="uni045E" unicode="&#x45e;" horiz-adv-x="637" 
d="M171 -230q-58 0 -96 19l20 161q18 -9 43 -9q31 0 47.5 17t32.5 46l7 13l-224 533h218l108 -318l94 318h218l-226 -571q-19 -49 -41 -87.5t-50.5 -65.5t-65 -41.5t-85.5 -14.5zM323 609q-46 0 -83.5 13t-64 36.5t-41 57t-14.5 74.5h148q0 -31 15.5 -50t39.5 -19
q25 0 40 19t15 50h148q0 -41 -14.5 -74.5t-41 -57t-64 -36.5t-83.5 -13z" />
    <glyph glyph-name="uni045F" unicode="&#x45f;" horiz-adv-x="653" 
d="M597 0h-170v-100h-200v100h-171v550h200v-387h141v387h200v-550z" />
    <glyph glyph-name="uni0490" unicode="&#x490;" horiz-adv-x="580" 
d="M565 840v-270h-284v-570h-206v740h284v100h206z" />
    <glyph glyph-name="uni0491" unicode="&#x491;" horiz-adv-x="474" 
d="M457 650v-263h-201v-387h-200v550h201v100h200z" />
    <glyph glyph-name="uni04C0" unicode="&#x4c0;" horiz-adv-x="356" 
d="M75 740h206v-740h-206v740z" />
    <glyph glyph-name="uni04CF" unicode="&#x4cf;" horiz-adv-x="312" 
d="M56 550h200v-550h-200v550z" />
    <glyph glyph-name="Wgrave" unicode="&#x1e80;" horiz-adv-x="1165" 
d="M1171 740l-246 -740h-191l-152 455l-151 -455h-191l-247 740h220l133 -464l141 464h190l142 -464l132 464h220zM538 807l-202 173h229l141 -173h-168z" />
    <glyph glyph-name="wgrave" unicode="&#x1e81;" horiz-adv-x="921" 
d="M922 550l-190 -550h-199l-72 268l-73 -268h-199l-190 550h218l86 -324l77 324h161l77 -324l86 324h218zM416 617l-202 173h229l141 -173h-168z" />
    <glyph glyph-name="Wacute" unicode="&#x1e82;" horiz-adv-x="1165" 
d="M1171 740l-246 -740h-191l-152 455l-151 -455h-191l-247 740h220l133 -464l141 464h190l142 -464l132 464h220zM627 807h-168l141 173h229z" />
    <glyph glyph-name="wacute" unicode="&#x1e83;" horiz-adv-x="921" 
d="M922 550l-190 -550h-199l-72 268l-73 -268h-199l-190 550h218l86 -324l77 324h161l77 -324l86 324h218zM505 617h-168l141 173h229z" />
    <glyph glyph-name="Wdieresis" unicode="&#x1e84;" horiz-adv-x="1165" 
d="M1171 740l-246 -740h-191l-152 455l-151 -455h-191l-247 740h220l133 -464l141 464h190l142 -464l132 464h220zM440 781q-51 0 -82.5 31t-31.5 82t31.5 82.5t82.5 31.5t82 -31.5t31 -82.5t-31 -82t-82 -31zM727 781q-51 0 -82.5 31t-31.5 82t31.5 82.5t82.5 31.5
t82 -31.5t31 -82.5t-31 -82t-82 -31z" />
    <glyph glyph-name="wdieresis" unicode="&#x1e85;" horiz-adv-x="921" 
d="M922 550l-190 -550h-199l-72 268l-73 -268h-199l-190 550h218l86 -324l77 324h161l77 -324l86 324h218zM318 591q-51 0 -82.5 31t-31.5 82t31.5 82.5t82.5 31.5t82 -31.5t31 -82.5t-31 -82t-82 -31zM605 591q-51 0 -82.5 31t-31.5 82t31.5 82.5t82.5 31.5t82 -31.5
t31 -82.5t-31 -82t-82 -31z" />
    <glyph glyph-name="Germandbls" unicode="&#x1e9e;" horiz-adv-x="719" 
d="M557 393q61 -27 95 -71.5t34 -102.5q0 -51 -18.5 -93.5t-52.5 -72.5t-81.5 -46.5t-105.5 -16.5q-28 0 -59 4t-49 9l18 163q26 -6 53 -6q38 0 60 20.5t22 53.5q0 34 -29 55t-78 21v155q32 0 50.5 16t18.5 43q0 26 -21.5 41t-57.5 15q-35 0 -57 -15.5t-22 -41.5v-523h-206
v547q0 45 20.5 82.5t58 64.5t90 41.5t116.5 14.5q66 0 119.5 -14.5t92 -40.5t59.5 -62.5t21 -81.5q0 -51 -23.5 -91t-67.5 -67z" />
    <glyph glyph-name="Ygrave" unicode="&#x1ef2;" horiz-adv-x="726" 
d="M721 740l-255 -494v-246h-206v246l-255 494h219l140 -312l139 312h218zM319 807l-202 173h229l141 -173h-168z" />
    <glyph glyph-name="ygrave" unicode="&#x1ef3;" horiz-adv-x="637" 
d="M171 -230q-58 0 -96 19l20 161q18 -9 43 -9q31 0 47.5 17t32.5 46l7 13l-224 533h218l108 -318l94 318h218l-226 -571q-19 -49 -41 -87.5t-50.5 -65.5t-65 -41.5t-85.5 -14.5zM76 790h229l141 -173h-168z" />
    <glyph glyph-name="endash" unicode="&#x2013;" horiz-adv-x="662" 
d="M54 363h554v-141h-554v141z" />
    <glyph glyph-name="emdash" unicode="&#x2014;" horiz-adv-x="1049" 
d="M54 363h941v-141h-941v141z" />
    <glyph glyph-name="quoteleft" unicode="&#x2018;" horiz-adv-x="328" 
d="M123 740h180l-64 -295h-208z" />
    <glyph glyph-name="quoteright" unicode="&#x2019;" horiz-adv-x="323" 
d="M100 740h208l-92 -295h-180z" />
    <glyph glyph-name="quotesinglbase" unicode="&#x201a;" horiz-adv-x="325" 
d="M74 176h208l-92 -295h-180z" />
    <glyph glyph-name="quotedblleft" unicode="&#x201c;" horiz-adv-x="604" 
d="M123 741h180l-64 -295h-208zM399 741h180l-64 -295h-208z" />
    <glyph glyph-name="quotedblright" unicode="&#x201d;" horiz-adv-x="600" 
d="M100 739h208l-92 -295h-180zM376 739h208l-92 -295h-180z" />
    <glyph glyph-name="quotedblbase" unicode="&#x201e;" horiz-adv-x="601" 
d="M74 176h208l-92 -295h-180zM350 176h208l-92 -295h-180z" />
    <glyph glyph-name="dagger" unicode="&#x2020;" horiz-adv-x="606" 
d="M570 380h-164v-600h-206v600h-164v170h164v230h206v-230h164v-170z" />
    <glyph glyph-name="daggerdbl" unicode="&#x2021;" horiz-adv-x="606" 
d="M406 380v-60h164v-170h-164v-370h-206v370h-164v170h164v60h-164v170h164v230h206v-230h164v-170h-164z" />
    <glyph glyph-name="bullet" unicode="&#x2022;" horiz-adv-x="428" 
d="M214 147q-69 0 -110 41t-41 109q0 69 41 110t110 41t110 -41t41 -110q0 -68 -41 -109t-110 -41z" />
    <glyph glyph-name="ellipsis" unicode="&#x2026;" horiz-adv-x="937" 
d="M159 -10q-25 0 -48 10t-39.5 26.5t-26.5 39.5t-10 48q0 26 10 48t26.5 39t39.5 26.5t48 9.5q26 0 48 -9.5t39 -26.5t26.5 -39t9.5 -48q0 -25 -9.5 -48t-26.5 -39.5t-39 -26.5t-48 -10zM469 -10q-25 0 -48 10t-39.5 26.5t-26.5 39.5t-10 48q0 26 10 48t26.5 39t39.5 26.5
t48 9.5q26 0 48 -9.5t39 -26.5t26.5 -39t9.5 -48q0 -25 -9.5 -48t-26.5 -39.5t-39 -26.5t-48 -10zM779 -10q-25 0 -48 10t-39.5 26.5t-26.5 39.5t-10 48q0 26 10 48t26.5 39t39.5 26.5t48 9.5q26 0 48 -9.5t39 -26.5t26.5 -39t9.5 -48q0 -25 -9.5 -48t-26.5 -39.5t-39 -26.5
t-48 -10z" />
    <glyph glyph-name="perthousand" unicode="&#x2030;" horiz-adv-x="1416" 
d="M718 -10q-47 0 -85.5 12.5t-66 35.5t-42.5 55.5t-15 72.5t15 72.5t42.5 55.5t66 35.5t85.5 12.5t85.5 -12.5t65.5 -35.5t42 -55.5t15 -72.5t-15 -72.5t-42 -55.5t-65.5 -35.5t-85.5 -12.5zM1178 -10q-47 0 -85.5 12.5t-66 35.5t-42.5 55.5t-15 72.5t15 72.5t42.5 55.5
t66 35.5t85.5 12.5t85.5 -12.5t65.5 -35.5t42 -55.5t15 -72.5t-15 -72.5t-42 -55.5t-65.5 -35.5t-85.5 -12.5zM220 52l409 698l102 -61l-409 -699zM239 398q-47 0 -85.5 12.5t-66 35.5t-42.5 55.5t-15 72.5t15 72.5t42.5 55.5t66 35.5t85.5 12.5t85.5 -12.5t65.5 -35.5
t42 -55.5t15 -72.5t-15 -72.5t-42 -55.5t-65.5 -35.5t-85.5 -12.5zM718 116q21 0 34.5 13.5t13.5 36.5t-13.5 36.5t-34.5 13.5q-23 0 -36.5 -13.5t-13.5 -36.5t13.5 -36.5t36.5 -13.5zM1178 116q21 0 34.5 13.5t13.5 36.5t-13.5 36.5t-34.5 13.5q-23 0 -36.5 -13.5
t-13.5 -36.5t13.5 -36.5t36.5 -13.5zM240 524q21 0 34.5 13.5t13.5 36.5t-13.5 36.5t-34.5 13.5q-23 0 -36.5 -13.5t-13.5 -36.5t13.5 -36.5t36.5 -13.5z" />
    <glyph glyph-name="guilsinglleft" unicode="&#x2039;" horiz-adv-x="452" 
d="M245 270l177 -235h-212l-184 235l184 235h212z" />
    <glyph glyph-name="guilsinglright" unicode="&#x203a;" horiz-adv-x="452" 
d="M426 270l-184 -235h-212l177 235l-177 235h212z" />
    <glyph glyph-name="fraction" unicode="&#x2044;" horiz-adv-x="250" 
d="M-131 52l409 698l102 -61l-409 -699z" />
    <glyph glyph-name="uni2070" unicode="&#x2070;" horiz-adv-x="415" 
d="M209 390q-41 0 -74.5 16.5t-57.5 46.5t-37 72t-13 93t13 93t37 72t57.5 46.5t74.5 16.5q40 0 73 -16.5t56.5 -46.5t36.5 -72t13 -93t-13 -93t-36.5 -72t-56.5 -46.5t-73 -16.5zM209 491q25 0 39.5 35t14.5 92t-14.5 92t-39.5 35q-24 0 -39.5 -35t-15.5 -92t15.5 -92
t39.5 -35z" />
    <glyph glyph-name="uni2074" unicode="&#x2074;" horiz-adv-x="409" 
d="M203 471h-192v84l221 285h95v-266h55v-103h-55v-75h-124v75zM206 570l1 97l-77 -97h76z" />
    <glyph glyph-name="uni2075" unicode="&#x2075;" horiz-adv-x="373" 
d="M149 390q-42 0 -78.5 9.5t-60.5 27.5l37 89q18 -12 42 -18.5t49 -6.5q37 0 59.5 16.5t22.5 42.5q0 17 -12 28.5t-32 11.5q-18 0 -31.5 -8t-16.5 -19l-82 12l32 265h245v-101h-140l-7 -51q3 3 22 3q66 0 107.5 -36t41.5 -96q0 -38 -14.5 -69t-40.5 -53.5t-62.5 -34.5
t-80.5 -12z" />
    <glyph glyph-name="uni2076" unicode="&#x2076;" horiz-adv-x="376" 
d="M218 671q27 0 52.5 -9.5t45 -27.5t31 -43t11.5 -56q0 -65 -46 -105t-121 -40t-121 39t-46 105q0 47 16 82.5t46 77.5l110 146h138l-133 -169h17zM191 491q17 0 28.5 12t11.5 32t-11.5 31.5t-28.5 11.5t-28 -11.5t-11 -31.5t11 -32t28 -12z" />
    <glyph glyph-name="uni2077" unicode="&#x2077;" horiz-adv-x="338" 
d="M334 840l-141 -444h-130l112 343h-161v101h320z" />
    <glyph glyph-name="uni2078" unicode="&#x2078;" horiz-adv-x="390" 
d="M298 627q30 -16 47 -41.5t17 -59.5q0 -62 -46 -99t-121 -37t-121 36.5t-46 96.5q0 34 17 60.5t47 43.5q-25 16 -38.5 39.5t-13.5 52.5q0 58 42.5 92.5t112.5 34.5t112.5 -34.5t42.5 -91.5q0 -29 -13.5 -53t-38.5 -40zM195 745q-12 0 -19.5 -10t-7.5 -25q0 -16 7.5 -24.5
t19.5 -8.5q28 0 28 33q0 15 -7.5 25t-20.5 10zM195 491q17 0 28.5 12t11.5 30q0 20 -11.5 31.5t-28.5 11.5t-28 -11.5t-11 -31.5q0 -18 11 -30t28 -12z" />
    <glyph glyph-name="uni2079" unicode="&#x2079;" horiz-adv-x="376" 
d="M185 846q75 0 121 -39t46 -105q0 -47 -16 -82.5t-46 -77.5l-110 -146h-138l133 169h-17q-27 0 -52 9.5t-44.5 27.5t-31.5 43t-12 56q0 65 46 105t121 40zM145 701q0 -20 11.5 -31.5t28.5 -11.5t28 11.5t11 31.5t-11 32t-28 12t-28.5 -12t-11.5 -32z" />
    <glyph glyph-name="uni2080" unicode="&#x2080;" horiz-adv-x="415" 
d="M209 -106q-41 0 -74.5 16.5t-57.5 46.5t-37 72t-13 93t13 93t37 72t57.5 46.5t74.5 16.5q40 0 73 -16.5t56.5 -46.5t36.5 -72t13 -93t-13 -93t-36.5 -72t-56.5 -46.5t-73 -16.5zM209 -5q25 0 39.5 35t14.5 92t-14.5 92t-39.5 35q-24 0 -39.5 -35t-15.5 -92t15.5 -92
t39.5 -35z" />
    <glyph glyph-name="uni2081" unicode="&#x2081;" horiz-adv-x="293" 
d="M122 188l-62 -43l-61 87l152 112h95v-444h-124v288z" />
    <glyph glyph-name="uni2082" unicode="&#x2082;" horiz-adv-x="380" 
d="M26 -22l140 152q5 5 14 15.5t18 23t15.5 26t6.5 24.5q0 13 -7.5 21.5t-20.5 8.5q-17 0 -26 -13t-9 -33l-125 11q0 62 43 99t114 37t113 -34t42 -89q0 -39 -22.5 -76t-73.5 -88l-62 -63l164 1v-101h-324v78z" />
    <glyph glyph-name="uni2083" unicode="&#x2083;" horiz-adv-x="367" 
d="M228 181q52 -9 82.5 -45.5t30.5 -91.5q0 -68 -49 -109t-135 -41q-41 0 -80 10.5t-62 27.5l46 90q14 -11 36.5 -19t45.5 -8q34 0 51.5 14t17.5 35t-16 33.5t-43 12.5q-29 0 -52 -15l-34 63l88 105h-116v101h272v-76z" />
    <glyph glyph-name="uni2084" unicode="&#x2084;" horiz-adv-x="409" 
d="M203 -25h-192v84l221 285h95v-266h55v-103h-55v-75h-124v75zM206 74l1 97l-77 -97h76z" />
    <glyph glyph-name="uni2085" unicode="&#x2085;" horiz-adv-x="373" 
d="M149 -106q-42 0 -78.5 9.5t-60.5 27.5l37 89q18 -12 42 -18.5t49 -6.5q37 0 59.5 16.5t22.5 42.5q0 17 -12 28.5t-32 11.5q-18 0 -31.5 -8t-16.5 -19l-82 12l32 265h245v-101h-140l-7 -51q3 3 22 3q66 0 107.5 -36t41.5 -96q0 -38 -14.5 -69t-40.5 -53.5t-62.5 -34.5
t-80.5 -12z" />
    <glyph glyph-name="uni2086" unicode="&#x2086;" horiz-adv-x="376" 
d="M218 175q27 0 52.5 -9.5t45 -27.5t31 -43t11.5 -56q0 -65 -46 -105t-121 -40t-121 39t-46 105q0 47 16 82.5t46 77.5l110 146h138l-133 -169h17zM191 -5q17 0 28.5 12t11.5 32t-11.5 31.5t-28.5 11.5t-28 -11.5t-11 -31.5t11 -32t28 -12z" />
    <glyph glyph-name="uni2087" unicode="&#x2087;" horiz-adv-x="338" 
d="M334 344l-141 -444h-130l112 343h-161v101h320z" />
    <glyph glyph-name="uni2088" unicode="&#x2088;" horiz-adv-x="390" 
d="M298 131q30 -16 47 -41.5t17 -59.5q0 -62 -46 -99t-121 -37t-121 36.5t-46 96.5q0 34 17 60.5t47 43.5q-25 16 -38.5 39.5t-13.5 52.5q0 58 42.5 92.5t112.5 34.5t112.5 -34.5t42.5 -91.5q0 -29 -13.5 -53t-38.5 -40zM195 249q-12 0 -19.5 -10t-7.5 -25q0 -16 7.5 -24.5
t19.5 -8.5q28 0 28 33q0 15 -7.5 25t-20.5 10zM195 -5q17 0 28.5 12t11.5 30q0 20 -11.5 31.5t-28.5 11.5t-28 -11.5t-11 -31.5q0 -18 11 -30t28 -12z" />
    <glyph glyph-name="uni2089" unicode="&#x2089;" horiz-adv-x="376" 
d="M185 350q75 0 121 -39t46 -105q0 -47 -16 -82.5t-46 -77.5l-110 -146h-138l133 169h-17q-27 0 -52 9.5t-44.5 27.5t-31.5 43t-12 56q0 65 46 105t121 40zM145 205q0 -20 11.5 -31.5t28.5 -11.5t28 11.5t11 31.5t-11 32t-28 12t-28.5 -12t-11.5 -32z" />
    <glyph glyph-name="Euro" unicode="&#x20ac;" horiz-adv-x="873" 
d="M842 143q-58 -78 -140 -115.5t-188 -37.5q-70 0 -131.5 16.5t-111 47t-86 74t-57.5 97.5h-87v125h62q-1 6 -1 11.5v11.5v13h-61v125h84q40 112 141 175.5t246 63.5q91 0 168.5 -27.5t135.5 -90.5l-129 -132q-25 37 -71 58.5t-103 21.5q-49 0 -88 -18t-65 -51h161v-125
h-206v-15v-10.5t1 -10.5h205v-125h-156q27 -31 66 -48t88 -17q68 0 110.5 28t74.5 79z" />
    <glyph glyph-name="uni20B9" unicode="&#x20b9;" horiz-adv-x="621" 
d="M452 615q30 -33 44 -78h76v-125h-74q-11 -48 -35.5 -86.5t-61.5 -65.5l167 -260h-241l-122 202h-153v170h140q27 0 48 10.5t34 29.5h-222v125h224q-22 33 -64 33h-160v170h525v-125h-125z" />
    <glyph glyph-name="uni20BD" unicode="&#x20bd;" horiz-adv-x="733" 
d="M321 265v-36h183v-125h-183v-104h-206v104h-61v125h61v36h-61v125h61v350h311q62 0 113 -16.5t87 -46.5t56 -72.5t20 -94.5q0 -55 -20.5 -100t-58 -77.5t-90.5 -50t-118 -17.5h-94zM321 435h84q42 0 63.5 18.5t21.5 49.5q0 30 -23 48.5t-62 18.5h-84v-135z" />
    <glyph glyph-name="trademark" unicode="&#x2122;" horiz-adv-x="752" 
d="M301 696h-80v-202h-102v202h-82v84h264v-84zM596 494l-9 139l-60 -139h-36l-61 139l-8 -139h-102l23 286h110l56 -136l54 136h110l25 -286h-102z" />
    <glyph glyph-name="oneeighth" unicode="&#x215b;" horiz-adv-x="975" 
d="M870 231q30 -16 47 -41.5t17 -59.5q0 -62 -46 -99t-121 -37t-121 36.5t-46 96.5q0 34 17 60.5t47 43.5q-25 16 -38.5 39.5t-13.5 52.5q0 58 42.5 92.5t112.5 34.5t112.5 -34.5t42.5 -91.5q0 -29 -13.5 -53t-38.5 -40zM151 296v288l-62 -43l-61 87l152 112h95v-444h-124z
M702 689l-409 -699l-102 62l409 698zM767 349q-12 0 -19.5 -10t-7.5 -25q0 -16 7.5 -24.5t19.5 -8.5q28 0 28 33q0 15 -7.5 25t-20.5 10zM767 95q17 0 28.5 12t11.5 30q0 20 -11.5 31.5t-28.5 11.5t-28 -11.5t-11 -31.5q0 -18 11 -30t28 -12z" />
    <glyph glyph-name="threeeighths" unicode="&#x215c;" horiz-adv-x="1030" 
d="M932 231q30 -16 47 -41.5t17 -59.5q0 -62 -46 -99t-121 -37t-121 36.5t-46 96.5q0 34 17 60.5t47 43.5q-25 16 -38.5 39.5t-13.5 52.5q0 58 42.5 92.5t112.5 34.5t112.5 -34.5t42.5 -91.5q0 -29 -13.5 -53t-38.5 -40zM358 440q0 -68 -49 -109t-135 -41q-41 0 -80 10.5
t-62 27.5l46 90q14 -11 36.5 -19t45.5 -8q34 0 51.5 14t17.5 35t-16 33.5t-43 12.5q-29 0 -52 -15l-34 63l88 105h-116v101h272v-76l-83 -87q52 -9 82.5 -45.5t30.5 -91.5zM764 689l-409 -699l-102 62l409 698zM829 349q-12 0 -19.5 -10t-7.5 -25q0 -16 7.5 -24.5t19.5 -8.5
q28 0 28 33q0 15 -7.5 25t-20.5 10zM829 95q17 0 28.5 12t11.5 30q0 20 -11.5 31.5t-28.5 11.5t-28 -11.5t-11 -31.5q0 -18 11 -30t28 -12z" />
    <glyph glyph-name="fiveeighths" unicode="&#x215d;" horiz-adv-x="1042" 
d="M942 231q30 -16 47 -41.5t17 -59.5q0 -62 -46 -99t-121 -37t-121 36.5t-46 96.5q0 34 17 60.5t47 43.5q-25 16 -38.5 39.5t-13.5 52.5q0 58 42.5 92.5t112.5 34.5t112.5 -34.5t42.5 -91.5q0 -29 -13.5 -53t-38.5 -40zM368 459q0 -38 -14.5 -69t-40.5 -53.5t-62.5 -34.5
t-80.5 -12q-42 0 -78.5 9.5t-60.5 27.5l37 89q18 -12 42 -18.5t49 -6.5q37 0 59.5 16.5t22.5 42.5q0 17 -12 28.5t-32 11.5q-18 0 -31.5 -8t-16.5 -19l-82 12l32 265h245v-101h-140l-7 -51q3 3 22 3q66 0 107.5 -36t41.5 -96zM774 689l-409 -699l-102 62l409 698zM839 349
q-12 0 -19.5 -10t-7.5 -25q0 -16 7.5 -24.5t19.5 -8.5q28 0 28 33q0 15 -7.5 25t-20.5 10zM839 95q17 0 28.5 12t11.5 30q0 20 -11.5 31.5t-28.5 11.5t-28 -11.5t-11 -31.5q0 -18 11 -30t28 -12z" />
    <glyph glyph-name="seveneighths" unicode="&#x215e;" horiz-adv-x="974" 
d="M876 231q30 -16 47 -41.5t17 -59.5q0 -62 -46 -99t-121 -37t-121 36.5t-46 96.5q0 34 17 60.5t47 43.5q-25 16 -38.5 39.5t-13.5 52.5q0 58 42.5 92.5t112.5 34.5t112.5 -34.5t42.5 -91.5q0 -29 -13.5 -53t-38.5 -40zM81 296l112 343h-161v101h320l-141 -444h-130z
M708 689l-409 -699l-102 62l409 698zM773 349q-12 0 -19.5 -10t-7.5 -25q0 -16 7.5 -24.5t19.5 -8.5q28 0 28 33q0 15 -7.5 25t-20.5 10zM773 95q17 0 28.5 12t11.5 30q0 20 -11.5 31.5t-28.5 11.5t-28 -11.5t-11 -31.5q0 -18 11 -30t28 -12z" />
    <glyph glyph-name="partialdiff" unicode="&#x2202;" horiz-adv-x="723" 
d="M332 750q81 0 147 -27t113.5 -76.5t73 -119t25.5 -154.5q0 -86 -27.5 -156.5t-77 -121t-119 -78t-153.5 -27.5q-66 0 -119.5 16.5t-91.5 47.5t-58.5 74t-20.5 95q0 56 30.5 102.5t87 81.5t136 57t177.5 28q-19 42 -50.5 65t-73.5 23q-49 0 -88.5 -21.5t-61.5 -58.5
l-129 132q54 63 124.5 90.5t155.5 27.5zM309 160q66 0 110.5 44.5t55.5 119.5q-55 -2 -100.5 -10t-78 -21.5t-50 -32t-17.5 -40.5q0 -27 22 -43.5t58 -16.5z" />
    <glyph glyph-name="emptyset" unicode="&#x2205;" horiz-adv-x="698" 
d="M584 554q35 -37 53.5 -85.5t18.5 -108.5q0 -64 -22 -116.5t-62.5 -90t-96.5 -58t-125 -20.5q-88 0 -158 34l-30 -34l-76 58l28 32q-35 37 -53.5 86t-18.5 109q0 64 22 116.5t62.5 90t97.5 58t126 20.5q88 0 156 -34l30 34l76 -59zM248 360q0 -19 5 -37l128 146
q-17 5 -32 5q-45 0 -73 -31t-28 -83zM349 246q45 0 72.5 31.5t27.5 82.5q0 21 -4 36l-128 -145q17 -5 32 -5z" />
    <glyph glyph-name="product" unicode="&#x220f;" horiz-adv-x="745" 
d="M673 610h-1v-830h-206v830h-187v-830h-206v1000h600v-170z" />
    <glyph glyph-name="summation" unicode="&#x2211;" horiz-adv-x="708" 
d="M34 -90l267 373l-256 367v130h614v-170h-366l250 -327l-262 -333h388v-170h-635v130z" />
    <glyph glyph-name="minus" unicode="&#x2212;" horiz-adv-x="632" 
d="M58 436h516v-164h-516v164z" />
    <glyph glyph-name="radical" unicode="&#x221a;" horiz-adv-x="813" 
d="M-3 330h218l101 -324l275 774h218l-393 -1000h-199z" />
    <glyph glyph-name="infinity" unicode="&#x221e;" horiz-adv-x="752" 
d="M519 455q44 0 79.5 -12.5t61 -35.5t39.5 -55.5t14 -72.5t-14 -72.5t-39.5 -55.5t-61 -35.5t-79.5 -12.5q-46 0 -83 16.5t-60 46.5q-24 -30 -60.5 -46.5t-82.5 -16.5q-43 0 -79 12.5t-62 35.5t-40 55.5t-14 72.5t14 72.5t40 55.5t62 35.5t79 12.5q46 0 82.5 -16.5
t60.5 -46.5q23 30 60 46.5t83 16.5zM247 229q21 0 34.5 13.5t13.5 36.5t-13.5 36.5t-34.5 13.5q-23 0 -36.5 -13.5t-13.5 -36.5t13.5 -36.5t36.5 -13.5zM505 229q21 0 34.5 13.5t13.5 36.5t-13.5 36.5t-34.5 13.5q-23 0 -36.5 -13.5t-13.5 -36.5t13.5 -36.5t36.5 -13.5z" />
    <glyph glyph-name="integral" unicode="&#x222b;" horiz-adv-x="463" 
d="M326 790q46 0 79.5 -14t58.5 -40l-53 -137q-20 21 -43 21q-16 0 -25 -9t-9 -23v-652q0 -38 -15 -68.5t-41.5 -52t-62.5 -33.5t-79 -12q-46 0 -79 14t-59 40l54 137q20 -21 42 -21q16 0 25 9t9 23v652q0 38 15 68.5t41.5 52t63 33.5t78.5 12z" />
    <glyph glyph-name="approxequal" unicode="&#x2248;" horiz-adv-x="621" 
d="M419 105q-30 0 -60.5 6.5t-58.5 14.5t-52 14.5t-40 6.5q-48 0 -48 -32h-104q0 78 40 124.5t108 46.5q31 0 61.5 -6t58 -13.5t51 -14t40.5 -6.5q23 0 35.5 6.5t12.5 23.5h104q0 -83 -40 -127t-108 -44zM419 305q-30 0 -60.5 6.5t-58.5 14.5t-52 14.5t-40 6.5
q-48 0 -48 -32h-104q0 78 40 124.5t108 46.5q31 0 61.5 -6t58 -13.5t51 -14t40.5 -6.5q23 0 35.5 6.5t12.5 23.5h104q0 -83 -40 -127t-108 -44z" />
    <glyph glyph-name="notequal" unicode="&#x2260;" horiz-adv-x="630" 
d="M423 377l-12 -46h162v-164h-206l-33 -122h-201l33 122h-109v164h153l12 46h-165v164h209l33 122h201l-33 -122h106v-164h-150z" />
    <glyph glyph-name="lessequal" unicode="&#x2264;" horiz-adv-x="634" 
d="M573 155v-164h-525v164h525zM572 185l-522 205v130l522 205v-186l-245 -84l245 -84v-186z" />
    <glyph glyph-name="greaterequal" unicode="&#x2265;" horiz-adv-x="633" 
d="M585 155v-164h-525v164h525zM62 185v186l246 84l-246 84v186l522 -205v-130z" />
    <glyph glyph-name="lozenge" unicode="&#x25ca;" horiz-adv-x="676" 
d="M644 325l-212 -325h-188l-212 325l212 325h188zM439 325l-101 151l-100 -151l100 -151z" />
    <glyph glyph-name="uniF8FF" unicode="&#xf8ff;" horiz-adv-x="1274" 
d="M76 -10q-8 0 -12.5 5t-4.5 13q0 10 5 15l342 341h-324q-8 0 -15.5 3t-7.5 16q0 5 2 8.5t5 7.5l340 342h-327q-20 0 -20 19v1q0 19 20 19h370q8 0 15.5 -3t7.5 -17q0 -10 -8 -17l-341 -340h330q8 0 14 -6t6 -14v-327l339 338q7 8 17 8q13 0 15.5 -7.5t2.5 -14.5v-324
l340 338q6 8 16 8q8 0 12.5 -5.5t4.5 -13.5q0 -3 -1 -7t-5 -7l-368 -372q-7 -7 -17 -7q-14 0 -17 7.5t-3 15.5v324l-339 -340q-7 -7 -17 -7q-14 0 -17 7.5t-3 15.5v324l-340 -340q-7 -7 -17 -7z" />
    <glyph glyph-name="A.ss01" horiz-adv-x="821" 
d="M411 750q77 0 140.5 -22t108.5 -62t69.5 -96.5t24.5 -125.5v-444h-206v181h-275v-181h-206v444q0 69 25 125.5t70 96.5t108.5 62t140.5 22zM548 351v85q0 65 -37.5 104.5t-98.5 39.5q-63 0 -101 -39.5t-38 -104.5v-85h275z" />
    <glyph glyph-name="AE.ss01" horiz-adv-x="1009" 
d="M964 170v-170h-506v181h-189v-181h-206v384q0 80 28.5 146t80 112.5t124.5 72t162 25.5h499v-170h-293v-112h255v-170h-255v-118h300zM269 351h189v219q-43 0 -77.5 -14t-59.5 -39.5t-38.5 -61t-13.5 -79.5v-25z" />
    <glyph glyph-name="Aacute.ss01" horiz-adv-x="821" 
d="M411 750q77 0 140.5 -22t108.5 -62t69.5 -96.5t24.5 -125.5v-444h-206v181h-275v-181h-206v444q0 69 25 125.5t70 96.5t108.5 62t140.5 22zM455 807h-168l141 173h229zM548 351v85q0 65 -37.5 104.5t-98.5 39.5q-63 0 -101 -39.5t-38 -104.5v-85h275z" />
    <glyph glyph-name="Abreve.ss01" horiz-adv-x="821" 
d="M411 750q77 0 140.5 -22t108.5 -62t69.5 -96.5t24.5 -125.5v-444h-206v181h-275v-181h-206v444q0 69 25 125.5t70 96.5t108.5 62t140.5 22zM411 799q-46 0 -83.5 13t-64 36.5t-41 57t-14.5 74.5h148q0 -31 15.5 -50t39.5 -19q25 0 40 19t15 50h148q0 -41 -14.5 -74.5
t-41 -57t-64 -36.5t-83.5 -13zM548 351v85q0 65 -37.5 104.5t-98.5 39.5q-63 0 -101 -39.5t-38 -104.5v-85h275z" />
    <glyph glyph-name="Acircumflex.ss01" horiz-adv-x="821" 
d="M411 750q77 0 140.5 -22t108.5 -62t69.5 -96.5t24.5 -125.5v-444h-206v181h-275v-181h-206v444q0 69 25 125.5t70 96.5t108.5 62t140.5 22zM366 807h-182l133 173h186l132 -173h-181l-44 56zM548 351v85q0 65 -37.5 104.5t-98.5 39.5q-63 0 -101 -39.5t-38 -104.5v-85
h275z" />
    <glyph glyph-name="Adieresis.ss01" horiz-adv-x="821" 
d="M411 750q77 0 140.5 -22t108.5 -62t69.5 -96.5t24.5 -125.5v-444h-206v181h-275v-181h-206v444q0 69 25 125.5t70 96.5t108.5 62t140.5 22zM268 781q-51 0 -82.5 31t-31.5 82t31.5 82.5t82.5 31.5t82 -31.5t31 -82.5t-31 -82t-82 -31zM555 781q-51 0 -82.5 31t-31.5 82
t31.5 82.5t82.5 31.5t82 -31.5t31 -82.5t-31 -82t-82 -31zM548 351v85q0 65 -37.5 104.5t-98.5 39.5q-63 0 -101 -39.5t-38 -104.5v-85h275z" />
    <glyph glyph-name="Agrave.ss01" horiz-adv-x="821" 
d="M411 750q77 0 140.5 -22t108.5 -62t69.5 -96.5t24.5 -125.5v-444h-206v181h-275v-181h-206v444q0 69 25 125.5t70 96.5t108.5 62t140.5 22zM366 807l-202 173h229l141 -173h-168zM548 351v85q0 65 -37.5 104.5t-98.5 39.5q-63 0 -101 -39.5t-38 -104.5v-85h275z" />
    <glyph glyph-name="Amacron.ss01" horiz-adv-x="821" 
d="M411 750q77 0 140.5 -22t108.5 -62t69.5 -96.5t24.5 -125.5v-444h-206v181h-275v-181h-206v444q0 69 25 125.5t70 96.5t108.5 62t140.5 22zM611 791h-400v156h400v-156zM548 351v85q0 65 -37.5 104.5t-98.5 39.5q-63 0 -101 -39.5t-38 -104.5v-85h275z" />
    <glyph glyph-name="Aogonek.ss01" horiz-adv-x="821" 
d="M757 -202q-19 -12 -42.5 -20t-61.5 -8q-54 0 -85.5 27t-31.5 72q0 36 20 68t57 63h-65v181h-275v-181h-206v444q0 69 25 125.5t70 96.5t108.5 62t140.5 22t140.5 -22t108.5 -62t69.5 -96.5t24.5 -125.5v-444q-77 -47 -77 -96q0 -23 27 -23q21 0 37 11zM548 351v85
q0 65 -37.5 104.5t-98.5 39.5q-63 0 -101 -39.5t-38 -104.5v-85h275z" />
    <glyph glyph-name="Aring.ss01" horiz-adv-x="821" 
d="M411 750q77 0 140.5 -22t108.5 -62t69.5 -96.5t24.5 -125.5v-444h-206v181h-275v-181h-206v444q0 69 25 125.5t70 96.5t108.5 62t140.5 22zM411 774q-57 0 -91.5 30t-34.5 81q0 50 34.5 80t91.5 30t91 -30t34 -80q0 -51 -34 -81t-91 -30zM548 351v85q0 65 -37.5 104.5
t-98.5 39.5q-63 0 -101 -39.5t-38 -104.5v-85h275zM411 909q-11 0 -18.5 -6.5t-7.5 -17.5t7.5 -18t18.5 -7t17.5 7t6.5 18t-6.5 17.5t-17.5 6.5z" />
    <glyph glyph-name="Atilde.ss01" horiz-adv-x="821" 
d="M411 750q77 0 140.5 -22t108.5 -62t69.5 -96.5t24.5 -125.5v-444h-206v181h-275v-181h-206v444q0 69 25 125.5t70 96.5t108.5 62t140.5 22zM332 842q-28 0 -28 -32h-104q0 78 34.5 124.5t93.5 46.5q24 0 47.5 -6t44.5 -13.5t39 -14t30 -6.5q14 0 21 6.5t7 23.5h104
q0 -83 -34.5 -127t-93.5 -44q-22 0 -45.5 6.5t-45 14.5t-40 14.5t-30.5 6.5zM548 351v85q0 65 -37.5 104.5t-98.5 39.5q-63 0 -101 -39.5t-38 -104.5v-85h275z" />
    <glyph glyph-name="C.ss02" horiz-adv-x="640" 
d="M442 -10q-92 0 -167 27.5t-128.5 77t-83 120t-29.5 155.5q0 86 29.5 156t83 119.5t128.5 77t167 27.5q43 0 82 -7.5t75 -24.5v-187q-25 23 -64 36t-90 13q-45 0 -81.5 -15t-62.5 -42.5t-40 -66.5t-14 -86t14 -86t40 -66.5t62.5 -42.5t81.5 -15q51 0 90 13t64 36v-187
q-36 -17 -75 -24.5t-82 -7.5z" />
    <glyph glyph-name="Cacute.ss02" horiz-adv-x="640" 
d="M442 -10q-92 0 -167 27.5t-128.5 77t-83 120t-29.5 155.5q0 86 29.5 156t83 119.5t128.5 77t167 27.5q43 0 82 -7.5t75 -24.5v-187q-25 23 -64 36t-90 13q-45 0 -81.5 -15t-62.5 -42.5t-40 -66.5t-14 -86t14 -86t40 -66.5t62.5 -42.5t81.5 -15q51 0 90 13t64 36v-187
q-36 -17 -75 -24.5t-82 -7.5zM452 980h229l-202 -173h-168z" />
    <glyph glyph-name="Ccaron.ss02" horiz-adv-x="640" 
d="M34 370q0 86 29.5 156t83 119.5t128.5 77t167 27.5q43 0 82 -7.5t75 -24.5v-187q-25 23 -64 36t-90 13q-45 0 -81.5 -15t-62.5 -42.5t-40 -66.5t-14 -86t14 -86t40 -66.5t62.5 -42.5t81.5 -15q51 0 90 13t64 36v-187q-36 -17 -75 -24.5t-82 -7.5q-92 0 -167 27.5
t-128.5 77t-83 120t-29.5 155.5zM208 980h182l44 -56l44 56h181l-132 -173h-186z" />
    <glyph glyph-name="Ccedilla.ss02" horiz-adv-x="640" 
d="M445 580q-45 0 -81.5 -15t-62.5 -42.5t-40 -66.5t-14 -86t14 -86t40 -66.5t62.5 -42.5t81.5 -15q51 0 90 13t64 36v-187q-56 -26 -121 -31l-22 -36q41 -6 64.5 -29t23.5 -58q0 -44 -38 -71t-104 -27q-30 0 -58.5 6.5t-45.5 15.5l33 68q9 -5 22.5 -9t27.5 -4q17 0 26 6
t9 14q0 16 -28 16q-14 0 -28 -7l-24 42l37 76q-77 10 -139.5 41t-107 79.5t-68.5 113.5t-24 142q0 86 29.5 156t83 119.5t128.5 77t167 27.5q43 0 82 -7.5t75 -24.5v-187q-25 23 -64 36t-90 13z" />
    <glyph glyph-name="Cdotaccent.ss02" horiz-adv-x="640" 
d="M442 -10q-92 0 -167 27.5t-128.5 77t-83 120t-29.5 155.5q0 86 29.5 156t83 119.5t128.5 77t167 27.5q43 0 82 -7.5t75 -24.5v-187q-25 23 -64 36t-90 13q-45 0 -81.5 -15t-62.5 -42.5t-40 -66.5t-14 -86t14 -86t40 -66.5t62.5 -42.5t81.5 -15q51 0 90 13t64 36v-187
q-36 -17 -75 -24.5t-82 -7.5zM435 781q-50 0 -82 31.5t-32 81.5t32 82t82 32t81.5 -32t31.5 -82t-31.5 -81.5t-81.5 -31.5z" />
    <glyph glyph-name="J.ss01" horiz-adv-x="606" 
d="M538 281q0 -66 -22.5 -119.5t-63 -91.5t-98 -59t-127.5 -21q-127 0 -223 75l102 137q23 -20 51 -31t57 -11q53 0 85.5 35.5t32.5 94.5v280h-277v170h483v-459z" />
    <glyph glyph-name="Z.ss02" horiz-adv-x="642" 
d="M615 170v-170h-590l279 570h-273v170h578l-278 -570h284z" />
    <glyph glyph-name="Zacute.ss02" horiz-adv-x="642" 
d="M615 170v-170h-590l279 570h-273v170h578l-278 -570h284zM365 807h-168l141 173h229z" />
    <glyph glyph-name="Zcaron.ss02" horiz-adv-x="642" 
d="M615 170v-170h-590l279 570h-273v170h578l-278 -570h284zM94 980h182l44 -56l44 56h181l-132 -173h-186z" />
    <glyph glyph-name="Zdotaccent.ss02" horiz-adv-x="642" 
d="M615 170v-170h-590l279 570h-273v170h578l-278 -570h284zM321 781q-50 0 -82 31.5t-32 81.5t32 82t82 32t81.5 -32t31.5 -82t-31.5 -81.5t-81.5 -31.5z" />
    <glyph glyph-name="Zeta.ss02" horiz-adv-x="642" 
d="M615 170v-170h-590l279 570h-273v170h578l-278 -570h284z" />
    <glyph glyph-name="a.ss01" 
d="M639 550v-550h-192l-3 56q-27 -32 -65 -49t-87 -17q-54 0 -101.5 20t-83 57t-56.5 89t-21 116q0 65 21 118t56.5 90.5t83 58.5t101.5 21q49 0 87 -17.5t65 -49.5l3 57h192zM337 161q46 0 74 31t28 83q0 51 -28 82.5t-74 31.5q-45 0 -73 -31.5t-28 -83.5q0 -51 28 -82
t73 -31z" />
    <glyph glyph-name="a.ss02" horiz-adv-x="609" 
d="M553 550v-550h-193l-2 49q-26 -29 -60.5 -44t-72.5 -15q-45 0 -81.5 13t-62.5 36.5t-40.5 57t-14.5 74.5t17.5 75t49 58t76.5 37t99 13q20 0 41 -2t44 -5v47h-293v156h493zM283 131q31 0 50 22t20 61q-16 2 -30.5 3.5t-28.5 1.5q-28 0 -44.5 -12t-16.5 -32t11 -32t39 -12
z" />
    <glyph glyph-name="aacute.ss01" 
d="M639 550v-550h-192l-3 56q-27 -32 -65 -49t-87 -17q-54 0 -101.5 20t-83 57t-56.5 89t-21 116q0 65 21 118t56.5 90.5t83 58.5t101.5 21q49 0 87 -17.5t65 -49.5l3 57h192zM389 617h-168l141 173h229zM337 161q46 0 74 31t28 83q0 51 -28 82.5t-74 31.5q-45 0 -73 -31.5
t-28 -83.5q0 -51 28 -82t73 -31z" />
    <glyph glyph-name="aacute.ss02" horiz-adv-x="609" 
d="M60 550h493v-550h-193l-2 49q-26 -29 -60.5 -44t-72.5 -15q-45 0 -81.5 13t-62.5 36.5t-40.5 57t-14.5 74.5t17.5 75t49 58t76.5 37t99 13q20 0 41 -2t44 -5v47h-293v156zM357 617h-168l141 173h229zM283 131q31 0 50 22t20 61q-16 2 -30.5 3.5t-28.5 1.5
q-28 0 -44.5 -12t-16.5 -32t11 -32t39 -12z" />
    <glyph glyph-name="abreve.ss01" 
d="M639 550v-550h-192l-3 56q-27 -32 -65 -49t-87 -17q-54 0 -101.5 20t-83 57t-56.5 89t-21 116q0 65 21 118t56.5 90.5t83 58.5t101.5 21q49 0 87 -17.5t65 -49.5l3 57h192zM345 609q-46 0 -83.5 13t-64 36.5t-41 57t-14.5 74.5h148q0 -31 15.5 -50t39.5 -19q25 0 40 19
t15 50h148q0 -41 -14.5 -74.5t-41 -57t-64 -36.5t-83.5 -13zM337 161q46 0 74 31t28 83q0 51 -28 82.5t-74 31.5q-45 0 -73 -31.5t-28 -83.5q0 -51 28 -82t73 -31z" />
    <glyph glyph-name="abreve.ss02" horiz-adv-x="609" 
d="M553 550v-550h-193l-2 49q-26 -29 -60.5 -44t-72.5 -15q-45 0 -81.5 13t-62.5 36.5t-40.5 57t-14.5 74.5t17.5 75t49 58t76.5 37t99 13q20 0 41 -2t44 -5v47h-293v156h493zM313 609q-46 0 -83.5 13t-64 36.5t-41 57t-14.5 74.5h148q0 -31 15.5 -50t39.5 -19q25 0 40 19
t15 50h148q0 -41 -14.5 -74.5t-41 -57t-64 -36.5t-83.5 -13zM283 131q31 0 50 22t20 61q-16 2 -30.5 3.5t-28.5 1.5q-28 0 -44.5 -12t-16.5 -32t11 -32t39 -12z" />
    <glyph glyph-name="acircumflex.ss01" 
d="M639 550v-550h-192l-3 56q-27 -32 -65 -49t-87 -17q-54 0 -101.5 20t-83 57t-56.5 89t-21 116q0 65 21 118t56.5 90.5t83 58.5t101.5 21q49 0 87 -17.5t65 -49.5l3 57h192zM300 617h-182l133 173h186l132 -173h-181l-44 56zM337 161q46 0 74 31t28 83q0 51 -28 82.5
t-74 31.5q-45 0 -73 -31.5t-28 -83.5q0 -51 28 -82t73 -31z" />
    <glyph glyph-name="acircumflex.ss02" horiz-adv-x="609" 
d="M553 550v-550h-193l-2 49q-26 -29 -60.5 -44t-72.5 -15q-45 0 -81.5 13t-62.5 36.5t-40.5 57t-14.5 74.5t17.5 75t49 58t76.5 37t99 13q20 0 41 -2t44 -5v47h-293v156h493zM268 617h-182l133 173h186l132 -173h-181l-44 56zM283 131q31 0 50 22t20 61q-16 2 -30.5 3.5
t-28.5 1.5q-28 0 -44.5 -12t-16.5 -32t11 -32t39 -12z" />
    <glyph glyph-name="adieresis.ss01" 
d="M639 550v-550h-192l-3 56q-27 -32 -65 -49t-87 -17q-54 0 -101.5 20t-83 57t-56.5 89t-21 116q0 65 21 118t56.5 90.5t83 58.5t101.5 21q49 0 87 -17.5t65 -49.5l3 57h192zM202 591q-51 0 -82.5 31t-31.5 82t31.5 82.5t82.5 31.5t82 -31.5t31 -82.5t-31 -82t-82 -31z
M489 591q-51 0 -82.5 31t-31.5 82t31.5 82.5t82.5 31.5t82 -31.5t31 -82.5t-31 -82t-82 -31zM337 161q46 0 74 31t28 83q0 51 -28 82.5t-74 31.5q-45 0 -73 -31.5t-28 -83.5q0 -51 28 -82t73 -31z" />
    <glyph glyph-name="adieresis.ss02" horiz-adv-x="609" 
d="M60 550h493v-550h-193l-2 49q-26 -29 -60.5 -44t-72.5 -15q-45 0 -81.5 13t-62.5 36.5t-40.5 57t-14.5 74.5t17.5 75t49 58t76.5 37t99 13q20 0 41 -2t44 -5v47h-293v156zM170 591q-51 0 -82.5 31t-31.5 82t31.5 82.5t82.5 31.5t82 -31.5t31 -82.5t-31 -82t-82 -31z
M457 591q-51 0 -82.5 31t-31.5 82t31.5 82.5t82.5 31.5t82 -31.5t31 -82.5t-31 -82t-82 -31zM283 131q31 0 50 22t20 61q-16 2 -30.5 3.5t-28.5 1.5q-28 0 -44.5 -12t-16.5 -32t11 -32t39 -12z" />
    <glyph glyph-name="agrave.ss01" 
d="M639 550v-550h-192l-3 56q-27 -32 -65 -49t-87 -17q-54 0 -101.5 20t-83 57t-56.5 89t-21 116q0 65 21 118t56.5 90.5t83 58.5t101.5 21q49 0 87 -17.5t65 -49.5l3 57h192zM300 617l-202 173h229l141 -173h-168zM337 161q46 0 74 31t28 83q0 51 -28 82.5t-74 31.5
q-45 0 -73 -31.5t-28 -83.5q0 -51 28 -82t73 -31z" />
    <glyph glyph-name="agrave.ss02" horiz-adv-x="609" 
d="M553 550v-550h-193l-2 49q-26 -29 -60.5 -44t-72.5 -15q-45 0 -81.5 13t-62.5 36.5t-40.5 57t-14.5 74.5t17.5 75t49 58t76.5 37t99 13q20 0 41 -2t44 -5v47h-293v156h493zM268 617l-202 173h229l141 -173h-168zM283 131q31 0 50 22t20 61q-16 2 -30.5 3.5t-28.5 1.5
q-28 0 -44.5 -12t-16.5 -32t11 -32t39 -12z" />
    <glyph glyph-name="alpha.ss01" 
d="M639 550v-550h-192l-3 56q-27 -32 -65 -49t-87 -17q-54 0 -101.5 20t-83 57t-56.5 89t-21 116q0 65 21 118t56.5 90.5t83 58.5t101.5 21q49 0 87 -17.5t65 -49.5l3 57h192zM337 161q46 0 74 31t28 83q0 51 -28 82.5t-74 31.5q-45 0 -73 -31.5t-28 -83.5q0 -51 28 -82
t73 -31z" />
    <glyph glyph-name="alpha.ss02" 
d="M639 550v-550h-192l-3 56q-27 -32 -65 -49t-87 -17q-54 0 -101.5 20t-83 57t-56.5 89t-21 116q0 65 21 118t56.5 90.5t83 58.5t101.5 21q49 0 87 -17.5t65 -49.5l3 57h192zM337 161q46 0 74 31t28 83q0 51 -28 82.5t-74 31.5q-45 0 -73 -31.5t-28 -83.5q0 -51 28 -82
t73 -31z" />
    <glyph glyph-name="alphatonos.ss01" 
d="M639 550v-550h-192l-3 56q-27 -32 -65 -49t-87 -17q-54 0 -101.5 20t-83 57t-56.5 89t-21 116q0 65 21 118t56.5 90.5t83 58.5t101.5 21q49 0 87 -17.5t65 -49.5l3 57h192zM419 617h-148l33 173h189zM337 161q46 0 74 31t28 83q0 51 -28 82.5t-74 31.5q-45 0 -73 -31.5
t-28 -83.5q0 -51 28 -82t73 -31z" />
    <glyph glyph-name="alphatonos.ss02" 
d="M639 550v-550h-192l-3 56q-27 -32 -65 -49t-87 -17q-54 0 -101.5 20t-83 57t-56.5 89t-21 116q0 65 21 118t56.5 90.5t83 58.5t101.5 21q49 0 87 -17.5t65 -49.5l3 57h192zM419 617h-148l33 173h189zM337 161q46 0 74 31t28 83q0 51 -28 82.5t-74 31.5q-45 0 -73 -31.5
t-28 -83.5q0 -51 28 -82t73 -31z" />
    <glyph glyph-name="amacron.ss01" 
d="M639 550v-550h-192l-3 56q-27 -32 -65 -49t-87 -17q-54 0 -101.5 20t-83 57t-56.5 89t-21 116q0 65 21 118t56.5 90.5t83 58.5t101.5 21q49 0 87 -17.5t65 -49.5l3 57h192zM545 601h-400v156h400v-156zM337 161q46 0 74 31t28 83q0 51 -28 82.5t-74 31.5q-45 0 -73 -31.5
t-28 -83.5q0 -51 28 -82t73 -31z" />
    <glyph glyph-name="amacron.ss02" horiz-adv-x="609" 
d="M553 550v-550h-193l-2 49q-26 -29 -60.5 -44t-72.5 -15q-45 0 -81.5 13t-62.5 36.5t-40.5 57t-14.5 74.5t17.5 75t49 58t76.5 37t99 13q20 0 41 -2t44 -5v47h-293v156h493zM513 601h-400v156h400v-156zM283 131q31 0 50 22t20 61q-16 2 -30.5 3.5t-28.5 1.5
q-28 0 -44.5 -12t-16.5 -32t11 -32t39 -12z" />
    <glyph glyph-name="aogonek.ss01" 
d="M642 -202q-19 -12 -42.5 -20t-61.5 -8q-54 0 -85.5 27t-31.5 72q0 36 20 68t57 63h-51l-3 56q-27 -32 -65 -49t-87 -17q-54 0 -101.5 20t-83 57t-56.5 89t-21 116q0 65 21 118t56.5 90.5t83 58.5t101.5 21q49 0 87 -17.5t65 -49.5l3 57h192v-550q-77 -47 -77 -96
q0 -23 27 -23q21 0 37 11zM337 161q46 0 74 31t28 83q0 51 -28 82.5t-74 31.5q-45 0 -73 -31.5t-28 -83.5q0 -51 28 -82t73 -31z" />
    <glyph glyph-name="aogonek.ss02" horiz-adv-x="609" 
d="M556 -202q-19 -12 -42.5 -20t-61.5 -8q-54 0 -85.5 27t-31.5 72q0 36 20 68t57 63h-52l-2 49q-26 -29 -60.5 -44t-72.5 -15q-45 0 -81.5 13t-62.5 36.5t-40.5 57t-14.5 74.5t17.5 75t49 58t76.5 37t99 13q20 0 41 -2t44 -5v47h-293v156h493v-550q-77 -47 -77 -96
q0 -23 27 -23q21 0 37 11zM283 131q31 0 50 22t20 61q-16 2 -30.5 3.5t-28.5 1.5q-28 0 -44.5 -12t-16.5 -32t11 -32t39 -12z" />
    <glyph glyph-name="aring.ss01" 
d="M639 550v-550h-192l-3 56q-27 -32 -65 -49t-87 -17q-54 0 -101.5 20t-83 57t-56.5 89t-21 116q0 65 21 118t56.5 90.5t83 58.5t101.5 21q49 0 87 -17.5t65 -49.5l3 57h192zM345 584q-57 0 -91.5 30t-34.5 81q0 50 34.5 80t91.5 30t91 -30t34 -80q0 -51 -34 -81t-91 -30z
M337 161q46 0 74 31t28 83q0 51 -28 82.5t-74 31.5q-45 0 -73 -31.5t-28 -83.5q0 -51 28 -82t73 -31zM345 719q-11 0 -18.5 -6.5t-7.5 -17.5t7.5 -18t18.5 -7t17.5 7t6.5 18t-6.5 17.5t-17.5 6.5z" />
    <glyph glyph-name="aring.ss02" horiz-adv-x="609" 
d="M553 550v-550h-193l-2 49q-26 -29 -60.5 -44t-72.5 -15q-45 0 -81.5 13t-62.5 36.5t-40.5 57t-14.5 74.5t17.5 75t49 58t76.5 37t99 13q20 0 41 -2t44 -5v47h-293v156h493zM313 584q-57 0 -91.5 30t-34.5 81q0 50 34.5 80t91.5 30t91 -30t34 -80q0 -51 -34 -81t-91 -30z
M283 131q31 0 50 22t20 61q-16 2 -30.5 3.5t-28.5 1.5q-28 0 -44.5 -12t-16.5 -32t11 -32t39 -12zM313 719q-11 0 -18.5 -6.5t-7.5 -17.5t7.5 -18t18.5 -7t17.5 7t6.5 18t-6.5 17.5t-17.5 6.5z" />
    <glyph glyph-name="atilde.ss01" 
d="M639 550v-550h-192l-3 56q-27 -32 -65 -49t-87 -17q-54 0 -101.5 20t-83 57t-56.5 89t-21 116q0 65 21 118t56.5 90.5t83 58.5t101.5 21q49 0 87 -17.5t65 -49.5l3 57h192zM266 652q-28 0 -28 -32h-104q0 78 34.5 124.5t93.5 46.5q24 0 47.5 -6t44.5 -13.5t39 -14
t30 -6.5q14 0 21 6.5t7 23.5h104q0 -83 -34.5 -127t-93.5 -44q-22 0 -45.5 6.5t-45 14.5t-40 14.5t-30.5 6.5zM337 161q46 0 74 31t28 83q0 51 -28 82.5t-74 31.5q-45 0 -73 -31.5t-28 -83.5q0 -51 28 -82t73 -31z" />
    <glyph glyph-name="atilde.ss02" horiz-adv-x="609" 
d="M553 550v-550h-193l-2 49q-26 -29 -60.5 -44t-72.5 -15q-45 0 -81.5 13t-62.5 36.5t-40.5 57t-14.5 74.5t17.5 75t49 58t76.5 37t99 13q20 0 41 -2t44 -5v47h-293v156h493zM234 652q-28 0 -28 -32h-104q0 78 34.5 124.5t93.5 46.5q24 0 47.5 -6t44.5 -13.5t39 -14
t30 -6.5q14 0 21 6.5t7 23.5h104q0 -83 -34.5 -127t-93.5 -44q-22 0 -45.5 6.5t-45 14.5t-40 14.5t-30.5 6.5zM283 131q31 0 50 22t20 61q-16 2 -30.5 3.5t-28.5 1.5q-28 0 -44.5 -12t-16.5 -32t11 -32t39 -12z" />
    <glyph glyph-name="braceleft.case" horiz-adv-x="467" 
d="M297 -50q-87 0 -138.5 48t-51.5 128v114q0 21 -18.5 33t-48.5 12h-4v170h4q30 0 48.5 12.5t18.5 32.5v114q0 80 51.5 128t138.5 48q39 0 68.5 -3.5t57.5 -9.5v-160q-16 3 -44 3q-30 0 -48 -18.5t-18 -49.5v-76q0 -38 -25 -67t-67 -39q42 -10 67 -38.5t25 -66.5v-77
q0 -31 18 -49.5t48 -18.5q28 0 44 3v-160q-28 -6 -57.5 -9.5t-68.5 -3.5z" />
    <glyph glyph-name="braceright.case" horiz-adv-x="467" 
d="M170 -50q-39 0 -68.5 3.5t-57.5 9.5v160q17 -3 44 -3q30 0 48 18.5t18 49.5v77q0 38 25 66.5t67 38.5q-42 10 -67 39t-25 67v76q0 31 -18 49.5t-48 18.5q-27 0 -44 -3v160q28 6 57.5 9.5t68.5 3.5q87 0 138.5 -48t51.5 -128v-114q0 -20 18.5 -32.5t48.5 -12.5h4v-170h-4
q-30 0 -48.5 -12t-18.5 -33v-114q0 -80 -51.5 -128t-138.5 -48z" />
    <glyph glyph-name="bracketleft.case" horiz-adv-x="446" 
d="M72 780h330v-171h-122v-478h122v-171h-330v820z" />
    <glyph glyph-name="bracketright.case" horiz-adv-x="446" 
d="M44 131h122v478h-122v171h330v-820h-330v171z" />
    <glyph glyph-name="brevecombcy" horiz-adv-x="0" 
d="M-223 609q-46 0 -83.5 13t-64 36.5t-41 57t-14.5 74.5h148q0 -31 15.5 -50t39.5 -19q25 0 40 19t15 50h148q0 -41 -14.5 -74.5t-41 -57t-64 -36.5t-83.5 -13z" />
    <glyph glyph-name="c.ss02" horiz-adv-x="492" 
d="M342 -10q-70 0 -128 20.5t-99 58t-63.5 90t-22.5 116.5t22.5 116.5t63.5 90t99 58t128 20.5q26 0 54 -5.5t49 -13.5v-183q-15 14 -40 22.5t-52 8.5q-53 0 -85 -31t-32 -83q0 -51 32 -82.5t85 -31.5q29 0 56 10t42 26v-183q-20 -11 -51 -17.5t-58 -6.5z" />
    <glyph glyph-name="cacute.ss02" horiz-adv-x="492" 
d="M342 -10q-70 0 -128 20.5t-99 58t-63.5 90t-22.5 116.5t22.5 116.5t63.5 90t99 58t128 20.5q26 0 54 -5.5t49 -13.5v-183q-15 14 -40 22.5t-52 8.5q-53 0 -85 -31t-32 -83q0 -51 32 -82.5t85 -31.5q29 0 56 10t42 26v-183q-20 -11 -51 -17.5t-58 -6.5zM344 790h229
l-202 -173h-168z" />
    <glyph glyph-name="ccaron.ss02" horiz-adv-x="492" 
d="M353 161q29 0 56 10t42 26v-183q-20 -11 -51 -17.5t-58 -6.5q-70 0 -128 20.5t-99 58t-63.5 90t-22.5 116.5t22.5 116.5t63.5 90t99 58t128 20.5q26 0 54 -5.5t49 -13.5v-183q-15 14 -40 22.5t-52 8.5q-53 0 -85 -31t-32 -83q0 -51 32 -82.5t85 -31.5zM100 790h182
l44 -56l44 56h181l-132 -173h-186z" />
    <glyph glyph-name="ccedilla.ss02" horiz-adv-x="492" 
d="M451 14q-17 -10 -42.5 -15.5t-50.5 -7.5l-21 -36q41 -6 64.5 -29t23.5 -58q0 -44 -38 -71t-104 -27q-30 0 -58.5 6.5t-45.5 15.5l33 68q9 -5 22.5 -9t27.5 -4q17 0 26 6t9 14q0 16 -28 16q-14 0 -28 -7l-24 42l39 81q-52 11 -94 35.5t-71.5 60t-45.5 81t-16 99.5
q0 64 22.5 116.5t63.5 90t99 58t128 20.5q26 0 54 -5.5t49 -13.5v-183q-15 14 -40 22.5t-52 8.5q-53 0 -85 -31t-32 -83q0 -51 32 -82.5t85 -31.5q29 0 56 10t42 26v-183z" />
    <glyph glyph-name="cdotaccent.ss02" horiz-adv-x="492" 
d="M342 -10q-70 0 -128 20.5t-99 58t-63.5 90t-22.5 116.5t22.5 116.5t63.5 90t99 58t128 20.5q26 0 54 -5.5t49 -13.5v-183q-15 14 -40 22.5t-52 8.5q-53 0 -85 -31t-32 -83q0 -51 32 -82.5t85 -31.5q29 0 56 10t42 26v-183q-20 -11 -51 -17.5t-58 -6.5zM327 591
q-50 0 -82 31.5t-32 81.5t32 82t82 32t81.5 -32t31.5 -82t-31.5 -81.5t-81.5 -31.5z" />
    <glyph glyph-name="eight.dnom" horiz-adv-x="390" 
d="M298 231q30 -16 47 -41.5t17 -59.5q0 -62 -46 -99t-121 -37t-121 36.5t-46 96.5q0 34 17 60.5t47 43.5q-25 16 -38.5 39.5t-13.5 52.5q0 58 42.5 92.5t112.5 34.5t112.5 -34.5t42.5 -91.5q0 -29 -13.5 -53t-38.5 -40zM195 349q-12 0 -19.5 -10t-7.5 -25q0 -16 7.5 -24.5
t19.5 -8.5q28 0 28 33q0 15 -7.5 25t-20.5 10zM195 95q17 0 28.5 12t11.5 30q0 20 -11.5 31.5t-28.5 11.5t-28 -11.5t-11 -31.5q0 -18 11 -30t28 -12z" />
    <glyph glyph-name="eight.lf" horiz-adv-x="635" 
d="M489 386q51 -27 78.5 -70.5t27.5 -99.5q0 -51 -20 -92.5t-56.5 -71t-87.5 -46t-113 -16.5q-63 0 -114 16t-87.5 45.5t-56.5 70.5t-20 91q0 57 27.5 101t78.5 71q-41 26 -63.5 64.5t-22.5 87.5q0 48 18.5 87.5t52.5 67t81.5 43t105.5 15.5t105.5 -15t81 -43t52 -66.5
t18.5 -86.5q0 -49 -22.5 -88t-63.5 -65zM317 160q29 0 47 18.5t18 50.5q0 31 -18 50t-47 19t-47 -19t-18 -50q0 -32 18 -50.5t47 -18.5zM317 580q-20 0 -32.5 -15.5t-12.5 -40.5q0 -26 12.5 -41t32.5 -15t32.5 15t12.5 41q0 25 -12.5 40.5t-32.5 15.5z" />
    <glyph glyph-name="eight.numr" horiz-adv-x="390" 
d="M298 527q30 -16 47 -41.5t17 -59.5q0 -62 -46 -99t-121 -37t-121 36.5t-46 96.5q0 34 17 60.5t47 43.5q-25 16 -38.5 39.5t-13.5 52.5q0 58 42.5 92.5t112.5 34.5t112.5 -34.5t42.5 -91.5q0 -29 -13.5 -53t-38.5 -40zM195 645q-12 0 -19.5 -10t-7.5 -25q0 -16 7.5 -24.5
t19.5 -8.5q28 0 28 33q0 15 -7.5 25t-20.5 10zM195 391q17 0 28.5 12t11.5 30q0 20 -11.5 31.5t-28.5 11.5t-28 -11.5t-11 -31.5q0 -18 11 -30t28 -12z" />
    <glyph glyph-name="eight.osf" horiz-adv-x="623" 
d="M479 386q50 -27 77 -70.5t27 -99.5q0 -51 -19.5 -92.5t-55 -71t-85.5 -46t-111 -16.5t-111 16t-86 45.5t-55.5 70.5t-19.5 91q0 57 27.5 101t76.5 71q-40 26 -62 64.5t-22 87.5q0 48 18 87.5t51 67t79.5 43t103.5 15.5t103 -15t79 -43t51 -66.5t18 -86.5q0 -49 -22 -88
t-62 -65zM311 160q29 0 47 18.5t18 50.5q0 31 -18 50t-47 19t-47 -19t-18 -50q0 -32 18 -50.5t47 -18.5zM311 580q-20 0 -32.5 -15.5t-12.5 -40.5q0 -26 12.5 -41t32.5 -15t32.5 15t12.5 41q0 25 -12.5 40.5t-32.5 15.5z" />
    <glyph glyph-name="eight.tf" horiz-adv-x="615" 
d="M479 386q51 -27 78.5 -70.5t27.5 -99.5q0 -51 -20 -92.5t-56.5 -71t-87.5 -46t-113 -16.5q-63 0 -114 16t-87.5 45.5t-56.5 70.5t-20 91q0 57 27.5 101t78.5 71q-41 26 -63.5 64.5t-22.5 87.5q0 48 18.5 87.5t52.5 67t81.5 43t105.5 15.5t105.5 -15t81 -43t52 -66.5
t18.5 -86.5q0 -49 -22.5 -88t-63.5 -65zM307 160q29 0 47 18.5t18 50.5q0 31 -18 50t-47 19t-47 -19t-18 -50q0 -32 18 -50.5t47 -18.5zM307 580q-20 0 -32.5 -15.5t-12.5 -40.5q0 -26 12.5 -41t32.5 -15t32.5 15t12.5 41q0 25 -12.5 40.5t-32.5 15.5z" />
    <glyph glyph-name="eight.tosf" horiz-adv-x="615" 
d="M475 386q50 -27 77 -70.5t27 -99.5q0 -51 -19.5 -92.5t-55 -71t-85.5 -46t-111 -16.5t-111 16t-86 45.5t-55.5 70.5t-19.5 91q0 57 27.5 101t76.5 71q-40 26 -62 64.5t-22 87.5q0 48 18 87.5t51 67t79.5 43t103.5 15.5t103 -15t79 -43t51 -66.5t18 -86.5q0 -49 -22 -88
t-62 -65zM307 160q29 0 47 18.5t18 50.5q0 31 -18 50t-47 19t-47 -19t-18 -50q0 -32 18 -50.5t47 -18.5zM307 580q-20 0 -32.5 -15.5t-12.5 -40.5q0 -26 12.5 -41t32.5 -15t32.5 15t12.5 41q0 25 -12.5 40.5t-32.5 15.5z" />
    <glyph glyph-name="exclamdown.case" horiz-adv-x="332" 
d="M81 470h170l18 -470h-207zM166 523q-50 0 -82 31.5t-32 81.5t32 82t82 32t81.5 -32t31.5 -82t-31.5 -81.5t-81.5 -31.5z" />
    <glyph glyph-name="f.ss01" horiz-adv-x="382" 
d="M318 619q-28 0 -45 -14t-17 -37v-18h105v-163h-105v-387h-200v599q0 43 14 78.5t39.5 60.5t61.5 38.5t79 13.5q35 0 70 -5.5t61 -17.5l-13 -154q-13 4 -24.5 5t-25.5 1z" />
    <glyph glyph-name="f.ss02" horiz-adv-x="437" 
d="M313 617v-67h105v-163h-105v-387h-200v387h-83v163h83v230h318v-163h-118z" />
    <glyph glyph-name="fi.ss01" horiz-adv-x="694" 
d="M56 599q0 43 14 78.5t39.5 60.5t61.5 38.5t79 13.5q35 0 70 -5.5t61 -17.5l-13 -154q-13 4 -24.5 5t-25.5 1q-28 0 -45 -14t-17 -37v-18h105v-163h-105v-387h-200v599zM438 550h200v-550h-200v550zM539 591q-50 0 -82 31.5t-32 81.5t32 82t82 32t81.5 -32t31.5 -82
t-31.5 -81.5t-81.5 -31.5z" />
    <glyph glyph-name="fi.ss02" horiz-adv-x="749" 
d="M113 780h318v-163h-118v-67h105v-163h-105v-387h-200v387h-83v163h83v230zM493 550h200v-550h-200v550zM594 591q-50 0 -82 31.5t-32 81.5t32 82t82 32t81.5 -32t31.5 -82t-31.5 -81.5t-81.5 -31.5z" />
    <glyph glyph-name="five.dnom" horiz-adv-x="373" 
d="M149 -6q-42 0 -78.5 9.5t-60.5 27.5l37 89q18 -12 42 -18.5t49 -6.5q37 0 59.5 16.5t22.5 42.5q0 17 -12 28.5t-32 11.5q-18 0 -31.5 -8t-16.5 -19l-82 12l32 265h245v-101h-140l-7 -51q3 3 22 3q66 0 107.5 -36t41.5 -96q0 -38 -14.5 -69t-40.5 -53.5t-62.5 -34.5
t-80.5 -12z" />
    <glyph glyph-name="five.lf" horiz-adv-x="614" 
d="M247 -10q-70 0 -130 16t-102 46l61 148q31 -20 70.5 -30t81.5 -10q62 0 99 26t37 70q0 29 -19.5 47t-51.5 18q-31 0 -53 -12t-27 -31l-137 19l51 443h410v-170h-234l-12 -82q3 1 12 2t27 1q53 0 98.5 -16t78.5 -44.5t51.5 -69t18.5 -90.5q0 -63 -24.5 -115t-68 -89
t-104 -57t-133.5 -20z" />
    <glyph glyph-name="five.numr" horiz-adv-x="373" 
d="M149 290q-42 0 -78.5 9.5t-60.5 27.5l37 89q18 -12 42 -18.5t49 -6.5q37 0 59.5 16.5t22.5 42.5q0 17 -12 28.5t-32 11.5q-18 0 -31.5 -8t-16.5 -19l-82 12l32 265h245v-101h-140l-7 -51q3 3 22 3q66 0 107.5 -36t41.5 -96q0 -38 -14.5 -69t-40.5 -53.5t-62.5 -34.5
t-80.5 -12z" />
    <glyph glyph-name="five.osf" horiz-adv-x="607" 
d="M245 -110q-70 0 -130 15.5t-102 45.5l62 150q31 -20 70 -30t81 -10q62 0 99 26.5t37 70.5q0 31 -19.5 49.5t-51.5 18.5q-31 0 -53 -12t-27 -31l-137 19l51 448h410v-163h-233l-19 -95q4 2 14.5 3.5t30.5 1.5q52 0 96 -16t76.5 -45.5t50.5 -70.5t18 -92q0 -64 -24 -116
t-67 -89t-102.5 -57.5t-130.5 -20.5z" />
    <glyph glyph-name="five.tf" horiz-adv-x="615" 
d="M247 -10q-70 0 -130 16t-102 46l61 148q31 -20 70.5 -30t81.5 -10q62 0 99 26t37 70q0 29 -19.5 47t-51.5 18q-31 0 -53 -12t-27 -31l-137 19l51 443h410v-170h-234l-12 -82q3 1 12 2t27 1q53 0 98.5 -16t78.5 -44.5t51.5 -69t18.5 -90.5q0 -63 -24.5 -115t-68 -89
t-104 -57t-133.5 -20z" />
    <glyph glyph-name="five.tosf" horiz-adv-x="615" 
d="M249 -110q-70 0 -130 15.5t-102 45.5l62 150q31 -20 70 -30t81 -10q62 0 99 26.5t37 70.5q0 31 -19.5 49.5t-51.5 18.5q-31 0 -53 -12t-27 -31l-137 19l51 448h410v-163h-233l-19 -95q4 2 14.5 3.5t30.5 1.5q52 0 96 -16t76.5 -45.5t50.5 -70.5t18 -92q0 -64 -24 -116
t-67 -89t-102.5 -57.5t-130.5 -20.5z" />
    <glyph glyph-name="fl.ss01" horiz-adv-x="694" 
d="M56 599q0 43 14 78.5t39.5 60.5t61.5 38.5t79 13.5q35 0 70 -5.5t61 -17.5l-13 -154q-13 4 -24.5 5t-25.5 1q-28 0 -45 -14t-17 -37v-18h105v-163h-105v-387h-200v599zM638 780v-780h-200v780h200z" />
    <glyph glyph-name="fl.ss02" horiz-adv-x="807" 
d="M113 780h318v-163h-118v-67h105v-163h-105v-387h-200v387h-83v163h83v230zM783 164v-164h-290v780h200v-616h90z" />
    <glyph glyph-name="four.dnom" horiz-adv-x="409" 
d="M204 75h-192v84l221 285h95v-266h55v-103h-55v-75h-124v75zM207 174l1 97l-77 -97h76z" />
    <glyph glyph-name="four.lf" horiz-adv-x="675" 
d="M339 126h-319v139l367 475h158v-444h93v-170h-93v-126h-206v126zM345 290l3 163l-130 -163h127z" />
    <glyph glyph-name="four.numr" horiz-adv-x="409" 
d="M204 371h-192v84l221 285h95v-266h55v-103h-55v-75h-124v75zM207 470l1 97l-77 -97h76z" />
    <glyph glyph-name="four.osf" horiz-adv-x="683" 
d="M353 0h-325v125l375 525h150v-486h93v-164h-93v-110h-200v110zM358 158l3 189l-134 -189h131z" />
    <glyph glyph-name="four.tf" horiz-adv-x="615" 
d="M297 126h-296v139l344 475h158v-443h93v-171h-93v-126h-206v126zM303 291l3 162l-107 -162h104z" />
    <glyph glyph-name="four.tosf" horiz-adv-x="615" 
d="M307 0h-302v125l352 525h150v-486h93v-164h-93v-110h-200v110zM312 158l3 174l-111 -174h108z" />
    <glyph glyph-name="g.ss02" 
d="M640 550v-770h-574v163h374v108q-27 -29 -63.5 -45t-83.5 -16q-54 0 -101.5 21t-83 58.5t-56.5 91t-21 117.5t21 116t56.5 89t83 57t101.5 20q49 0 87 -17t65 -49l3 56h192zM338 161q46 0 74 31.5t28 82.5q0 52 -28 83t-74 31q-45 0 -73 -31t-28 -82q0 -52 28 -83.5
t73 -31.5z" />
    <glyph glyph-name="gbreve.ss02" 
d="M640 550v-770h-574v163h374v108q-27 -29 -63.5 -45t-83.5 -16q-54 0 -101.5 21t-83 58.5t-56.5 91t-21 117.5t21 116t56.5 89t83 57t101.5 20q49 0 87 -17t65 -49l3 56h192zM347 609q-46 0 -83.5 13t-64 36.5t-41 57t-14.5 74.5h148q0 -31 15.5 -50t39.5 -19q25 0 40 19
t15 50h148q0 -41 -14.5 -74.5t-41 -57t-64 -36.5t-83.5 -13zM338 161q46 0 74 31.5t28 82.5q0 52 -28 83t-74 31q-45 0 -73 -31t-28 -82q0 -52 28 -83.5t73 -31.5z" />
    <glyph glyph-name="gcommaaccent.ss02" 
d="M640 550v-770h-574v163h374v108q-27 -29 -63.5 -45t-83.5 -16q-54 0 -101.5 21t-83 58.5t-56.5 91t-21 117.5t21 116t56.5 89t83 57t101.5 20q49 0 87 -17t65 -49l3 56h192zM423 593h-178l65 187h150zM338 161q46 0 74 31.5t28 82.5q0 52 -28 83t-74 31q-45 0 -73 -31
t-28 -82q0 -52 28 -83.5t73 -31.5z" />
    <glyph glyph-name="gdotaccent.ss02" 
d="M640 550v-770h-574v163h374v108q-27 -29 -63.5 -45t-83.5 -16q-54 0 -101.5 21t-83 58.5t-56.5 91t-21 117.5t21 116t56.5 89t83 57t101.5 20q49 0 87 -17t65 -49l3 56h192zM347 591q-50 0 -82 31.5t-32 81.5t32 82t82 32t81.5 -32t31.5 -82t-31.5 -81.5t-81.5 -31.5z
M338 161q46 0 74 31.5t28 82.5q0 52 -28 83t-74 31q-45 0 -73 -31t-28 -82q0 -52 28 -83.5t73 -31.5z" />
    <glyph glyph-name="i.loclTRK" horiz-adv-x="312" 
d="M56 550h200v-550h-200v550zM157 591q-50 0 -82 31.5t-32 81.5t32 82t82 32t81.5 -32t31.5 -82t-31.5 -81.5t-81.5 -31.5z" />
    <glyph glyph-name="iota.ss01" horiz-adv-x="312" 
d="M56 550h200v-550h-200v550z" />
    <glyph glyph-name="iota.ss02" horiz-adv-x="312" 
d="M56 550h200v-550h-200v550z" />
    <glyph glyph-name="iotadieresis.ss01" horiz-adv-x="312" 
d="M56 550h200v-550h-200v550zM14 591q-51 0 -82.5 31t-31.5 82t31.5 82.5t82.5 31.5t82 -31.5t31 -82.5t-31 -82t-82 -31zM301 591q-51 0 -82.5 31t-31.5 82t31.5 82.5t82.5 31.5t82 -31.5t31 -82.5t-31 -82t-82 -31z" />
    <glyph glyph-name="iotadieresis.ss02" horiz-adv-x="312" 
d="M56 550h200v-550h-200v550zM14 591q-51 0 -82.5 31t-31.5 82t31.5 82.5t82.5 31.5t82 -31.5t31 -82.5t-31 -82t-82 -31zM301 591q-51 0 -82.5 31t-31.5 82t31.5 82.5t82.5 31.5t82 -31.5t31 -82.5t-31 -82t-82 -31z" />
    <glyph glyph-name="iotadieresistonos.ss01" horiz-adv-x="312" 
d="M56 550h200v-550h-200v550zM-42 611q-41 0 -67.5 26t-26.5 67t26.5 67.5t67.5 26.5q42 0 67.5 -26.5t25.5 -67.5t-26 -67t-67 -26zM96 790h169l-74 -173h-128zM361 611q-41 0 -67.5 26t-26.5 67t26.5 67.5t67.5 26.5t67 -26.5t26 -67.5t-26 -67t-67 -26z" />
    <glyph glyph-name="iotadieresistonos.ss02" horiz-adv-x="312" 
d="M56 550h200v-550h-200v550zM-42 611q-41 0 -67.5 26t-26.5 67t26.5 67.5t67.5 26.5q42 0 67.5 -26.5t25.5 -67.5t-26 -67t-67 -26zM96 790h169l-74 -173h-128zM361 611q-41 0 -67.5 26t-26.5 67t26.5 67.5t67.5 26.5t67 -26.5t26 -67.5t-26 -67t-67 -26z" />
    <glyph glyph-name="iotatonos.ss01" horiz-adv-x="312" 
d="M56 550h200v-550h-200v550zM116 790h189l-74 -173h-148z" />
    <glyph glyph-name="iotatonos.ss02" horiz-adv-x="312" 
d="M56 550h200v-550h-200v550zM116 790h189l-74 -173h-148z" />
    <glyph glyph-name="j.ss01" horiz-adv-x="312" 
d="M56 550h200v-770h-200v770zM156 591q-50 0 -82 31.5t-32 81.5t32 82t82 32t81.5 -32t31.5 -82t-31.5 -81.5t-81.5 -31.5z" />
    <glyph glyph-name="j.ss02" horiz-adv-x="312" 
d="M56 550h200v-770h-200v770zM156 591q-50 0 -82 31.5t-32 81.5t32 82t82 32t81.5 -32t31.5 -82t-31.5 -81.5t-81.5 -31.5z" />
    <glyph glyph-name="l.ss02" horiz-adv-x="370" 
d="M56 780h200v-616h90v-164h-290v780z" />
    <glyph glyph-name="lacute.ss02" horiz-adv-x="370" 
d="M56 780h200v-616h90v-164h-290v780zM174 1020h229l-202 -173h-168z" />
    <glyph glyph-name="lcaron.ss02" horiz-adv-x="394" 
d="M56 780h200v-616h90v-164h-290v780zM341 780h178l-65 -187h-150z" />
    <glyph glyph-name="lcommaaccent.ss02" horiz-adv-x="370" 
d="M56 780h200v-616h90v-164h-290v780zM109 -52h178l-61 -168h-150z" />
    <glyph glyph-name="lslash.ss02" horiz-adv-x="418" 
d="M378 164v-164h-290v237l-71 -50v158l71 50v385h200v-271l74 52v-158l-74 -52v-187h90z" />
    <glyph glyph-name="nine.dnom" horiz-adv-x="376" 
d="M185 450q75 0 121 -39t46 -105q0 -47 -16 -82.5t-46 -77.5l-110 -146h-138l133 169h-17q-27 0 -52 9.5t-44.5 27.5t-31.5 43t-12 56q0 65 46 105t121 40zM145 305q0 -20 11.5 -31.5t28.5 -11.5t28 11.5t11 31.5t-11 32t-28 12t-28.5 -12t-11.5 -32z" />
    <glyph glyph-name="nine.lf" horiz-adv-x="615" 
d="M302 750q63 0 114 -17t87.5 -48.5t56.5 -76t20 -98.5q0 -39 -7 -72.5t-20 -65t-32 -62.5t-43 -65l-185 -245h-230l223 282h-28q-46 0 -88 16t-74 45.5t-51.5 71t-19.5 92.5q0 54 20 99t56.5 77t87.5 49.5t113 17.5zM238 509q0 -32 18 -52t47 -20t47 20t18 52t-18 51.5
t-47 19.5t-47 -19.5t-18 -51.5z" />
    <glyph glyph-name="nine.numr" horiz-adv-x="376" 
d="M185 746q75 0 121 -39t46 -105q0 -47 -16 -82.5t-46 -77.5l-110 -146h-138l133 169h-17q-27 0 -52 9.5t-44.5 27.5t-31.5 43t-12 56q0 65 46 105t121 40zM145 601q0 -20 11.5 -31.5t28.5 -11.5t28 11.5t11 31.5t-11 32t-28 12t-28.5 -12t-11.5 -32z" />
    <glyph glyph-name="nine.osf" horiz-adv-x="598" 
d="M297 660q61 0 111 -17t85.5 -48.5t55 -76t19.5 -98.5q0 -30 -4.5 -58t-15 -56.5t-27.5 -59.5t-43 -69l-218 -291l-186 51l201 256q-5 -1 -10.5 -1h-11.5q-51 0 -93 16t-72 46t-46.5 71.5t-16.5 92.5q0 54 19.5 99t55.5 76.5t86 49t111 17.5zM231 419q0 -32 18 -52t47 -20
t47 20t18 52t-18 51.5t-47 19.5t-47 -19.5t-18 -51.5z" />
    <glyph glyph-name="nine.tf" horiz-adv-x="615" 
d="M302 750q63 0 114 -17t87.5 -48.5t56.5 -76t20 -98.5q0 -39 -7 -72.5t-20 -65t-32 -62.5t-43 -65l-185 -245h-230l223 282h-28q-46 0 -88 16t-74 45.5t-51.5 71t-19.5 92.5q0 54 20 99t56.5 77t87.5 49.5t113 17.5zM238 509q0 -32 18 -52t47 -20t47 20t18 52t-18 51.5
t-47 19.5t-47 -19.5t-18 -51.5z" />
    <glyph glyph-name="nine.tosf" horiz-adv-x="615" 
d="M305 660q61 0 111 -17t85.5 -48.5t55 -76t19.5 -98.5q0 -30 -4.5 -58t-15 -56.5t-27.5 -59.5t-43 -69l-218 -291l-186 51l201 256q-5 -1 -10.5 -1h-11.5q-51 0 -93 16t-72 46t-46.5 71.5t-16.5 92.5q0 54 19.5 99t55.5 76.5t86 49t111 17.5zM239 419q0 -32 18 -52t47 -20
t47 20t18 52t-18 51.5t-47 19.5t-47 -19.5t-18 -51.5z" />
    <glyph glyph-name="one.dnom" horiz-adv-x="293" 
d="M122 288l-62 -43l-61 87l152 112h95v-444h-124v288z" />
    <glyph glyph-name="one.dnom.ss02" horiz-adv-x="252" 
d="M81 343h-58v101h182v-444h-124v343z" />
    <glyph glyph-name="one.lf" horiz-adv-x="482" 
d="M204 478l-104 -70l-101 145l254 187h157v-740h-206v478z" />
    <glyph glyph-name="one.lf.ss02" horiz-adv-x="407" 
d="M129 570h-95v170h301v-740h-206v570z" />
    <glyph glyph-name="one.numr" horiz-adv-x="293" 
d="M122 584l-62 -43l-61 87l152 112h95v-444h-124v288z" />
    <glyph glyph-name="one.numr.ss02" horiz-adv-x="252" 
d="M81 639h-58v101h182v-444h-124v343z" />
    <glyph glyph-name="one.osf" horiz-adv-x="454" 
d="M182 386l-76 -50l-103 146l227 168h152v-650h-200v386z" />
    <glyph glyph-name="one.osf.ss02" horiz-adv-x="399" 
d="M127 487h-89v163h289v-650h-200v487z" />
    <glyph glyph-name="one.ss02" horiz-adv-x="407" 
d="M129 570h-95v170h301v-740h-206v570z" />
    <glyph glyph-name="one.tf" horiz-adv-x="615" 
d="M581 170v-170h-523v170h191v308l-104 -70l-101 145l254 187h157v-570h126z" />
    <glyph glyph-name="one.tf.ss02" horiz-adv-x="615" 
d="M572 170v-170h-523v170h191v400h-125v170h331v-570h126z" />
    <glyph glyph-name="one.tosf" horiz-adv-x="615" 
d="M581 164v-164h-523v164h171v222l-76 -50l-103 146l227 168h152v-486h152z" />
    <glyph glyph-name="one.tosf.ss02" horiz-adv-x="615" 
d="M575 164v-164h-523v164h176v323h-119v163h319v-486h147z" />
    <glyph glyph-name="oneeighth.ss02" horiz-adv-x="907" 
d="M810 231q30 -16 47 -41.5t17 -59.5q0 -62 -46 -99t-121 -37t-121 36.5t-46 96.5q0 34 17 60.5t47 43.5q-25 16 -38.5 39.5t-13.5 52.5q0 58 42.5 92.5t112.5 34.5t112.5 -34.5t42.5 -91.5q0 -29 -13.5 -53t-38.5 -40zM91 296v343h-58v101h182v-444h-124zM642 689
l-409 -699l-102 62l409 698zM707 349q-12 0 -19.5 -10t-7.5 -25q0 -16 7.5 -24.5t19.5 -8.5q28 0 28 33q0 15 -7.5 25t-20.5 10zM707 95q17 0 28.5 12t11.5 30q0 20 -11.5 31.5t-28.5 11.5t-28 -11.5t-11 -31.5q0 -18 11 -30t28 -12z" />
    <glyph glyph-name="onehalf.ss02" horiz-adv-x="900" 
d="M131 52l409 698l102 -61l-409 -699zM538 78l140 152q5 5 14 15.5t18 23t15.5 26t6.5 24.5q0 13 -7.5 21.5t-20.5 8.5q-17 0 -26 -13t-9 -33l-125 11q0 62 43 99t114 37t113 -34t42 -89q0 -39 -22.5 -76t-73.5 -88l-62 -63l164 1v-101h-324v78zM91 639h-58v101h182v-444
h-124v343z" />
    <glyph glyph-name="onequarter.ss02" horiz-adv-x="889" 
d="M676 75h-192v84l221 285h95v-266h55v-103h-55v-75h-124v75zM92 639h-58v101h182v-444h-124v343zM132 52l409 698l102 -61l-409 -699zM679 174l1 97l-77 -97h76z" />
    <glyph glyph-name="parenleft.case" horiz-adv-x="397" 
d="M188 -40q-25 33 -51 74t-47.5 92t-35.5 112t-14 132t14 132t35.5 112t47.5 92t51 74h186q-19 -26 -41 -69t-41.5 -97t-32.5 -116.5t-13 -127.5t13 -127.5t32.5 -116.5t41.5 -97t41 -69h-186z" />
    <glyph glyph-name="parenright.case" horiz-adv-x="397" 
d="M23 -40q19 26 41.5 69t42 97t32.5 116.5t13 127.5t-13 127.5t-32.5 116.5t-42 97t-41.5 69h186q25 -33 51 -74t47.5 -92t35.5 -112t14 -132t-14 -132t-35.5 -112t-47.5 -92t-51 -74h-186z" />
    <glyph glyph-name="phi.ss01" horiz-adv-x="872" 
d="M843 275q0 -60 -22 -110t-62 -87t-96.5 -59.5t-126.5 -27.5v-211h-200v211q-70 5 -126.5 27.5t-96.5 59.5t-62 87t-22 110t22 110t62 87t96.5 59.5t126.5 27.5v221h200v-221q70 -5 126.5 -27.5t96.5 -59.5t62 -87t22 -110zM235 275q0 -51 27.5 -82.5t73.5 -31.5v228
q-46 0 -73.5 -31.5t-27.5 -82.5zM536 161q46 0 73.5 31.5t27.5 82.5t-27.5 82.5t-73.5 31.5v-228z" />
    <glyph glyph-name="phi.ss02" horiz-adv-x="872" 
d="M843 275q0 -60 -22 -110t-62 -87t-96.5 -59.5t-126.5 -27.5v-211h-200v211q-70 5 -126.5 27.5t-96.5 59.5t-62 87t-22 110t22 110t62 87t96.5 59.5t126.5 27.5v221h200v-221q70 -5 126.5 -27.5t96.5 -59.5t62 -87t22 -110zM235 275q0 -51 27.5 -82.5t73.5 -31.5v228
q-46 0 -73.5 -31.5t-27.5 -82.5zM536 161q46 0 73.5 31.5t27.5 82.5t-27.5 82.5t-73.5 31.5v-228z" />
    <glyph glyph-name="pi.ss02" horiz-adv-x="680" 
d="M624 550v-550h-200v387h-168v-387h-200v550h568z" />
    <glyph glyph-name="questiondown.case" horiz-adv-x="579" 
d="M299 -10q-60 0 -109 15t-84 42t-54 65.5t-19 84.5q0 28 8 50t21 40t29.5 33t33.5 30q32 27 57.5 55t25.5 65h170q0 -41 -8.5 -72t-22 -54.5t-29.5 -41.5t-31 -32q-18 -17 -30 -32.5t-12 -29.5q0 -22 15 -35t39 -13q23 0 39 13t21 35l190 -9q-3 -47 -22.5 -85.5t-52 -66
t-77 -42.5t-98.5 -15zM293 523q-50 0 -81.5 31.5t-31.5 81.5t31.5 82t81.5 32t82 -32t32 -82t-32 -81.5t-82 -31.5z" />
    <glyph glyph-name="seven.dnom" horiz-adv-x="338" 
d="M335 444l-141 -444h-130l112 343h-161v101h320z" />
    <glyph glyph-name="seven.lf" horiz-adv-x="570" 
d="M556 740l-235 -740h-217l189 570h-270v170h533z" />
    <glyph glyph-name="seven.numr" horiz-adv-x="338" 
d="M335 740l-141 -444h-130l112 343h-161v101h320z" />
    <glyph glyph-name="seven.osf" horiz-adv-x="582" 
d="M560 650l-244 -764l-192 51l172 550h-269v163h533z" />
    <glyph glyph-name="seven.tf" horiz-adv-x="615" 
d="M579 740l-235 -740h-217l189 570h-270v170h533z" />
    <glyph glyph-name="seven.tosf" horiz-adv-x="615" 
d="M576 650l-244 -764l-192 51l172 550h-269v163h533z" />
    <glyph glyph-name="six.dnom" horiz-adv-x="376" 
d="M218 275q27 0 52.5 -9.5t45 -27.5t31 -43t11.5 -56q0 -65 -46 -105t-121 -40t-121 39t-46 105q0 47 16 82.5t46 77.5l110 146h138l-133 -169h17zM191 95q17 0 28.5 12t11.5 32t-11.5 31.5t-28.5 11.5t-28 -11.5t-11 -31.5t11 -32t28 -12z" />
    <glyph glyph-name="six.lf" horiz-adv-x="616" 
d="M357 458q46 0 88 -16t74.5 -45.5t51.5 -71t19 -92.5q0 -54 -20 -99t-56.5 -77t-87.5 -49.5t-113 -17.5q-63 0 -114 17.5t-87.5 49t-56.5 75.5t-20 98q0 39 7 72.5t20 65t32 62.5t43 65l185 245h230l-223 -282h28zM312 160q29 0 47 19.5t18 51.5t-18 52t-47 20t-47 -20
t-18 -52t18 -51.5t47 -19.5z" />
    <glyph glyph-name="six.numr" horiz-adv-x="376" 
d="M218 571q27 0 52.5 -9.5t45 -27.5t31 -43t11.5 -56q0 -65 -46 -105t-121 -40t-121 39t-46 105q0 47 16 82.5t46 77.5l110 146h138l-133 -169h17zM191 391q17 0 28.5 12t11.5 32t-11.5 31.5t-28.5 11.5t-28 -11.5t-11 -31.5t11 -32t28 -12z" />
    <glyph glyph-name="six.osf" horiz-adv-x="607" 
d="M351 458q51 0 93 -16t71.5 -45.5t46 -71t16.5 -92.5q0 -54 -19.5 -99t-55 -77t-85.5 -49.5t-111 -17.5t-111 17.5t-86 49t-55.5 75.5t-19.5 98q0 30 4.5 58t15 56.5t28 60t42.5 69.5l201 266h224l-223 -283q6 1 12 1h12zM306 160q29 0 47 19.5t18 51.5t-18 52t-47 20
t-47 -20t-18 -52t18 -51.5t47 -19.5z" />
    <glyph glyph-name="six.tf" horiz-adv-x="615" 
d="M357 458q46 0 88 -16t74.5 -45.5t51.5 -71t19 -92.5q0 -54 -20 -99t-56.5 -77t-87.5 -49.5t-113 -17.5q-63 0 -114 17.5t-87.5 49t-56.5 75.5t-20 98q0 39 7 72.5t20 65t32 62.5t43 65l185 245h230l-223 -282h28zM312 160q29 0 47 19.5t18 51.5t-18 52t-47 20t-47 -20
t-18 -52t18 -51.5t47 -19.5z" />
    <glyph glyph-name="six.tosf" horiz-adv-x="615" 
d="M355 458q51 0 93 -16t71.5 -45.5t46 -71t16.5 -92.5q0 -54 -19.5 -99t-55 -77t-85.5 -49.5t-111 -17.5t-111 17.5t-86 49t-55.5 75.5t-19.5 98q0 30 4.5 58t15 56.5t28 60t42.5 69.5l201 266h224l-222 -282h23zM310 160q29 0 47 19.5t18 51.5t-18 52t-47 20t-47 -20
t-18 -52t18 -51.5t47 -19.5z" />
    <glyph glyph-name="slash.case" horiz-adv-x="466" 
d="M233 740h201l-201 -740h-201z" />
    <glyph glyph-name="t.ss01" horiz-adv-x="419" 
d="M305 161q41 0 81 17v-160q-35 -14 -73.5 -21t-73.5 -7q-42 0 -76.5 14t-59.5 39t-38.5 61t-13.5 79v528h200v-161h127v-163h-127v-162q0 -29 15 -46.5t39 -17.5z" />
    <glyph glyph-name="t.ss02" horiz-adv-x="442" 
d="M418 387h-97v-387h-200v387h-96v163h96v161h200v-161h97v-163z" />
    <glyph glyph-name="tau.ss02" horiz-adv-x="567" 
d="M550 387h-166v-387h-200v387h-167v163h533v-163z" />
    <glyph glyph-name="tbar.ss01" horiz-adv-x="419" 
d="M305 161q41 0 81 17v-160q-35 -14 -73.5 -21t-73.5 -7q-42 0 -76.5 14t-59.5 39t-38.5 61t-13.5 79v528h200v-161h127v-163h-127v-39h115v-141h-113q5 -21 18.5 -33.5t33.5 -12.5z" />
    <glyph glyph-name="tbar.ss02" horiz-adv-x="458" 
d="M321 387v-51h92v-141h-92v-195h-200v195h-91v141h91v51h-96v163h96v161h200v-161h97v-163h-97z" />
    <glyph glyph-name="tcaron.ss01" horiz-adv-x="419" 
d="M251 225q0 -29 15 -46.5t39 -17.5q41 0 81 17v-160q-35 -14 -73.5 -21t-73.5 -7q-42 0 -76.5 14t-59.5 39t-38.5 61t-13.5 79v528h200v-161h127v-163h-127v-162zM512 780l-65 -187h-150l37 187h178z" />
    <glyph glyph-name="tcaron.ss02" horiz-adv-x="442" 
d="M321 550h97v-163h-97v-387h-200v387h-96v163h96v161h200v-161zM582 780l-65 -187h-150l37 187h178z" />
    <glyph glyph-name="three.dnom" horiz-adv-x="367" 
d="M228 281q52 -9 82.5 -45.5t30.5 -91.5q0 -68 -49 -109t-135 -41q-41 0 -80 10.5t-62 27.5l46 90q14 -11 36.5 -19t45.5 -8q34 0 51.5 14t17.5 35t-16 33.5t-43 12.5q-29 0 -52 -15l-34 63l88 105h-116v101h272v-76z" />
    <glyph glyph-name="three.lf" horiz-adv-x="600" 
d="M376 467q86 -14 136.5 -74.5t50.5 -151.5q0 -57 -21 -103t-60.5 -79t-96 -51t-127.5 -18q-69 0 -133.5 17.5t-103.5 46.5l77 150q24 -19 61 -31.5t76 -12.5q56 0 86 22t30 57q0 36 -27 56.5t-73 20.5q-26 0 -47 -6t-41 -17l-55 103l144 174h-191v170h452v-127z" />
    <glyph glyph-name="three.numr" horiz-adv-x="367" 
d="M228 577q52 -9 82.5 -45.5t30.5 -91.5q0 -68 -49 -109t-135 -41q-41 0 -80 10.5t-62 27.5l46 90q14 -11 36.5 -19t45.5 -8q34 0 51.5 14t17.5 35t-16 33.5t-43 12.5q-29 0 -52 -15l-34 63l88 105h-116v101h272v-76z" />
    <glyph glyph-name="three.osf" horiz-adv-x="597" 
d="M375 372q85 -14 134.5 -75.5t49.5 -153.5q0 -57 -20.5 -103.5t-59 -80t-94 -51.5t-125.5 -18q-71 0 -135.5 17.5t-101.5 46.5l78 151q23 -19 60 -31.5t76 -12.5q56 0 86 22.5t30 58.5q0 37 -28 57.5t-75 20.5q-48 0 -85 -22l-55 103l150 186h-197v163h452v-127z" />
    <glyph glyph-name="three.tf" horiz-adv-x="615" 
d="M383 467q86 -14 136.5 -74.5t50.5 -151.5q0 -57 -21 -103t-60.5 -79t-96 -51t-127.5 -18t-135.5 17.5t-101.5 46.5l77 150q24 -19 61 -31.5t76 -12.5q56 0 86 22t30 57q0 36 -28 56.5t-75 20.5t-85 -23l-55 103l144 174h-191v170h452v-127z" />
    <glyph glyph-name="three.tosf" horiz-adv-x="615" 
d="M384 372q85 -14 134.5 -75.5t49.5 -153.5q0 -57 -20.5 -103.5t-59 -80t-94 -51.5t-125.5 -18q-71 0 -135.5 17.5t-101.5 46.5l78 151q23 -19 60 -31.5t76 -12.5q56 0 86 22.5t30 58.5q0 37 -28 57.5t-75 20.5q-48 0 -85 -22l-55 103l150 186h-197v163h452v-127z" />
    <glyph glyph-name="tonos.case" horiz-adv-x="600" 
d="M171 790h189l-52 -173h-148z" />
    <glyph glyph-name="two.dnom" horiz-adv-x="380" 
d="M26 78l140 152q5 5 14 15.5t18 23t15.5 26t6.5 24.5q0 13 -7.5 21.5t-20.5 8.5q-17 0 -26 -13t-9 -33l-125 11q0 62 43 99t114 37t113 -34t42 -89q0 -39 -22.5 -76t-73.5 -88l-62 -63l164 1v-101h-324v78z" />
    <glyph glyph-name="two.lf" horiz-adv-x="620" 
d="M37 129l234 255q8 8 22.5 25t29.5 38t26 43t11 40q0 21 -13 35.5t-34 14.5q-26 0 -42 -21t-16 -55l-209 19q0 51 19 93t53.5 72t82.5 46t107 16t107 -14.5t82 -41.5t52.5 -64.5t18.5 -83.5q0 -33 -9.5 -64t-29.5 -64t-50 -68.5t-71 -77.5l-104 -106l272 4v-170h-539v129z
" />
    <glyph glyph-name="two.numr" horiz-adv-x="380" 
d="M26 374l140 152q5 5 14 15.5t18 23t15.5 26t6.5 24.5q0 13 -7.5 21.5t-20.5 8.5q-17 0 -26 -13t-9 -33l-125 11q0 62 43 99t114 37t113 -34t42 -89q0 -39 -22.5 -76t-73.5 -88l-62 -63l164 1v-101h-324v78z" />
    <glyph glyph-name="two.osf" horiz-adv-x="629" 
d="M41 129l280 237q15 13 32 33.5t17 40.5q0 23 -14.5 36t-38.5 13q-29 0 -46.5 -20.5t-17.5 -54.5l-203 19q0 51 19 93t53.5 72t82.5 46t107 16t107 -14.5t82 -41.5t52.5 -64.5t18.5 -83.5q0 -42 -10.5 -74t-30 -58t-46.5 -49.5t-61 -49.5l-80 -61h236v-164h-539v129z" />
    <glyph glyph-name="two.tf" horiz-adv-x="615" 
d="M34 129l234 255q8 8 22.5 25t29.5 38t26 43t11 40q0 21 -13 35.5t-34 14.5q-26 0 -42 -21t-16 -55l-209 19q0 51 19 93t53.5 72t82.5 46t107 16t107 -14.5t82 -41.5t52.5 -64.5t18.5 -83.5q0 -33 -9.5 -64t-29.5 -64t-50 -68.5t-71 -77.5l-104 -106l272 4v-170h-539v129z
" />
    </font>
</defs>
</svg>
