<?xml version="1.0" standalone="no"?>
<!DOCTYPE svg PUBLIC "-//W3C//DTD SVG 1.1//EN" "http://www.w3.org/Graphics/SVG/1.1/DTD/svg11.dtd" >
<svg xmlns="http://www.w3.org/2000/svg" xmlns:xlink="http://www.w3.org/1999/xlink" version="1.1">
<metadata>
Created by FontForge 20170925 at Tue Aug 15 20:52:24 2017
 By Jimmy Wärting
Copyright (c) 2016 by Alberto Romanos. All rights reserved.
</metadata>
<defs>
<font id="BwModelicaLGC-ExtraBold" horiz-adv-x="688" >
  <font-face 
    font-family="Bw Modelica LGC ExtraBold"
    font-weight="800"
    font-stretch="normal"
    units-per-em="1000"
    panose-1="0 0 9 0 0 0 0 0 0 0"
    ascent="780"
    descent="-220"
    x-height="545"
    cap-height="740"
    bbox="-884 -230 1323 1020"
    underline-thickness="50"
    underline-position="-100"
    unicode-range="U+000D-FB02"
  />
<missing-glyph horiz-adv-x="1274" 
d="M88 -10q-8 0 -12.5 5t-4.5 13q0 10 5 15l342 341h-324q-8 0 -15.5 3t-7.5 16q0 5 2 8.5t5 7.5l340 342h-327q-20 0 -20 19v1q0 19 20 19h370q8 0 15.5 -3t7.5 -17q0 -10 -8 -17l-341 -340h330q8 0 14 -6t6 -14v-327l339 338q7 8 17 8q13 0 15.5 -7.5t2.5 -14.5v-324
l340 338q6 8 16 8q8 0 12.5 -5.5t4.5 -13.5q0 -3 -1 -7t-5 -7l-368 -372q-7 -7 -17 -7q-14 0 -17 7.5t-3 15.5v324l-339 -340q-7 -7 -17 -7q-14 0 -17 7.5t-3 15.5v324l-340 -340q-7 -7 -17 -7z" />
    <glyph glyph-name="fi" unicode="fi" horiz-adv-x="717" 
d="M113 609q0 41 13.5 74.5t37.5 57t58 36.5t76 13q34 0 67 -5.5t58 -16.5l-11 -132q-14 5 -27.5 7t-30.5 2q-32 0 -51.5 -17t-19.5 -45v-38h123v-139h-123v-406h-170v406h-85v139h85v64zM485 545h170v-545h-170v545zM571 608q-43 0 -71 27.5t-28 70.5t28 70.5t71 27.5
t70.5 -27.5t27.5 -70.5t-27.5 -70.5t-70.5 -27.5z" />
    <glyph glyph-name="fl" unicode="fl" horiz-adv-x="718" 
d="M113 609q0 41 13.5 74.5t37.5 57t58 36.5t76 13q34 0 67 -5.5t58 -16.5l-11 -132q-14 5 -27.5 7t-30.5 2q-32 0 -51.5 -17t-19.5 -45v-38h123v-139h-123v-406h-170v406h-85v139h85v64zM656 780v-780h-170v780h170z" />
    <glyph glyph-name=".notdef" horiz-adv-x="1274" 
d="M88 -10q-8 0 -12.5 5t-4.5 13q0 10 5 15l342 341h-324q-8 0 -15.5 3t-7.5 16q0 5 2 8.5t5 7.5l340 342h-327q-20 0 -20 19v1q0 19 20 19h370q8 0 15.5 -3t7.5 -17q0 -10 -8 -17l-341 -340h330q8 0 14 -6t6 -14v-327l339 338q7 8 17 8q13 0 15.5 -7.5t2.5 -14.5v-324
l340 338q6 8 16 8q8 0 12.5 -5.5t4.5 -13.5q0 -3 -1 -7t-5 -7l-368 -372q-7 -7 -17 -7q-14 0 -17 7.5t-3 15.5v324l-339 -340q-7 -7 -17 -7q-14 0 -17 7.5t-3 15.5v324l-340 -340q-7 -7 -17 -7z" />
    <glyph glyph-name="uni0000" horiz-adv-x="0" 
 />
    <glyph glyph-name="uni0000" horiz-adv-x="0" 
 />
    <glyph glyph-name="uni000D" unicode="&#xd;" horiz-adv-x="203" 
 />
    <glyph glyph-name="space" unicode=" " horiz-adv-x="238" 
 />
    <glyph glyph-name="exclam" unicode="!" horiz-adv-x="307" 
d="M154 -10q-43 0 -71 28t-28 71t28 70.5t71 27.5t70.5 -27.5t27.5 -70.5t-27.5 -71t-70.5 -28zM65 740h177l-16 -495h-145z" />
    <glyph glyph-name="quotedbl" unicode="&#x22;" horiz-adv-x="443" 
d="M53 780h134l-4 -216h-127zM256 780h134l-3 -216h-127z" />
    <glyph glyph-name="numbersign" unicode="#" horiz-adv-x="775" 
d="M594 413l-31 -130h125l-27 -110h-123l-40 -173h-121l40 173h-143l-40 -173h-121l40 173h-121l27 110h119l31 130h-121l25 110h121l41 177h121l-41 -177h143l41 177h121l-41 -177h123l-25 -110h-123zM473 413h-143l-31 -130h143z" />
    <glyph glyph-name="dollar" unicode="$" horiz-adv-x="662" 
d="M624 218q0 -85 -55 -142.5t-150 -76.5v-89h-175v88q-110 20 -189 88l65 118q50 -38 101 -53.5t99 -15.5q122 0 122 66q0 36 -36.5 54.5t-98.5 35.5l-38 10q-49 13 -90.5 30.5t-71.5 42.5t-46.5 59.5t-16.5 80.5q0 88 53.5 147.5t147.5 79.5v89h175v-89q45 -9 88 -27.5
t82 -48.5l-77 -122q-43 32 -86.5 47t-94.5 15q-49 0 -77.5 -16.5t-28.5 -45.5q0 -17 9.5 -29.5t26 -22t38.5 -16.5t48 -14l38 -11q44 -12 87 -31t76.5 -47t54 -66t20.5 -88z" />
    <glyph glyph-name="percent" unicode="%" horiz-adv-x="912" 
d="M683 -10q-45 0 -81.5 12.5t-62.5 35t-40.5 55t-14.5 71.5t14.5 71t40.5 54.5t62.5 35t81.5 12.5t81.5 -12.5t62.5 -35t40 -54.5t14 -71t-14 -71.5t-40 -55t-62.5 -35t-81.5 -12.5zM203 44l414 706l88 -53l-414 -707zM231 403q-45 0 -81.5 12.5t-62.5 35t-40.5 55
t-14.5 71.5t14.5 71t40.5 54.5t62.5 35t81.5 12.5t81.5 -12.5t62.5 -35t40 -54.5t14 -71t-14 -71.5t-40 -55t-62.5 -35t-81.5 -12.5zM683 98q27 0 44 18t17 48t-17 47.5t-44 17.5q-29 0 -46 -17.5t-17 -47.5t17 -48t46 -18zM231 511q27 0 44 18t17 48t-17 47.5t-44 17.5
q-28 0 -45 -17.5t-17 -47.5t17 -48t45 -18z" />
    <glyph glyph-name="ampersand" unicode="&#x26;" horiz-adv-x="776" 
d="M647 136q45 0 87 17v-136q-33 -14 -70 -20.5t-73 -6.5q-48 0 -85 18.5t-60 51.5q-34 -34 -78 -52t-97 -18q-51 0 -93.5 15.5t-72.5 44t-47 68.5t-17 89q0 66 34.5 115.5t95.5 78.5q-43 26 -67 65t-24 89q0 44 18.5 80t52 61.5t80.5 39.5t104 14q56 0 102 -14.5t79 -41
t51 -63t18 -81.5v-86h141v-133h-142v-123q0 -32 17.5 -52t45.5 -20zM313 136q41 0 71 23t30 80v92h-80q-54 0 -85.5 -27t-31.5 -72q0 -44 26.5 -70t69.5 -26zM335 605q-36 0 -57.5 -19t-21.5 -50q0 -32 21.5 -52t57.5 -20h80v69q0 32 -22 52t-58 20z" />
    <glyph glyph-name="quotesingle" unicode="'" horiz-adv-x="239" 
d="M53 780h134l-4 -216h-127z" />
    <glyph glyph-name="parenleft" unicode="(" horiz-adv-x="360" 
d="M186 -180q-21 33 -46.5 81t-48 109t-38 134.5t-15.5 155.5q0 83 15.5 156t38 134t48 109t46.5 81h158q-15 -26 -37 -70t-43 -105t-35.5 -137.5t-14.5 -167.5t14.5 -167.5t35.5 -137.5t43 -105t37 -70h-158z" />
    <glyph glyph-name="parenright" unicode=")" horiz-adv-x="360" 
d="M16 -180q15 26 37.5 70t43 105t35.5 137.5t15 167.5t-15 167.5t-35.5 137.5t-43 105t-37.5 70h158q21 -33 47 -81t48.5 -109t37.5 -134t15 -156q0 -82 -15 -155.5t-37.5 -134.5t-48.5 -109t-47 -81h-158z" />
    <glyph glyph-name="asterisk" unicode="*" horiz-adv-x="390" 
d="M276 567l48 -62l-84 -61l-45 66l-45 -66l-84 61l48 62l-75 22l32 99l75 -27l-3 79h104l-3 -79l75 27l32 -99z" />
    <glyph glyph-name="plus" unicode="+" horiz-adv-x="573" 
d="M535 283h-163v-171h-170v171h-163v139h163v171h170v-171h163v-139z" />
    <glyph glyph-name="comma" unicode="," horiz-adv-x="317" 
d="M77 155h195l-94 -300h-171z" />
    <glyph glyph-name="hyphen" unicode="-" horiz-adv-x="503" 
d="M58 352h387v-121h-387v121z" />
    <glyph glyph-name="period" unicode="." horiz-adv-x="296" 
d="M149 -10q-22 0 -41.5 8.5t-34.5 23.5t-23.5 34.5t-8.5 41.5t8.5 41.5t23.5 34t34.5 23t41.5 8.5t41.5 -8.5t33.5 -23t22.5 -34t8.5 -41.5t-8.5 -41.5t-22.5 -34.5t-33.5 -23.5t-41.5 -8.5z" />
    <glyph glyph-name="slash" unicode="/" horiz-adv-x="478" 
d="M273 780h171l-239 -880h-171z" />
    <glyph glyph-name="zero" unicode="0" horiz-adv-x="673" 
d="M337 -10q-66 0 -120 27.5t-92.5 77t-59.5 120t-21 155.5q0 86 21 156t59.5 119.5t92.5 77t120 27.5t119.5 -27.5t92 -77t59.5 -119.5t21 -156q0 -85 -21 -155.5t-59.5 -120t-92 -77t-119.5 -27.5zM337 135q25 0 45.5 17t35 47.5t22.5 74t8 96.5t-8 96.5t-22.5 74
t-35 47.5t-45.5 17t-45.5 -17t-35 -47.5t-22.5 -74t-8 -96.5t8 -96.5t22.5 -74t35 -47.5t45.5 -17z" />
    <glyph glyph-name="one" unicode="1" horiz-adv-x="466" 
d="M212 516l-123 -85l-87 124l251 185h134v-740h-175v516z" />
    <glyph glyph-name="two" unicode="2" horiz-adv-x="607" 
d="M39 110l232 252q11 12 28.5 32t34.5 43.5t29 49t12 48.5q0 31 -19 50.5t-51 19.5q-36 0 -57.5 -25t-21.5 -67l-178 16q0 50 18 90.5t51.5 69.5t80 45t103.5 16t103.5 -14.5t79.5 -40.5t51 -63.5t18 -82.5q0 -36 -11 -69.5t-32.5 -67.5t-52.5 -69.5t-70 -76.5l-120 -124
l294 3v-145h-522v110z" />
    <glyph glyph-name="three" unicode="3" horiz-adv-x="592" 
d="M345 460q47 -4 85.5 -22.5t65.5 -47.5t41.5 -68.5t14.5 -86.5q0 -55 -20.5 -100t-58.5 -77.5t-92.5 -50t-123.5 -17.5t-131 18.5t-100 50.5l66 128q25 -23 63.5 -37.5t82.5 -14.5q63 0 98 27t35 71q0 45 -32.5 70t-87.5 25q-26 0 -49 -6t-45 -17l-47 88l172 202h-219v145
h444v-108z" />
    <glyph glyph-name="four" unicode="4" horiz-adv-x="660" 
d="M351 134h-330v120l370 486h135v-461h98v-145h-98v-134h-175v134zM356 274l2 221l-168 -221h166z" />
    <glyph glyph-name="five" unicode="5" horiz-adv-x="604" 
d="M248 -10q-70 0 -128.5 16t-99.5 48l52 126q32 -23 73.5 -34t86.5 -11q68 0 109 31t41 82q0 40 -25.5 64t-67.5 24q-32 0 -57.5 -11.5t-36.5 -28.5l-117 16l51 428h396v-145h-245l-18 -121q9 3 23 5t35 2q53 0 97.5 -16t77 -44.5t51 -69t18.5 -90.5q0 -61 -23 -111
t-65 -85.5t-100 -55t-128 -19.5z" />
    <glyph glyph-name="six" unicode="6" horiz-adv-x="603" 
d="M344 456q47 0 88.5 -16t73.5 -46t50.5 -71.5t18.5 -92.5q0 -54 -19.5 -98t-54.5 -75.5t-84.5 -49t-109.5 -17.5q-61 0 -110.5 17t-85 48.5t-55 75t-19.5 97.5q0 71 24.5 126.5t67.5 116.5l197 269h196l-219 -285q10 1 20 1h21zM306 135q39 0 63 25.5t24 68.5q0 42 -24 68
t-63 26q-40 0 -64 -26t-24 -68q0 -43 24 -68.5t64 -25.5z" />
    <glyph glyph-name="seven" unicode="7" horiz-adv-x="556" 
d="M541 740l-242 -740h-185l201 595h-292v145h518z" />
    <glyph glyph-name="eight" unicode="8" horiz-adv-x="626" 
d="M470 386q53 -26 82.5 -71t29.5 -103q0 -50 -19.5 -91t-54.5 -70t-85 -45t-110 -16t-110 16t-85 44.5t-54.5 69t-19.5 89.5q0 59 29.5 104t82.5 72q-44 26 -68 65.5t-24 90.5q0 47 18 85.5t50.5 66t78.5 42.5t102 15t102 -15t78.5 -42t50.5 -65t18 -85q0 -51 -24 -91
t-68 -66zM312 135q40 0 64 24t24 64q0 39 -24 63.5t-64 24.5q-39 0 -63 -24.5t-24 -63.5q0 -40 24 -64t63 -24zM312 605q-30 0 -48.5 -20.5t-18.5 -54.5t18.5 -54t48.5 -20q31 0 49.5 20t18.5 54t-18.5 54.5t-49.5 20.5z" />
    <glyph glyph-name="nine" unicode="9" horiz-adv-x="603" 
d="M296 750q61 0 110.5 -17t85 -48.5t55 -75t19.5 -97.5q0 -70 -24 -126t-68 -117l-197 -269h-196l219 285q-10 -1 -20 -1h-21q-46 0 -88 16t-74 46t-50.5 71.5t-18.5 92.5q0 54 19.5 98t54.5 75.5t84.5 49t109.5 17.5zM210 511q0 -42 24 -68t63 -26q40 0 64 26t24 68
q0 43 -24 68.5t-64 25.5q-39 0 -63 -25.5t-24 -68.5z" />
    <glyph glyph-name="colon" unicode=":" horiz-adv-x="314" 
d="M158 -10q-22 0 -41.5 8.5t-34.5 23.5t-23.5 34.5t-8.5 41.5t8.5 41.5t23.5 34t34.5 23t41.5 8.5t41.5 -8.5t33.5 -23t22.5 -34t8.5 -41.5t-8.5 -41.5t-22.5 -34.5t-33.5 -23.5t-41.5 -8.5zM158 341q-22 0 -41.5 8.5t-34.5 23t-23.5 34t-8.5 41.5t8.5 41.5t23.5 34
t34.5 23t41.5 8.5t41.5 -8.5t33.5 -23t22.5 -34t8.5 -41.5t-8.5 -41.5t-22.5 -34t-33.5 -23t-41.5 -8.5z" />
    <glyph glyph-name="semicolon" unicode=";" horiz-adv-x="338" 
d="M85 155h194l-94 -300h-171zM176 341q-22 0 -41.5 8.5t-34.5 23t-23.5 34t-8.5 41.5t8.5 41.5t23.5 34t34.5 23t41.5 8.5t41.5 -8.5t34 -23t23 -34t8.5 -41.5t-8.5 -41.5t-23 -34t-34 -23t-41.5 -8.5z" />
    <glyph glyph-name="less" unicode="&#x3c;" horiz-adv-x="601" 
d="M532 464l-287 -114l287 -114v-158l-497 217v110l497 218v-159z" />
    <glyph glyph-name="equal" unicode="=" horiz-adv-x="618" 
d="M61 315h496v-140h-496v140zM61 530h496v-140h-496v140z" />
    <glyph glyph-name="greater" unicode="&#x3e;" horiz-adv-x="601" 
d="M566 405v-110l-498 -217v158l288 114l-288 114v159z" />
    <glyph glyph-name="question" unicode="?" horiz-adv-x="565" 
d="M278 -10q-43 0 -71 28t-28 71t28 70.5t71 27.5t70.5 -27.5t27.5 -70.5t-27.5 -71t-70.5 -28zM205 245q0 47 9 81t23.5 59.5t31.5 44t33 33.5q20 19 34 36t14 39q0 30 -20.5 48.5t-55.5 18.5q-32 0 -54 -18.5t-27 -48.5l-162 7q3 47 21.5 84.5t50.5 64.5t75.5 41.5
t95.5 14.5q58 0 105.5 -14.5t81 -41t52 -64t18.5 -83.5q0 -28 -7.5 -50.5t-20.5 -40.5t-29.5 -33t-33.5 -30q-17 -14 -33 -29t-29 -32.5t-20.5 -38.5t-7.5 -48h-145z" />
    <glyph glyph-name="at" unicode="@" horiz-adv-x="1155" 
d="M813 485v-253q0 -23 13 -37.5t35 -14.5q19 0 33.5 11.5t25 31.5t16 46.5t5.5 56.5q0 65 -24.5 116.5t-69.5 87.5t-108 55t-140 19q-88 0 -158.5 -25t-120.5 -70t-77 -108.5t-27 -141.5q0 -77 26.5 -140.5t76 -108.5t120.5 -70t160 -25q27 0 62 2.5t72 6.5t73.5 10
t66.5 14l49 -133q-35 -11 -77.5 -19t-86.5 -14t-87 -9t-80 -3q-126 0 -228 35.5t-173.5 100t-110.5 155t-39 200.5q0 111 39.5 201.5t112.5 154t176.5 98.5t230.5 35q115 0 209.5 -29t161.5 -82.5t104 -129.5t37 -171q0 -66 -17.5 -121.5t-50 -96t-77.5 -63.5t-101 -23
q-57 0 -100.5 23.5t-68.5 66.5q-24 -42 -64.5 -65.5t-95.5 -23.5q-45 0 -84.5 16.5t-69 46t-46 71.5t-16.5 93q0 52 17 94.5t46 73t67 47t81 16.5q73 0 117 -50l2 42h163zM569 180q34 0 54 23t20 60q0 38 -20 61t-54 23q-33 0 -53 -23t-20 -61q0 -37 20 -60t53 -23z" />
    <glyph glyph-name="A" unicode="A" horiz-adv-x="774" 
d="M544 123h-313l-49 -123h-188l312 740h163l310 -740h-187zM487 268l-99 254l-100 -254h199z" />
    <glyph glyph-name="B" unicode="B" horiz-adv-x="721" 
d="M554 395q62 -23 97 -68.5t35 -106.5q0 -49 -19 -90t-54.5 -69.5t-85 -44.5t-109.5 -16h-337v740h339q50 0 91.5 -14t70.5 -40t45 -62.5t16 -81.5q0 -46 -23 -83.5t-66 -63.5zM408 145q44 0 70.5 22.5t26.5 59.5q0 36 -26.5 58.5t-68.5 22.5h-153v-163h151zM257 453h120
q38 0 61.5 19.5t23.5 51.5t-22.5 51.5t-59.5 19.5h-123v-142z" />
    <glyph glyph-name="C" unicode="C" horiz-adv-x="774" 
d="M441 -10q-90 0 -164 27.5t-127.5 78t-82.5 121t-29 156.5q0 85 29 154.5t81.5 119t127 76.5t164.5 27q91 0 166 -28.5t132 -89.5l-110 -113q-28 39 -76.5 62.5t-110.5 23.5q-50 0 -90.5 -17t-69.5 -47.5t-45 -73.5t-16 -96t16.5 -96.5t46 -74.5t71 -48t91.5 -17
q72 0 119 29.5t81 82.5l118 -106q-113 -151 -322 -151z" />
    <glyph glyph-name="D" unicode="D" horiz-adv-x="800" 
d="M393 740q83 0 151 -26.5t116 -75t74.5 -116.5t26.5 -151t-26.5 -151.5t-74.5 -117t-116 -75.5t-151 -27h-312v740h312zM396 145q41 0 75 16.5t58 46t37 71t13 92.5t-13 92t-37 70.5t-58 45.5t-75 16h-139v-450h139z" />
    <glyph glyph-name="E" unicode="E" horiz-adv-x="664" 
d="M616 145v-145h-535v740h527v-145h-351v-148h316v-145h-316v-157h359z" />
    <glyph glyph-name="F" unicode="F" horiz-adv-x="606" 
d="M257 595v-168h266v-145h-266v-282h-176v740h493v-145h-317z" />
    <glyph glyph-name="G" unicode="G" horiz-adv-x="827" 
d="M801 430q1 -15 1.5 -30t0.5 -30q0 -85 -26 -155t-75 -120t-117.5 -77.5t-154.5 -27.5q-88 0 -160 27.5t-123.5 77t-79.5 120t-28 155.5q0 86 28 156t79 119.5t123 77t161 27.5q83 0 151 -21.5t119 -62.5l-115 -110q-49 49 -153 49q-48 0 -87 -17t-66.5 -47.5t-43 -74
t-15.5 -96.5t15 -96.5t43 -74t66.5 -47.5t86.5 -17q78 0 127.5 40.5t60.5 109.5h-167v145h349z" />
    <glyph glyph-name="H" unicode="H" horiz-adv-x="876" 
d="M795 740v-740h-175v305h-363v-305h-176v740h176v-290h363v290h175z" />
    <glyph glyph-name="I" unicode="I" horiz-adv-x="338" 
d="M81 740h176v-740h-176v740z" />
    <glyph glyph-name="J" unicode="J" horiz-adv-x="437" 
d="M154 -10q-97 0 -153 62l47 117q16 -18 34 -26t37 -8q31 0 48.5 18t17.5 47v540h175v-571q0 -40 -15.5 -73.5t-42.5 -56.5t-65 -36t-83 -13z" />
    <glyph glyph-name="K" unicode="K" horiz-adv-x="722" 
d="M289 305h-32v-305h-176v740h176v-290h28l223 290h210l-284 -360l299 -380h-210z" />
    <glyph glyph-name="L" unicode="L" horiz-adv-x="587" 
d="M571 145v-145h-490v740h176v-595h314z" />
    <glyph glyph-name="M" unicode="M" horiz-adv-x="1006" 
d="M774 0l-26 449l-198 -449h-94l-197 447l-26 -447h-176l53 742h195l198 -452l198 452h196l52 -742h-175z" />
    <glyph glyph-name="N" unicode="N" horiz-adv-x="883" 
d="M81 740h109l440 -443l-4 443h176v-740h-108l-441 444l4 -444h-176v740z" />
    <glyph glyph-name="O" unicode="O" horiz-adv-x="873" 
d="M438 -10q-90 0 -163.5 27.5t-126 77t-81.5 120t-29 155.5q0 86 29 156t81.5 119.5t126 77t163.5 27.5q89 0 162 -27.5t125.5 -77t81 -119.5t28.5 -156q0 -85 -28.5 -155.5t-81 -120t-125.5 -77t-162 -27.5zM438 135q48 0 88 17t68.5 47.5t44 74t15.5 96.5t-15.5 96.5
t-44 74t-68.5 47.5t-88 17q-49 0 -89.5 -17t-69 -47.5t-44 -74t-15.5 -96.5t15.5 -96.5t44 -74t69 -47.5t89.5 -17z" />
    <glyph glyph-name="P" unicode="P" horiz-adv-x="690" 
d="M398 740q60 0 109.5 -17.5t85 -50t54.5 -77.5t19 -101q0 -58 -20 -106t-56 -82t-87 -52.5t-114 -18.5h-132v-235h-176v740h317zM379 380q51 0 78.5 29.5t27.5 78.5q0 48 -29 77.5t-77 29.5h-122v-215h122z" />
    <glyph glyph-name="Q" unicode="Q" horiz-adv-x="873" 
d="M654 0l-24 30q-86 -40 -192 -40q-90 0 -163.5 27.5t-126 77t-81.5 120t-29 155.5q0 86 29 156t81.5 119.5t126 77t163.5 27.5q89 0 162 -27.5t125.5 -77t81 -119.5t28.5 -156q0 -73 -21 -135t-60 -110l107 -125h-207zM438 135q51 0 91 18l-113 137h197l22 -26
q19 49 19 106q0 53 -15.5 96.5t-44 74t-68.5 47.5t-88 17q-49 0 -89.5 -17t-69 -47.5t-44 -74t-15.5 -96.5t15.5 -96.5t44 -74t69 -47.5t89.5 -17z" />
    <glyph glyph-name="R" unicode="R" horiz-adv-x="748" 
d="M375 256h-118v-256h-176v740h330q60 0 108.5 -17.5t83.5 -49t54 -76.5t19 -99q0 -70 -33.5 -123t-93.5 -84l188 -291h-206zM257 401h119q54 0 86.5 26.5t32.5 70.5t-28 70.5t-75 26.5h-135v-194z" />
    <glyph glyph-name="S" unicode="S" horiz-adv-x="661" 
d="M330 -10q-80 0 -150.5 24.5t-124.5 71.5l66 118q50 -38 100.5 -53.5t98.5 -15.5q60 0 91.5 16.5t31.5 49.5q0 36 -37 55t-98 35l-39 10q-49 13 -90 30.5t-71 42.5t-46.5 59.5t-16.5 80.5q0 53 20.5 96.5t58 74.5t90.5 48t117 17q69 0 134.5 -20t124.5 -65l-77 -122
q-42 32 -85.5 47t-94.5 15q-49 0 -77.5 -16.5t-28.5 -45.5q0 -34 34.5 -51t86.5 -31l39 -11q44 -12 87 -31t76.5 -47t54 -66t20.5 -88q0 -51 -21.5 -93t-60 -72t-93 -46.5t-120.5 -16.5z" />
    <glyph glyph-name="T" unicode="T" horiz-adv-x="644" 
d="M629 595h-219v-595h-176v595h-219v145h614v-145z" />
    <glyph glyph-name="U" unicode="U" horiz-adv-x="814" 
d="M408 -10q-75 0 -137 21.5t-106 60.5t-68 94.5t-24 122.5v451h175v-444q0 -72 44 -116.5t116 -44.5q71 0 114.5 44.5t43.5 116.5v444h175v-451q0 -67 -24 -122.5t-67.5 -94.5t-105 -60.5t-136.5 -21.5z" />
    <glyph glyph-name="V" unicode="V" horiz-adv-x="775" 
d="M-5 740h187l206 -520l204 520h187l-310 -740h-163z" />
    <glyph glyph-name="W" unicode="W" horiz-adv-x="1149" 
d="M1153 740l-251 -740h-163l-164 495l-165 -495h-163l-251 740h188l154 -505l155 505h163l156 -505l153 505h188z" />
    <glyph glyph-name="X" unicode="X" horiz-adv-x="710" 
d="M516 0l-161 246l-159 -246h-203l265 384l-248 356h202l143 -218l142 218h202l-247 -355l266 -385h-202z" />
    <glyph glyph-name="Y" unicode="Y" horiz-adv-x="710" 
d="M702 740l-259 -481v-259h-176v259l-259 481h187l161 -326l160 326h186z" />
    <glyph glyph-name="Z" unicode="Z" horiz-adv-x="689" 
d="M653 145v-145h-616v109l364 486h-358v145h600v-108l-365 -487h375z" />
    <glyph glyph-name="bracketleft" unicode="[" horiz-adv-x="412" 
d="M74 780h307v-145h-131v-670h131v-145h-307v960z" />
    <glyph glyph-name="backslash" unicode="\" horiz-adv-x="478" 
d="M34 780h171l239 -880h-171z" />
    <glyph glyph-name="bracketright" unicode="]" horiz-adv-x="412" 
d="M31 -35h131v670h-131v145h307v-960h-307v145z" />
    <glyph glyph-name="asciicircum" unicode="^" horiz-adv-x="583" 
d="M380 306l-88 176l-89 -176h-164l171 339h164l170 -339h-164z" />
    <glyph glyph-name="underscore" unicode="_" horiz-adv-x="626" 
d="M25 0h576v-121h-576v121z" />
    <glyph glyph-name="grave" unicode="`" horiz-adv-x="600" 
d="M-27 785h197l138 -167h-144z" />
    <glyph glyph-name="a" unicode="a" horiz-adv-x="589" 
d="M292 555q54 0 98.5 -15t76 -43t49 -67.5t17.5 -87.5v-342h-164l-2 62q-27 -35 -66 -53.5t-82 -18.5t-79 12.5t-61 35.5t-39 55.5t-14 71.5q0 40 17 73t48 56t74.5 36t96.5 13q23 0 49 -2.5t52 -7.5q-2 44 -31.5 66.5t-83.5 22.5q-35 0 -63 -9t-53 -26l-72 100
q47 34 102 51t130 17zM268 111q38 0 66 28.5t29 79.5q-21 4 -41 6t-38 2q-38 0 -60 -16.5t-22 -42.5t15.5 -41.5t50.5 -15.5z" />
    <glyph glyph-name="b" unicode="b" 
d="M394 555q54 0 101.5 -20.5t82.5 -58t55.5 -90t20.5 -116.5q0 -63 -20.5 -115t-55.5 -88.5t-82.5 -56.5t-101.5 -20q-55 0 -96 20t-69 57l-3 -67h-164v780h170v-299q28 35 68 54.5t94 19.5zM356 136q55 0 89 37.5t34 98.5q0 62 -34 100t-89 38q-56 0 -90 -38t-34 -99
q0 -63 34 -100t90 -37z" />
    <glyph glyph-name="c" unicode="c" horiz-adv-x="554" 
d="M330 -10q-67 0 -121.5 20.5t-93.5 57.5t-60.5 89t-21.5 116q0 63 21.5 115t61 89t95 57.5t123.5 20.5q55 0 104 -17.5t87 -47.5l-96 -115q-17 16 -39.5 25.5t-52.5 9.5q-58 0 -92.5 -37.5t-34.5 -99.5t34 -99.5t93 -37.5q35 0 62.5 10.5t47.5 33.5l96 -113
q-40 -39 -95 -58t-118 -19z" />
    <glyph glyph-name="d" unicode="d" 
d="M626 780v-780h-163l-3 67q-28 -37 -69 -57t-97 -20q-54 0 -101.5 20t-82.5 56.5t-55.5 88.5t-20.5 115q0 64 20.5 116.5t55.5 90t82.5 58t101.5 20.5t94 -19t68 -54v298h170zM333 136q56 0 89.5 37t33.5 100q0 61 -33.5 99t-89.5 38t-89.5 -38t-33.5 -100
q0 -61 33.5 -98.5t89.5 -37.5z" />
    <glyph glyph-name="e" unicode="e" horiz-adv-x="626" 
d="M593 281q0 -17 -1.5 -35.5t-3.5 -32.5h-373q8 -42 32 -66t72 -24q35 0 63 13.5t48 36.5l132 -64q-35 -54 -97.5 -86.5t-142.5 -32.5q-64 0 -117.5 20t-91 56t-58.5 87t-21 114q0 65 20 118t57 90.5t88.5 58.5t114.5 21t114 -19.5t88 -55.5t57 -86.5t20 -112.5zM314 422
q-43 0 -66.5 -24.5t-31.5 -70.5h198q-17 95 -100 95z" />
    <glyph glyph-name="f" unicode="f" horiz-adv-x="423" 
d="M354 645q-32 0 -51.5 -17t-19.5 -45v-38h123v-139h-123v-406h-170v406h-85v139h85v64q0 41 13.5 74.5t37.5 57t58 36.5t76 13q34 0 67 -5.5t58 -16.5l-11 -132q-14 5 -27.5 7t-30.5 2z" />
    <glyph glyph-name="g" unicode="g" 
d="M627 545v-488q0 -65 -24 -118t-67.5 -90.5t-105.5 -58t-137 -20.5q-73 0 -135.5 17t-108.5 50l37 133q47 -31 97.5 -43t104.5 -12q77 0 123 39t46 104v5q-28 -35 -68 -54t-94 -19t-101.5 20.5t-82.5 58t-55.5 90t-20.5 116.5q0 63 20.5 115t55.5 88.5t82.5 56.5t101.5 20
q56 0 97 -20t69 -57l3 67h163zM334 136q56 0 89.5 37.5t33.5 99.5t-33.5 99.5t-89.5 37.5t-89.5 -37.5t-33.5 -98.5q0 -63 33.5 -100.5t89.5 -37.5z" />
    <glyph glyph-name="h" unicode="h" horiz-adv-x="665" 
d="M396 555q48 0 87.5 -15.5t67 -43t43 -67t15.5 -87.5v-342h-170v316q0 43 -28 68.5t-75 25.5q-48 0 -76 -25.5t-28 -68.5v-316h-170v780h170v-292q32 34 74.5 50.5t89.5 16.5z" />
    <glyph glyph-name="i" unicode="i" horiz-adv-x="295" 
d="M62 545h170v-545h-170v545zM148 608q-43 0 -71 27.5t-28 70.5t28 70.5t71 27.5t70.5 -27.5t27.5 -70.5t-27.5 -70.5t-70.5 -27.5z" />
    <glyph glyph-name="j" unicode="j" horiz-adv-x="299" 
d="M54 -230q-31 0 -60.5 4.5t-52.5 12.5l12 134q12 -3 23.5 -4.5t25.5 -1.5q29 0 47 20t18 53v557h170v-597q0 -40 -13 -73t-37 -56t-58 -36t-75 -13zM150 608q-43 0 -70.5 27.5t-27.5 70.5t27.5 70.5t70.5 27.5t70.5 -27.5t27.5 -70.5t-27.5 -70.5t-70.5 -27.5z" />
    <glyph glyph-name="k" unicode="k" horiz-adv-x="626" 
d="M244 217h-12v-217h-170v780h170v-424h15l166 189h214l-240 -258l253 -287h-215z" />
    <glyph glyph-name="l" unicode="l" horiz-adv-x="295" 
d="M63 780h170v-780h-170v780z" />
    <glyph glyph-name="m" unicode="m" horiz-adv-x="986" 
d="M707 555q50 0 91 -15.5t70.5 -43t45.5 -67t16 -87.5v-342h-170v316q0 43 -24 68.5t-65 25.5t-65.5 -25.5t-24.5 -68.5v-316h-170v316q0 43 -24 68.5t-65 25.5t-65.5 -25.5t-24.5 -68.5v-316h-170v545h164l2 -56q29 34 69 50t85 16q50 0 89.5 -18.5t65.5 -52.5
q32 36 76 53.5t94 17.5z" />
    <glyph glyph-name="n" unicode="n" horiz-adv-x="665" 
d="M396 555q48 0 87.5 -15.5t67 -43t43 -67t15.5 -87.5v-342h-170v316q0 43 -28 68.5t-75 25.5q-48 0 -76 -25.5t-28 -68.5v-316h-170v545h164l2 -61q32 36 76 53.5t92 17.5z" />
    <glyph glyph-name="o" unicode="o" horiz-adv-x="663" 
d="M333 -10q-67 0 -122.5 20.5t-95 57.5t-61 89t-21.5 116q0 63 21.5 115t61 89t95 57.5t122.5 20.5q66 0 121 -20.5t94 -57.5t60.5 -89t21.5 -115q0 -64 -21.5 -116t-60.5 -89t-94 -57.5t-121 -20.5zM332 136q55 0 88.5 37.5t33.5 99.5t-33.5 99.5t-88.5 37.5
q-56 0 -89.5 -37.5t-33.5 -99.5t33.5 -99.5t89.5 -37.5z" />
    <glyph glyph-name="p" unicode="p" 
d="M394 555q54 0 101.5 -20t82.5 -56.5t55.5 -88.5t20.5 -115q0 -64 -20.5 -116.5t-55.5 -90t-82.5 -58t-101.5 -20.5t-94 19.5t-68 54.5v-284h-170v765h164l3 -67q28 37 69 57t96 20zM356 136q55 0 89 37.5t34 100.5q0 61 -34 98.5t-89 37.5q-56 0 -90 -37.5t-34 -99.5
t34 -99.5t90 -37.5z" />
    <glyph glyph-name="q" unicode="q" 
d="M626 545v-765h-170v283q-28 -35 -68 -54t-94 -19t-101.5 20.5t-82.5 58t-55.5 90t-20.5 116.5q0 63 20.5 115t55.5 88.5t82.5 56.5t101.5 20q56 0 97 -20t69 -57l3 67h163zM333 136q56 0 89.5 37.5t33.5 99.5t-33.5 99.5t-89.5 37.5t-89.5 -37.5t-33.5 -98.5
q0 -63 33.5 -100.5t89.5 -37.5z" />
    <glyph glyph-name="r" unicode="r" horiz-adv-x="427" 
d="M229 479q32 36 81 56t110 20l-11 -156q-39 0 -71.5 -8.5t-56 -24.5t-36.5 -37.5t-13 -48.5v-280h-170v545h164z" />
    <glyph glyph-name="s" unicode="s" horiz-adv-x="531" 
d="M257 -10q-65 0 -120 16.5t-97 51.5l64 103q41 -22 79 -30.5t76 -8.5q28 0 45.5 9t17.5 26q0 18 -22.5 28.5t-59.5 20.5l-39 10q-36 9 -65.5 20.5t-50.5 29t-32.5 41.5t-11.5 57q0 43 16 78.5t46 60.5t71.5 38.5t92.5 13.5q66 0 120 -14t96 -43l-71 -110q-64 34 -134 34
q-29 0 -46.5 -8t-17.5 -23q0 -17 20 -26.5t51 -17.5l38 -10q37 -9 68.5 -22.5t54 -33.5t35.5 -47.5t13 -64.5q0 -40 -17 -73.5t-48 -56.5t-75 -36t-97 -13z" />
    <glyph glyph-name="t" unicode="t" horiz-adv-x="454" 
d="M339 136q46 0 87 17v-136q-32 -14 -69.5 -20.5t-72.5 -6.5q-40 0 -72.5 13t-56 37t-36.5 57.5t-13 74.5v234h-87v139h87v160h170v-160h142v-139h-142v-198q0 -32 17.5 -52t45.5 -20z" />
    <glyph glyph-name="u" unicode="u" horiz-adv-x="641" 
d="M579 545v-545h-163l-3 57q-30 -34 -70.5 -50.5t-84.5 -16.5q-45 0 -82.5 15.5t-64 43.5t-41 67.5t-14.5 87.5v341h170v-316q0 -42 25 -67.5t67 -25.5t66.5 25.5t24.5 67.5v316h170z" />
    <glyph glyph-name="v" unicode="v" horiz-adv-x="622" 
d="M3 545h185l123 -352l122 352h186l-223 -545h-169z" />
    <glyph glyph-name="w" unicode="w" horiz-adv-x="918" 
d="M916 545l-194 -545h-169l-94 320l-94 -320h-169l-194 545h186l105 -352l97 352h138l98 -352l105 352h185z" />
    <glyph glyph-name="x" unicode="x" horiz-adv-x="604" 
d="M403 0l-100 150l-101 -150h-202l202 279l-190 266h203l87 -133l88 133h202l-189 -265l202 -280h-202z" />
    <glyph glyph-name="y" unicode="y" horiz-adv-x="621" 
d="M162 -230q-26 0 -49 4.5t-40 12.5l17 137q18 -9 44 -9q32 0 48.5 18.5t32.5 47.5l16 34l-227 530h186l128 -347l117 347h185l-239 -585q-18 -44 -38 -79.5t-45.5 -60t-58.5 -37.5t-77 -13z" />
    <glyph glyph-name="z" unicode="z" horiz-adv-x="565" 
d="M39 109l238 297h-233v139h474l1 -108l-238 -297h247v-140h-489v109z" />
    <glyph glyph-name="braceleft" unicode="{" horiz-adv-x="433" 
d="M283 -190q-81 0 -129.5 46t-48.5 122v188q0 29 -19.5 45.5t-51.5 16.5h-5v145h5q32 0 51.5 16.5t19.5 44.5v188q0 76 48.5 122t129.5 46q37 0 65 -3.5t55 -9.5v-136q-20 4 -52 4t-51.5 -20.5t-19.5 -54.5v-156q0 -42 -24 -73t-64 -41q40 -10 64 -40.5t24 -72.5v-156
q0 -35 19.5 -55.5t51.5 -20.5t52 4v-136q-27 -6 -55 -9.5t-65 -3.5z" />
    <glyph glyph-name="bar" unicode="|" horiz-adv-x="323" 
d="M74 780h175v-1000h-175v1000z" />
    <glyph glyph-name="braceright" unicode="}" horiz-adv-x="433" 
d="M150 -190q-37 0 -65 3.5t-55 9.5v136q20 -4 52 -4t51.5 20.5t19.5 55.5v156q0 42 24 72.5t64 40.5q-40 10 -64 41t-24 73v156q0 34 -19.5 54.5t-51.5 20.5t-52 -4v136q27 6 55 9.5t65 3.5q81 0 129.5 -46t48.5 -122v-188q0 -28 19.5 -44.5t51.5 -16.5h5v-145h-5
q-32 0 -51.5 -16.5t-19.5 -45.5v-188q0 -76 -48.5 -122t-129.5 -46z" />
    <glyph glyph-name="asciitilde" unicode="~" horiz-adv-x="613" 
d="M412 212q-30 0 -59 7.5t-55.5 17t-49.5 17t-41 7.5q-26 0 -40.5 -10.5t-14.5 -28.5h-90q0 72 39 115t103 43q31 0 59.5 -7.5t55 -16t49 -16t41.5 -7.5q26 0 40.5 8.5t14.5 28.5h90q0 -76 -39 -117t-103 -41z" />
    <glyph glyph-name="uni00A0" unicode="&#xa0;" horiz-adv-x="238" 
 />
    <glyph glyph-name="exclamdown" unicode="&#xa1;" horiz-adv-x="294" 
d="M75 301h145l15 -521h-176zM147 359q-43 0 -70.5 27.5t-27.5 70.5t27.5 70.5t70.5 27.5t70.5 -27.5t27.5 -70.5t-27.5 -70.5t-70.5 -27.5z" />
    <glyph glyph-name="cent" unicode="&#xa2;" horiz-adv-x="589" 
d="M553 117q-50 -48 -126 -67v-90h-158v86q-52 10 -93.5 34t-71 60t-45.5 82t-16 101q0 54 16 100t45.5 81.5t71 59.5t93.5 34v87h158v-91q59 -16 108 -54l-96 -115q-17 16 -39.5 25.5t-52.5 9.5q-58 0 -92.5 -37.5t-34.5 -99.5t34 -99.5t93 -37.5q35 0 62.5 10.5t47.5 33.5
z" />
    <glyph glyph-name="sterling" unicode="&#xa3;" horiz-adv-x="639" 
d="M592 139v-139h-545v137h70v148h-60v139h60v128q0 45 17 81.5t47.5 62.5t74 40t96.5 14t96 -14.5t73.5 -40.5t47.5 -63.5t17 -82.5l-172 -11q0 30 -17 48.5t-45 18.5q-26 0 -42.5 -16t-16.5 -43v-122h254v-139h-254v-146h299z" />
    <glyph glyph-name="currency" unicode="&#xa4;" horiz-adv-x="659" 
d="M564 344q0 -56 -25 -106l72 -72l-102 -103l-73 72q-50 -25 -107 -25q-29 0 -55.5 6.5t-50.5 17.5l-72 -72l-103 103l71 71q-26 49 -26 108t26 108l-71 71l103 103l73 -74q24 11 50 17.5t55 6.5q57 0 107 -25l73 73l102 -102l-72 -72q25 -50 25 -106zM329 236
q21 0 39.5 8.5t32 23t21.5 34.5t8 42q0 23 -8 42.5t-21.5 34.5t-32 23.5t-39.5 8.5t-39 -8.5t-32 -23.5t-22 -34.5t-8 -42.5q0 -22 8 -42t22 -34.5t32 -23t39 -8.5z" />
    <glyph glyph-name="yen" unicode="&#xa5;" horiz-adv-x="748" 
d="M519 364h88v-107h-145v-42h145v-107h-145v-108h-176v108h-144v107h144v42h-144v107h87l-202 376h187l161 -326l160 326h186z" />
    <glyph glyph-name="brokenbar" unicode="&#xa6;" horiz-adv-x="323" 
d="M74 780h175v-400h-175v400zM74 180h175v-400h-175v400z" />
    <glyph glyph-name="section" unicode="&#xa7;" horiz-adv-x="630" 
d="M586 258q0 -41 -12 -75t-35 -62q22 -24 34.5 -54.5t12.5 -68.5q0 -51 -19.5 -93t-55.5 -72t-86 -46.5t-111 -16.5q-74 0 -139 24.5t-116 71.5l65 118q47 -39 92.5 -54t87.5 -15q101 0 101 65q0 36 -31 53.5t-83 34.5l-33 10q-46 14 -84.5 31.5t-66 43t-43 60t-15.5 81.5
q0 82 45 141q-22 23 -33.5 52t-11.5 67q0 53 19 96.5t54 74.5t83.5 48t108.5 17q62 0 123 -20t117 -65l-76 -122q-77 62 -161 62q-40 0 -63.5 -16.5t-23.5 -45.5q0 -34 30.5 -50.5t76.5 -31.5l32 -11q41 -13 80 -32t69.5 -47t49 -65.5t18.5 -87.5zM369 218l37 -13
q11 14 11 36q0 40 -34.5 61t-91.5 38l-33 11l-27 9q-13 -16 -13 -37q0 -20 9 -34.5t24.5 -25t37.5 -18.5t48 -17z" />
    <glyph glyph-name="dieresis" unicode="&#xa8;" horiz-adv-x="600" 
d="M143 608q-45 0 -72 26.5t-27 71.5q0 44 27 71t72 27t71.5 -27t26.5 -71q0 -45 -26.5 -71.5t-71.5 -26.5zM410 608q-45 0 -72 26.5t-27 71.5q0 44 27 71t72 27t71.5 -27t26.5 -71q0 -45 -26.5 -71.5t-71.5 -26.5z" />
    <glyph glyph-name="copyright" unicode="&#xa9;" horiz-adv-x="873" 
d="M446 158q-51 0 -92.5 15.5t-71.5 43t-46.5 66.5t-16.5 86t16 85t45.5 65t71 42t92.5 15t93.5 -15t73.5 -50l-71 -73q-14 21 -38.5 33t-56.5 12q-50 0 -80 -32t-30 -84q0 -53 31 -84.5t82 -31.5q37 0 61 15t42 44l76 -69q-32 -43 -77.5 -63t-103.5 -20zM437 -10
q-89 0 -162 27.5t-124.5 77t-80 120t-28.5 155.5q0 86 28.5 156t80 119.5t124.5 77t162 27.5t162 -27.5t124.5 -77t80 -119.5t28.5 -156q0 -85 -28.5 -155.5t-80 -120t-124.5 -77t-162 -27.5zM437 64q68 0 123.5 22t95 62.5t61.5 96.5t22 125t-22 125.5t-61.5 97t-95 62.5
t-123.5 22q-67 0 -123 -22t-95.5 -62.5t-61.5 -97t-22 -125.5t22 -125t61.5 -96.5t95.5 -62.5t123 -22z" />
    <glyph glyph-name="ordfeminine" unicode="&#xaa;" horiz-adv-x="402" 
d="M199 750q65 0 104.5 -34.5t39.5 -92.5v-205h-100l-1 36q-16 -21 -38.5 -31.5t-48.5 -10.5q-53 0 -85 28t-32 76q0 49 39 78.5t104 29.5q28 0 59 -6q-2 52 -68 52q-42 0 -69 -21l-45 61q29 20 62.5 30t78.5 10zM185 485q23 0 38.5 16.5t16.5 47.5q-13 2 -24 3t-22 1
q-22 0 -35.5 -9t-13.5 -25q0 -34 40 -34z" />
    <glyph glyph-name="guillemotleft" unicode="&#xab;" horiz-adv-x="715" 
d="M217 270l176 -232h-181l-182 232l182 233h181zM505 270l176 -232h-180l-183 232l183 233h180z" />
    <glyph glyph-name="logicalnot" unicode="&#xac;" horiz-adv-x="615" 
d="M550 166h-170v171h-326v139h496v-310z" />
    <glyph glyph-name="uni00AD" unicode="&#xad;" horiz-adv-x="503" 
d="M58 352h387v-121h-387v121z" />
    <glyph glyph-name="registered" unicode="&#xae;" horiz-adv-x="406" 
d="M204 790q72 0 115.5 -42.5t43.5 -112.5q0 -71 -43.5 -113.5t-115.5 -42.5q-73 0 -117 42.5t-44 113.5q0 70 44 112.5t117 42.5zM268 662q0 -16 -7.5 -27.5t-20.5 -18.5l40 -63h-46l-34 56h-24v-56h-40v163h73q28 0 43.5 -15t15.5 -39zM176 641h25q26 0 26 21q0 20 -22 20
h-29v-41zM204 506q57 0 91.5 35t34.5 94t-34.5 94t-91.5 35t-92 -35t-35 -94t35 -94t92 -35z" />
    <glyph glyph-name="macron" unicode="&#xaf;" horiz-adv-x="600" 
d="M30 745h379v-133h-379v133z" />
    <glyph glyph-name="degree" unicode="&#xb0;" horiz-adv-x="363" 
d="M182 527q-67 0 -107.5 36t-40.5 96t40.5 95.5t107.5 35.5q66 0 106.5 -35.5t40.5 -95.5t-40.5 -96t-106.5 -36zM182 611q20 0 32 13t12 35q0 21 -12 34t-32 13t-32.5 -13t-12.5 -34q0 -22 12.5 -35t32.5 -13z" />
    <glyph glyph-name="plusminus" unicode="&#xb1;" horiz-adv-x="623" 
d="M61 151h501v-140h-501v140zM562 513v-139h-165v-171h-171v171h-165v139h165v171h171v-171h165z" />
    <glyph glyph-name="twosuperior" unicode="&#xb2;" horiz-adv-x="374" 
d="M28 464l138 150q6 7 17 19t21 26.5t17.5 29.5t7.5 29q0 18 -11 29.5t-30 11.5q-22 0 -34.5 -15.5t-12.5 -39.5l-108 9q0 60 42 96.5t111 36.5t109.5 -33.5t40.5 -87.5q0 -43 -25.5 -81.5t-73.5 -87.5l-71 -73l176 1v-88h-314v68z" />
    <glyph glyph-name="threesuperior" unicode="&#xb3;" horiz-adv-x="363" 
d="M212 672q56 -6 89.5 -42t33.5 -93q0 -66 -47.5 -106.5t-130.5 -40.5q-41 0 -78.5 11t-60.5 30l40 78q15 -14 38.5 -22.5t48.5 -8.5q38 0 58.5 16.5t20.5 42.5t-19 41t-51 15t-56 -15l-29 54l103 121h-131v87h267v-66z" />
    <glyph glyph-name="acute" unicode="&#xb4;" horiz-adv-x="600" 
d="M235 785h197l-191 -167h-144z" />
    <glyph glyph-name="paragraph" unicode="&#xb6;" horiz-adv-x="654" 
d="M564 -220h-125v839h-75v-839h-126v600h-66q-32 0 -58 13t-45 37t-29 57.5t-10 74.5q0 40 12 73t34.5 56t53.5 36t69 13h365v-960z" />
    <glyph glyph-name="periodcentered" unicode="&#xb7;" horiz-adv-x="305" 
d="M152 185q-22 0 -41.5 8.5t-34 23.5t-23 34.5t-8.5 41.5t8.5 41.5t23 34t34 23t41.5 8.5t41.5 -8.5t34 -23t23 -34t8.5 -41.5t-8.5 -41.5t-23 -34.5t-34 -23.5t-41.5 -8.5z" />
    <glyph glyph-name="cedilla" unicode="&#xb8;" horiz-adv-x="600" 
d="M160 -49q44 -4 69.5 -27.5t25.5 -58.5q0 -42 -36.5 -68.5t-99.5 -26.5q-30 0 -57.5 6.5t-44.5 16.5l29 60q10 -7 24 -11.5t31 -4.5q21 0 32.5 8t11.5 19t-10.5 17t-27.5 6q-16 0 -32 -7l-21 37l43 83h93z" />
    <glyph glyph-name="onesuperior" unicode="&#xb9;" horiz-adv-x="285" 
d="M127 705l-72 -51l-54 75l151 111h82v-444h-107v309z" />
    <glyph glyph-name="ordmasculine" unicode="&#xba;" horiz-adv-x="430" 
d="M216 412q-81 0 -130.5 46t-49.5 123t49.5 123t130.5 46t129.5 -46t48.5 -123t-48.5 -123t-129.5 -46zM216 501q32 0 52 22t20 58q0 37 -20 59.5t-52 22.5q-33 0 -53 -22.5t-20 -59.5q0 -36 20 -58t53 -22z" />
    <glyph glyph-name="guillemotright" unicode="&#xbb;" horiz-adv-x="715" 
d="M397 270l-182 -232h-181l176 232l-176 233h181zM685 270l-182 -232h-180l175 232l-175 233h180z" />
    <glyph glyph-name="onequarter" unicode="&#xbc;" horiz-adv-x="925" 
d="M721 80h-198v73l223 291h82v-275h58v-89h-58v-80h-107v80zM154 605l-72 -51l-54 75l151 111h82v-444h-107v309zM180 44l414 706l88 -53l-414 -707zM724 165l1 129l-99 -129h98z" />
    <glyph glyph-name="onehalf" unicode="&#xbd;" horiz-adv-x="938" 
d="M180 44l414 706l88 -53l-414 -707zM578 68l138 150q6 7 17 19t21 26.5t17.5 29.5t7.5 29q0 18 -11 29.5t-30 11.5q-22 0 -34.5 -15.5t-12.5 -39.5l-108 9q0 60 42 96.5t111 36.5t109.5 -33.5t40.5 -87.5q0 -43 -25.5 -81.5t-73.5 -87.5l-71 -73l176 1v-88h-314v68z
M154 605l-72 -51l-54 75l151 111h82v-444h-107v309z" />
    <glyph glyph-name="threequarters" unicode="&#xbe;" horiz-adv-x="987" 
d="M953 169v-89h-58v-80h-107v80h-198v73l223 291h82v-275h58zM352 437q0 -66 -47.5 -106.5t-130.5 -40.5q-41 0 -78.5 11t-60.5 30l40 78q15 -14 38.5 -22.5t48.5 -8.5q38 0 58.5 16.5t20.5 42.5t-19 41t-51 15t-56 -15l-29 54l103 121h-131v87h267v-66l-96 -102
q56 -6 89.5 -42t33.5 -93zM749 697l-414 -707l-88 54l414 706zM792 294l-99 -129h98z" />
    <glyph glyph-name="questiondown" unicode="&#xbf;" horiz-adv-x="560" 
d="M290 -230q-58 0 -105.5 14.5t-81.5 41t-52.5 64t-18.5 83.5q0 29 8 51t20.5 40t29 33t32.5 31q18 17 34.5 34t29 37t20.5 45t8 57h145q0 -52 -9 -90.5t-23.5 -67t-31.5 -49t-33 -36.5q-20 -19 -34 -36t-14 -40q0 -30 20.5 -48.5t55.5 -18.5q32 0 54 18.5t27 48.5l161 -7
q-2 -47 -20.5 -84.5t-50.5 -64.5t-75.5 -41.5t-95.5 -14.5zM286 359q-43 0 -70.5 27.5t-27.5 70.5t27.5 70.5t70.5 27.5t70.5 -27.5t27.5 -70.5t-27.5 -70.5t-70.5 -27.5z" />
    <glyph glyph-name="Agrave" unicode="&#xc0;" horiz-adv-x="774" 
d="M544 123h-313l-49 -123h-188l312 740h163l310 -740h-187zM349 813l-191 167h197l138 -167h-144zM487 268l-99 254l-100 -254h199z" />
    <glyph glyph-name="Aacute" unicode="&#xc1;" horiz-adv-x="774" 
d="M544 123h-313l-49 -123h-188l312 740h163l310 -740h-187zM426 813h-144l138 167h197zM487 268l-99 254l-100 -254h199z" />
    <glyph glyph-name="Acircumflex" unicode="&#xc2;" horiz-adv-x="774" 
d="M544 123h-313l-49 -123h-188l312 740h163l310 -740h-187zM331 813h-156l132 167h160l131 -167h-155l-56 69zM487 268l-99 254l-100 -254h199z" />
    <glyph glyph-name="Atilde" unicode="&#xc3;" horiz-adv-x="774" 
d="M544 123h-313l-49 -123h-188l312 740h163l310 -740h-187zM309 858q-17 0 -25.5 -10.5t-8.5 -28.5h-90q0 72 33 115.5t88 43.5q24 0 47 -7.5t43.5 -16.5t38.5 -16.5t32 -7.5q34 0 34 38h90q0 -77 -33 -118t-88 -41q-23 0 -45.5 7.5t-43.5 17t-39.5 17t-32.5 7.5zM487 268
l-99 254l-100 -254h199z" />
    <glyph glyph-name="Adieresis" unicode="&#xc4;" horiz-adv-x="774" 
d="M544 123h-313l-49 -123h-188l312 740h163l310 -740h-187zM255 803q-45 0 -72 26.5t-27 71.5q0 44 27 71t72 27t71.5 -27t26.5 -71q0 -45 -26.5 -71.5t-71.5 -26.5zM522 803q-45 0 -72 26.5t-27 71.5q0 44 27 71t72 27t71.5 -27t26.5 -71q0 -45 -26.5 -71.5t-71.5 -26.5z
M487 268l-99 254l-100 -254h199z" />
    <glyph glyph-name="Aring" unicode="&#xc5;" horiz-adv-x="774" 
d="M544 123h-313l-49 -123h-188l312 740h163l310 -740h-187zM388 779q-55 0 -88.5 30t-33.5 80q0 49 33.5 79t88.5 30t88 -30t33 -79q0 -50 -33 -80t-88 -30zM487 268l-99 254l-100 -254h199zM388 923q-16 0 -25.5 -9.5t-9.5 -24.5q0 -16 9.5 -25.5t25.5 -9.5q15 0 24.5 9.5
t9.5 25.5q0 15 -9.5 24.5t-24.5 9.5z" />
    <glyph glyph-name="AE" unicode="&#xc6;" horiz-adv-x="1109" 
d="M1062 145v-145h-480l-28 123h-302l-72 -123h-200l469 740h605v-145h-437l38 -148h364v-145h-327l40 -157h330zM521 268l-52 228l-133 -228h185z" />
    <glyph glyph-name="Ccedilla" unicode="&#xc7;" horiz-adv-x="774" 
d="M763 141q-103 -137 -283 -150l-25 -40q44 -4 69.5 -27.5t25.5 -58.5q0 -42 -36.5 -68.5t-99.5 -26.5q-30 0 -57.5 6.5t-44.5 16.5l29 60q10 -7 24 -11.5t31 -4.5q21 0 32.5 8t11.5 19t-10.5 17t-27.5 6q-16 0 -32 -7l-21 37l39 76q-79 8 -143.5 38.5t-110.5 80t-71 116
t-25 145.5q0 85 29 154.5t81.5 119t127 76.5t164.5 27q91 0 166 -28.5t132 -89.5l-110 -113q-28 39 -76.5 62.5t-110.5 23.5q-50 0 -90.5 -17t-69.5 -47.5t-45 -73.5t-16 -96t16.5 -96.5t46 -74.5t71 -48t91.5 -17q72 0 119 29.5t81 82.5z" />
    <glyph glyph-name="Egrave" unicode="&#xc8;" horiz-adv-x="664" 
d="M616 145v-145h-535v740h527v-145h-351v-148h316v-145h-316v-157h359zM305 813l-191 167h197l138 -167h-144z" />
    <glyph glyph-name="Eacute" unicode="&#xc9;" horiz-adv-x="664" 
d="M616 145v-145h-535v740h527v-145h-351v-148h316v-145h-316v-157h359zM383 813h-144l138 167h197z" />
    <glyph glyph-name="Ecircumflex" unicode="&#xca;" horiz-adv-x="664" 
d="M616 145v-145h-535v740h527v-145h-351v-148h316v-145h-316v-157h359zM288 813h-156l132 167h160l131 -167h-155l-56 69z" />
    <glyph glyph-name="Edieresis" unicode="&#xcb;" horiz-adv-x="664" 
d="M616 145v-145h-535v740h527v-145h-351v-148h316v-145h-316v-157h359zM211 803q-45 0 -72 26.5t-27 71.5q0 44 27 71t72 27t71.5 -27t26.5 -71q0 -45 -26.5 -71.5t-71.5 -26.5zM478 803q-45 0 -72 26.5t-27 71.5q0 44 27 71t72 27t71.5 -27t26.5 -71q0 -45 -26.5 -71.5
t-71.5 -26.5z" />
    <glyph glyph-name="Igrave" unicode="&#xcc;" horiz-adv-x="338" 
d="M81 740h176v-740h-176v740zM-62 980h197l138 -167h-144z" />
    <glyph glyph-name="Iacute" unicode="&#xcd;" horiz-adv-x="338" 
d="M81 740h176v-740h-176v740zM201 980h197l-191 -167h-144z" />
    <glyph glyph-name="Icircumflex" unicode="&#xce;" horiz-adv-x="338" 
d="M81 740h176v-740h-176v740zM111 813h-156l132 167h160l131 -167h-155l-56 69z" />
    <glyph glyph-name="Idieresis" unicode="&#xcf;" horiz-adv-x="338" 
d="M81 740h176v-740h-176v740zM35 803q-45 0 -72 26.5t-27 71.5q0 44 27 71t72 27t71.5 -27t26.5 -71q0 -45 -26.5 -71.5t-71.5 -26.5zM302 803q-45 0 -72 26.5t-27 71.5q0 44 27 71t72 27t71.5 -27t26.5 -71q0 -45 -26.5 -71.5t-71.5 -26.5z" />
    <glyph glyph-name="Eth" unicode="&#xd0;" horiz-adv-x="812" 
d="M405 740q83 0 151 -26.5t116 -75t74.5 -116.5t26.5 -151t-26.5 -151.5t-74.5 -117t-116 -75.5t-151 -27h-312v311h-73v121h73v308h312zM408 145q41 0 75 16.5t58 46t37 71t13 92.5t-13 92t-37 70.5t-58 45.5t-75 16h-139v-163h147v-121h-147v-166h139z" />
    <glyph glyph-name="Ntilde" unicode="&#xd1;" horiz-adv-x="883" 
d="M81 740h109l440 -443l-4 443h176v-740h-108l-441 444l4 -444h-176v740zM523 809q-23 0 -45.5 7.5t-43.5 17t-39.5 17t-32.5 7.5q-17 0 -25.5 -10.5t-8.5 -28.5h-90q0 72 33 115.5t88 43.5q24 0 47 -7.5t43.5 -16.5t38.5 -16.5t32 -7.5q34 0 34 38h90q0 -77 -33 -118
t-88 -41z" />
    <glyph glyph-name="Ograve" unicode="&#xd2;" horiz-adv-x="873" 
d="M438 -10q-90 0 -163.5 27.5t-126 77t-81.5 120t-29 155.5q0 86 29 156t81.5 119.5t126 77t163.5 27.5q89 0 162 -27.5t125.5 -77t81 -119.5t28.5 -156q0 -85 -28.5 -155.5t-81 -120t-125.5 -77t-162 -27.5zM207 980h197l138 -167h-144zM438 135q48 0 88 17t68.5 47.5
t44 74t15.5 96.5t-15.5 96.5t-44 74t-68.5 47.5t-88 17q-49 0 -89.5 -17t-69 -47.5t-44 -74t-15.5 -96.5t15.5 -96.5t44 -74t69 -47.5t89.5 -17z" />
    <glyph glyph-name="Oacute" unicode="&#xd3;" horiz-adv-x="873" 
d="M438 -10q-90 0 -163.5 27.5t-126 77t-81.5 120t-29 155.5q0 86 29 156t81.5 119.5t126 77t163.5 27.5q89 0 162 -27.5t125.5 -77t81 -119.5t28.5 -156q0 -85 -28.5 -155.5t-81 -120t-125.5 -77t-162 -27.5zM470 980h197l-191 -167h-144zM438 135q48 0 88 17t68.5 47.5
t44 74t15.5 96.5t-15.5 96.5t-44 74t-68.5 47.5t-88 17q-49 0 -89.5 -17t-69 -47.5t-44 -74t-15.5 -96.5t15.5 -96.5t44 -74t69 -47.5t89.5 -17z" />
    <glyph glyph-name="Ocircumflex" unicode="&#xd4;" horiz-adv-x="873" 
d="M438 750q89 0 162 -27.5t125.5 -77t81 -119.5t28.5 -156q0 -85 -28.5 -155.5t-81 -120t-125.5 -77t-162 -27.5q-90 0 -163.5 27.5t-126 77t-81.5 120t-29 155.5q0 86 29 156t81.5 119.5t126 77t163.5 27.5zM381 813h-156l132 167h160l131 -167h-155l-56 69zM438 135
q48 0 88 17t68.5 47.5t44 74t15.5 96.5t-15.5 96.5t-44 74t-68.5 47.5t-88 17q-49 0 -89.5 -17t-69 -47.5t-44 -74t-15.5 -96.5t15.5 -96.5t44 -74t69 -47.5t89.5 -17z" />
    <glyph glyph-name="Otilde" unicode="&#xd5;" horiz-adv-x="873" 
d="M438 -10q-90 0 -163.5 27.5t-126 77t-81.5 120t-29 155.5q0 86 29 156t81.5 119.5t126 77t163.5 27.5q89 0 162 -27.5t125.5 -77t81 -119.5t28.5 -156q0 -85 -28.5 -155.5t-81 -120t-125.5 -77t-162 -27.5zM519 809q-23 0 -45.5 7.5t-43.5 17t-39.5 17t-32.5 7.5
q-17 0 -25.5 -10.5t-8.5 -28.5h-90q0 72 33 115.5t88 43.5q24 0 47 -7.5t43.5 -16.5t38.5 -16.5t32 -7.5q34 0 34 38h90q0 -77 -33 -118t-88 -41zM438 135q48 0 88 17t68.5 47.5t44 74t15.5 96.5t-15.5 96.5t-44 74t-68.5 47.5t-88 17q-49 0 -89.5 -17t-69 -47.5t-44 -74
t-15.5 -96.5t15.5 -96.5t44 -74t69 -47.5t89.5 -17z" />
    <glyph glyph-name="Odieresis" unicode="&#xd6;" horiz-adv-x="873" 
d="M438 -10q-90 0 -163.5 27.5t-126 77t-81.5 120t-29 155.5q0 86 29 156t81.5 119.5t126 77t163.5 27.5q89 0 162 -27.5t125.5 -77t81 -119.5t28.5 -156q0 -85 -28.5 -155.5t-81 -120t-125.5 -77t-162 -27.5zM305 803q-45 0 -72 26.5t-27 71.5q0 44 27 71t72 27t71.5 -27
t26.5 -71q0 -45 -26.5 -71.5t-71.5 -26.5zM572 803q-45 0 -72 26.5t-27 71.5q0 44 27 71t72 27t71.5 -27t26.5 -71q0 -45 -26.5 -71.5t-71.5 -26.5zM438 135q48 0 88 17t68.5 47.5t44 74t15.5 96.5t-15.5 96.5t-44 74t-68.5 47.5t-88 17q-49 0 -89.5 -17t-69 -47.5t-44 -74
t-15.5 -96.5t15.5 -96.5t44 -74t69 -47.5t89.5 -17z" />
    <glyph glyph-name="multiply" unicode="&#xd7;" horiz-adv-x="536" 
d="M372 351l117 -117l-104 -104l-117 117l-117 -117l-104 104l117 117l-119 119l105 104l118 -118l118 118l105 -104z" />
    <glyph glyph-name="Oslash" unicode="&#xd8;" horiz-adv-x="875" 
d="M746 625q43 -49 66.5 -113t23.5 -142q0 -85 -28.5 -155.5t-81 -120t-125.5 -77t-162 -27.5q-68 0 -126 15.5t-106 44.5l-56 -60l-74 67l53 57q-44 49 -67.5 113.5t-23.5 142.5q0 86 29 156t81.5 119.5t126 77t163.5 27.5q67 0 125 -16t106 -45l57 61l73 -67zM221 370
q0 -74 30 -128l308 329q-51 34 -120 34q-49 0 -89.5 -17t-69 -47.5t-44 -74t-15.5 -96.5zM439 135q48 0 88 17t68.5 47.5t44 74t15.5 96.5q0 74 -29 127l-308 -329q26 -16 56 -24.5t65 -8.5z" />
    <glyph glyph-name="Ugrave" unicode="&#xd9;" horiz-adv-x="814" 
d="M408 -10q-75 0 -137 21.5t-106 60.5t-68 94.5t-24 122.5v451h175v-444q0 -72 44 -116.5t116 -44.5q71 0 114.5 44.5t43.5 116.5v444h175v-451q0 -67 -24 -122.5t-67.5 -94.5t-105 -60.5t-136.5 -21.5zM177 980h197l138 -167h-144z" />
    <glyph glyph-name="Uacute" unicode="&#xda;" horiz-adv-x="814" 
d="M408 -10q-75 0 -137 21.5t-106 60.5t-68 94.5t-24 122.5v451h175v-444q0 -72 44 -116.5t116 -44.5q71 0 114.5 44.5t43.5 116.5v444h175v-451q0 -67 -24 -122.5t-67.5 -94.5t-105 -60.5t-136.5 -21.5zM440 980h197l-191 -167h-144z" />
    <glyph glyph-name="Ucircumflex" unicode="&#xdb;" horiz-adv-x="814" 
d="M741 740v-451q0 -67 -24 -122.5t-67.5 -94.5t-105 -60.5t-136.5 -21.5t-137 21.5t-106 60.5t-68 94.5t-24 122.5v451h175v-444q0 -72 44 -116.5t116 -44.5q71 0 114.5 44.5t43.5 116.5v444h175zM351 813h-156l132 167h160l131 -167h-155l-56 69z" />
    <glyph glyph-name="Udieresis" unicode="&#xdc;" horiz-adv-x="814" 
d="M408 -10q-75 0 -137 21.5t-106 60.5t-68 94.5t-24 122.5v451h175v-444q0 -72 44 -116.5t116 -44.5q71 0 114.5 44.5t43.5 116.5v444h175v-451q0 -67 -24 -122.5t-67.5 -94.5t-105 -60.5t-136.5 -21.5zM275 803q-45 0 -72 26.5t-27 71.5q0 44 27 71t72 27t71.5 -27
t26.5 -71q0 -45 -26.5 -71.5t-71.5 -26.5zM542 803q-45 0 -72 26.5t-27 71.5q0 44 27 71t72 27t71.5 -27t26.5 -71q0 -45 -26.5 -71.5t-71.5 -26.5z" />
    <glyph glyph-name="Yacute" unicode="&#xdd;" horiz-adv-x="710" 
d="M702 740l-259 -481v-259h-176v259l-259 481h187l161 -326l160 326h186zM394 813h-144l138 167h197z" />
    <glyph glyph-name="Thorn" unicode="&#xde;" horiz-adv-x="698" 
d="M398 629q60 0 109.5 -17.5t85 -50t54.5 -77.5t19 -101q0 -58 -20 -106t-56 -82t-87 -52.5t-114 -18.5h-132v-124h-176v740h176v-111h141zM379 269q51 0 78.5 29.5t27.5 78.5q0 48 -29 77.5t-77 29.5h-122v-215h122z" />
    <glyph glyph-name="germandbls" unicode="&#xdf;" horiz-adv-x="639" 
d="M474 422q63 -29 97.5 -78t34.5 -115q0 -54 -18 -98t-51 -75.5t-79 -48.5t-102 -17q-23 0 -47 3t-40 8l16 140q9 -3 19 -4t21 -1q48 0 76.5 29t28.5 77q0 49 -32 79t-86 30v133q36 0 57.5 22.5t21.5 59.5q0 35 -21.5 57t-57.5 22t-58 -21t-22 -56v-568h-170v585
q0 46 18 84t51 65t79 41.5t102 14.5q57 0 104 -14.5t80.5 -41.5t52 -65t18.5 -84q0 -53 -24 -95t-69 -68z" />
    <glyph glyph-name="agrave" unicode="&#xe0;" horiz-adv-x="589" 
d="M292 555q54 0 98.5 -15t76 -43t49 -67.5t17.5 -87.5v-342h-164l-2 62q-27 -35 -66 -53.5t-82 -18.5t-79 12.5t-61 35.5t-39 55.5t-14 71.5q0 40 17 73t48 56t74.5 36t96.5 13q23 0 49 -2.5t52 -7.5q-2 44 -31.5 66.5t-83.5 22.5q-35 0 -63 -9t-53 -26l-72 100
q47 34 102 51t130 17zM263 618l-191 167h197l138 -167h-144zM268 111q38 0 66 28.5t29 79.5q-21 4 -41 6t-38 2q-38 0 -60 -16.5t-22 -42.5t15.5 -41.5t50.5 -15.5z" />
    <glyph glyph-name="aacute" unicode="&#xe1;" horiz-adv-x="589" 
d="M292 555q54 0 98.5 -15t76 -43t49 -67.5t17.5 -87.5v-342h-164l-2 62q-27 -35 -66 -53.5t-82 -18.5t-79 12.5t-61 35.5t-39 55.5t-14 71.5q0 40 17 73t48 56t74.5 36t96.5 13q23 0 49 -2.5t52 -7.5q-2 44 -31.5 66.5t-83.5 22.5q-35 0 -63 -9t-53 -26l-72 100
q47 34 102 51t130 17zM340 618h-144l138 167h197zM268 111q38 0 66 28.5t29 79.5q-21 4 -41 6t-38 2q-38 0 -60 -16.5t-22 -42.5t15.5 -41.5t50.5 -15.5z" />
    <glyph glyph-name="acircumflex" unicode="&#xe2;" horiz-adv-x="589" 
d="M292 555q54 0 98.5 -15t76 -43t49 -67.5t17.5 -87.5v-342h-164l-2 62q-27 -35 -66 -53.5t-82 -18.5t-79 12.5t-61 35.5t-39 55.5t-14 71.5q0 40 17 73t48 56t74.5 36t96.5 13q23 0 49 -2.5t52 -7.5q-2 44 -31.5 66.5t-83.5 22.5q-35 0 -63 -9t-53 -26l-72 100
q47 34 102 51t130 17zM245 618h-156l132 167h160l131 -167h-155l-56 69zM268 111q38 0 66 28.5t29 79.5q-21 4 -41 6t-38 2q-38 0 -60 -16.5t-22 -42.5t15.5 -41.5t50.5 -15.5z" />
    <glyph glyph-name="atilde" unicode="&#xe3;" horiz-adv-x="589" 
d="M292 555q54 0 98.5 -15t76 -43t49 -67.5t17.5 -87.5v-342h-164l-2 62q-27 -35 -66 -53.5t-82 -18.5t-79 12.5t-61 35.5t-39 55.5t-14 71.5q0 40 17 73t48 56t74.5 36t96.5 13q23 0 49 -2.5t52 -7.5q-2 44 -31.5 66.5t-83.5 22.5q-35 0 -63 -9t-53 -26l-72 100
q47 34 102 51t130 17zM223 663q-17 0 -25.5 -10.5t-8.5 -28.5h-90q0 72 33 115.5t88 43.5q24 0 47 -7.5t43.5 -16.5t38.5 -16.5t32 -7.5q34 0 34 38h90q0 -77 -33 -118t-88 -41q-23 0 -45.5 7.5t-43.5 17t-39.5 17t-32.5 7.5zM268 111q38 0 66 28.5t29 79.5q-21 4 -41 6
t-38 2q-38 0 -60 -16.5t-22 -42.5t15.5 -41.5t50.5 -15.5z" />
    <glyph glyph-name="adieresis" unicode="&#xe4;" horiz-adv-x="589" 
d="M292 555q54 0 98.5 -15t76 -43t49 -67.5t17.5 -87.5v-342h-164l-2 62q-27 -35 -66 -53.5t-82 -18.5t-79 12.5t-61 35.5t-39 55.5t-14 71.5q0 40 17 73t48 56t74.5 36t96.5 13q23 0 49 -2.5t52 -7.5q-2 44 -31.5 66.5t-83.5 22.5q-35 0 -63 -9t-53 -26l-72 100
q47 34 102 51t130 17zM169 608q-45 0 -72 26.5t-27 71.5q0 44 27 71t72 27t71.5 -27t26.5 -71q0 -45 -26.5 -71.5t-71.5 -26.5zM436 608q-45 0 -72 26.5t-27 71.5q0 44 27 71t72 27t71.5 -27t26.5 -71q0 -45 -26.5 -71.5t-71.5 -26.5zM268 111q38 0 66 28.5t29 79.5
q-21 4 -41 6t-38 2q-38 0 -60 -16.5t-22 -42.5t15.5 -41.5t50.5 -15.5z" />
    <glyph glyph-name="aring" unicode="&#xe5;" horiz-adv-x="589" 
d="M292 555q54 0 98.5 -15t76 -43t49 -67.5t17.5 -87.5v-342h-164l-2 62q-27 -35 -66 -53.5t-82 -18.5t-79 12.5t-61 35.5t-39 55.5t-14 71.5q0 40 17 73t48 56t74.5 36t96.5 13q23 0 49 -2.5t52 -7.5q-2 44 -31.5 66.5t-83.5 22.5q-35 0 -63 -9t-53 -26l-72 100
q47 34 102 51t130 17zM302 584q-55 0 -88.5 30t-33.5 80q0 49 33.5 79t88.5 30t88 -30t33 -79q0 -50 -33 -80t-88 -30zM268 111q38 0 66 28.5t29 79.5q-21 4 -41 6t-38 2q-38 0 -60 -16.5t-22 -42.5t15.5 -41.5t50.5 -15.5zM302 728q-16 0 -25.5 -9.5t-9.5 -24.5
q0 -16 9.5 -25.5t25.5 -9.5q15 0 24.5 9.5t9.5 25.5q0 15 -9.5 24.5t-24.5 9.5z" />
    <glyph glyph-name="ae" unicode="&#xe6;" horiz-adv-x="942" 
d="M908 281q0 -17 -1 -35.5t-3 -32.5h-374q8 -42 32 -66t73 -24q35 0 63 13.5t48 36.5l131 -64q-33 -54 -92 -86.5t-135 -32.5q-66 0 -118 23t-89 64q-32 -43 -85.5 -65t-113.5 -22q-49 0 -89.5 12.5t-69 35.5t-44 55.5t-15.5 71.5q0 40 17 73t48 56t74.5 36t96.5 13
q23 0 49 -2.5t52 -7.5q-2 44 -31.5 66.5t-83.5 22.5q-35 0 -63 -9t-53 -26l-72 100q45 34 96.5 51t123.5 17q57 0 102 -20t75 -55q35 35 81.5 55t103.5 20q60 0 109 -19.5t84 -55.5t54 -86.5t19 -112.5zM268 111q38 0 66 28.5t29 79.5q-21 4 -41 6t-38 2q-38 0 -60 -16.5
t-22 -42.5t15.5 -41.5t50.5 -15.5zM629 422q-42 0 -66 -24.5t-32 -70.5h199q-17 95 -101 95z" />
    <glyph glyph-name="ccedilla" unicode="&#xe7;" horiz-adv-x="554" 
d="M340 -49q44 -4 69.5 -27.5t25.5 -58.5q0 -42 -36.5 -68.5t-99.5 -26.5q-30 0 -57.5 6.5t-44.5 16.5l29 60q10 -7 24 -11.5t31 -4.5q21 0 32.5 8t11.5 19t-10.5 17t-27.5 6q-16 0 -32 -7l-21 37l40 77q-55 8 -99.5 31.5t-76 59.5t-48.5 83.5t-17 104.5q0 63 21.5 115
t61 89t95 57.5t123.5 20.5q55 0 104 -17.5t87 -47.5l-96 -115q-17 16 -39.5 25.5t-52.5 9.5q-58 0 -92.5 -37.5t-34.5 -99.5t34 -99.5t93 -37.5q35 0 62.5 10.5t47.5 33.5l96 -113q-35 -34 -80 -52.5t-98 -23.5z" />
    <glyph glyph-name="egrave" unicode="&#xe8;" horiz-adv-x="626" 
d="M593 281q0 -17 -1.5 -35.5t-3.5 -32.5h-373q8 -42 32 -66t72 -24q35 0 63 13.5t48 36.5l132 -64q-35 -54 -97.5 -86.5t-142.5 -32.5q-64 0 -117.5 20t-91 56t-58.5 87t-21 114q0 65 20 118t57 90.5t88.5 58.5t114.5 21t114 -19.5t88 -55.5t57 -86.5t20 -112.5zM274 618
l-191 167h197l138 -167h-144zM314 422q-43 0 -66.5 -24.5t-31.5 -70.5h198q-17 95 -100 95z" />
    <glyph glyph-name="eacute" unicode="&#xe9;" horiz-adv-x="626" 
d="M593 281q0 -17 -1.5 -35.5t-3.5 -32.5h-373q8 -42 32 -66t72 -24q35 0 63 13.5t48 36.5l132 -64q-35 -54 -97.5 -86.5t-142.5 -32.5q-64 0 -117.5 20t-91 56t-58.5 87t-21 114q0 65 20 118t57 90.5t88.5 58.5t114.5 21t114 -19.5t88 -55.5t57 -86.5t20 -112.5zM352 618
h-144l138 167h197zM314 422q-43 0 -66.5 -24.5t-31.5 -70.5h198q-17 95 -100 95z" />
    <glyph glyph-name="ecircumflex" unicode="&#xea;" horiz-adv-x="626" 
d="M593 281q0 -17 -1.5 -35.5t-3.5 -32.5h-373q8 -42 32 -66t72 -24q35 0 63 13.5t48 36.5l132 -64q-35 -54 -97.5 -86.5t-142.5 -32.5q-64 0 -117.5 20t-91 56t-58.5 87t-21 114q0 65 20 118t57 90.5t88.5 58.5t114.5 21t114 -19.5t88 -55.5t57 -86.5t20 -112.5zM257 618
h-156l132 167h160l131 -167h-155l-56 69zM314 422q-43 0 -66.5 -24.5t-31.5 -70.5h198q-17 95 -100 95z" />
    <glyph glyph-name="edieresis" unicode="&#xeb;" horiz-adv-x="626" 
d="M593 281q0 -17 -1.5 -35.5t-3.5 -32.5h-373q8 -42 32 -66t72 -24q35 0 63 13.5t48 36.5l132 -64q-35 -54 -97.5 -86.5t-142.5 -32.5q-64 0 -117.5 20t-91 56t-58.5 87t-21 114q0 65 20 118t57 90.5t88.5 58.5t114.5 21t114 -19.5t88 -55.5t57 -86.5t20 -112.5zM181 608
q-45 0 -72 26.5t-27 71.5q0 44 27 71t72 27t71.5 -27t26.5 -71q0 -45 -26.5 -71.5t-71.5 -26.5zM448 608q-45 0 -72 26.5t-27 71.5q0 44 27 71t72 27t71.5 -27t26.5 -71q0 -45 -26.5 -71.5t-71.5 -26.5zM314 422q-43 0 -66.5 -24.5t-31.5 -70.5h198q-17 95 -100 95z" />
    <glyph glyph-name="igrave" unicode="&#xec;" horiz-adv-x="295" 
d="M62 545h170v-545h-170v545zM-82 785h197l138 -167h-144z" />
    <glyph glyph-name="iacute" unicode="&#xed;" horiz-adv-x="295" 
d="M62 545h170v-545h-170v545zM181 785h197l-191 -167h-144z" />
    <glyph glyph-name="icircumflex" unicode="&#xee;" horiz-adv-x="295" 
d="M62 545h170v-545h-170v545zM91 618h-156l132 167h160l131 -167h-155l-56 69z" />
    <glyph glyph-name="idieresis" unicode="&#xef;" horiz-adv-x="295" 
d="M62 545h170v-545h-170v545zM15 608q-45 0 -72 26.5t-27 71.5q0 44 27 71t72 27t71.5 -27t26.5 -71q0 -45 -26.5 -71.5t-71.5 -26.5zM282 608q-45 0 -72 26.5t-27 71.5q0 44 27 71t72 27t71.5 -27t26.5 -71q0 -45 -26.5 -71.5t-71.5 -26.5z" />
    <glyph glyph-name="eth" unicode="&#xf0;" horiz-adv-x="668" 
d="M432 693q97 -78 148 -171.5t51 -202.5q0 -73 -21.5 -134t-60.5 -104t-94 -67t-122 -24t-122 20t-94.5 57.5t-61 90t-21.5 116.5q0 61 20.5 110.5t56 85t82.5 54.5t101 19q46 0 81 -13q-17 20 -37.5 39.5t-43.5 36.5l-48 -30l-93 60l48 31q-15 8 -30 15.5t-30 15.5l141 92
q15 -8 29 -16l28 -16l50 32l91 -67zM333 136q55 0 88.5 37.5t33.5 99.5t-33.5 99.5t-88.5 37.5q-56 0 -89.5 -37.5t-33.5 -99.5t33.5 -99.5t89.5 -37.5z" />
    <glyph glyph-name="ntilde" unicode="&#xf1;" horiz-adv-x="665" 
d="M396 555q48 0 87.5 -15.5t67 -43t43 -67t15.5 -87.5v-342h-170v316q0 43 -28 68.5t-75 25.5q-48 0 -76 -25.5t-28 -68.5v-316h-170v545h164l2 -61q32 36 76 53.5t92 17.5zM259 663q-17 0 -25.5 -10.5t-8.5 -28.5h-90q0 72 33 115.5t88 43.5q24 0 47 -7.5t43.5 -16.5
t38.5 -16.5t32 -7.5q34 0 34 38h90q0 -77 -33 -118t-88 -41q-23 0 -45.5 7.5t-43.5 17t-39.5 17t-32.5 7.5z" />
    <glyph glyph-name="ograve" unicode="&#xf2;" horiz-adv-x="663" 
d="M333 -10q-67 0 -122.5 20.5t-95 57.5t-61 89t-21.5 116q0 63 21.5 115t61 89t95 57.5t122.5 20.5q66 0 121 -20.5t94 -57.5t60.5 -89t21.5 -115q0 -64 -21.5 -116t-60.5 -89t-94 -57.5t-121 -20.5zM102 785h197l138 -167h-144zM332 136q55 0 88.5 37.5t33.5 99.5
t-33.5 99.5t-88.5 37.5q-56 0 -89.5 -37.5t-33.5 -99.5t33.5 -99.5t89.5 -37.5z" />
    <glyph glyph-name="oacute" unicode="&#xf3;" horiz-adv-x="663" 
d="M333 -10q-67 0 -122.5 20.5t-95 57.5t-61 89t-21.5 116q0 63 21.5 115t61 89t95 57.5t122.5 20.5q66 0 121 -20.5t94 -57.5t60.5 -89t21.5 -115q0 -64 -21.5 -116t-60.5 -89t-94 -57.5t-121 -20.5zM365 785h197l-191 -167h-144zM332 136q55 0 88.5 37.5t33.5 99.5
t-33.5 99.5t-88.5 37.5q-56 0 -89.5 -37.5t-33.5 -99.5t33.5 -99.5t89.5 -37.5z" />
    <glyph glyph-name="ocircumflex" unicode="&#xf4;" horiz-adv-x="663" 
d="M333 555q66 0 121 -20.5t94 -57.5t60.5 -89t21.5 -115q0 -64 -21.5 -116t-60.5 -89t-94 -57.5t-121 -20.5q-67 0 -122.5 20.5t-95 57.5t-61 89t-21.5 116q0 63 21.5 115t61 89t95 57.5t122.5 20.5zM276 618h-156l132 167h160l131 -167h-155l-56 69zM332 136
q55 0 88.5 37.5t33.5 99.5t-33.5 99.5t-88.5 37.5q-56 0 -89.5 -37.5t-33.5 -99.5t33.5 -99.5t89.5 -37.5z" />
    <glyph glyph-name="otilde" unicode="&#xf5;" horiz-adv-x="663" 
d="M333 -10q-67 0 -122.5 20.5t-95 57.5t-61 89t-21.5 116q0 63 21.5 115t61 89t95 57.5t122.5 20.5q66 0 121 -20.5t94 -57.5t60.5 -89t21.5 -115q0 -64 -21.5 -116t-60.5 -89t-94 -57.5t-121 -20.5zM414 614q-23 0 -45.5 7.5t-43.5 17t-39.5 17t-32.5 7.5
q-17 0 -25.5 -10.5t-8.5 -28.5h-90q0 72 33 115.5t88 43.5q24 0 47 -7.5t43.5 -16.5t38.5 -16.5t32 -7.5q34 0 34 38h90q0 -77 -33 -118t-88 -41zM332 136q55 0 88.5 37.5t33.5 99.5t-33.5 99.5t-88.5 37.5q-56 0 -89.5 -37.5t-33.5 -99.5t33.5 -99.5t89.5 -37.5z" />
    <glyph glyph-name="odieresis" unicode="&#xf6;" horiz-adv-x="663" 
d="M333 -10q-67 0 -122.5 20.5t-95 57.5t-61 89t-21.5 116q0 63 21.5 115t61 89t95 57.5t122.5 20.5q66 0 121 -20.5t94 -57.5t60.5 -89t21.5 -115q0 -64 -21.5 -116t-60.5 -89t-94 -57.5t-121 -20.5zM200 608q-45 0 -72 26.5t-27 71.5q0 44 27 71t72 27t71.5 -27t26.5 -71
q0 -45 -26.5 -71.5t-71.5 -26.5zM467 608q-45 0 -72 26.5t-27 71.5q0 44 27 71t72 27t71.5 -27t26.5 -71q0 -45 -26.5 -71.5t-71.5 -26.5zM332 136q55 0 88.5 37.5t33.5 99.5t-33.5 99.5t-88.5 37.5q-56 0 -89.5 -37.5t-33.5 -99.5t33.5 -99.5t89.5 -37.5z" />
    <glyph glyph-name="divide" unicode="&#xf7;" horiz-adv-x="581" 
d="M292 49q-43 0 -71 27.5t-28 70.5t28 70.5t71 27.5t70 -27.5t27 -70.5t-27 -70.5t-70 -27.5zM43 422h496v-139h-496v139zM292 461q-43 0 -71 27.5t-28 70.5t28 70.5t71 27.5t70 -27.5t27 -70.5t-27 -70.5t-70 -27.5z" />
    <glyph glyph-name="oslash" unicode="&#xf8;" horiz-adv-x="665" 
d="M552 474q38 -37 58.5 -87.5t20.5 -113.5q0 -64 -21.5 -116t-60.5 -89t-94 -57.5t-121 -20.5q-48 0 -88.5 10t-75.5 29l-33 -39l-57 43l33 38q-38 38 -58.5 88.5t-20.5 113.5t21.5 115t61 89t95 57.5t122.5 20.5q46 0 86.5 -10t74.5 -28l33 38l58 -42zM210 273
q0 -41 15 -71l166 194q-25 14 -58 14q-56 0 -89.5 -37.5t-33.5 -99.5zM333 136q55 0 88.5 37.5t33.5 99.5q0 40 -15 70l-166 -193q26 -14 59 -14z" />
    <glyph glyph-name="ugrave" unicode="&#xf9;" horiz-adv-x="641" 
d="M579 545v-545h-163l-3 57q-30 -34 -70.5 -50.5t-84.5 -16.5q-45 0 -82.5 15.5t-64 43.5t-41 67.5t-14.5 87.5v341h170v-316q0 -42 25 -67.5t67 -25.5t66.5 25.5t24.5 67.5v316h170zM279 618l-191 167h197l138 -167h-144z" />
    <glyph glyph-name="uacute" unicode="&#xfa;" horiz-adv-x="641" 
d="M579 545v-545h-163l-3 57q-30 -34 -70.5 -50.5t-84.5 -16.5q-45 0 -82.5 15.5t-64 43.5t-41 67.5t-14.5 87.5v341h170v-316q0 -42 25 -67.5t67 -25.5t66.5 25.5t24.5 67.5v316h170zM357 618h-144l138 167h197z" />
    <glyph glyph-name="ucircumflex" unicode="&#xfb;" horiz-adv-x="641" 
d="M579 545v-545h-163l-3 57q-30 -34 -70.5 -50.5t-84.5 -16.5q-45 0 -82.5 15.5t-64 43.5t-41 67.5t-14.5 87.5v341h170v-316q0 -42 25 -67.5t67 -25.5t66.5 25.5t24.5 67.5v316h170zM261 618h-156l132 167h160l131 -167h-155l-56 69z" />
    <glyph glyph-name="udieresis" unicode="&#xfc;" horiz-adv-x="641" 
d="M579 545v-545h-163l-3 57q-30 -34 -70.5 -50.5t-84.5 -16.5q-45 0 -82.5 15.5t-64 43.5t-41 67.5t-14.5 87.5v341h170v-316q0 -42 25 -67.5t67 -25.5t66.5 25.5t24.5 67.5v316h170zM185 608q-45 0 -72 26.5t-27 71.5q0 44 27 71t72 27t71.5 -27t26.5 -71
q0 -45 -26.5 -71.5t-71.5 -26.5zM452 608q-45 0 -72 26.5t-27 71.5q0 44 27 71t72 27t71.5 -27t26.5 -71q0 -45 -26.5 -71.5t-71.5 -26.5z" />
    <glyph glyph-name="yacute" unicode="&#xfd;" horiz-adv-x="621" 
d="M162 -230q-26 0 -49 4.5t-40 12.5l17 137q18 -9 44 -9q32 0 48.5 18.5t32.5 47.5l16 34l-227 530h186l128 -347l117 347h185l-239 -585q-18 -44 -38 -79.5t-45.5 -60t-58.5 -37.5t-77 -13zM347 785h197l-191 -167h-144z" />
    <glyph glyph-name="thorn" unicode="&#xfe;" 
d="M394 555q54 0 101.5 -20t82.5 -56.5t55.5 -88.5t20.5 -115q0 -64 -20.5 -116.5t-55.5 -90t-82.5 -58t-101.5 -20.5t-94 19.5t-68 54.5v-284h-170v1000h170v-298q28 35 68 54t94 19zM356 136q55 0 89 37.5t34 100.5q0 61 -34 98.5t-89 37.5q-56 0 -90 -37.5t-34 -99.5
t34 -99.5t90 -37.5z" />
    <glyph glyph-name="ydieresis" unicode="&#xff;" horiz-adv-x="621" 
d="M162 -230q-26 0 -49 4.5t-40 12.5l17 137q18 -9 44 -9q32 0 48.5 18.5t32.5 47.5l16 34l-227 530h186l128 -347l117 347h185l-239 -585q-18 -44 -38 -79.5t-45.5 -60t-58.5 -37.5t-77 -13zM182 608q-45 0 -72 26.5t-27 71.5q0 44 27 71t72 27t71.5 -27t26.5 -71
q0 -45 -26.5 -71.5t-71.5 -26.5zM449 608q-45 0 -72 26.5t-27 71.5q0 44 27 71t72 27t71.5 -27t26.5 -71q0 -45 -26.5 -71.5t-71.5 -26.5z" />
    <glyph glyph-name="Amacron" unicode="&#x100;" horiz-adv-x="774" 
d="M544 123h-313l-49 -123h-188l312 740h163l310 -740h-187zM577 807h-379v133h379v-133zM487 268l-99 254l-100 -254h199z" />
    <glyph glyph-name="amacron" unicode="&#x101;" horiz-adv-x="589" 
d="M292 555q54 0 98.5 -15t76 -43t49 -67.5t17.5 -87.5v-342h-164l-2 62q-27 -35 -66 -53.5t-82 -18.5t-79 12.5t-61 35.5t-39 55.5t-14 71.5q0 40 17 73t48 56t74.5 36t96.5 13q23 0 49 -2.5t52 -7.5q-2 44 -31.5 66.5t-83.5 22.5q-35 0 -63 -9t-53 -26l-72 100
q47 34 102 51t130 17zM491 612h-379v133h379v-133zM268 111q38 0 66 28.5t29 79.5q-21 4 -41 6t-38 2q-38 0 -60 -16.5t-22 -42.5t15.5 -41.5t50.5 -15.5z" />
    <glyph glyph-name="Abreve" unicode="&#x102;" horiz-adv-x="774" 
d="M544 123h-313l-49 -123h-188l312 740h163l310 -740h-187zM388 804q-43 0 -79 12.5t-61 35.5t-39 55.5t-14 72.5h127q0 -35 18.5 -57t47.5 -22q30 0 48 22t18 57h127q0 -40 -14 -72.5t-39 -55.5t-60.5 -35.5t-79.5 -12.5zM487 268l-99 254l-100 -254h199z" />
    <glyph glyph-name="abreve" unicode="&#x103;" horiz-adv-x="589" 
d="M292 555q54 0 98.5 -15t76 -43t49 -67.5t17.5 -87.5v-342h-164l-2 62q-27 -35 -66 -53.5t-82 -18.5t-79 12.5t-61 35.5t-39 55.5t-14 71.5q0 40 17 73t48 56t74.5 36t96.5 13q23 0 49 -2.5t52 -7.5q-2 44 -31.5 66.5t-83.5 22.5q-35 0 -63 -9t-53 -26l-72 100
q47 34 102 51t130 17zM302 609q-43 0 -79 12.5t-61 35.5t-39 55.5t-14 72.5h127q0 -35 18.5 -57t47.5 -22q30 0 48 22t18 57h127q0 -40 -14 -72.5t-39 -55.5t-60.5 -35.5t-79.5 -12.5zM268 111q38 0 66 28.5t29 79.5q-21 4 -41 6t-38 2q-38 0 -60 -16.5t-22 -42.5
t15.5 -41.5t50.5 -15.5z" />
    <glyph glyph-name="Aogonek" unicode="&#x104;" horiz-adv-x="774" 
d="M782 -202q-18 -13 -41 -20.5t-57 -7.5q-51 0 -80.5 26t-29.5 68q0 38 22.5 72.5t58.5 63.5h-63l-48 123h-313l-49 -123h-188l312 740h163l310 -740q-84 -53 -84 -107q0 -28 31 -28q12 0 23 4t19 10zM487 268l-99 254l-100 -254h199z" />
    <glyph glyph-name="aogonek" unicode="&#x105;" horiz-adv-x="589" 
d="M536 -202q-19 -13 -41.5 -20.5t-57.5 -7.5q-50 0 -80 26t-30 68q0 37 22 70.5t62 65.5h-42l-2 62q-27 -35 -66 -53.5t-82 -18.5t-79 12.5t-61 35.5t-39 55.5t-14 71.5q0 40 17 73t48 56t74.5 36t96.5 13q23 0 49 -2.5t52 -7.5q-2 44 -31.5 66.5t-83.5 22.5q-35 0 -63 -9
t-53 -26l-72 100q47 34 102 51t130 17q54 0 98.5 -15t76 -43t49 -67.5t17.5 -87.5v-342q-84 -53 -84 -107q0 -28 31 -28q12 0 22.5 4t19.5 10zM268 111q38 0 66 28.5t29 79.5q-21 4 -41 6t-38 2q-38 0 -60 -16.5t-22 -42.5t15.5 -41.5t50.5 -15.5z" />
    <glyph glyph-name="Cacute" unicode="&#x106;" horiz-adv-x="774" 
d="M441 -10q-90 0 -164 27.5t-127.5 78t-82.5 121t-29 156.5q0 85 29 154.5t81.5 119t127 76.5t164.5 27q91 0 166 -28.5t132 -89.5l-110 -113q-28 39 -76.5 62.5t-110.5 23.5q-50 0 -90.5 -17t-69.5 -47.5t-45 -73.5t-16 -96t16.5 -96.5t46 -74.5t71 -48t91.5 -17
q72 0 119 29.5t81 82.5l118 -106q-113 -151 -322 -151zM463 980h197l-191 -167h-144z" />
    <glyph glyph-name="cacute" unicode="&#x107;" horiz-adv-x="554" 
d="M330 -10q-67 0 -121.5 20.5t-93.5 57.5t-60.5 89t-21.5 116q0 63 21.5 115t61 89t95 57.5t123.5 20.5q55 0 104 -17.5t87 -47.5l-96 -115q-17 16 -39.5 25.5t-52.5 9.5q-58 0 -92.5 -37.5t-34.5 -99.5t34 -99.5t93 -37.5q35 0 62.5 10.5t47.5 33.5l96 -113
q-40 -39 -95 -58t-118 -19zM351 785h197l-191 -167h-144z" />
    <glyph glyph-name="Cdotaccent" unicode="&#x10a;" horiz-adv-x="774" 
d="M441 -10q-90 0 -164 27.5t-127.5 78t-82.5 121t-29 156.5q0 85 29 154.5t81.5 119t127 76.5t164.5 27q91 0 166 -28.5t132 -89.5l-110 -113q-28 39 -76.5 62.5t-110.5 23.5q-50 0 -90.5 -17t-69.5 -47.5t-45 -73.5t-16 -96t16.5 -96.5t46 -74.5t71 -48t91.5 -17
q72 0 119 29.5t81 82.5l118 -106q-113 -151 -322 -151zM431 803q-43 0 -71 27.5t-28 70.5t28 70.5t71 27.5t70.5 -27.5t27.5 -70.5t-27.5 -70.5t-70.5 -27.5z" />
    <glyph glyph-name="cdotaccent" unicode="&#x10b;" horiz-adv-x="554" 
d="M330 -10q-67 0 -121.5 20.5t-93.5 57.5t-60.5 89t-21.5 116q0 63 21.5 115t61 89t95 57.5t123.5 20.5q55 0 104 -17.5t87 -47.5l-96 -115q-17 16 -39.5 25.5t-52.5 9.5q-58 0 -92.5 -37.5t-34.5 -99.5t34 -99.5t93 -37.5q35 0 62.5 10.5t47.5 33.5l96 -113
q-40 -39 -95 -58t-118 -19zM319 608q-43 0 -71 27.5t-28 70.5t28 70.5t71 27.5t70.5 -27.5t27.5 -70.5t-27.5 -70.5t-70.5 -27.5z" />
    <glyph glyph-name="Ccaron" unicode="&#x10c;" horiz-adv-x="774" 
d="M763 141q-113 -151 -322 -151q-90 0 -164 27.5t-127.5 78t-82.5 121t-29 156.5q0 85 29 154.5t81.5 119t127 76.5t164.5 27q91 0 166 -28.5t132 -89.5l-110 -113q-28 39 -76.5 62.5t-110.5 23.5q-50 0 -90.5 -17t-69.5 -47.5t-45 -73.5t-16 -96t16.5 -96.5t46 -74.5
t71 -48t91.5 -17q72 0 119 29.5t81 82.5zM218 980h156l56 -69l56 69h155l-131 -167h-160z" />
    <glyph glyph-name="ccaron" unicode="&#x10d;" horiz-adv-x="554" 
d="M543 67q-40 -39 -95 -58t-118 -19q-67 0 -121.5 20.5t-93.5 57.5t-60.5 89t-21.5 116q0 63 21.5 115t61 89t95 57.5t123.5 20.5q55 0 104 -17.5t87 -47.5l-96 -115q-17 16 -39.5 25.5t-52.5 9.5q-58 0 -92.5 -37.5t-34.5 -99.5t34 -99.5t93 -37.5q35 0 62.5 10.5
t47.5 33.5zM106 785h156l56 -69l56 69h155l-131 -167h-160z" />
    <glyph glyph-name="Dcaron" unicode="&#x10e;" horiz-adv-x="800" 
d="M393 740q83 0 151 -26.5t116 -75t74.5 -116.5t26.5 -151t-26.5 -151.5t-74.5 -117t-116 -75.5t-151 -27h-312v740h312zM136 980h156l56 -69l56 69h155l-131 -167h-160zM396 145q41 0 75 16.5t58 46t37 71t13 92.5t-13 92t-37 70.5t-58 45.5t-75 16h-139v-450h139z" />
    <glyph glyph-name="dcaron" unicode="&#x10f;" horiz-adv-x="709" 
d="M456 780h170v-780h-163l-3 67q-28 -37 -69 -57t-97 -20q-54 0 -101.5 20t-82.5 56.5t-55.5 88.5t-20.5 115q0 64 20.5 116.5t55.5 90t82.5 58t101.5 20.5t94 -19t68 -54v298zM868 780l-66 -187h-128l42 187h152zM333 136q56 0 89.5 37t33.5 100q0 61 -33.5 99t-89.5 38
t-89.5 -38t-33.5 -100q0 -61 33.5 -98.5t89.5 -37.5z" />
    <glyph glyph-name="Dcroat" unicode="&#x110;" horiz-adv-x="812" 
d="M405 740q83 0 151 -26.5t116 -75t74.5 -116.5t26.5 -151t-26.5 -151.5t-74.5 -117t-116 -75.5t-151 -27h-312v311h-73v121h73v308h312zM408 145q41 0 75 16.5t58 46t37 71t13 92.5t-13 92t-37 70.5t-58 45.5t-75 16h-139v-163h147v-121h-147v-166h139z" />
    <glyph glyph-name="dcroat" unicode="&#x111;" 
d="M698 594h-72v-594h-163l-3 67q-28 -37 -69 -57t-97 -20q-54 0 -101.5 20t-82.5 56.5t-55.5 88.5t-20.5 115q0 64 20.5 116.5t55.5 90t82.5 58t101.5 20.5t94 -19t68 -54v112h-154v121h154v65h170v-65h72v-121zM333 136q56 0 89.5 37t33.5 100q0 61 -33.5 99t-89.5 38
t-89.5 -38t-33.5 -100q0 -61 33.5 -98.5t89.5 -37.5z" />
    <glyph glyph-name="Emacron" unicode="&#x112;" horiz-adv-x="664" 
d="M616 145v-145h-535v740h527v-145h-351v-148h316v-145h-316v-157h359zM534 807h-379v133h379v-133z" />
    <glyph glyph-name="emacron" unicode="&#x113;" horiz-adv-x="626" 
d="M593 281q0 -17 -1.5 -35.5t-3.5 -32.5h-373q8 -42 32 -66t72 -24q35 0 63 13.5t48 36.5l132 -64q-35 -54 -97.5 -86.5t-142.5 -32.5q-64 0 -117.5 20t-91 56t-58.5 87t-21 114q0 65 20 118t57 90.5t88.5 58.5t114.5 21t114 -19.5t88 -55.5t57 -86.5t20 -112.5zM503 612
h-379v133h379v-133zM314 422q-43 0 -66.5 -24.5t-31.5 -70.5h198q-17 95 -100 95z" />
    <glyph glyph-name="Edotaccent" unicode="&#x116;" horiz-adv-x="664" 
d="M616 145v-145h-535v740h527v-145h-351v-148h316v-145h-316v-157h359zM345 803q-43 0 -71 27.5t-28 70.5t28 70.5t71 27.5t70.5 -27.5t27.5 -70.5t-27.5 -70.5t-70.5 -27.5z" />
    <glyph glyph-name="edotaccent" unicode="&#x117;" horiz-adv-x="626" 
d="M593 281q0 -17 -1.5 -35.5t-3.5 -32.5h-373q8 -42 32 -66t72 -24q35 0 63 13.5t48 36.5l132 -64q-35 -54 -97.5 -86.5t-142.5 -32.5q-64 0 -117.5 20t-91 56t-58.5 87t-21 114q0 65 20 118t57 90.5t88.5 58.5t114.5 21t114 -19.5t88 -55.5t57 -86.5t20 -112.5zM314 608
q-43 0 -71 27.5t-28 70.5t28 70.5t71 27.5t70.5 -27.5t27.5 -70.5t-27.5 -70.5t-70.5 -27.5zM314 422q-43 0 -66.5 -24.5t-31.5 -70.5h198q-17 95 -100 95z" />
    <glyph glyph-name="Eogonek" unicode="&#x118;" horiz-adv-x="664" 
d="M619 -202q-19 -13 -41.5 -20.5t-57.5 -7.5q-50 0 -80 26t-30 68q0 37 22 70.5t62 65.5h-413v740h527v-145h-351v-148h316v-145h-316v-157h359v-145q-84 -53 -84 -107q0 -28 31 -28q12 0 22.5 4t19.5 10z" />
    <glyph glyph-name="eogonek" unicode="&#x119;" horiz-adv-x="626" 
d="M593 281q0 -17 -1.5 -35.5t-3.5 -32.5h-373q8 -42 32 -66t72 -24q35 0 63 13.5t48 36.5l132 -64q-26 -39 -66.5 -67t-91.5 -42q-84 -53 -84 -107q0 -28 31 -28q12 0 22.5 4t19.5 10l14 -81q-19 -13 -41.5 -20.5t-57.5 -7.5q-50 0 -80 26t-30 68q0 35 19.5 67t55.5 62
q-54 7 -98.5 29.5t-75.5 58t-48 82.5t-17 104q0 65 20 118t57 90.5t88.5 58.5t114.5 21t114 -19.5t88 -55.5t57 -86.5t20 -112.5zM314 422q-43 0 -66.5 -24.5t-31.5 -70.5h198q-17 95 -100 95z" />
    <glyph glyph-name="Ecaron" unicode="&#x11a;" horiz-adv-x="664" 
d="M616 145v-145h-535v740h527v-145h-351v-148h316v-145h-316v-157h359zM132 980h156l56 -69l56 69h155l-131 -167h-160z" />
    <glyph glyph-name="ecaron" unicode="&#x11b;" horiz-adv-x="626" 
d="M593 281q0 -17 -1.5 -35.5t-3.5 -32.5h-373q8 -42 32 -66t72 -24q35 0 63 13.5t48 36.5l132 -64q-35 -54 -97.5 -86.5t-142.5 -32.5q-64 0 -117.5 20t-91 56t-58.5 87t-21 114q0 65 20 118t57 90.5t88.5 58.5t114.5 21t114 -19.5t88 -55.5t57 -86.5t20 -112.5zM101 785
h156l56 -69l56 69h155l-131 -167h-160zM314 422q-43 0 -66.5 -24.5t-31.5 -70.5h198q-17 95 -100 95z" />
    <glyph glyph-name="Gbreve" unicode="&#x11e;" horiz-adv-x="827" 
d="M801 430q1 -15 1.5 -30t0.5 -30q0 -85 -26 -155t-75 -120t-117.5 -77.5t-154.5 -27.5q-88 0 -160 27.5t-123.5 77t-79.5 120t-28 155.5q0 86 28 156t79 119.5t123 77t161 27.5q83 0 151 -21.5t119 -62.5l-115 -110q-49 49 -153 49q-48 0 -87 -17t-66.5 -47.5t-43 -74
t-15.5 -96.5t15 -96.5t43 -74t66.5 -47.5t86.5 -17q78 0 127.5 40.5t60.5 109.5h-167v145h349zM430 804q-43 0 -79 12.5t-61 35.5t-39 55.5t-14 72.5h127q0 -35 18.5 -57t47.5 -22q30 0 48 22t18 57h127q0 -40 -14 -72.5t-39 -55.5t-60.5 -35.5t-79.5 -12.5z" />
    <glyph glyph-name="gbreve" unicode="&#x11f;" 
d="M627 545v-488q0 -65 -24 -118t-67.5 -90.5t-105.5 -58t-137 -20.5q-73 0 -135.5 17t-108.5 50l37 133q47 -31 97.5 -43t104.5 -12q77 0 123 39t46 104v5q-28 -35 -68 -54t-94 -19t-101.5 20.5t-82.5 58t-55.5 90t-20.5 116.5q0 63 20.5 115t55.5 88.5t82.5 56.5t101.5 20
q56 0 97 -20t69 -57l3 67h163zM343 609q-43 0 -79 12.5t-61 35.5t-39 55.5t-14 72.5h127q0 -35 18.5 -57t47.5 -22q30 0 48 22t18 57h127q0 -40 -14 -72.5t-39 -55.5t-60.5 -35.5t-79.5 -12.5zM334 136q56 0 89.5 37.5t33.5 99.5t-33.5 99.5t-89.5 37.5t-89.5 -37.5
t-33.5 -98.5q0 -63 33.5 -100.5t89.5 -37.5z" />
    <glyph glyph-name="Gdotaccent" unicode="&#x120;" horiz-adv-x="827" 
d="M801 430q1 -15 1.5 -30t0.5 -30q0 -85 -26 -155t-75 -120t-117.5 -77.5t-154.5 -27.5q-88 0 -160 27.5t-123.5 77t-79.5 120t-28 155.5q0 86 28 156t79 119.5t123 77t161 27.5q83 0 151 -21.5t119 -62.5l-115 -110q-49 49 -153 49q-48 0 -87 -17t-66.5 -47.5t-43 -74
t-15.5 -96.5t15 -96.5t43 -74t66.5 -47.5t86.5 -17q78 0 127.5 40.5t60.5 109.5h-167v145h349zM430 803q-43 0 -71 27.5t-28 70.5t28 70.5t71 27.5t70.5 -27.5t27.5 -70.5t-27.5 -70.5t-70.5 -27.5z" />
    <glyph glyph-name="gdotaccent" unicode="&#x121;" 
d="M627 545v-488q0 -65 -24 -118t-67.5 -90.5t-105.5 -58t-137 -20.5q-73 0 -135.5 17t-108.5 50l37 133q47 -31 97.5 -43t104.5 -12q77 0 123 39t46 104v5q-28 -35 -68 -54t-94 -19t-101.5 20.5t-82.5 58t-55.5 90t-20.5 116.5q0 63 20.5 115t55.5 88.5t82.5 56.5t101.5 20
q56 0 97 -20t69 -57l3 67h163zM343 608q-43 0 -71 27.5t-28 70.5t28 70.5t71 27.5t70.5 -27.5t27.5 -70.5t-27.5 -70.5t-70.5 -27.5zM334 136q56 0 89.5 37.5t33.5 99.5t-33.5 99.5t-89.5 37.5t-89.5 -37.5t-33.5 -98.5q0 -63 33.5 -100.5t89.5 -37.5z" />
    <glyph glyph-name="uni0122" unicode="&#x122;" horiz-adv-x="827" 
d="M801 430q1 -15 1.5 -30t0.5 -30q0 -85 -26 -155t-75 -120t-117.5 -77.5t-154.5 -27.5q-88 0 -160 27.5t-123.5 77t-79.5 120t-28 155.5q0 86 28 156t79 119.5t123 77t161 27.5q83 0 151 -21.5t119 -62.5l-115 -110q-49 49 -153 49q-48 0 -87 -17t-66.5 -47.5t-43 -74
t-15.5 -96.5t15 -96.5t43 -74t66.5 -47.5t86.5 -17q78 0 127.5 40.5t60.5 109.5h-167v145h349zM340 -52h152l-62 -168h-128z" />
    <glyph glyph-name="uni0123" unicode="&#x123;" 
d="M627 545v-488q0 -65 -24 -118t-67.5 -90.5t-105.5 -58t-137 -20.5q-73 0 -135.5 17t-108.5 50l37 133q47 -31 97.5 -43t104.5 -12q77 0 123 39t46 104v5q-28 -35 -68 -54t-94 -19t-101.5 20.5t-82.5 58t-55.5 90t-20.5 116.5q0 63 20.5 115t55.5 88.5t82.5 56.5t101.5 20
q56 0 97 -20t69 -57l3 67h163zM405 593h-152l67 187h128zM334 136q56 0 89.5 37.5t33.5 99.5t-33.5 99.5t-89.5 37.5t-89.5 -37.5t-33.5 -98.5q0 -63 33.5 -100.5t89.5 -37.5z" />
    <glyph glyph-name="Hbar" unicode="&#x126;" horiz-adv-x="895" 
d="M871 534h-67v-534h-175v305h-363v-305h-176v534h-65v121h65v85h176v-85h363v85h175v-85h67v-121zM629 534h-363v-84h363v84z" />
    <glyph glyph-name="hbar" unicode="&#x127;" horiz-adv-x="665" 
d="M396 555q48 0 87.5 -15.5t67 -43t43 -67t15.5 -87.5v-342h-170v316q0 43 -28 68.5t-75 25.5q-48 0 -76 -25.5t-28 -68.5v-316h-170v594h-72v121h72v65h170v-65h154v-121h-154v-106q32 34 74.5 50.5t89.5 16.5z" />
    <glyph glyph-name="Imacron" unicode="&#x12a;" horiz-adv-x="338" 
d="M81 740h176v-740h-176v740zM-21 940h379v-133h-379v133z" />
    <glyph glyph-name="imacron" unicode="&#x12b;" horiz-adv-x="295" 
d="M62 545h170v-545h-170v545zM-41 745h379v-133h-379v133z" />
    <glyph glyph-name="Iogonek" unicode="&#x12e;" horiz-adv-x="338" 
d="M260 -202q-19 -13 -41.5 -20.5t-57.5 -7.5q-50 0 -80 26t-30 68q0 37 22 70.5t62 65.5h-54v740h176v-740q-84 -53 -84 -107q0 -28 31 -28q12 0 22.5 4t19.5 10z" />
    <glyph glyph-name="iogonek" unicode="&#x12f;" horiz-adv-x="295" 
d="M180 -135q12 0 22.5 4t19.5 10l14 -81q-19 -13 -41.5 -20.5t-57.5 -7.5q-50 0 -80 26t-30 68q0 37 22 70.5t62 65.5h-49v545h170v-469l1 1v-77q-84 -53 -84 -107q0 -28 31 -28zM149 608q-43 0 -71 27.5t-28 70.5t28 70.5t71 27.5t70.5 -27.5t27.5 -70.5t-27.5 -70.5
t-70.5 -27.5z" />
    <glyph glyph-name="Idotaccent" unicode="&#x130;" horiz-adv-x="338" 
d="M81 740h176v-740h-176v740zM169 803q-43 0 -71 27.5t-28 70.5t28 70.5t71 27.5t70.5 -27.5t27.5 -70.5t-27.5 -70.5t-70.5 -27.5z" />
    <glyph glyph-name="dotlessi" unicode="&#x131;" horiz-adv-x="295" 
d="M62 545h170v-545h-170v545z" />
    <glyph glyph-name="uni0136" unicode="&#x136;" horiz-adv-x="722" 
d="M733 0h-210l-234 305h-32v-305h-176v740h176v-290h28l223 290h210l-284 -360zM302 -52h152l-62 -168h-128z" />
    <glyph glyph-name="uni0137" unicode="&#x137;" horiz-adv-x="626" 
d="M640 0h-215l-181 217h-12v-217h-170v780h170v-424h15l166 189h214l-240 -258zM249 -52h152l-62 -168h-128z" />
    <glyph glyph-name="Lacute" unicode="&#x139;" horiz-adv-x="587" 
d="M571 145v-145h-490v740h176v-595h314zM207 813h-144l138 167h197z" />
    <glyph glyph-name="lacute" unicode="&#x13a;" horiz-adv-x="295" 
d="M63 780h170v-780h-170v780zM181 1020h197l-191 -167h-144z" />
    <glyph glyph-name="uni013B" unicode="&#x13b;" horiz-adv-x="587" 
d="M571 145v-145h-490v740h176v-595h314zM224 -52h152l-62 -168h-128z" />
    <glyph glyph-name="uni013C" unicode="&#x13c;" horiz-adv-x="295" 
d="M63 780h170v-780h-170v780zM67 -52h152l-62 -168h-128z" />
    <glyph glyph-name="Lcaron" unicode="&#x13d;" horiz-adv-x="605" 
d="M257 145h314v-145h-490v740h176v-595zM498 517h-153l50 223h177z" />
    <glyph glyph-name="lcaron" unicode="&#x13e;" horiz-adv-x="316" 
d="M63 780h170v-780h-170v780zM323 780h152l-66 -187h-128z" />
    <glyph glyph-name="Lslash" unicode="&#x141;" horiz-adv-x="591" 
d="M575 145v-145h-490v243l-30 -21v136l30 21v361h176v-260l82 58v-135l-82 -58v-200h314z" />
    <glyph glyph-name="lslash" unicode="&#x142;" horiz-adv-x="357" 
d="M323 403l-59 -42v-361h-170v263l-59 -41v136l59 41v381h170v-284l59 42v-135z" />
    <glyph glyph-name="Nacute" unicode="&#x143;" horiz-adv-x="883" 
d="M81 740h109l440 -443l-4 443h176v-740h-108l-441 444l4 -444h-176v740zM474 980h197l-191 -167h-144z" />
    <glyph glyph-name="nacute" unicode="&#x144;" horiz-adv-x="665" 
d="M396 555q48 0 87.5 -15.5t67 -43t43 -67t15.5 -87.5v-342h-170v316q0 43 -28 68.5t-75 25.5q-48 0 -76 -25.5t-28 -68.5v-316h-170v545h164l2 -61q32 36 76 53.5t92 17.5zM377 618h-144l138 167h197z" />
    <glyph glyph-name="uni0145" unicode="&#x145;" horiz-adv-x="883" 
d="M81 740h109l440 -443l-4 443h176v-740h-108l-441 444l4 -444h-176v740zM361 -52h152l-62 -168h-128z" />
    <glyph glyph-name="uni0146" unicode="&#x146;" horiz-adv-x="665" 
d="M396 555q48 0 87.5 -15.5t67 -43t43 -67t15.5 -87.5v-342h-170v316q0 43 -28 68.5t-75 25.5q-48 0 -76 -25.5t-28 -68.5v-316h-170v545h164l2 -61q32 36 76 53.5t92 17.5zM255 -52h152l-62 -168h-128z" />
    <glyph glyph-name="Ncaron" unicode="&#x147;" horiz-adv-x="883" 
d="M802 740v-740h-108l-441 444l4 -444h-176v740h109l440 -443l-4 443h176zM229 980h156l56 -69l56 69h155l-131 -167h-160z" />
    <glyph glyph-name="ncaron" unicode="&#x148;" horiz-adv-x="665" 
d="M396 555q48 0 87.5 -15.5t67 -43t43 -67t15.5 -87.5v-342h-170v316q0 43 -28 68.5t-75 25.5q-48 0 -76 -25.5t-28 -68.5v-316h-170v545h164l2 -61q32 36 76 53.5t92 17.5zM126 785h156l56 -69l56 69h155l-131 -167h-160z" />
    <glyph glyph-name="Eng" unicode="&#x14a;" horiz-adv-x="883" 
d="M802 740v-792q0 -40 -15.5 -73t-43 -56t-65.5 -36t-83 -13q-97 0 -152 61l46 117q32 -33 71 -33q32 0 49 17.5t17 46.5v89l-373 376l4 -444h-176v740h109l440 -443l-4 443h176z" />
    <glyph glyph-name="eng" unicode="&#x14b;" horiz-adv-x="665" 
d="M396 555q48 0 87.5 -15.5t67 -43t43 -67t15.5 -87.5v-394q0 -40 -13 -73t-37 -56t-57.5 -36t-74.5 -13q-32 0 -61 4.5t-52 12.5l12 132q21 -4 48 -4q29 0 47 20t18 53v328q0 43 -28 68.5t-75 25.5q-48 0 -76 -25.5t-28 -68.5v-316h-170v545h164l2 -61q32 36 76 53.5
t92 17.5z" />
    <glyph glyph-name="Omacron" unicode="&#x14c;" horiz-adv-x="873" 
d="M438 -10q-90 0 -163.5 27.5t-126 77t-81.5 120t-29 155.5q0 86 29 156t81.5 119.5t126 77t163.5 27.5q89 0 162 -27.5t125.5 -77t81 -119.5t28.5 -156q0 -85 -28.5 -155.5t-81 -120t-125.5 -77t-162 -27.5zM248 940h379v-133h-379v133zM438 135q48 0 88 17t68.5 47.5
t44 74t15.5 96.5t-15.5 96.5t-44 74t-68.5 47.5t-88 17q-49 0 -89.5 -17t-69 -47.5t-44 -74t-15.5 -96.5t15.5 -96.5t44 -74t69 -47.5t89.5 -17z" />
    <glyph glyph-name="omacron" unicode="&#x14d;" horiz-adv-x="663" 
d="M333 -10q-67 0 -122.5 20.5t-95 57.5t-61 89t-21.5 116q0 63 21.5 115t61 89t95 57.5t122.5 20.5q66 0 121 -20.5t94 -57.5t60.5 -89t21.5 -115q0 -64 -21.5 -116t-60.5 -89t-94 -57.5t-121 -20.5zM143 745h379v-133h-379v133zM332 136q55 0 88.5 37.5t33.5 99.5
t-33.5 99.5t-88.5 37.5q-56 0 -89.5 -37.5t-33.5 -99.5t33.5 -99.5t89.5 -37.5z" />
    <glyph glyph-name="Ohungarumlaut" unicode="&#x150;" horiz-adv-x="873" 
d="M438 -10q-90 0 -163.5 27.5t-126 77t-81.5 120t-29 155.5q0 86 29 156t81.5 119.5t126 77t163.5 27.5q89 0 162 -27.5t125.5 -77t81 -119.5t28.5 -156q0 -85 -28.5 -155.5t-81 -120t-125.5 -77t-162 -27.5zM352 980h196l-158 -167h-144zM575 980h196l-159 -167h-143z
M438 135q48 0 88 17t68.5 47.5t44 74t15.5 96.5t-15.5 96.5t-44 74t-68.5 47.5t-88 17q-49 0 -89.5 -17t-69 -47.5t-44 -74t-15.5 -96.5t15.5 -96.5t44 -74t69 -47.5t89.5 -17z" />
    <glyph glyph-name="ohungarumlaut" unicode="&#x151;" horiz-adv-x="663" 
d="M333 -10q-67 0 -122.5 20.5t-95 57.5t-61 89t-21.5 116q0 63 21.5 115t61 89t95 57.5t122.5 20.5q66 0 121 -20.5t94 -57.5t60.5 -89t21.5 -115q0 -64 -21.5 -116t-60.5 -89t-94 -57.5t-121 -20.5zM247 785h196l-158 -167h-144zM470 785h196l-159 -167h-143zM332 136
q55 0 88.5 37.5t33.5 99.5t-33.5 99.5t-88.5 37.5q-56 0 -89.5 -37.5t-33.5 -99.5t33.5 -99.5t89.5 -37.5z" />
    <glyph glyph-name="OE" unicode="&#x152;" horiz-adv-x="1243" 
d="M1195 145v-145h-535v63q-47 -35 -106 -54t-128 -19q-87 0 -158.5 27.5t-122 77t-78.5 120t-28 155.5q0 86 28 156t78.5 119.5t122 77t158.5 27.5q69 0 128 -19t106 -54v63h527v-145h-351v-148h316v-145h-316v-157h359zM438 135q49 0 89 17t68.5 47.5t44 74t15.5 96.5
t-15.5 96.5t-44 74t-68.5 47.5t-89 17t-89 -17t-68.5 -47.5t-44 -74t-15.5 -96.5t15.5 -96.5t44 -74t68.5 -47.5t89 -17z" />
    <glyph glyph-name="oe" unicode="&#x153;" horiz-adv-x="1047" 
d="M1013 281q0 -17 -1 -35.5t-3 -32.5h-374q8 -42 32 -66t73 -24q35 0 62.5 13.5t47.5 36.5l132 -64q-33 -54 -92 -86.5t-135 -32.5q-70 0 -124.5 27t-89.5 76q-36 -49 -92 -76t-128 -27q-64 0 -117 20.5t-91 57.5t-58.5 89t-20.5 116q0 63 20.5 115t58.5 89t91 57.5
t117 20.5q72 0 128.5 -27.5t92.5 -76.5q33 49 85.5 76.5t118.5 27.5q60 0 109 -19.5t84.5 -55.5t54.5 -86.5t19 -112.5zM333 136q55 0 88.5 37.5t33.5 99.5t-33.5 99.5t-88.5 37.5q-56 0 -89.5 -37.5t-33.5 -99.5t33.5 -99.5t89.5 -37.5zM734 422q-42 0 -66 -24.5t-32 -70.5
h199q-17 95 -101 95z" />
    <glyph glyph-name="Racute" unicode="&#x154;" horiz-adv-x="748" 
d="M375 256h-118v-256h-176v740h330q60 0 108.5 -17.5t83.5 -49t54 -76.5t19 -99q0 -70 -33.5 -123t-93.5 -84l188 -291h-206zM383 813h-144l138 167h197zM257 401h119q54 0 86.5 26.5t32.5 70.5t-28 70.5t-75 26.5h-135v-194z" />
    <glyph glyph-name="racute" unicode="&#x155;" horiz-adv-x="427" 
d="M229 479q32 36 81 56t110 20l-11 -156q-39 0 -71.5 -8.5t-56 -24.5t-36.5 -37.5t-13 -48.5v-280h-170v545h164zM270 618h-144l138 167h197z" />
    <glyph glyph-name="uni0156" unicode="&#x156;" horiz-adv-x="748" 
d="M737 0h-206l-156 256h-118v-256h-176v740h330q60 0 108.5 -17.5t83.5 -49t54 -76.5t19 -99q0 -70 -33.5 -123t-93.5 -84zM306 -52h152l-62 -168h-128zM257 401h119q54 0 86.5 26.5t32.5 70.5t-28 70.5t-75 26.5h-135v-194z" />
    <glyph glyph-name="uni0157" unicode="&#x157;" horiz-adv-x="427" 
d="M229 479q32 36 81 56t110 20l-11 -156q-39 0 -71.5 -8.5t-56 -24.5t-36.5 -37.5t-13 -48.5v-280h-170v545h164zM109 -52h152l-62 -168h-128z" />
    <glyph glyph-name="Rcaron" unicode="&#x158;" horiz-adv-x="748" 
d="M375 256h-118v-256h-176v740h330q60 0 108.5 -17.5t83.5 -49t54 -76.5t19 -99q0 -70 -33.5 -123t-93.5 -84l188 -291h-206zM132 980h156l56 -69l56 69h155l-131 -167h-160zM257 401h119q54 0 86.5 26.5t32.5 70.5t-28 70.5t-75 26.5h-135v-194z" />
    <glyph glyph-name="rcaron" unicode="&#x159;" horiz-adv-x="427" 
d="M229 479q32 36 81 56t110 20l-11 -156q-39 0 -71.5 -8.5t-56 -24.5t-36.5 -37.5t-13 -48.5v-280h-170v545h164zM19 785h156l56 -69l56 69h155l-131 -167h-160z" />
    <glyph glyph-name="Sacute" unicode="&#x15a;" horiz-adv-x="661" 
d="M330 -10q-80 0 -150.5 24.5t-124.5 71.5l66 118q50 -38 100.5 -53.5t98.5 -15.5q60 0 91.5 16.5t31.5 49.5q0 36 -37 55t-98 35l-39 10q-49 13 -90 30.5t-71 42.5t-46.5 59.5t-16.5 80.5q0 53 20.5 96.5t58 74.5t90.5 48t117 17q69 0 134.5 -20t124.5 -65l-77 -122
q-42 32 -85.5 47t-94.5 15q-49 0 -77.5 -16.5t-28.5 -45.5q0 -34 34.5 -51t86.5 -31l39 -11q44 -12 87 -31t76.5 -47t54 -66t20.5 -88q0 -51 -21.5 -93t-60 -72t-93 -46.5t-120.5 -16.5zM364 980h197l-191 -167h-144z" />
    <glyph glyph-name="sacute" unicode="&#x15b;" horiz-adv-x="531" 
d="M257 -10q-65 0 -120 16.5t-97 51.5l64 103q41 -22 79 -30.5t76 -8.5q28 0 45.5 9t17.5 26q0 18 -22.5 28.5t-59.5 20.5l-39 10q-36 9 -65.5 20.5t-50.5 29t-32.5 41.5t-11.5 57q0 43 16 78.5t46 60.5t71.5 38.5t92.5 13.5q66 0 120 -14t96 -43l-71 -110q-64 34 -134 34
q-29 0 -46.5 -8t-17.5 -23q0 -17 20 -26.5t51 -17.5l38 -10q37 -9 68.5 -22.5t54 -33.5t35.5 -47.5t13 -64.5q0 -40 -17 -73.5t-48 -56.5t-75 -36t-97 -13zM300 785h197l-191 -167h-144z" />
    <glyph glyph-name="Scedilla" unicode="&#x15e;" horiz-adv-x="661" 
d="M625 218q0 -46 -17.5 -84.5t-49 -68t-76.5 -48t-100 -24.5l-26 -42q44 -4 69.5 -27.5t25.5 -58.5q0 -42 -36.5 -68.5t-99.5 -26.5q-30 0 -57.5 6.5t-44.5 16.5l29 60q10 -7 24 -11.5t31 -4.5q21 0 32.5 8t11.5 19t-10.5 17t-27.5 6q-16 0 -32 -7l-21 37l39 75
q-68 5 -127 29t-107 65l66 118q50 -38 100.5 -53.5t98.5 -15.5q60 0 91.5 16.5t31.5 49.5q0 36 -37 55t-98 35l-39 10q-49 13 -90 30.5t-71 42.5t-46.5 59.5t-16.5 80.5q0 53 20.5 96.5t58 74.5t90.5 48t117 17q69 0 134.5 -20t124.5 -65l-77 -122q-42 32 -85.5 47t-94.5 15
q-49 0 -77.5 -16.5t-28.5 -45.5q0 -34 34.5 -51t86.5 -31l39 -11q44 -12 87 -31t76.5 -47t54 -66t20.5 -88z" />
    <glyph glyph-name="scedilla" unicode="&#x15f;" horiz-adv-x="531" 
d="M494 169q0 -70 -48.5 -116t-131.5 -59l-26 -43q44 -4 69.5 -27.5t25.5 -58.5q0 -42 -36.5 -68.5t-99.5 -26.5q-30 0 -57.5 6.5t-44.5 16.5l29 60q10 -7 24 -11.5t31 -4.5q21 0 32.5 8t11.5 19t-10.5 17t-27.5 6q-16 0 -32 -7l-21 37l39 74q-54 5 -100 21.5t-81 45.5
l64 103q41 -22 79 -30.5t76 -8.5q28 0 45.5 9t17.5 26q0 18 -22.5 28.5t-59.5 20.5l-39 10q-36 9 -65.5 20.5t-50.5 29t-32.5 41.5t-11.5 57q0 43 16 78.5t46 60.5t71.5 38.5t92.5 13.5q66 0 120 -14t96 -43l-71 -110q-64 34 -134 34q-29 0 -46.5 -8t-17.5 -23
q0 -17 20 -26.5t51 -17.5l38 -10q37 -9 68.5 -22.5t54 -33.5t35.5 -47.5t13 -64.5z" />
    <glyph glyph-name="Scaron" unicode="&#x160;" horiz-adv-x="661" 
d="M387 450q44 -12 87 -31t76.5 -47t54 -66t20.5 -88q0 -51 -21.5 -93t-60 -72t-93 -46.5t-120.5 -16.5q-80 0 -150.5 24.5t-124.5 71.5l66 118q50 -38 100.5 -53.5t98.5 -15.5q60 0 91.5 16.5t31.5 49.5q0 36 -37 55t-98 35l-39 10q-49 13 -90 30.5t-71 42.5t-46.5 59.5
t-16.5 80.5q0 53 20.5 96.5t58 74.5t90.5 48t117 17q69 0 134.5 -20t124.5 -65l-77 -122q-42 32 -85.5 47t-94.5 15q-49 0 -77.5 -16.5t-28.5 -45.5q0 -34 34.5 -51t86.5 -31zM119 980h156l56 -69l56 69h155l-131 -167h-160z" />
    <glyph glyph-name="scaron" unicode="&#x161;" horiz-adv-x="531" 
d="M323 337q37 -9 68.5 -22.5t54 -33.5t35.5 -47.5t13 -64.5q0 -40 -17 -73.5t-48 -56.5t-75 -36t-97 -13q-65 0 -120 16.5t-97 51.5l64 103q41 -22 79 -30.5t76 -8.5q28 0 45.5 9t17.5 26q0 18 -22.5 28.5t-59.5 20.5l-39 10q-36 9 -65.5 20.5t-50.5 29t-32.5 41.5
t-11.5 57q0 43 16 78.5t46 60.5t71.5 38.5t92.5 13.5q66 0 120 -14t96 -43l-71 -110q-64 34 -134 34q-29 0 -46.5 -8t-17.5 -23q0 -17 20 -26.5t51 -17.5zM55 785h156l56 -69l56 69h155l-131 -167h-160z" />
    <glyph glyph-name="uni0162" unicode="&#x162;" horiz-adv-x="644" 
d="M371 0l-30 -49q44 -4 69.5 -27.5t25.5 -58.5q0 -42 -36.5 -68.5t-99.5 -26.5q-30 0 -57.5 6.5t-44.5 16.5l29 60q10 -7 24 -11.5t31 -4.5q21 0 32.5 8t11.5 19t-10.5 17t-27.5 6q-16 0 -32 -7l-21 37l43 83h-44v595h-219v145h614v-145h-219v-595h-39z" />
    <glyph glyph-name="uni0163" unicode="&#x163;" horiz-adv-x="456" 
d="M286 -10q-7 0 -13.5 0.5t-12.5 1.5l-25 -41q44 -4 69.5 -27.5t25.5 -58.5q0 -42 -36.5 -68.5t-99.5 -26.5q-30 0 -57.5 6.5t-44.5 16.5l29 60q10 -7 24 -11.5t31 -4.5q21 0 32.5 8t11.5 19t-10.5 17t-27.5 6q-16 0 -32 -7l-21 37l52 103q-35 23 -54 62t-19 90v234h-87
v139h87v160h170v-160h142v-139h-142v-198q0 -32 17.5 -52t45.5 -20q46 0 87 17v-136q-32 -14 -69.5 -20.5t-72.5 -6.5z" />
    <glyph glyph-name="Tcaron" unicode="&#x164;" horiz-adv-x="644" 
d="M629 595h-219v-595h-176v595h-219v145h614v-145zM109 980h156l56 -69l56 69h155l-131 -167h-160z" />
    <glyph glyph-name="tcaron" unicode="&#x165;" horiz-adv-x="454" 
d="M276 208q0 -32 17.5 -52t45.5 -20q46 0 87 17v-136q-32 -14 -69.5 -20.5t-72.5 -6.5q-40 0 -72.5 13t-56 37t-36.5 57.5t-13 74.5v234h-87v139h87v160h170v-160h142v-139h-142v-198zM524 780l-66 -187h-128l42 187h152z" />
    <glyph glyph-name="Tbar" unicode="&#x166;" horiz-adv-x="654" 
d="M415 595v-172h111v-121h-111v-302h-176v302h-109v121h109v172h-219v145h614v-145h-219z" />
    <glyph glyph-name="tbar" unicode="&#x167;" horiz-adv-x="462" 
d="M345 136q46 0 87 17v-136q-32 -14 -69.5 -20.5t-72.5 -6.5q-40 0 -72.5 13t-56 37t-36.5 57.5t-13 74.5v46h-81v120h81v68h-87v139h87v160h170v-160h142v-139h-142v-68h134v-120h-134v-10q0 -32 17.5 -52t45.5 -20z" />
    <glyph glyph-name="Umacron" unicode="&#x16a;" horiz-adv-x="814" 
d="M408 -10q-75 0 -137 21.5t-106 60.5t-68 94.5t-24 122.5v451h175v-444q0 -72 44 -116.5t116 -44.5q71 0 114.5 44.5t43.5 116.5v444h175v-451q0 -67 -24 -122.5t-67.5 -94.5t-105 -60.5t-136.5 -21.5zM218 940h379v-133h-379v133z" />
    <glyph glyph-name="umacron" unicode="&#x16b;" horiz-adv-x="641" 
d="M579 545v-545h-163l-3 57q-30 -34 -70.5 -50.5t-84.5 -16.5q-45 0 -82.5 15.5t-64 43.5t-41 67.5t-14.5 87.5v341h170v-316q0 -42 25 -67.5t67 -25.5t66.5 25.5t24.5 67.5v316h170zM508 612h-379v133h379v-133z" />
    <glyph glyph-name="Uring" unicode="&#x16e;" horiz-adv-x="814" 
d="M408 -10q-75 0 -137 21.5t-106 60.5t-68 94.5t-24 122.5v451h175v-444q0 -72 44 -116.5t116 -44.5q71 0 114.5 44.5t43.5 116.5v444h175v-451q0 -67 -24 -122.5t-67.5 -94.5t-105 -60.5t-136.5 -21.5zM408 779q-55 0 -88.5 30t-33.5 80q0 49 33.5 79t88.5 30t88 -30
t33 -79q0 -50 -33 -80t-88 -30zM408 854q15 0 24.5 9.5t9.5 25.5q0 15 -9.5 24.5t-24.5 9.5q-16 0 -25.5 -9.5t-9.5 -24.5q0 -16 9.5 -25.5t25.5 -9.5z" />
    <glyph glyph-name="uring" unicode="&#x16f;" horiz-adv-x="641" 
d="M579 545v-545h-163l-3 57q-30 -34 -70.5 -50.5t-84.5 -16.5q-45 0 -82.5 15.5t-64 43.5t-41 67.5t-14.5 87.5v341h170v-316q0 -42 25 -67.5t67 -25.5t66.5 25.5t24.5 67.5v316h170zM318 584q-55 0 -88.5 30t-33.5 80q0 49 33.5 79t88.5 30t88 -30t33 -79q0 -50 -33 -80
t-88 -30zM318 728q-16 0 -25.5 -9.5t-9.5 -24.5q0 -16 9.5 -25.5t25.5 -9.5q15 0 24.5 9.5t9.5 25.5q0 15 -9.5 24.5t-24.5 9.5z" />
    <glyph glyph-name="Uhungarumlaut" unicode="&#x170;" horiz-adv-x="814" 
d="M408 -10q-75 0 -137 21.5t-106 60.5t-68 94.5t-24 122.5v451h175v-444q0 -72 44 -116.5t116 -44.5q71 0 114.5 44.5t43.5 116.5v444h175v-451q0 -67 -24 -122.5t-67.5 -94.5t-105 -60.5t-136.5 -21.5zM322 980h196l-158 -167h-144zM545 980h196l-159 -167h-143z" />
    <glyph glyph-name="uhungarumlaut" unicode="&#x171;" horiz-adv-x="641" 
d="M409 545h170v-545h-163l-3 57q-30 -34 -70.5 -50.5t-84.5 -16.5q-45 0 -82.5 15.5t-64 43.5t-41 67.5t-14.5 87.5v341h170v-316q0 -42 25 -67.5t67 -25.5t66.5 25.5t24.5 67.5v316zM271 618h-144l106 167h196zM350 618l106 167h196l-159 -167h-143z" />
    <glyph glyph-name="Uogonek" unicode="&#x172;" horiz-adv-x="814" 
d="M741 740v-451q0 -56 -16.5 -104t-47.5 -85t-75 -62.5t-99 -37.5q-84 -53 -84 -107q0 -28 31 -28q12 0 22.5 4t19.5 10l14 -81q-19 -13 -41.5 -20.5t-57.5 -7.5q-50 0 -80 26t-30 68q0 35 19 66t54 61q-67 5 -122 28.5t-94 62.5t-60 91.5t-21 115.5v451h175v-444
q0 -72 44 -116.5t116 -44.5q71 0 114.5 44.5t43.5 116.5v444h175z" />
    <glyph glyph-name="uogonek" unicode="&#x173;" horiz-adv-x="641" 
d="M583 -202q-19 -13 -41.5 -20.5t-57.5 -7.5q-50 0 -80 26t-30 68q0 37 22 70.5t62 65.5h-42l-3 57q-30 -34 -70.5 -50.5t-84.5 -16.5q-45 0 -82.5 15.5t-64 43.5t-41 67.5t-14.5 87.5v341h170v-316q0 -42 25 -67.5t67 -25.5t66.5 25.5t24.5 67.5v316h170v-469l1 1v-77
q-84 -53 -84 -107q0 -28 31 -28q12 0 22.5 4t19.5 10z" />
    <glyph glyph-name="Wcircumflex" unicode="&#x174;" horiz-adv-x="1149" 
d="M1153 740l-251 -740h-163l-164 495l-165 -495h-163l-251 740h188l154 -505l155 505h163l156 -505l153 505h188zM519 813h-156l132 167h160l131 -167h-155l-56 69z" />
    <glyph glyph-name="wcircumflex" unicode="&#x175;" horiz-adv-x="918" 
d="M916 545l-194 -545h-169l-94 320l-94 -320h-169l-194 545h186l105 -352l97 352h138l98 -352l105 352h185zM403 618h-156l132 167h160l131 -167h-155l-56 69z" />
    <glyph glyph-name="Ycircumflex" unicode="&#x176;" horiz-adv-x="710" 
d="M702 740l-259 -481v-259h-176v259l-259 481h187l161 -326l160 326h186zM299 813h-156l132 167h160l131 -167h-155l-56 69z" />
    <glyph glyph-name="ycircumflex" unicode="&#x177;" horiz-adv-x="621" 
d="M620 545l-239 -585q-18 -44 -38 -79.5t-45.5 -60t-58.5 -37.5t-77 -13q-26 0 -49 4.5t-40 12.5l17 137q18 -9 44 -9q32 0 48.5 18.5t32.5 47.5l16 34l-227 530h186l128 -347l117 347h185zM258 618h-156l132 167h160l131 -167h-155l-56 69z" />
    <glyph glyph-name="Ydieresis" unicode="&#x178;" horiz-adv-x="710" 
d="M702 740l-259 -481v-259h-176v259l-259 481h187l161 -326l160 326h186zM223 803q-45 0 -72 26.5t-27 71.5q0 44 27 71t72 27t71.5 -27t26.5 -71q0 -45 -26.5 -71.5t-71.5 -26.5zM490 803q-45 0 -72 26.5t-27 71.5q0 44 27 71t72 27t71.5 -27t26.5 -71q0 -45 -26.5 -71.5
t-71.5 -26.5z" />
    <glyph glyph-name="Zacute" unicode="&#x179;" horiz-adv-x="689" 
d="M653 145v-145h-616v109l364 486h-358v145h600v-108l-365 -487h375zM381 813h-144l138 167h197z" />
    <glyph glyph-name="zacute" unicode="&#x17a;" horiz-adv-x="565" 
d="M39 109l238 297h-233v139h474l1 -108l-238 -297h247v-140h-489v109zM314 785h197l-191 -167h-144z" />
    <glyph glyph-name="Zdotaccent" unicode="&#x17b;" horiz-adv-x="689" 
d="M653 145v-145h-616v109l364 486h-358v145h600v-108l-365 -487h375zM343 803q-43 0 -71 27.5t-28 70.5t28 70.5t71 27.5t70.5 -27.5t27.5 -70.5t-27.5 -70.5t-70.5 -27.5z" />
    <glyph glyph-name="zdotaccent" unicode="&#x17c;" horiz-adv-x="565" 
d="M39 109l238 297h-233v139h474l1 -108l-238 -297h247v-140h-489v109zM282 608q-43 0 -71 27.5t-28 70.5t28 70.5t71 27.5t70.5 -27.5t27.5 -70.5t-27.5 -70.5t-70.5 -27.5z" />
    <glyph glyph-name="Zcaron" unicode="&#x17d;" horiz-adv-x="689" 
d="M653 145v-145h-616v109l364 486h-358v145h600v-108l-365 -487h375zM130 980h156l56 -69l56 69h155l-131 -167h-160z" />
    <glyph glyph-name="zcaron" unicode="&#x17e;" horiz-adv-x="565" 
d="M528 140v-140h-489v109l238 297h-233v139h474l1 -108l-238 -297h247zM69 785h156l56 -69l56 69h155l-131 -167h-160z" />
    <glyph glyph-name="florin" unicode="&#x192;" horiz-adv-x="520" 
d="M422 605q-42 0 -57.5 -19t-21.5 -52l-21 -118h142v-139h-166l-67 -377h-170l67 377h-79v139h104l30 170q7 41 26 71.5t47.5 51t64.5 31t77 10.5q32 0 58.5 -4.5t43.5 -12.5l-19 -136q-13 4 -29.5 6t-29.5 2z" />
    <glyph glyph-name="uni0218" unicode="&#x218;" horiz-adv-x="661" 
d="M330 -10q-80 0 -150.5 24.5t-124.5 71.5l66 118q50 -38 100.5 -53.5t98.5 -15.5q60 0 91.5 16.5t31.5 49.5q0 36 -37 55t-98 35l-39 10q-49 13 -90 30.5t-71 42.5t-46.5 59.5t-16.5 80.5q0 53 20.5 96.5t58 74.5t90.5 48t117 17q69 0 134.5 -20t124.5 -65l-77 -122
q-42 32 -85.5 47t-94.5 15q-49 0 -77.5 -16.5t-28.5 -45.5q0 -34 34.5 -51t86.5 -31l39 -11q44 -12 87 -31t76.5 -47t54 -66t20.5 -88q0 -51 -21.5 -93t-60 -72t-93 -46.5t-120.5 -16.5zM256 -52h152l-62 -168h-128z" />
    <glyph glyph-name="uni0219" unicode="&#x219;" horiz-adv-x="531" 
d="M257 -10q-65 0 -120 16.5t-97 51.5l64 103q41 -22 79 -30.5t76 -8.5q28 0 45.5 9t17.5 26q0 18 -22.5 28.5t-59.5 20.5l-39 10q-36 9 -65.5 20.5t-50.5 29t-32.5 41.5t-11.5 57q0 43 16 78.5t46 60.5t71.5 38.5t92.5 13.5q66 0 120 -14t96 -43l-71 -110q-64 34 -134 34
q-29 0 -46.5 -8t-17.5 -23q0 -17 20 -26.5t51 -17.5l38 -10q37 -9 68.5 -22.5t54 -33.5t35.5 -47.5t13 -64.5q0 -40 -17 -73.5t-48 -56.5t-75 -36t-97 -13zM188 -52h152l-62 -168h-128z" />
    <glyph glyph-name="uni021A" unicode="&#x21a;" horiz-adv-x="644" 
d="M629 595h-219v-595h-176v595h-219v145h614v-145zM241 -52h152l-62 -168h-128z" />
    <glyph glyph-name="uni021B" unicode="&#x21b;" horiz-adv-x="454" 
d="M339 136q46 0 87 17v-136q-32 -14 -69.5 -20.5t-72.5 -6.5q-40 0 -72.5 13t-56 37t-36.5 57.5t-13 74.5v234h-87v139h87v160h170v-160h142v-139h-142v-198q0 -32 17.5 -52t45.5 -20zM167 -52h152l-62 -168h-128z" />
    <glyph glyph-name="circumflex" unicode="&#x2c6;" horiz-adv-x="600" 
d="M299 618l-56 69l-56 -69h-156l132 167h160l131 -167h-155z" />
    <glyph glyph-name="caron" unicode="&#x2c7;" horiz-adv-x="600" 
d="M454 785l-131 -167h-160l-132 167h156l56 -69l56 69h155z" />
    <glyph glyph-name="breve" unicode="&#x2d8;" horiz-adv-x="600" 
d="M218 609q-43 0 -79 12.5t-61 35.5t-39 55.5t-14 72.5h127q0 -35 18.5 -57t47.5 -22q30 0 48 22t18 57h127q0 -40 -14 -72.5t-39 -55.5t-60.5 -35.5t-79.5 -12.5z" />
    <glyph glyph-name="dotaccent" unicode="&#x2d9;" horiz-adv-x="600" 
d="M143 608q-43 0 -71 27.5t-28 70.5t28 70.5t71 27.5t70.5 -27.5t27.5 -70.5t-27.5 -70.5t-70.5 -27.5z" />
    <glyph glyph-name="ring" unicode="&#x2da;" horiz-adv-x="600" 
d="M167 584q-55 0 -88.5 30t-33.5 80q0 49 33.5 79t88.5 30t88 -30t33 -79q0 -50 -33 -80t-88 -30zM167 659q15 0 24.5 9.5t9.5 25.5q0 15 -9.5 24.5t-24.5 9.5q-16 0 -25.5 -9.5t-9.5 -24.5q0 -16 9.5 -25.5t25.5 -9.5z" />
    <glyph glyph-name="ogonek" unicode="&#x2db;" horiz-adv-x="600" 
d="M159 -230q-50 0 -80 26t-30 68q0 60 55.5 111.5t150.5 101.5v-77q-84 -53 -84 -107q0 -28 31 -28q12 0 22.5 4t19.5 10l14 -81q-19 -13 -41.5 -20.5t-57.5 -7.5z" />
    <glyph glyph-name="tilde" unicode="&#x2dc;" horiz-adv-x="600" 
d="M310 614q-23 0 -45.5 7.5t-43.5 17t-39.5 17t-32.5 7.5q-17 0 -25.5 -10.5t-8.5 -28.5h-90q0 72 33 115.5t88 43.5q24 0 47 -7.5t43.5 -16.5t38.5 -16.5t32 -7.5q34 0 34 38h90q0 -77 -33 -118t-88 -41z" />
    <glyph glyph-name="hungarumlaut" unicode="&#x2dd;" horiz-adv-x="600" 
d="M219 785h196l-158 -167h-144zM442 785h196l-159 -167h-143z" />
    <glyph glyph-name="gravecomb" unicode="&#x300;" horiz-adv-x="0" 
d="M-433 785h197l138 -167h-144z" />
    <glyph glyph-name="acutecomb" unicode="&#x301;" horiz-adv-x="0" 
d="M-171 785h197l-191 -167h-144z" />
    <glyph glyph-name="uni0302" unicode="&#x302;" horiz-adv-x="0" 
d="M-187 618l-56 69l-56 -69h-156l132 167h160l131 -167h-155z" />
    <glyph glyph-name="tildecomb" unicode="&#x303;" horiz-adv-x="0" 
d="M-145 614q-23 0 -46 7.5t-44 17t-39 17t-32 7.5q-17 0 -25.5 -10.5t-8.5 -28.5h-90q0 72 33 115.5t88 43.5q24 0 47 -7.5t43.5 -16.5t38.5 -16.5t32 -7.5q34 0 34 38h90q0 -77 -33 -118t-88 -41z" />
    <glyph glyph-name="uni0304" unicode="&#x304;" horiz-adv-x="0" 
d="M-409 745h379v-133h-379v133z" />
    <glyph glyph-name="uni0306" unicode="&#x306;" horiz-adv-x="0" 
d="M-218 609q-44 0 -79.5 12.5t-60.5 35.5t-39 55.5t-14 72.5h127q0 -35 18.5 -57t47.5 -22q30 0 48 22t18 57h127q0 -40 -14 -72.5t-39 -55.5t-61 -35.5t-79 -12.5z" />
    <glyph glyph-name="uni0307" unicode="&#x307;" horiz-adv-x="0" 
d="M-142 608q-43 0 -71 27.5t-28 70.5t28 70.5t71 27.5t70.5 -27.5t27.5 -70.5t-27.5 -70.5t-70.5 -27.5z" />
    <glyph glyph-name="uni0308" unicode="&#x308;" horiz-adv-x="0" 
d="M-410 608q-45 0 -72 26.5t-27 71.5q0 44 27 71t72 27t71.5 -27t26.5 -71q0 -45 -26.5 -71.5t-71.5 -26.5zM-143 608q-45 0 -72 26.5t-27 71.5q0 44 27 71t72 27t71.5 -27t26.5 -71q0 -45 -26.5 -71.5t-71.5 -26.5z" />
    <glyph glyph-name="uni030A" unicode="&#x30a;" horiz-adv-x="0" 
d="M-166 584q-55 0 -88.5 30t-33.5 80q0 49 33.5 79t88.5 30t88 -30t33 -79q0 -50 -33 -80t-88 -30zM-166 659q15 0 24.5 9.5t9.5 25.5q0 15 -9.5 24.5t-24.5 9.5q-16 0 -25.5 -9.5t-9.5 -24.5q0 -16 9.5 -25.5t25.5 -9.5z" />
    <glyph glyph-name="uni030B" unicode="&#x30b;" horiz-adv-x="0" 
d="M-388 785h196l-158 -167h-144zM-165 785h196l-159 -167h-143z" />
    <glyph glyph-name="uni030C" unicode="&#x30c;" horiz-adv-x="0" 
d="M-32 785l-131 -167h-160l-132 167h156l56 -69l56 69h155z" />
    <glyph glyph-name="uni0312" unicode="&#x312;" horiz-adv-x="0" 
d="M-173 780h128l-43 -187h-152z" />
    <glyph glyph-name="uni0326" unicode="&#x326;" horiz-adv-x="0" 
d="M-174 -52h152l-62 -168h-128z" />
    <glyph glyph-name="uni0327" unicode="&#x327;" horiz-adv-x="0" 
d="M-107 -49q44 -4 69.5 -27.5t25.5 -58.5q0 -42 -36.5 -68.5t-99.5 -26.5q-30 0 -57.5 6.5t-44.5 16.5l29 60q10 -7 24 -11.5t31 -4.5q21 0 32.5 8t11.5 19t-10.5 17t-27.5 6q-16 0 -32 -7l-21 37l43 83h93z" />
    <glyph glyph-name="uni0328" unicode="&#x328;" horiz-adv-x="0" 
d="M-109 -230q-50 0 -80 26t-30 68q0 60 55.5 111.5t150.5 101.5v-77q-84 -53 -84 -107q0 -28 31 -28q12 0 22.5 4t19.5 10l14 -81q-19 -13 -41.5 -20.5t-57.5 -7.5z" />
    <glyph glyph-name="uni0335" unicode="&#x335;" horiz-adv-x="0" 
d="M-537 352h396v-121h-396v121z" />
    <glyph glyph-name="uni0336" unicode="&#x336;" horiz-adv-x="0" 
d="M-884 352h846v-121h-846v121z" />
    <glyph glyph-name="uni0337" unicode="&#x337;" horiz-adv-x="0" 
d="M-118 543v-135l-165 -117v22l-123 -86v136l161 112v-22z" />
    <glyph glyph-name="uni0338" unicode="&#x338;" horiz-adv-x="0" 
d="M-538 44l414 706l88 -53l-414 -707z" />
    <glyph glyph-name="tonos" unicode="&#x384;" horiz-adv-x="600" 
d="M172 785h162l-68 -167h-127z" />
    <glyph glyph-name="dieresistonos" unicode="&#x385;" horiz-adv-x="565" 
d="M97 624q-35 0 -58.5 23.5t-23.5 58.5t23.5 58.5t58.5 23.5q36 0 59 -23.5t23 -58.5t-23.5 -58.5t-58.5 -23.5zM226 785h146l-69 -167h-109zM461 624q-35 0 -58.5 23.5t-23.5 58.5t23.5 58.5t58.5 23.5t58.5 -23.5t23.5 -58.5t-23.5 -58.5t-58.5 -23.5z" />
    <glyph glyph-name="Alphatonos" unicode="&#x386;" horiz-adv-x="803" 
d="M573 123h-313l-49 -123h-188l312 740h163l310 -740h-187zM193 573h-126l11 167h162zM516 268l-99 254l-100 -254h199z" />
    <glyph glyph-name="Epsilontonos" unicode="&#x388;" horiz-adv-x="817" 
d="M769 145v-145h-535v740h527v-145h-351v-148h316v-145h-316v-157h359zM11 740h162l-47 -167h-126z" />
    <glyph glyph-name="Etatonos" unicode="&#x389;" horiz-adv-x="1029" 
d="M948 740v-740h-175v305h-363v-305h-176v740h176v-290h363v290h175zM11 740h162l-47 -167h-126z" />
    <glyph glyph-name="Iotatonos" unicode="&#x38a;" horiz-adv-x="491" 
d="M234 740h176v-740h-176v740zM11 740h162l-47 -167h-126z" />
    <glyph glyph-name="Omicrontonos" unicode="&#x38c;" horiz-adv-x="995" 
d="M560 -10q-90 0 -163.5 27.5t-126 77t-81.5 120t-29 155.5q0 86 29 156t81.5 119.5t126 77t163.5 27.5q89 0 162 -27.5t125.5 -77t81 -119.5t28.5 -156q0 -85 -28.5 -155.5t-81 -120t-125.5 -77t-162 -27.5zM20 740h162l-47 -167h-126zM560 135q48 0 88 17t68.5 47.5
t44 74t15.5 96.5t-15.5 96.5t-44 74t-68.5 47.5t-88 17q-49 0 -89.5 -17t-69 -47.5t-44 -74t-15.5 -96.5t15.5 -96.5t44 -74t69 -47.5t89.5 -17z" />
    <glyph glyph-name="Upsilontonos" unicode="&#x38e;" horiz-adv-x="930" 
d="M922 740l-259 -481v-259h-176v259l-259 481h187l161 -326l160 326h186zM49 740h162l-47 -167h-126z" />
    <glyph glyph-name="Omegatonos" unicode="&#x38f;" horiz-adv-x="945" 
d="M719 145h166v-145h-304v283q64 13 102 54t38 104q0 37 -13.5 67.5t-37.5 52t-57.5 33t-74.5 11.5t-74.5 -11.5t-57.5 -33t-37 -52t-13 -67.5q0 -62 37.5 -103t102.5 -55v-283h-305v145h167v23q-87 38 -135.5 108t-48.5 165q0 69 26 126t74 97.5t115 63t149 22.5
q81 0 148 -22.5t115 -63t74 -97.5t26 -126q0 -94 -48 -164.5t-134 -108.5v-23zM180 740l-47 -167h-126l11 167h162z" />
    <glyph glyph-name="iotadieresistonos" unicode="&#x390;" horiz-adv-x="331" 
d="M200 -10q-63 0 -101.5 37t-38.5 99v419h170v-375q0 -15 9 -24.5t23 -9.5q11 0 22 3t21 11v-133q-24 -14 -51 -20.5t-54 -6.5zM-25 624q-35 0 -58.5 23.5t-23.5 58.5t23.5 58.5t58.5 23.5q36 0 59 -23.5t23 -58.5t-23.5 -58.5t-58.5 -23.5zM104 785h146l-69 -167h-109z
M339 624q-35 0 -58.5 23.5t-23.5 58.5t23.5 58.5t58.5 23.5t58.5 -23.5t23.5 -58.5t-23.5 -58.5t-58.5 -23.5z" />
    <glyph glyph-name="Alpha" unicode="&#x391;" horiz-adv-x="774" 
d="M544 123h-313l-49 -123h-188l312 740h163l310 -740h-187zM487 268l-99 254l-100 -254h199z" />
    <glyph glyph-name="Beta" unicode="&#x392;" horiz-adv-x="721" 
d="M554 395q62 -23 97 -68.5t35 -106.5q0 -49 -19 -90t-54.5 -69.5t-85 -44.5t-109.5 -16h-337v740h339q50 0 91.5 -14t70.5 -40t45 -62.5t16 -81.5q0 -46 -23 -83.5t-66 -63.5zM408 145q44 0 70.5 22.5t26.5 59.5q0 36 -26.5 58.5t-68.5 22.5h-153v-163h151zM257 453h120
q38 0 61.5 19.5t23.5 51.5t-22.5 51.5t-59.5 19.5h-123v-142z" />
    <glyph glyph-name="Gamma" unicode="&#x393;" horiz-adv-x="590" 
d="M574 595h-317v-595h-176v740h493v-145z" />
    <glyph glyph-name="uni0394" unicode="&#x394;" horiz-adv-x="774" 
d="M779 0h-785l312 740h163zM535 145l-147 377l-149 -377h296z" />
    <glyph glyph-name="Epsilon" unicode="&#x395;" horiz-adv-x="664" 
d="M616 145v-145h-535v740h527v-145h-351v-148h316v-145h-316v-157h359z" />
    <glyph glyph-name="Zeta" unicode="&#x396;" horiz-adv-x="689" 
d="M653 145v-145h-616v109l364 486h-358v145h600v-108l-365 -487h375z" />
    <glyph glyph-name="Eta" unicode="&#x397;" horiz-adv-x="876" 
d="M795 740v-740h-175v305h-363v-305h-176v740h176v-290h363v290h175z" />
    <glyph glyph-name="Theta" unicode="&#x398;" horiz-adv-x="873" 
d="M438 -10q-90 0 -163.5 27.5t-126 77t-81.5 120t-29 155.5q0 86 29 156t81.5 119.5t126 77t163.5 27.5q89 0 162 -27.5t125.5 -77t81 -119.5t28.5 -156q0 -85 -28.5 -155.5t-81 -120t-125.5 -77t-162 -27.5zM281 437h312v-133h-312v133zM438 135q48 0 88 17t68.5 47.5
t44 74t15.5 96.5t-15.5 96.5t-44 74t-68.5 47.5t-88 17q-49 0 -89.5 -17t-69 -47.5t-44 -74t-15.5 -96.5t15.5 -96.5t44 -74t69 -47.5t89.5 -17z" />
    <glyph glyph-name="Iota" unicode="&#x399;" horiz-adv-x="338" 
d="M81 740h176v-740h-176v740z" />
    <glyph glyph-name="Kappa" unicode="&#x39a;" horiz-adv-x="722" 
d="M289 305h-32v-305h-176v740h176v-290h28l223 290h210l-284 -360l299 -380h-210z" />
    <glyph glyph-name="Lambda" unicode="&#x39b;" horiz-adv-x="774" 
d="M306 740h163l310 -740h-187l-204 522l-206 -522h-188z" />
    <glyph glyph-name="Mu" unicode="&#x39c;" horiz-adv-x="1006" 
d="M774 0l-26 449l-198 -449h-94l-197 447l-26 -447h-176l53 742h195l198 -452l198 452h196l52 -742h-175z" />
    <glyph glyph-name="Nu" unicode="&#x39d;" horiz-adv-x="883" 
d="M81 740h109l440 -443l-4 443h176v-740h-108l-441 444l4 -444h-176v740z" />
    <glyph glyph-name="Xi" unicode="&#x39e;" horiz-adv-x="642" 
d="M53 145h535v-145h-535v145zM75 447h492v-145h-492v145zM57 740h527v-145h-527v145z" />
    <glyph glyph-name="Omicron" unicode="&#x39f;" horiz-adv-x="873" 
d="M438 -10q-90 0 -163.5 27.5t-126 77t-81.5 120t-29 155.5q0 86 29 156t81.5 119.5t126 77t163.5 27.5q89 0 162 -27.5t125.5 -77t81 -119.5t28.5 -156q0 -85 -28.5 -155.5t-81 -120t-125.5 -77t-162 -27.5zM438 135q48 0 88 17t68.5 47.5t44 74t15.5 96.5t-15.5 96.5
t-44 74t-68.5 47.5t-88 17q-49 0 -89.5 -17t-69 -47.5t-44 -74t-15.5 -96.5t15.5 -96.5t44 -74t69 -47.5t89.5 -17z" />
    <glyph glyph-name="Pi" unicode="&#x3a0;" horiz-adv-x="876" 
d="M795 740v-740h-175v595h-363v-595h-176v740h714z" />
    <glyph glyph-name="Rho" unicode="&#x3a1;" horiz-adv-x="690" 
d="M398 740q60 0 109.5 -17.5t85 -50t54.5 -77.5t19 -101q0 -58 -20 -106t-56 -82t-87 -52.5t-114 -18.5h-132v-235h-176v740h317zM379 380q51 0 78.5 29.5t27.5 78.5q0 48 -29 77.5t-77 29.5h-122v-215h122z" />
    <glyph glyph-name="Sigma" unicode="&#x3a3;" horiz-adv-x="652" 
d="M35 111l260 262l-250 256v111h559v-145h-322l229 -222l-240 -228h343v-145h-579v111z" />
    <glyph glyph-name="Tau" unicode="&#x3a4;" horiz-adv-x="644" 
d="M629 595h-219v-595h-176v595h-219v145h614v-145z" />
    <glyph glyph-name="Upsilon" unicode="&#x3a5;" horiz-adv-x="710" 
d="M702 740l-259 -481v-259h-176v259l-259 481h187l161 -326l160 326h186z" />
    <glyph glyph-name="Phi" unicode="&#x3a6;" horiz-adv-x="908" 
d="M875 370q0 -60 -24 -109.5t-67.5 -85.5t-105 -58t-136.5 -26v-91h-176v91q-76 4 -137.5 26t-105 58t-67.5 85.5t-24 109.5t24 109.5t67.5 85.5t105 58t137.5 26v91h176v-91q75 -4 136.5 -26t105 -58t67.5 -85.5t24 -109.5zM214 370q0 -61 41.5 -98t110.5 -37v270
q-69 0 -110.5 -37t-41.5 -98zM542 235q69 0 110.5 37t41.5 98t-41.5 98t-110.5 37v-270z" />
    <glyph glyph-name="Chi" unicode="&#x3a7;" horiz-adv-x="710" 
d="M516 0l-161 246l-159 -246h-203l265 384l-248 356h202l143 -218l142 218h202l-247 -355l266 -385h-202z" />
    <glyph glyph-name="Psi" unicode="&#x3a8;" horiz-adv-x="928" 
d="M886 740v-251q0 -64 -24 -117t-67.5 -91.5t-105 -61.5t-136.5 -28v-191h-175v191q-76 5 -138 28t-106 61.5t-68 91.5t-24 117v251h176v-244q0 -72 43.5 -116.5t116.5 -44.5v405h175v-405q71 0 114.5 44.5t43.5 116.5v244h175z" />
    <glyph glyph-name="uni03A9" unicode="&#x3a9;" horiz-adv-x="815" 
d="M589 145h166v-145h-304v283q64 13 102 54t38 104q0 37 -13.5 67.5t-37.5 52t-57.5 33t-74.5 11.5t-74.5 -11.5t-57.5 -33t-37 -52t-13 -67.5q0 -62 37.5 -103t102.5 -55v-283h-305v145h167v23q-87 38 -135.5 108t-48.5 165q0 69 26 126t74 97.5t115 63t149 22.5
q81 0 148 -22.5t115 -63t74 -97.5t26 -126q0 -94 -48 -164.5t-134 -108.5v-23z" />
    <glyph glyph-name="Iotadieresis" unicode="&#x3aa;" horiz-adv-x="338" 
d="M81 740h176v-740h-176v740zM35 803q-45 0 -72 26.5t-27 71.5q0 44 27 71t72 27t71.5 -27t26.5 -71q0 -45 -26.5 -71.5t-71.5 -26.5zM302 803q-45 0 -72 26.5t-27 71.5q0 44 27 71t72 27t71.5 -27t26.5 -71q0 -45 -26.5 -71.5t-71.5 -26.5z" />
    <glyph glyph-name="Upsilondieresis" unicode="&#x3ab;" horiz-adv-x="710" 
d="M702 740l-259 -481v-259h-176v259l-259 481h187l161 -326l160 326h186zM222 803q-45 0 -72 26.5t-27 71.5q0 44 27 71t72 27t71.5 -27t26.5 -71q0 -45 -26.5 -71.5t-71.5 -26.5zM489 803q-45 0 -72 26.5t-27 71.5q0 44 27 71t72 27t71.5 -27t26.5 -71q0 -45 -26.5 -71.5
t-71.5 -26.5z" />
    <glyph glyph-name="alphatonos" unicode="&#x3ac;" horiz-adv-x="731" 
d="M662 136q11 0 23.5 3t23.5 11v-133q-25 -14 -53 -20.5t-55 -6.5q-49 0 -84.5 22.5t-50.5 62.5q-29 -41 -71.5 -63t-100.5 -22q-54 0 -101.5 20t-82.5 56.5t-55.5 88.5t-20.5 115q0 64 20.5 116.5t55.5 90t82.5 58t101.5 20.5q56 0 97 -20t69 -58l3 68h163v-372
q0 -17 10 -27t26 -10zM404 618h-127l33 167h162zM333 136q56 0 89.5 37t33.5 100q0 61 -33.5 99t-89.5 38t-89.5 -38t-33.5 -100q0 -61 33.5 -98.5t89.5 -37.5z" />
    <glyph glyph-name="epsilontonos" unicode="&#x3ad;" horiz-adv-x="539" 
d="M527 67q-47 -39 -109.5 -58t-134.5 -19q-52 0 -97 10.5t-78.5 31t-52.5 49t-19 64.5q0 45 34 77t94 49q-56 20 -87 52.5t-31 79.5q0 36 18.5 64t51 47.5t76 30t94.5 10.5q64 0 120.5 -17.5t101.5 -47.5l-88 -98q-21 14 -49 23t-65 9q-38 0 -64 -12t-26 -29t31.5 -29.5
t100.5 -12.5v-133q-74 0 -108 -13t-34 -33q0 -17 28 -29t68 -12q43 0 76.5 10t57.5 33zM325 618h-127l33 167h162z" />
    <glyph glyph-name="etatonos" unicode="&#x3ae;" horiz-adv-x="665" 
d="M396 555q48 0 87.5 -15.5t67 -43t43 -67t15.5 -87.5v-562h-170v536q0 43 -28 68.5t-75 25.5q-48 0 -76 -25.5t-28 -68.5v-316h-170v545h164l2 -61q32 36 76 53.5t92 17.5zM396 618h-127l33 167h162z" />
    <glyph glyph-name="iotatonos" unicode="&#x3af;" horiz-adv-x="331" 
d="M200 -10q-63 0 -101.5 37t-38.5 99v419h170v-375q0 -15 9 -24.5t23 -9.5q11 0 22 3t21 11v-133q-24 -14 -51 -20.5t-54 -6.5zM124 785h162l-68 -167h-127z" />
    <glyph glyph-name="upsilondieresistonos" unicode="&#x3b0;" horiz-adv-x="634" 
d="M317 -10q-59 0 -107 16.5t-82.5 47t-53.5 73.5t-19 95v323h170v-316q0 -42 25 -67.5t67 -25.5t67 25.5t25 67.5v316h170v-323q0 -52 -19 -95t-53.5 -73.5t-82.5 -47t-107 -16.5zM138 624q-35 0 -58.5 23.5t-23.5 58.5t23.5 58.5t58.5 23.5q36 0 59 -23.5t23 -58.5
t-23.5 -58.5t-58.5 -23.5zM267 785h146l-69 -167h-109zM502 624q-35 0 -58.5 23.5t-23.5 58.5t23.5 58.5t58.5 23.5t58.5 -23.5t23.5 -58.5t-23.5 -58.5t-58.5 -23.5z" />
    <glyph glyph-name="alpha" unicode="&#x3b1;" horiz-adv-x="731" 
d="M662 136q11 0 23.5 3t23.5 11v-133q-25 -14 -53 -20.5t-55 -6.5q-49 0 -84.5 22.5t-50.5 62.5q-29 -41 -71.5 -63t-100.5 -22q-54 0 -101.5 20t-82.5 56.5t-55.5 88.5t-20.5 115q0 64 20.5 116.5t55.5 90t82.5 58t101.5 20.5q56 0 97 -20t69 -58l3 68h163v-372
q0 -17 10 -27t26 -10zM333 136q56 0 89.5 37t33.5 100q0 61 -33.5 99t-89.5 38t-89.5 -38t-33.5 -100q0 -61 33.5 -98.5t89.5 -37.5z" />
    <glyph glyph-name="beta" unicode="&#x3b2;" horiz-adv-x="639" 
d="M474 422q63 -29 97.5 -78t34.5 -115q0 -54 -17 -98t-48.5 -75.5t-75 -48.5t-97.5 -17q-41 0 -75.5 14.5t-60.5 40.5v-265h-170v805q0 46 18 84t51 65t79 41.5t102 14.5q57 0 104 -14.5t80.5 -41.5t52 -65t18.5 -84q0 -53 -24 -95t-69 -68zM330 136q45 0 72.5 29t27.5 77
q0 49 -32 79t-86 30v133q36 0 57.5 22.5t21.5 59.5q0 35 -21.5 57t-57.5 22t-58 -21t-22 -56v-326q0 -48 26.5 -77t71.5 -29z" />
    <glyph glyph-name="gamma" unicode="&#x3b3;" horiz-adv-x="622" 
d="M397 1v-221h-170v219l-224 546h185l123 -352l122 352h186z" />
    <glyph glyph-name="delta" unicode="&#x3b4;" horiz-adv-x="662" 
d="M243 594q0 -27 28.5 -41.5t71.5 -27t92.5 -28.5t92.5 -45t71.5 -76.5t28.5 -124.5q0 -58 -21.5 -106.5t-60.5 -82.5t-94 -53t-122 -19t-121.5 17t-93.5 47.5t-60.5 74t-21.5 96.5q0 82 49 137t134 69q-30 9 -57.5 21.5t-48.5 31.5t-33 47t-12 68q0 43 18.5 78.5t53 60.5
t82.5 38.5t106 13.5q29 0 60.5 -3.5t63 -10t62 -16t55.5 -20.5l-46 -139q-40 20 -88.5 32t-89.5 12q-45 0 -72 -14t-27 -37zM330 136q56 0 89.5 31.5t33.5 83.5t-33.5 83.5t-89.5 31.5t-89 -31.5t-33 -83.5t33 -83.5t89 -31.5z" />
    <glyph glyph-name="epsilon" unicode="&#x3b5;" horiz-adv-x="539" 
d="M527 67q-47 -39 -109.5 -58t-134.5 -19q-52 0 -97 10.5t-78.5 31t-52.5 49t-19 64.5q0 45 34 77t94 49q-56 20 -87 52.5t-31 79.5q0 36 18.5 64t51 47.5t76 30t94.5 10.5q64 0 120.5 -17.5t101.5 -47.5l-88 -98q-21 14 -49 23t-65 9q-38 0 -64 -12t-26 -29t31.5 -29.5
t100.5 -12.5v-133q-74 0 -108 -13t-34 -33q0 -17 28 -29t68 -12q43 0 76.5 10t57.5 33z" />
    <glyph glyph-name="zeta" unicode="&#x3b6;" horiz-adv-x="556" 
d="M336 -100q5 10 8 22t3 21q0 14 -8.5 24t-23.5 16.5t-34.5 11.5t-41.5 10q-34 8 -70.5 18t-67 29.5t-50 51.5t-19.5 83q0 47 21 104t59 117t92 121.5t120 117.5h-284v133h505v-110q-76 -66 -138 -130.5t-106 -122t-68 -106t-24 -83.5q0 -24 11.5 -39.5t31 -26t45 -17
t53.5 -13.5q31 -7 61.5 -16.5t55 -24.5t39.5 -37.5t15 -56.5q0 -20 -7.5 -46.5t-19.5 -50.5h-158z" />
    <glyph glyph-name="eta" unicode="&#x3b7;" horiz-adv-x="665" 
d="M396 555q48 0 87.5 -15.5t67 -43t43 -67t15.5 -87.5v-562h-170v536q0 43 -28 68.5t-75 25.5q-48 0 -76 -25.5t-28 -68.5v-316h-170v545h164l2 -61q32 36 76 53.5t92 17.5z" />
    <glyph glyph-name="theta" unicode="&#x3b8;" horiz-adv-x="694" 
d="M348 790q69 0 125.5 -28.5t97 -81t62.5 -126.5t22 -164t-22 -163.5t-62.5 -126t-97 -81.5t-125.5 -29q-70 0 -127 29t-97.5 81.5t-62.5 126t-22 163.5t22 164t62.5 126.5t97.5 81t127 28.5zM347 136q51 0 84.5 50.5t43.5 137.5h-257q10 -87 44 -137.5t85 -50.5zM347 645
q-51 0 -85 -50t-44 -138h257q-10 88 -43.5 138t-84.5 50z" />
    <glyph glyph-name="iota" unicode="&#x3b9;" horiz-adv-x="331" 
d="M200 -10q-63 0 -101.5 37t-38.5 99v419h170v-375q0 -15 9 -24.5t23 -9.5q11 0 22 3t21 11v-133q-24 -14 -51 -20.5t-54 -6.5z" />
    <glyph glyph-name="kappa" unicode="&#x3ba;" horiz-adv-x="626" 
d="M244 217h-12v-217h-170v545h170v-189h15l166 189h214l-240 -258l253 -287h-215z" />
    <glyph glyph-name="lambda" unicode="&#x3bb;" horiz-adv-x="622" 
d="M222 530l-107 250h186l318 -780h-186l-124 347l-121 -347h-185z" />
    <glyph glyph-name="uni03BC" unicode="&#x3bc;" horiz-adv-x="641" 
d="M586 545v-341q0 -48 -14.5 -87.5t-41 -67.5t-64 -43.5t-82.5 -15.5q-43 0 -82.5 15.5t-69.5 47.5v-273h-170v765h170v-316q0 -42 25 -67.5t66 -25.5q42 0 67.5 25.5t25.5 67.5v316h170z" />
    <glyph glyph-name="nu" unicode="&#x3bd;" horiz-adv-x="622" 
d="M3 545h185l123 -352l122 352h186l-223 -545h-169z" />
    <glyph glyph-name="xi" unicode="&#x3be;" horiz-adv-x="535" 
d="M353 133q31 -9 61.5 -19.5t54.5 -25t39 -34.5t15 -48q0 -48 -27 -106h-158q6 12 8.5 23.5t2.5 19.5q0 25 -30 38.5t-73 27.5q-34 11 -72 25.5t-69 37.5t-51.5 57.5t-20.5 85.5q0 71 48.5 118.5t134.5 71.5q-81 24 -127 70t-46 113q0 47 21 84.5t57 63.5t85.5 40t106.5 14
q64 0 120.5 -17.5t101.5 -47.5l-88 -98q-21 14 -49 23t-65 9q-25 0 -46.5 -6.5t-38 -17.5t-26 -26t-9.5 -32q0 -20 11.5 -38t36 -32t62.5 -22.5t90 -8.5v-133q-109 0 -159.5 -31.5t-50.5 -74.5q0 -22 13 -38t34 -27.5t48 -20.5t55 -18z" />
    <glyph glyph-name="omicron" unicode="&#x3bf;" horiz-adv-x="663" 
d="M333 -10q-67 0 -122.5 20.5t-95 57.5t-61 89t-21.5 116q0 63 21.5 115t61 89t95 57.5t122.5 20.5q66 0 121 -20.5t94 -57.5t60.5 -89t21.5 -115q0 -64 -21.5 -116t-60.5 -89t-94 -57.5t-121 -20.5zM332 136q55 0 88.5 37.5t33.5 99.5t-33.5 99.5t-88.5 37.5
q-56 0 -89.5 -37.5t-33.5 -99.5t33.5 -99.5t89.5 -37.5z" />
    <glyph glyph-name="pi" unicode="&#x3c0;" horiz-adv-x="704" 
d="M614 136q11 0 23.5 3t23.5 11v-133q-25 -14 -53 -20.5t-55 -6.5q-65 0 -105 38.5t-40 101.5v276h-132v-406h-170v406h-74v139h627v-139h-81v-233q0 -17 10 -27t26 -10z" />
    <glyph glyph-name="rho" unicode="&#x3c1;" horiz-adv-x="675" 
d="M341 555q68 0 123 -20t94 -57t60.5 -89t21.5 -116t-20.5 -116.5t-55.5 -89.5t-82.5 -57t-101.5 -20q-53 0 -93 19t-68 53v-282h-170v456q0 71 21 130t59.5 101t92.5 65t119 23zM341 136q56 0 89.5 37t33.5 100q0 61 -33.5 99t-89.5 38q-54 0 -88 -38t-34 -99
q0 -63 33.5 -100t88.5 -37z" />
    <glyph glyph-name="sigma1" unicode="&#x3c2;" horiz-adv-x="534" 
d="M320 -100q6 12 8.5 23.5t2.5 19.5q0 20 -22.5 31.5t-56.5 22.5q-33 11 -71 27.5t-70.5 47t-54 79.5t-21.5 127q0 62 21.5 113t60.5 87.5t94.5 56.5t123.5 20q55 0 104 -17.5t87 -47.5l-95 -115q-17 16 -39.5 25.5t-53.5 9.5q-57 0 -92 -36t-35 -96q0 -37 14 -62.5
t37 -42.5t51.5 -28.5t56.5 -21.5q26 -9 50 -19t43 -23t30 -31.5t11 -44.5q0 -45 -26 -105h-158z" />
    <glyph glyph-name="sigma" unicode="&#x3c3;" horiz-adv-x="720" 
d="M712 406h-156q35 -29 54.5 -70t19.5 -93q0 -57 -21.5 -103.5t-60.5 -80t-94 -51.5t-121 -18q-67 0 -122.5 20t-95 56.5t-61 87.5t-21.5 114q0 62 21.5 113t61 87.5t95 56.5t122.5 20h379v-139zM332 136q55 0 88.5 36t33.5 96t-33.5 96t-88.5 36q-56 0 -89.5 -36
t-33.5 -96t33.5 -96t89.5 -36z" />
    <glyph glyph-name="tau" unicode="&#x3c4;" horiz-adv-x="559" 
d="M353 406v-202q0 -31 16.5 -49.5t43.5 -18.5q20 0 40.5 4t41.5 13v-136q-32 -14 -67.5 -20.5t-70.5 -6.5q-39 0 -71 13t-55 36t-35.5 56.5t-12.5 73.5v237h-167v139h513v-139h-176z" />
    <glyph glyph-name="upsilon" unicode="&#x3c5;" horiz-adv-x="634" 
d="M317 -10q-59 0 -107 16.5t-82.5 47t-53.5 73.5t-19 95v323h170v-316q0 -42 25 -67.5t67 -25.5t67 25.5t25 67.5v316h170v-323q0 -52 -19 -95t-53.5 -73.5t-82.5 -47t-107 -16.5z" />
    <glyph glyph-name="phi" unicode="&#x3c6;" horiz-adv-x="834" 
d="M800 273q0 -60 -21 -110t-60 -86.5t-94 -59t-123 -26.5v-211h-170v211q-67 4 -122 26.5t-94 59t-60.5 86.5t-21.5 110q0 82 49.5 149.5t137.5 108.5l59 -138q-32 -19 -51.5 -53.5t-19.5 -74.5q0 -58 34 -93.5t89 -35.5v411q33 4 70 6t66 2q75 0 136 -20.5t104.5 -57.5
t67.5 -89t24 -115zM502 136q55 0 89 37.5t34 99.5t-34 99.5t-89 37.5v-274z" />
    <glyph glyph-name="chi" unicode="&#x3c7;" horiz-adv-x="593" 
d="M403 -220l-106 214l-105 -214h-197l207 390l-195 375h197l93 -193l93 193h197l-195 -374l208 -391h-197z" />
    <glyph glyph-name="psi" unicode="&#x3c8;" horiz-adv-x="804" 
d="M749 545v-323q0 -49 -18.5 -89.5t-53 -70.5t-82.5 -48.5t-108 -22.5v-211h-170v211q-60 4 -108 22.5t-82.5 48.5t-53 70.5t-18.5 89.5v323h170v-316q0 -42 25 -67.5t67 -25.5v409h170v-409q42 0 67 25.5t25 67.5v316h170z" />
    <glyph glyph-name="omega" unicode="&#x3c9;" horiz-adv-x="873" 
d="M771 545q14 -28 26 -62.5t20 -72t12.5 -76t4.5 -74.5q0 -61 -15.5 -110.5t-43.5 -85t-67.5 -55t-87.5 -19.5q-63 0 -110 32t-73 89q-27 -57 -74 -89t-109 -32q-49 0 -88.5 19.5t-67.5 55t-43.5 85t-15.5 110.5q0 36 4.5 74.5t13 76t20 72t25.5 62.5h170
q-13 -27 -24.5 -61t-19.5 -70.5t-12.5 -74.5t-4.5 -73q0 -59 20 -94.5t52 -35.5t51 35.5t19 94.5v141h167v-141q0 -59 19.5 -94.5t51.5 -35.5t51.5 35.5t19.5 94.5q0 35 -4.5 72.5t-12.5 74t-19 70.5t-25 62h170z" />
    <glyph glyph-name="iotadieresis" unicode="&#x3ca;" horiz-adv-x="331" 
d="M200 -10q-63 0 -101.5 37t-38.5 99v419h170v-375q0 -15 9 -24.5t23 -9.5q11 0 22 3t21 11v-133q-24 -14 -51 -20.5t-54 -6.5zM21 608q-45 0 -72 26.5t-27 71.5q0 44 27 71t72 27t71.5 -27t26.5 -71q0 -45 -26.5 -71.5t-71.5 -26.5zM288 608q-45 0 -72 26.5t-27 71.5
q0 44 27 71t72 27t71.5 -27t26.5 -71q0 -45 -26.5 -71.5t-71.5 -26.5z" />
    <glyph glyph-name="upsilondieresis" unicode="&#x3cb;" horiz-adv-x="634" 
d="M317 -10q-59 0 -107 16.5t-82.5 47t-53.5 73.5t-19 95v323h170v-316q0 -42 25 -67.5t67 -25.5t67 25.5t25 67.5v316h170v-323q0 -52 -19 -95t-53.5 -73.5t-82.5 -47t-107 -16.5zM184 608q-45 0 -72 26.5t-27 71.5q0 44 27 71t72 27t71.5 -27t26.5 -71q0 -45 -26.5 -71.5
t-71.5 -26.5zM451 608q-45 0 -72 26.5t-27 71.5q0 44 27 71t72 27t71.5 -27t26.5 -71q0 -45 -26.5 -71.5t-71.5 -26.5z" />
    <glyph glyph-name="omicrontonos" unicode="&#x3cc;" horiz-adv-x="663" 
d="M333 -10q-67 0 -122.5 20.5t-95 57.5t-61 89t-21.5 116q0 63 21.5 115t61 89t95 57.5t122.5 20.5q66 0 121 -20.5t94 -57.5t60.5 -89t21.5 -115q0 -64 -21.5 -116t-60.5 -89t-94 -57.5t-121 -20.5zM302 785h162l-68 -167h-127zM332 136q55 0 88.5 37.5t33.5 99.5
t-33.5 99.5t-88.5 37.5q-56 0 -89.5 -37.5t-33.5 -99.5t33.5 -99.5t89.5 -37.5z" />
    <glyph glyph-name="upsilontonos" unicode="&#x3cd;" horiz-adv-x="634" 
d="M317 -10q-59 0 -107 16.5t-82.5 47t-53.5 73.5t-19 95v323h170v-316q0 -42 25 -67.5t67 -25.5t67 25.5t25 67.5v316h170v-323q0 -52 -19 -95t-53.5 -73.5t-82.5 -47t-107 -16.5zM287 785h162l-68 -167h-127z" />
    <glyph glyph-name="omegatonos" unicode="&#x3ce;" horiz-adv-x="873" 
d="M771 545q14 -28 26 -62.5t20 -72t12.5 -76t4.5 -74.5q0 -61 -15.5 -110.5t-43.5 -85t-67.5 -55t-87.5 -19.5q-63 0 -110 32t-73 89q-27 -57 -74 -89t-109 -32q-49 0 -88.5 19.5t-67.5 55t-43.5 85t-15.5 110.5q0 36 4.5 74.5t13 76t20 72t25.5 62.5h170
q-13 -27 -24.5 -61t-19.5 -70.5t-12.5 -74.5t-4.5 -73q0 -59 20 -94.5t52 -35.5t51 35.5t19 94.5v141h167v-141q0 -59 19.5 -94.5t51.5 -35.5t51.5 35.5t19.5 94.5q0 35 -4.5 72.5t-12.5 74t-19 70.5t-25 62h170zM500 618h-127l33 167h162z" />
    <glyph glyph-name="uni0401" unicode="&#x401;" horiz-adv-x="664" 
d="M616 145v-145h-535v740h527v-145h-351v-148h316v-145h-316v-157h359zM211 803q-45 0 -72 26.5t-27 71.5q0 44 27 71t72 27t71.5 -27t26.5 -71q0 -45 -26.5 -71.5t-71.5 -26.5zM478 803q-45 0 -72 26.5t-27 71.5q0 44 27 71t72 27t71.5 -27t26.5 -71q0 -45 -26.5 -71.5
t-71.5 -26.5z" />
    <glyph glyph-name="uni0402" unicode="&#x402;" horiz-adv-x="795" 
d="M547 462q52 0 94.5 -17t72.5 -48t46.5 -74.5t16.5 -97.5q0 -53 -18.5 -96.5t-52 -74t-81 -47.5t-105.5 -17q-26 0 -50.5 2.5t-50.5 8.5l14 139q27 -7 53 -7q52 0 84 25t32 67t-31.5 66.5t-84.5 24.5q-52 0 -83.5 -28.5t-31.5 -76.5v-211h-176v595h-179v145h534v-145h-179
v-203q34 35 79.5 52.5t96.5 17.5z" />
    <glyph glyph-name="uni0403" unicode="&#x403;" horiz-adv-x="566" 
d="M551 595h-294v-595h-176v740h470v-145zM322 813h-144l138 167h197z" />
    <glyph glyph-name="uni0404" unicode="&#x404;" horiz-adv-x="778" 
d="M763 141q-113 -151 -322 -151q-90 0 -164 27.5t-127.5 78t-82.5 121t-29 156.5q0 85 29 154.5t81.5 119t127 76.5t164.5 27q91 0 166 -28.5t132 -89.5l-110 -113q-28 39 -76.5 62.5t-110.5 23.5q-85 0 -141.5 -47t-73.5 -127h246v-121h-246q17 -81 75 -128t144 -47
q72 0 119 29.5t81 82.5z" />
    <glyph glyph-name="uni0405" unicode="&#x405;" horiz-adv-x="661" 
d="M330 -10q-80 0 -150.5 24.5t-124.5 71.5l66 118q50 -38 100.5 -53.5t98.5 -15.5q60 0 91.5 16.5t31.5 49.5q0 36 -37 55t-98 35l-39 10q-49 13 -90 30.5t-71 42.5t-46.5 59.5t-16.5 80.5q0 53 20.5 96.5t58 74.5t90.5 48t117 17q69 0 134.5 -20t124.5 -65l-77 -122
q-42 32 -85.5 47t-94.5 15q-49 0 -77.5 -16.5t-28.5 -45.5q0 -34 34.5 -51t86.5 -31l39 -11q44 -12 87 -31t76.5 -47t54 -66t20.5 -88q0 -51 -21.5 -93t-60 -72t-93 -46.5t-120.5 -16.5z" />
    <glyph glyph-name="uni0406" unicode="&#x406;" horiz-adv-x="338" 
d="M81 740h176v-740h-176v740z" />
    <glyph glyph-name="uni0407" unicode="&#x407;" horiz-adv-x="338" 
d="M81 740h176v-740h-176v740zM35 803q-45 0 -72 26.5t-27 71.5q0 44 27 71t72 27t71.5 -27t26.5 -71q0 -45 -26.5 -71.5t-71.5 -26.5zM302 803q-45 0 -72 26.5t-27 71.5q0 44 27 71t72 27t71.5 -27t26.5 -71q0 -45 -26.5 -71.5t-71.5 -26.5z" />
    <glyph glyph-name="uni0408" unicode="&#x408;" horiz-adv-x="437" 
d="M154 -10q-97 0 -153 62l47 117q16 -18 34 -26t37 -8q31 0 48.5 18t17.5 47v540h175v-571q0 -40 -15.5 -73.5t-42.5 -56.5t-65 -36t-83 -13z" />
    <glyph glyph-name="uni0409" unicode="&#x409;" horiz-adv-x="1203" 
d="M920 453q59 0 107.5 -16.5t83 -46t53.5 -71t19 -92.5t-19 -93t-54.5 -71.5t-85 -46t-109.5 -16.5h-337v595h-263l-26 -392q-3 -48 -22.5 -87t-52 -67t-77 -43.5t-98.5 -15.5v153q32 0 52.5 21t22.5 55l35 521h605v-287h166zM905 145q44 0 70.5 22.5t26.5 59.5
q0 36 -26.5 58.5t-68.5 22.5h-153v-163h151z" />
    <glyph glyph-name="uni040A" unicode="&#x40a;" horiz-adv-x="1245" 
d="M961 453q59 0 107.5 -16.5t83 -46t53.5 -71t19 -92.5t-19 -93t-54.5 -71.5t-85 -46t-109.5 -16.5h-337v305h-362v-305h-176v740h176v-290h362v290h176v-287h166zM946 145q44 0 70.5 22.5t26.5 59.5q0 36 -26.5 58.5t-68.5 22.5h-153v-163h151z" />
    <glyph glyph-name="uni040B" unicode="&#x40b;" horiz-adv-x="813" 
d="M547 462q52 0 94.5 -16t72.5 -45.5t46.5 -71t16.5 -92.5v-237h-175v211q0 48 -31.5 76.5t-84.5 28.5q-52 0 -83.5 -28.5t-31.5 -76.5v-211h-176v595h-179v145h534v-145h-179v-203q34 35 79.5 52.5t96.5 17.5z" />
    <glyph glyph-name="uni040C" unicode="&#x40c;" horiz-adv-x="722" 
d="M289 305h-32v-305h-176v740h176v-290h28l223 290h210l-284 -360l299 -380h-210zM400 813h-144l138 167h197z" />
    <glyph glyph-name="uni040E" unicode="&#x40e;" horiz-adv-x="690" 
d="M695 740l-311 -740h-188l78 185l-268 555h188l170 -368l143 368h188zM351 804q-43 0 -79 12.5t-61 35.5t-39 55.5t-14 72.5h127q0 -35 18.5 -57t47.5 -22q30 0 48 22t18 57h127q0 -40 -14 -72.5t-39 -55.5t-60.5 -35.5t-79.5 -12.5z" />
    <glyph glyph-name="uni040F" unicode="&#x40f;" horiz-adv-x="820" 
d="M739 740v-740h-241v-100h-175v100h-242v740h176v-595h307v595h175z" />
    <glyph glyph-name="uni0410" unicode="&#x410;" horiz-adv-x="774" 
d="M544 123h-313l-49 -123h-188l312 740h163l310 -740h-187zM487 268l-99 254l-100 -254h199z" />
    <glyph glyph-name="uni0411" unicode="&#x411;" horiz-adv-x="708" 
d="M423 453q59 0 107.5 -16.5t83 -46t53.5 -71t19 -92.5t-19 -93t-54.5 -71.5t-85 -46t-109.5 -16.5h-337v740h519v-145h-343v-142h166zM408 145q44 0 70.5 22.5t26.5 59.5q0 36 -26.5 58.5t-68.5 22.5h-153v-163h151z" />
    <glyph glyph-name="uni0412" unicode="&#x412;" horiz-adv-x="721" 
d="M554 395q62 -23 97 -68.5t35 -106.5q0 -49 -19 -90t-54.5 -69.5t-85 -44.5t-109.5 -16h-337v740h339q50 0 91.5 -14t70.5 -40t45 -62.5t16 -81.5q0 -46 -23 -83.5t-66 -63.5zM408 145q44 0 70.5 22.5t26.5 59.5q0 36 -26.5 58.5t-68.5 22.5h-153v-163h151zM257 453h120
q38 0 61.5 19.5t23.5 51.5t-22.5 51.5t-59.5 19.5h-123v-142z" />
    <glyph glyph-name="uni0413" unicode="&#x413;" horiz-adv-x="566" 
d="M551 595h-294v-595h-176v740h470v-145z" />
    <glyph glyph-name="uni0414" unicode="&#x414;" horiz-adv-x="934" 
d="M904 -100h-175v100h-536v-100h-175v245h58q32 0 52.5 20.5t22.5 53.5l35 521h604v-595h114v-245zM615 145v450h-263l-25 -360q-3 -49 -31 -90h319z" />
    <glyph glyph-name="uni0415" unicode="&#x415;" horiz-adv-x="664" 
d="M616 145v-145h-535v740h527v-145h-351v-148h316v-145h-316v-157h359z" />
    <glyph glyph-name="uni0416" unicode="&#x416;" horiz-adv-x="1032" 
d="M615 305h-11v-305h-176v305h-10l-216 -305h-210l275 380l-260 360h210l204 -290h7v290h176v-290h7l204 290h210l-260 -360l275 -380h-210z" />
    <glyph glyph-name="uni0417" unicode="&#x417;" horiz-adv-x="634" 
d="M455 394q67 -24 105 -69.5t38 -105.5q0 -51 -22 -93.5t-61.5 -72.5t-95.5 -46.5t-125 -16.5q-75 0 -144.5 22t-137.5 76l86 120q44 -40 90.5 -56.5t96.5 -16.5q60 0 96 24.5t36 66.5q0 41 -33.5 65.5t-88.5 24.5h-98v128h65q51 0 81.5 22t30.5 59q0 36 -32 58t-85 22
q-36 0 -71 -12t-70 -42l-77 111q64 50 128 69t129 19q58 0 106 -15t82 -42t52.5 -65t18.5 -85t-26 -85t-74 -64z" />
    <glyph glyph-name="uni0418" unicode="&#x418;" horiz-adv-x="883" 
d="M626 0l4 444l-441 -444h-108v740h176l-4 -443l440 443h109v-740h-176z" />
    <glyph glyph-name="uni0419" unicode="&#x419;" horiz-adv-x="883" 
d="M626 0l4 444l-441 -444h-108v740h176l-4 -443l440 443h109v-740h-176zM442 804q-43 0 -79 12.5t-61 35.5t-39 55.5t-14 72.5h127q0 -35 18.5 -57t47.5 -22q30 0 48 22t18 57h127q0 -40 -14 -72.5t-39 -55.5t-60.5 -35.5t-79.5 -12.5z" />
    <glyph glyph-name="uni041A" unicode="&#x41a;" horiz-adv-x="722" 
d="M289 305h-32v-305h-176v740h176v-290h28l223 290h210l-284 -360l299 -380h-210z" />
    <glyph glyph-name="uni041B" unicode="&#x41b;" horiz-adv-x="834" 
d="M753 0h-175v595h-263l-26 -392q-3 -48 -22.5 -87t-52 -67t-77 -43.5t-98.5 -15.5v153q32 0 52.5 21t22.5 55l35 521h604v-740z" />
    <glyph glyph-name="uni041C" unicode="&#x41c;" horiz-adv-x="1006" 
d="M774 0l-26 449l-198 -449h-94l-197 447l-26 -447h-176l53 742h195l198 -452l198 452h196l52 -742h-175z" />
    <glyph glyph-name="uni041D" unicode="&#x41d;" horiz-adv-x="876" 
d="M795 740v-740h-175v305h-363v-305h-176v740h176v-290h363v290h175z" />
    <glyph glyph-name="uni041E" unicode="&#x41e;" horiz-adv-x="873" 
d="M438 -10q-90 0 -163.5 27.5t-126 77t-81.5 120t-29 155.5q0 86 29 156t81.5 119.5t126 77t163.5 27.5q89 0 162 -27.5t125.5 -77t81 -119.5t28.5 -156q0 -85 -28.5 -155.5t-81 -120t-125.5 -77t-162 -27.5zM438 135q48 0 88 17t68.5 47.5t44 74t15.5 96.5t-15.5 96.5
t-44 74t-68.5 47.5t-88 17q-49 0 -89.5 -17t-69 -47.5t-44 -74t-15.5 -96.5t15.5 -96.5t44 -74t69 -47.5t89.5 -17z" />
    <glyph glyph-name="uni041F" unicode="&#x41f;" horiz-adv-x="876" 
d="M795 740v-740h-175v595h-363v-595h-176v740h714z" />
    <glyph glyph-name="uni0420" unicode="&#x420;" horiz-adv-x="690" 
d="M398 740q60 0 109.5 -17.5t85 -50t54.5 -77.5t19 -101q0 -58 -20 -106t-56 -82t-87 -52.5t-114 -18.5h-132v-235h-176v740h317zM379 380q51 0 78.5 29.5t27.5 78.5q0 48 -29 77.5t-77 29.5h-122v-215h122z" />
    <glyph glyph-name="uni0421" unicode="&#x421;" horiz-adv-x="774" 
d="M441 -10q-90 0 -164 27.5t-127.5 78t-82.5 121t-29 156.5q0 85 29 154.5t81.5 119t127 76.5t164.5 27q91 0 166 -28.5t132 -89.5l-110 -113q-28 39 -76.5 62.5t-110.5 23.5q-50 0 -90.5 -17t-69.5 -47.5t-45 -73.5t-16 -96t16.5 -96.5t46 -74.5t71 -48t91.5 -17
q72 0 119 29.5t81 82.5l118 -106q-113 -151 -322 -151z" />
    <glyph glyph-name="uni0422" unicode="&#x422;" horiz-adv-x="644" 
d="M629 595h-219v-595h-176v595h-219v145h614v-145z" />
    <glyph glyph-name="uni0423" unicode="&#x423;" horiz-adv-x="690" 
d="M695 740l-311 -740h-188l78 185l-268 555h188l170 -368l143 368h188z" />
    <glyph glyph-name="uni0424" unicode="&#x424;" horiz-adv-x="908" 
d="M875 370q0 -60 -24 -109.5t-67.5 -85.5t-105 -58t-136.5 -26v-91h-176v91q-76 4 -137.5 26t-105 58t-67.5 85.5t-24 109.5t24 109.5t67.5 85.5t105 58t137.5 26v91h176v-91q75 -4 136.5 -26t105 -58t67.5 -85.5t24 -109.5zM214 370q0 -61 41.5 -98t110.5 -37v270
q-69 0 -110.5 -37t-41.5 -98zM542 235q69 0 110.5 37t41.5 98t-41.5 98t-110.5 37v-270z" />
    <glyph glyph-name="uni0425" unicode="&#x425;" horiz-adv-x="710" 
d="M516 0l-161 246l-159 -246h-203l265 384l-248 356h202l143 -218l142 218h202l-247 -355l266 -385h-202z" />
    <glyph glyph-name="uni0426" unicode="&#x426;" horiz-adv-x="883" 
d="M853 -100h-175v100h-597v740h176v-595h307v595h175v-595h114v-245z" />
    <glyph glyph-name="uni0427" unicode="&#x427;" horiz-adv-x="719" 
d="M638 740v-740h-176v349q-35 -38 -82.5 -56t-99.5 -18q-53 0 -97 16.5t-75 47.5t-48 74t-17 96v231h175v-206q0 -51 33.5 -82t88.5 -31q56 0 89 31t33 82v206h176z" />
    <glyph glyph-name="uni0428" unicode="&#x428;" horiz-adv-x="1236" 
d="M1155 740v-740h-1074v740h176v-595h273v595h176v-595h274v595h175z" />
    <glyph glyph-name="uni0429" unicode="&#x429;" horiz-adv-x="1299" 
d="M1269 -100h-175v100h-1013v740h176v-595h273v595h176v-595h274v595h175v-595h114v-245z" />
    <glyph glyph-name="uni042A" unicode="&#x42a;" horiz-adv-x="793" 
d="M510 453q59 0 107.5 -16.5t83 -46t53.5 -71t19 -92.5t-19 -93t-54.5 -71.5t-85 -46t-109.5 -16.5h-337v595h-150v145h326v-287h166zM495 145q44 0 70.5 22.5t26.5 59.5q0 36 -26.5 58.5t-68.5 22.5h-153v-163h151z" />
    <glyph glyph-name="uni042B" unicode="&#x42b;" horiz-adv-x="1034" 
d="M423 453q59 0 107.5 -16.5t83 -46t53.5 -71t19 -92.5t-19 -93t-54.5 -71.5t-85 -46t-109.5 -16.5h-337v740h176v-287h166zM953 740v-740h-176v740h176zM408 145q44 0 70.5 22.5t26.5 59.5q0 36 -26.5 58.5t-68.5 22.5h-153v-163h151z" />
    <glyph glyph-name="uni042C" unicode="&#x42c;" horiz-adv-x="706" 
d="M423 453q59 0 107.5 -16.5t83 -46t53.5 -71t19 -92.5t-19 -93t-54.5 -71.5t-85 -46t-109.5 -16.5h-337v740h176v-287h166zM408 145q44 0 70.5 22.5t26.5 59.5q0 36 -26.5 58.5t-68.5 22.5h-153v-163h151z" />
    <glyph glyph-name="uni042D" unicode="&#x42d;" horiz-adv-x="778" 
d="M338 750q90 0 164.5 -27t127 -76.5t81.5 -119t29 -154.5q0 -86 -29 -156.5t-82.5 -121t-127.5 -78t-164 -27.5q-209 0 -322 151l118 106q34 -53 81 -82.5t119 -29.5q86 0 144 47t75 128h-246v121h246q-17 80 -73.5 127t-141.5 47q-62 0 -110.5 -23.5t-76.5 -62.5
l-110 113q57 61 132 89.5t166 28.5z" />
    <glyph glyph-name="uni042E" unicode="&#x42e;" horiz-adv-x="1211" 
d="M776 750q89 0 162 -27.5t125.5 -77t81 -119.5t28.5 -156q0 -85 -28.5 -155.5t-81 -120t-125.5 -77t-162 -27.5q-81 0 -149 22.5t-119.5 63.5t-84 99t-42.5 130h-124v-305h-176v740h176v-290h126q12 69 45.5 124.5t84.5 94.5t117.5 60t145.5 21zM776 135q48 0 88 17
t68.5 47.5t44 74t15.5 96.5t-15.5 96.5t-44 74t-68.5 47.5t-88 17q-49 0 -89.5 -17t-69 -47.5t-44 -74t-15.5 -96.5t15.5 -96.5t44 -74t69 -47.5t89.5 -17z" />
    <glyph glyph-name="uni042F" unicode="&#x42f;" horiz-adv-x="750" 
d="M669 0h-176v256h-118l-156 -256h-206l188 291q-60 31 -93.5 84t-33.5 123q0 54 19 99t54 76.5t83.5 49t108.5 17.5h330v-740zM493 595h-135q-47 0 -75 -26.5t-28 -70.5t32.5 -70.5t86.5 -26.5h119v194z" />
    <glyph glyph-name="uni0430" unicode="&#x430;" horiz-adv-x="589" 
d="M292 555q54 0 98.5 -15t76 -43t49 -67.5t17.5 -87.5v-342h-164l-2 62q-27 -35 -66 -53.5t-82 -18.5t-79 12.5t-61 35.5t-39 55.5t-14 71.5q0 40 17 73t48 56t74.5 36t96.5 13q23 0 49 -2.5t52 -7.5q-2 44 -31.5 66.5t-83.5 22.5q-35 0 -63 -9t-53 -26l-72 100
q47 34 102 51t130 17zM268 111q38 0 66 28.5t29 79.5q-21 4 -41 6t-38 2q-38 0 -60 -16.5t-22 -42.5t15.5 -41.5t50.5 -15.5z" />
    <glyph glyph-name="uni0431" unicode="&#x431;" horiz-adv-x="670" 
d="M377 543q54 0 101 -19t82.5 -54.5t56 -85t20.5 -110.5q0 -64 -21.5 -116.5t-61 -90t-94.5 -57.5t-122 -20t-122 24t-94 67t-60.5 104t-21.5 134q0 87 22.5 161.5t63.5 132t99 94.5t128 49l205 34l30 -147l-226 -38q-42 -7 -69.5 -32.5t-44.5 -67.5q52 38 129 38zM338 136
q56 0 89.5 37.5t33.5 99.5t-33.5 99.5t-89.5 37.5q-55 0 -88.5 -37.5t-33.5 -99.5t33.5 -99.5t88.5 -37.5z" />
    <glyph glyph-name="uni0432" unicode="&#x432;" horiz-adv-x="621" 
d="M481 274q49 -15 77 -45.5t28 -72.5q0 -35 -14 -64t-39 -49.5t-60.5 -31.5t-79.5 -11h-331v545h313q87 0 139 -41.5t52 -110.5q0 -41 -22.5 -71.5t-62.5 -47.5zM232 416v-86h116q22 0 35 12t13 31q0 20 -12.5 31.5t-34.5 11.5h-117zM368 129q22 0 35 12t13 32t-13 32.5
t-36 12.5h-135v-89h136z" />
    <glyph glyph-name="uni0433" unicode="&#x433;" horiz-adv-x="457" 
d="M440 406h-208v-406h-170v545h378v-139z" />
    <glyph glyph-name="uni0434" unicode="&#x434;" horiz-adv-x="748" 
d="M723 139v-239h-170v100h-367v-100h-170v239h62q26 0 42.5 16.5t18.5 42.5l18 347h469v-406h97zM456 139v267h-138l-15 -211q-1 -30 -17 -56h170z" />
    <glyph glyph-name="uni0435" unicode="&#x435;" horiz-adv-x="626" 
d="M593 281q0 -17 -1.5 -35.5t-3.5 -32.5h-373q8 -42 32 -66t72 -24q35 0 63 13.5t48 36.5l132 -64q-35 -54 -97.5 -86.5t-142.5 -32.5q-64 0 -117.5 20t-91 56t-58.5 87t-21 114q0 65 20 118t57 90.5t88.5 58.5t114.5 21t114 -19.5t88 -55.5t57 -86.5t20 -112.5zM314 422
q-43 0 -66.5 -24.5t-31.5 -70.5h198q-17 95 -100 95z" />
    <glyph glyph-name="uni0436" unicode="&#x436;" horiz-adv-x="896" 
d="M687 0l-154 204v-204h-170v203l-153 -203h-215l232 287l-219 258h215l140 -177v177h170v-178l141 178h214l-218 -258l231 -287h-214z" />
    <glyph glyph-name="uni0437" unicode="&#x437;" horiz-adv-x="539" 
d="M375 271q60 -17 94 -49t34 -77q0 -36 -19 -64.5t-52 -49t-78 -31t-97 -10.5q-73 0 -135.5 19t-109.5 58l91 97q24 -23 57.5 -33t77.5 -10q39 0 67 12t28 29q0 20 -34 33t-107 13v133q69 0 100 12.5t31 29.5t-26 29t-64 12q-37 0 -64.5 -9t-48.5 -23l-89 98
q45 30 101.5 47.5t120.5 17.5q51 0 94.5 -10.5t76 -30t51 -47.5t18.5 -64q0 -47 -31 -79.5t-87 -52.5z" />
    <glyph glyph-name="uni0438" unicode="&#x438;" horiz-adv-x="671" 
d="M609 545v-545h-165v279l-254 -279h-128v545h166v-285l254 285h127z" />
    <glyph glyph-name="uni0439" unicode="&#x439;" horiz-adv-x="671" 
d="M609 545v-545h-165v279l-254 -279h-128v545h166v-285l254 285h127zM336 609q-43 0 -79 12.5t-61 35.5t-39 55.5t-14 72.5h127q0 -35 18.5 -57t47.5 -22q30 0 48 22t18 57h127q0 -40 -14 -72.5t-39 -55.5t-60.5 -35.5t-79.5 -12.5z" />
    <glyph glyph-name="uni043A" unicode="&#x43a;" horiz-adv-x="626" 
d="M244 217h-12v-217h-170v545h170v-189h15l166 189h214l-240 -258l253 -287h-215z" />
    <glyph glyph-name="uni043B" unicode="&#x43b;" horiz-adv-x="643" 
d="M581 545v-545h-170v406h-138l-14 -226q-3 -42 -20.5 -77t-47 -60t-69.5 -39t-88 -14v147q26 0 42.5 17t18.5 44l17 347h469z" />
    <glyph glyph-name="uni043C" unicode="&#x43c;" horiz-adv-x="784" 
d="M574 0l-16 289l-123 -289h-86l-123 289l-16 -289h-166l42 545h187l119 -277l120 277h186l42 -545h-166z" />
    <glyph glyph-name="uni043D" unicode="&#x43d;" horiz-adv-x="671" 
d="M609 545v-545h-170v205h-207v-205h-170v545h170v-201h207v201h170z" />
    <glyph glyph-name="uni043E" unicode="&#x43e;" horiz-adv-x="663" 
d="M333 -10q-67 0 -122.5 20.5t-95 57.5t-61 89t-21.5 116q0 63 21.5 115t61 89t95 57.5t122.5 20.5q66 0 121 -20.5t94 -57.5t60.5 -89t21.5 -115q0 -64 -21.5 -116t-60.5 -89t-94 -57.5t-121 -20.5zM332 136q55 0 88.5 37.5t33.5 99.5t-33.5 99.5t-88.5 37.5
q-56 0 -89.5 -37.5t-33.5 -99.5t33.5 -99.5t89.5 -37.5z" />
    <glyph glyph-name="uni043F" unicode="&#x43f;" horiz-adv-x="671" 
d="M609 545v-545h-170v406h-207v-406h-170v545h547z" />
    <glyph glyph-name="uni0440" unicode="&#x440;" 
d="M394 555q54 0 101.5 -20t82.5 -56.5t55.5 -88.5t20.5 -115q0 -64 -20.5 -116.5t-55.5 -90t-82.5 -58t-101.5 -20.5t-94 19.5t-68 54.5v-284h-170v765h164l3 -67q28 37 69 57t96 20zM356 136q55 0 89 37.5t34 100.5q0 61 -34 98.5t-89 37.5q-56 0 -90 -37.5t-34 -99.5
t34 -99.5t90 -37.5z" />
    <glyph glyph-name="uni0441" unicode="&#x441;" horiz-adv-x="554" 
d="M330 -10q-67 0 -121.5 20.5t-93.5 57.5t-60.5 89t-21.5 116q0 63 21.5 115t61 89t95 57.5t123.5 20.5q55 0 104 -17.5t87 -47.5l-96 -115q-17 16 -39.5 25.5t-52.5 9.5q-58 0 -92.5 -37.5t-34.5 -99.5t34 -99.5t93 -37.5q35 0 62.5 10.5t47.5 33.5l96 -113
q-40 -39 -95 -58t-118 -19z" />
    <glyph glyph-name="uni0442" unicode="&#x442;" horiz-adv-x="571" 
d="M570 406h-192v-406h-170v406h-193v139h555v-139z" />
    <glyph glyph-name="uni0443" unicode="&#x443;" horiz-adv-x="621" 
d="M162 -230q-26 0 -49 4.5t-40 12.5l17 137q18 -9 44 -9q32 0 48.5 18.5t32.5 47.5l16 34l-227 530h186l128 -347l117 347h185l-239 -585q-18 -44 -38 -79.5t-45.5 -60t-58.5 -37.5t-77 -13z" />
    <glyph glyph-name="uni0444" unicode="&#x444;" horiz-adv-x="832" 
d="M799 273q0 -60 -21 -110t-60 -86.5t-94 -59t-123 -26.5v-211h-170v211q-67 4 -122 26.5t-94 59t-60.5 86.5t-21.5 110t21.5 109.5t60.5 86t94 59t122 26.5v226h170v-226q68 -4 123 -26.5t94 -59t60 -86t21 -109.5zM208 273q0 -62 33.5 -99.5t89.5 -37.5v274
q-56 0 -89.5 -38t-33.5 -99zM501 136q56 0 89.5 37.5t33.5 99.5q0 61 -33.5 99t-89.5 38v-274z" />
    <glyph glyph-name="uni0445" unicode="&#x445;" horiz-adv-x="604" 
d="M403 0l-100 150l-101 -150h-202l202 279l-190 266h203l87 -133l88 133h202l-189 -265l202 -280h-202z" />
    <glyph glyph-name="uni0446" unicode="&#x446;" horiz-adv-x="708" 
d="M683 139v-239h-170v100h-451v545h170v-406h184v406h170v-406h97z" />
    <glyph glyph-name="uni0447" unicode="&#x447;" horiz-adv-x="622" 
d="M560 545v-545h-170v211q-30 -32 -69.5 -47.5t-82.5 -15.5q-45 0 -82 15.5t-63.5 43.5t-41 67.5t-14.5 87.5v183h170v-158q0 -42 25 -67.5t67 -25.5t66.5 25.5t24.5 67.5v158h170z" />
    <glyph glyph-name="uni0448" unicode="&#x448;" horiz-adv-x="955" 
d="M893 545v-545h-831v545h170v-406h161v406h170v-406h160v406h170z" />
    <glyph glyph-name="uni0449" unicode="&#x449;" horiz-adv-x="1016" 
d="M991 139v-239h-170v100h-759v545h170v-406h161v406h170v-406h160v406h170v-406h98z" />
    <glyph glyph-name="uni044A" unicode="&#x44a;" horiz-adv-x="667" 
d="M453 348q44 0 79.5 -12.5t61 -35.5t39.5 -55t14 -71t-14 -71.5t-39 -55t-60.5 -35t-79.5 -12.5h-300v406h-136v139h306v-197h129zM424 125q24 0 38 13t14 36t-14.5 36t-38.5 13h-99v-98h100z" />
    <glyph glyph-name="uni044B" unicode="&#x44b;" horiz-adv-x="870" 
d="M361 348q44 0 79.5 -12.5t61 -35.5t39.5 -55t14 -71t-14 -71.5t-39 -55t-60.5 -35t-79.5 -12.5h-300v545h170v-197h129zM807 545v-545h-170v545h170zM332 125q24 0 38 13t14 36t-14.5 36t-38.5 13h-99v-98h100z" />
    <glyph glyph-name="uni044C" unicode="&#x44c;" horiz-adv-x="575" 
d="M361 348q44 0 79.5 -12.5t61 -35.5t39.5 -55t14 -71t-14 -71.5t-39 -55t-60.5 -35t-79.5 -12.5h-300v545h170v-197h129zM332 125q24 0 38 13t14 36t-14.5 36t-38.5 13h-99v-98h100z" />
    <glyph glyph-name="uni044D" unicode="&#x44d;" horiz-adv-x="557" 
d="M223 555q68 0 123.5 -20.5t95 -57.5t61 -89t21.5 -115q0 -64 -21.5 -116t-60.5 -89t-93.5 -57.5t-121.5 -20.5q-63 0 -118 19t-95 58l96 113q20 -23 47.5 -33.5t62.5 -10.5q43 0 73 20.5t44 56.5h-126v121h125q-14 35 -44 55.5t-72 20.5q-30 0 -52.5 -9.5t-39.5 -25.5
l-96 115q38 30 87 47.5t104 17.5z" />
    <glyph glyph-name="uni044E" unicode="&#x44e;" horiz-adv-x="958" 
d="M627 555q66 0 121 -20.5t94 -57.5t60.5 -89t21.5 -115q0 -64 -21.5 -116t-60.5 -89t-94 -57.5t-121 -20.5q-58 0 -107 15t-87 43t-63 68t-36 89h-102v-205h-170v545h170v-201h103q11 48 36.5 87t63 66.5t86.5 42.5t106 15zM626 136q55 0 88.5 37.5t33.5 99.5t-33.5 99.5
t-88.5 37.5q-56 0 -89.5 -37.5t-33.5 -99.5t33.5 -99.5t89.5 -37.5z" />
    <glyph glyph-name="uni044F" unicode="&#x44f;" horiz-adv-x="604" 
d="M542 0h-170v177h-55l-113 -177h-190l142 201q-46 23 -71.5 64t-25.5 96q0 42 14.5 76t41.5 58t64.5 37t83.5 13h279v-545zM372 306v110h-84q-26 0 -42 -15t-16 -40t16 -40t43 -15h83z" />
    <glyph glyph-name="uni0451" unicode="&#x451;" horiz-adv-x="626" 
d="M593 281q0 -17 -1.5 -35.5t-3.5 -32.5h-373q8 -42 32 -66t72 -24q35 0 63 13.5t48 36.5l132 -64q-35 -54 -97.5 -86.5t-142.5 -32.5q-64 0 -117.5 20t-91 56t-58.5 87t-21 114q0 65 20 118t57 90.5t88.5 58.5t114.5 21t114 -19.5t88 -55.5t57 -86.5t20 -112.5zM181 608
q-45 0 -72 26.5t-27 71.5q0 44 27 71t72 27t71.5 -27t26.5 -71q0 -45 -26.5 -71.5t-71.5 -26.5zM448 608q-45 0 -72 26.5t-27 71.5q0 44 27 71t72 27t71.5 -27t26.5 -71q0 -45 -26.5 -71.5t-71.5 -26.5zM314 422q-43 0 -66.5 -24.5t-31.5 -70.5h198q-17 95 -100 95z" />
    <glyph glyph-name="uni0452" unicode="&#x452;" horiz-adv-x="665" 
d="M396 555q48 0 87.5 -15.5t67 -43t43 -67t15.5 -87.5v-394q0 -40 -13 -73t-37 -56t-57.5 -36t-74.5 -13q-32 0 -61 4.5t-52 12.5l12 132q21 -4 48 -4q29 0 47 20t18 53v328q0 43 -28 68.5t-75 25.5q-48 0 -76 -25.5t-28 -68.5v-316h-170v594h-72v121h72v65h170v-65h154
v-121h-154v-106q32 34 74.5 50.5t89.5 16.5z" />
    <glyph glyph-name="uni0453" unicode="&#x453;" horiz-adv-x="457" 
d="M440 406h-208v-406h-170v545h378v-139zM263 618h-144l138 167h197z" />
    <glyph glyph-name="uni0454" unicode="&#x454;" horiz-adv-x="557" 
d="M543 67q-40 -39 -95 -58t-118 -19q-67 0 -121.5 20.5t-93.5 57.5t-60.5 89t-21.5 116q0 63 21.5 115t61 89t95 57.5t123.5 20.5q55 0 104 -17.5t87 -47.5l-96 -115q-17 16 -39.5 25.5t-52.5 9.5q-42 0 -72 -20.5t-44 -55.5h125v-121h-126q14 -36 44 -56.5t73 -20.5
q35 0 62.5 10.5t47.5 33.5z" />
    <glyph glyph-name="uni0455" unicode="&#x455;" horiz-adv-x="531" 
d="M257 -10q-65 0 -120 16.5t-97 51.5l64 103q41 -22 79 -30.5t76 -8.5q28 0 45.5 9t17.5 26q0 18 -22.5 28.5t-59.5 20.5l-39 10q-36 9 -65.5 20.5t-50.5 29t-32.5 41.5t-11.5 57q0 43 16 78.5t46 60.5t71.5 38.5t92.5 13.5q66 0 120 -14t96 -43l-71 -110q-64 34 -134 34
q-29 0 -46.5 -8t-17.5 -23q0 -17 20 -26.5t51 -17.5l38 -10q37 -9 68.5 -22.5t54 -33.5t35.5 -47.5t13 -64.5q0 -40 -17 -73.5t-48 -56.5t-75 -36t-97 -13z" />
    <glyph glyph-name="uni0456" unicode="&#x456;" horiz-adv-x="295" 
d="M62 545h170v-545h-170v545zM148 608q-43 0 -71 27.5t-28 70.5t28 70.5t71 27.5t70.5 -27.5t27.5 -70.5t-27.5 -70.5t-70.5 -27.5z" />
    <glyph glyph-name="uni0457" unicode="&#x457;" horiz-adv-x="295" 
d="M62 545h170v-545h-170v545zM15 608q-45 0 -72 26.5t-27 71.5q0 44 27 71t72 27t71.5 -27t26.5 -71q0 -45 -26.5 -71.5t-71.5 -26.5zM282 608q-45 0 -72 26.5t-27 71.5q0 44 27 71t72 27t71.5 -27t26.5 -71q0 -45 -26.5 -71.5t-71.5 -26.5z" />
    <glyph glyph-name="uni0458" unicode="&#x458;" horiz-adv-x="299" 
d="M54 -230q-31 0 -60.5 4.5t-52.5 12.5l12 134q12 -3 23.5 -4.5t25.5 -1.5q29 0 47 20t18 53v557h170v-597q0 -40 -13 -73t-37 -56t-58 -36t-75 -13zM150 608q-43 0 -70.5 27.5t-27.5 70.5t27.5 70.5t70.5 27.5t70.5 -27.5t27.5 -70.5t-27.5 -70.5t-70.5 -27.5z" />
    <glyph glyph-name="uni0459" unicode="&#x459;" horiz-adv-x="924" 
d="M710 348q44 0 79.5 -12.5t61 -35.5t39.5 -55t14 -71t-14 -71.5t-39 -55t-60.5 -35t-79.5 -12.5h-300v406h-138l-14 -226q-3 -42 -20.5 -77t-47 -60t-69.5 -39t-88 -14v147q26 0 42.5 17t18.5 44l17 347h469v-197h129zM681 125q24 0 38 13t14 36t-14.5 36t-38.5 13h-99
v-98h100z" />
    <glyph glyph-name="uni045A" unicode="&#x45a;" horiz-adv-x="952" 
d="M738 348q44 0 79.5 -12.5t61 -35.5t39.5 -55t14 -71t-14 -71.5t-39 -55t-60.5 -35t-79.5 -12.5h-300v205h-207v-205h-170v545h170v-201h207v201h170v-197h129zM709 125q24 0 38 13t14 36t-14.5 36t-38.5 13h-99v-98h100z" />
    <glyph glyph-name="uni045B" unicode="&#x45b;" horiz-adv-x="665" 
d="M396 555q48 0 87.5 -15.5t67 -43t43 -67t15.5 -87.5v-342h-170v316q0 43 -28 68.5t-75 25.5q-48 0 -76 -25.5t-28 -68.5v-316h-170v594h-72v121h72v65h170v-65h154v-121h-154v-106q32 34 74.5 50.5t89.5 16.5z" />
    <glyph glyph-name="uni045C" unicode="&#x45c;" horiz-adv-x="626" 
d="M244 217h-12v-217h-170v545h170v-189h15l166 189h214l-240 -258l253 -287h-215zM352 618h-144l138 167h197z" />
    <glyph glyph-name="uni045D" unicode="&#x45d;" horiz-adv-x="671" 
d="M609 545v-545h-165v279l-254 -279h-128v545h166v-285l254 285h127zM297 618l-191 167h197l138 -167h-144z" />
    <glyph glyph-name="uni045E" unicode="&#x45e;" horiz-adv-x="621" 
d="M162 -230q-26 0 -49 4.5t-40 12.5l17 137q18 -9 44 -9q32 0 48.5 18.5t32.5 47.5l16 34l-227 530h186l128 -347l117 347h185l-239 -585q-18 -44 -38 -79.5t-45.5 -60t-58.5 -37.5t-77 -13zM315 609q-43 0 -79 12.5t-61 35.5t-39 55.5t-14 72.5h127q0 -35 18.5 -57
t47.5 -22q30 0 48 22t18 57h127q0 -40 -14 -72.5t-39 -55.5t-60.5 -35.5t-79.5 -12.5z" />
    <glyph glyph-name="uni045F" unicode="&#x45f;" horiz-adv-x="648" 
d="M586 0h-177v-100h-170v100h-177v545h170v-406h184v406h170v-545z" />
    <glyph glyph-name="uni0490" unicode="&#x490;" horiz-adv-x="566" 
d="M551 840v-245h-294v-595h-176v740h295v100h175z" />
    <glyph glyph-name="uni0491" unicode="&#x491;" horiz-adv-x="457" 
d="M440 645v-239h-208v-406h-170v545h208v100h170z" />
    <glyph glyph-name="uni04C0" unicode="&#x4c0;" horiz-adv-x="338" 
d="M81 740h176v-740h-176v740z" />
    <glyph glyph-name="uni04CF" unicode="&#x4cf;" horiz-adv-x="294" 
d="M62 545h170v-545h-170v545z" />
    <glyph glyph-name="Wgrave" unicode="&#x1e80;" horiz-adv-x="1149" 
d="M1153 740l-251 -740h-163l-164 495l-165 -495h-163l-251 740h188l154 -505l155 505h163l156 -505l153 505h188zM536 813l-191 167h197l138 -167h-144z" />
    <glyph glyph-name="wgrave" unicode="&#x1e81;" horiz-adv-x="918" 
d="M916 545l-194 -545h-169l-94 320l-94 -320h-169l-194 545h186l105 -352l97 352h138l98 -352l105 352h185zM420 618l-191 167h197l138 -167h-144z" />
    <glyph glyph-name="Wacute" unicode="&#x1e82;" horiz-adv-x="1149" 
d="M1153 740l-251 -740h-163l-164 495l-165 -495h-163l-251 740h188l154 -505l155 505h163l156 -505l153 505h188zM614 813h-144l138 167h197z" />
    <glyph glyph-name="wacute" unicode="&#x1e83;" horiz-adv-x="918" 
d="M916 545l-194 -545h-169l-94 320l-94 -320h-169l-194 545h186l105 -352l97 352h138l98 -352l105 352h185zM498 618h-144l138 167h197z" />
    <glyph glyph-name="Wdieresis" unicode="&#x1e84;" horiz-adv-x="1149" 
d="M1153 740l-251 -740h-163l-164 495l-165 -495h-163l-251 740h188l154 -505l155 505h163l156 -505l153 505h188zM442 803q-45 0 -72 26.5t-27 71.5q0 44 27 71t72 27t71.5 -27t26.5 -71q0 -45 -26.5 -71.5t-71.5 -26.5zM709 803q-45 0 -72 26.5t-27 71.5q0 44 27 71t72 27
t71.5 -27t26.5 -71q0 -45 -26.5 -71.5t-71.5 -26.5z" />
    <glyph glyph-name="wdieresis" unicode="&#x1e85;" horiz-adv-x="918" 
d="M916 545l-194 -545h-169l-94 320l-94 -320h-169l-194 545h186l105 -352l97 352h138l98 -352l105 352h185zM327 608q-45 0 -72 26.5t-27 71.5q0 44 27 71t72 27t71.5 -27t26.5 -71q0 -45 -26.5 -71.5t-71.5 -26.5zM594 608q-45 0 -72 26.5t-27 71.5q0 44 27 71t72 27
t71.5 -27t26.5 -71q0 -45 -26.5 -71.5t-71.5 -26.5z" />
    <glyph glyph-name="Germandbls" unicode="&#x1e9e;" horiz-adv-x="708" 
d="M535 393q64 -26 100 -72t36 -107q0 -50 -18.5 -91.5t-52 -71t-80.5 -45.5t-105 -16q-28 0 -58 4t-50 11l16 139q15 -5 30 -7t31 -2q48 0 76.5 25t28.5 67t-34.5 68t-92.5 26v133q41 0 65 21t24 56q0 34 -27 54t-72 20t-72.5 -20.5t-27.5 -54.5v-530h-175v550q0 45 20 82
t56 63t86.5 40.5t112.5 14.5q63 0 115 -14t88.5 -40t57 -62t20.5 -80q0 -53 -25.5 -94t-72.5 -67z" />
    <glyph glyph-name="Ygrave" unicode="&#x1ef2;" horiz-adv-x="710" 
d="M702 740l-259 -481v-259h-176v259l-259 481h187l161 -326l160 326h186zM317 813l-191 167h197l138 -167h-144z" />
    <glyph glyph-name="ygrave" unicode="&#x1ef3;" horiz-adv-x="621" 
d="M162 -230q-26 0 -49 4.5t-40 12.5l17 137q18 -9 44 -9q32 0 48.5 18.5t32.5 47.5l16 34l-227 530h186l128 -347l117 347h185l-239 -585q-18 -44 -38 -79.5t-45.5 -60t-58.5 -37.5t-77 -13zM84 785h197l138 -167h-144z" />
    <glyph glyph-name="endash" unicode="&#x2013;" horiz-adv-x="640" 
d="M58 352h524v-121h-524v121z" />
    <glyph glyph-name="emdash" unicode="&#x2014;" horiz-adv-x="1014" 
d="M58 352h898v-121h-898v121z" />
    <glyph glyph-name="quoteleft" unicode="&#x2018;" horiz-adv-x="305" 
d="M124 740h153l-65 -277h-177z" />
    <glyph glyph-name="quoteright" unicode="&#x2019;" horiz-adv-x="301" 
d="M104 740h177l-88 -277h-153z" />
    <glyph glyph-name="quotesinglbase" unicode="&#x201a;" horiz-adv-x="299" 
d="M77 154h177l-89 -277h-153z" />
    <glyph glyph-name="quotedblleft" unicode="&#x201c;" horiz-adv-x="552" 
d="M124 741h153l-64 -277h-177zM371 741h153l-65 -277h-177z" />
    <glyph glyph-name="quotedblright" unicode="&#x201d;" horiz-adv-x="549" 
d="M104 739h177l-88 -277h-153zM351 739h177l-89 -277h-153z" />
    <glyph glyph-name="quotedblbase" unicode="&#x201e;" horiz-adv-x="545" 
d="M77 154h177l-89 -277h-153zM323 154h177l-88 -277h-153z" />
    <glyph glyph-name="dagger" unicode="&#x2020;" horiz-adv-x="588" 
d="M551 400h-169v-620h-176v620h-169v145h169v235h176v-235h169v-145z" />
    <glyph glyph-name="daggerdbl" unicode="&#x2021;" horiz-adv-x="588" 
d="M382 400v-80h169v-145h-169v-395h-176v395h-169v145h169v80h-169v145h169v235h176v-235h169v-145h-169z" />
    <glyph glyph-name="bullet" unicode="&#x2022;" horiz-adv-x="413" 
d="M206 166q-62 0 -99.5 37t-37.5 99q0 63 37.5 100t99.5 37q63 0 100 -37t37 -100q0 -62 -37 -99t-100 -37z" />
    <glyph glyph-name="ellipsis" unicode="&#x2026;" horiz-adv-x="866" 
d="M149 -10q-22 0 -41.5 8.5t-34.5 23.5t-23.5 34.5t-8.5 41.5t8.5 41.5t23.5 34t34.5 23t41.5 8.5t41.5 -8.5t33.5 -23t22.5 -34t8.5 -41.5t-8.5 -41.5t-22.5 -34.5t-33.5 -23.5t-41.5 -8.5zM434 -10q-22 0 -41.5 8.5t-34.5 23.5t-23.5 34.5t-8.5 41.5t8.5 41.5t23.5 34
t34.5 23t41.5 8.5t41.5 -8.5t33.5 -23t22.5 -34t8.5 -41.5t-8.5 -41.5t-22.5 -34.5t-33.5 -23.5t-41.5 -8.5zM719 -10q-22 0 -41.5 8.5t-34.5 23.5t-23.5 34.5t-8.5 41.5t8.5 41.5t23.5 34t34.5 23t41.5 8.5t41.5 -8.5t33.5 -23t22.5 -34t8.5 -41.5t-8.5 -41.5t-22.5 -34.5
t-33.5 -23.5t-41.5 -8.5z" />
    <glyph glyph-name="perthousand" unicode="&#x2030;" horiz-adv-x="1354" 
d="M683 -10q-45 0 -81.5 12.5t-62.5 35t-40.5 55t-14.5 71.5t14.5 71t40.5 54.5t62.5 35t81.5 12.5t81.5 -12.5t62.5 -35t40 -54.5t14 -71t-14 -71.5t-40 -55t-62.5 -35t-81.5 -12.5zM1125 -10q-45 0 -81.5 12.5t-62.5 35t-40.5 55t-14.5 71.5t14.5 71t40.5 54.5t62.5 35
t81.5 12.5t81.5 -12.5t62.5 -35t40 -54.5t14 -71t-14 -71.5t-40 -55t-62.5 -35t-81.5 -12.5zM203 44l414 706l88 -53l-414 -707zM231 403q-45 0 -81.5 12.5t-62.5 35t-40.5 55t-14.5 71.5t14.5 71t40.5 54.5t62.5 35t81.5 12.5t81.5 -12.5t62.5 -35t40 -54.5t14 -71
t-14 -71.5t-40 -55t-62.5 -35t-81.5 -12.5zM683 98q27 0 44 18t17 48t-17 47.5t-44 17.5q-29 0 -46 -17.5t-17 -47.5t17 -48t46 -18zM1125 98q27 0 44 18t17 48t-17 47.5t-44 17.5q-28 0 -45 -17.5t-17 -47.5t17 -48t45 -18zM231 511q27 0 44 18t17 48t-17 47.5t-44 17.5
q-28 0 -45 -17.5t-17 -47.5t17 -48t45 -18z" />
    <glyph glyph-name="guilsinglleft" unicode="&#x2039;" horiz-adv-x="427" 
d="M217 270l176 -232h-181l-182 232l182 233h181z" />
    <glyph glyph-name="guilsinglright" unicode="&#x203a;" horiz-adv-x="427" 
d="M397 270l-182 -232h-181l176 232l-176 233h181z" />
    <glyph glyph-name="fraction" unicode="&#x2044;" horiz-adv-x="238" 
d="M-133 44l414 706l88 -53l-414 -707z" />
    <glyph glyph-name="uni2070" unicode="&#x2070;" horiz-adv-x="411" 
d="M207 390q-40 0 -72.5 16.5t-56 46.5t-36 72t-12.5 93t12.5 93t36 72t56 46.5t72.5 16.5q39 0 71 -16.5t55 -46.5t35.5 -72t12.5 -93t-12.5 -93t-35.5 -72t-55 -46.5t-71 -16.5zM207 478q30 0 48 38.5t18 101.5t-18 102t-48 39t-48.5 -39t-18.5 -102t18.5 -101.5
t48.5 -38.5z" />
    <glyph glyph-name="uni2074" unicode="&#x2074;" horiz-adv-x="401" 
d="M210 476h-198v73l223 291h82v-275h58v-89h-58v-80h-107v80zM213 561l1 129l-99 -129h98z" />
    <glyph glyph-name="uni2075" unicode="&#x2075;" horiz-adv-x="369" 
d="M150 390q-42 0 -77.5 9.5t-58.5 28.5l32 77q18 -14 43.5 -20.5t51.5 -6.5q41 0 65.5 18.5t24.5 49.5q0 23 -15 37.5t-41 14.5q-19 0 -34 -7.5t-22 -17.5l-71 10l32 257h237v-87h-146l-10 -72q8 4 33 4q65 0 106 -36t41 -96q0 -36 -14 -66t-39 -51.5t-60.5 -33.5
t-77.5 -12z" />
    <glyph glyph-name="uni2076" unicode="&#x2076;" horiz-adv-x="370" 
d="M211 670q27 0 52.5 -9.5t44.5 -27.5t30.5 -43t11.5 -56q0 -65 -44.5 -104.5t-117.5 -39.5t-117.5 39t-44.5 104q0 43 14.5 76.5t41.5 71.5l116 159h120l-131 -171q5 1 11 1h13zM188 478q23 0 37.5 15t14.5 41q0 25 -14.5 40t-37.5 15t-37.5 -15t-14.5 -40q0 -26 14.5 -41
t37.5 -15z" />
    <glyph glyph-name="uni2077" unicode="&#x2077;" horiz-adv-x="332" 
d="M326 840l-145 -444h-112l119 357h-174v87h312z" />
    <glyph glyph-name="uni2078" unicode="&#x2078;" horiz-adv-x="386" 
d="M288 627q32 -16 49.5 -42t17.5 -61q0 -61 -44.5 -97.5t-117.5 -36.5t-117.5 36t-44.5 95q0 35 18 62.5t50 43.5q-26 15 -41 39.5t-15 54.5q0 57 41 91t109 34t109 -34t41 -90q0 -31 -14.5 -55t-40.5 -40zM193 759q-18 0 -29 -12.5t-11 -32.5t11 -32t29 -12t29 12t11 32
t-11 32.5t-29 12.5zM193 478q23 0 37.5 14.5t14.5 37.5q0 24 -14.5 38.5t-37.5 14.5t-37.5 -14.5t-14.5 -38.5q0 -23 14.5 -37.5t37.5 -14.5z" />
    <glyph glyph-name="uni2079" unicode="&#x2079;" horiz-adv-x="370" 
d="M182 846q73 0 117.5 -39t44.5 -104q0 -43 -14.5 -76.5t-41.5 -71.5l-116 -159h-120l131 171q-5 -1 -11 -1h-13q-27 0 -52.5 9.5t-44.5 27.5t-30.5 43t-11.5 56q0 65 44.5 104.5t117.5 39.5zM130 702q0 -25 14.5 -40t37.5 -15t37.5 15t14.5 40q0 26 -14.5 41t-37.5 15
t-37.5 -15t-14.5 -41z" />
    <glyph glyph-name="uni2080" unicode="&#x2080;" horiz-adv-x="411" 
d="M207 -106q-40 0 -72.5 16.5t-56 46.5t-36 72t-12.5 93t12.5 93t36 72t56 46.5t72.5 16.5q39 0 71 -16.5t55 -46.5t35.5 -72t12.5 -93t-12.5 -93t-35.5 -72t-55 -46.5t-71 -16.5zM207 -18q30 0 48 38.5t18 101.5t-18 102t-48 39t-48.5 -39t-18.5 -102t18.5 -101.5
t48.5 -38.5z" />
    <glyph glyph-name="uni2081" unicode="&#x2081;" horiz-adv-x="285" 
d="M127 209l-72 -51l-54 75l151 111h82v-444h-107v309z" />
    <glyph glyph-name="uni2082" unicode="&#x2082;" horiz-adv-x="374" 
d="M28 -32l138 150q6 7 17 19t21 26.5t17.5 29.5t7.5 29q0 18 -11 29.5t-30 11.5q-22 0 -34.5 -15.5t-12.5 -39.5l-108 9q0 60 42 96.5t111 36.5t109.5 -33.5t40.5 -87.5q0 -43 -25.5 -81.5t-73.5 -87.5l-71 -73l176 1v-88h-314v68z" />
    <glyph glyph-name="uni2083" unicode="&#x2083;" horiz-adv-x="363" 
d="M212 176q56 -6 89.5 -42t33.5 -93q0 -66 -47.5 -106.5t-130.5 -40.5q-41 0 -78.5 11t-60.5 30l40 78q15 -14 38.5 -22.5t48.5 -8.5q38 0 58.5 16.5t20.5 42.5t-19 41t-51 15t-56 -15l-29 54l103 121h-131v87h267v-66z" />
    <glyph glyph-name="uni2084" unicode="&#x2084;" horiz-adv-x="401" 
d="M210 -20h-198v73l223 291h82v-275h58v-89h-58v-80h-107v80zM213 65l1 129l-99 -129h98z" />
    <glyph glyph-name="uni2085" unicode="&#x2085;" horiz-adv-x="369" 
d="M150 -106q-42 0 -77.5 9.5t-58.5 28.5l32 77q18 -14 43.5 -20.5t51.5 -6.5q41 0 65.5 18.5t24.5 49.5q0 23 -15 37.5t-41 14.5q-19 0 -34 -7.5t-22 -17.5l-71 10l32 257h237v-87h-146l-10 -72q8 4 33 4q65 0 106 -36t41 -96q0 -36 -14 -66t-39 -51.5t-60.5 -33.5
t-77.5 -12z" />
    <glyph glyph-name="uni2086" unicode="&#x2086;" horiz-adv-x="370" 
d="M211 174q27 0 52.5 -9.5t44.5 -27.5t30.5 -43t11.5 -56q0 -65 -44.5 -104.5t-117.5 -39.5t-117.5 39t-44.5 104q0 43 14.5 76.5t41.5 71.5l116 159h120l-131 -171q5 1 11 1h13zM188 -18q23 0 37.5 15t14.5 41q0 25 -14.5 40t-37.5 15t-37.5 -15t-14.5 -40q0 -26 14.5 -41
t37.5 -15z" />
    <glyph glyph-name="uni2087" unicode="&#x2087;" horiz-adv-x="332" 
d="M326 344l-145 -444h-112l119 357h-174v87h312z" />
    <glyph glyph-name="uni2088" unicode="&#x2088;" horiz-adv-x="386" 
d="M288 131q32 -16 49.5 -42t17.5 -61q0 -61 -44.5 -97.5t-117.5 -36.5t-117.5 36t-44.5 95q0 35 18 62.5t50 43.5q-26 15 -41 39.5t-15 54.5q0 57 41 91t109 34t109 -34t41 -90q0 -31 -14.5 -55t-40.5 -40zM193 263q-18 0 -29 -12.5t-11 -32.5t11 -32t29 -12t29 12t11 32
t-11 32.5t-29 12.5zM193 -18q23 0 37.5 14.5t14.5 37.5q0 24 -14.5 38.5t-37.5 14.5t-37.5 -14.5t-14.5 -38.5q0 -23 14.5 -37.5t37.5 -14.5z" />
    <glyph glyph-name="uni2089" unicode="&#x2089;" horiz-adv-x="370" 
d="M182 350q73 0 117.5 -39t44.5 -104q0 -43 -14.5 -76.5t-41.5 -71.5l-116 -159h-120l131 171q-5 -1 -11 -1h-13q-27 0 -52.5 9.5t-44.5 27.5t-30.5 43t-11.5 56q0 65 44.5 104.5t117.5 39.5zM130 206q0 -25 14.5 -40t37.5 -15t37.5 15t14.5 40q0 26 -14.5 41t-37.5 15
t-37.5 -15t-14.5 -41z" />
    <glyph glyph-name="Euro" unicode="&#x20ac;" horiz-adv-x="860" 
d="M825 141q-113 -151 -322 -151q-71 0 -132 17t-110 49.5t-84.5 78t-54.5 102.5h-81v107h60q-1 8 -1 14.5v14.5v13h-59v107h76q18 59 53 106.5t84.5 81t112 51.5t135.5 18q91 0 166 -28.5t132 -89.5l-110 -113q-28 39 -76.5 62.5t-110.5 23.5q-67 0 -117 -29.5t-77 -82.5
h197v-107h-224v-15v-13.5t1 -13.5h223v-107h-190q29 -48 78 -75t113 -27q72 0 119 29.5t81 82.5z" />
    <glyph glyph-name="uni20B9" unicode="&#x20b9;" horiz-adv-x="627" 
d="M582 633h-138q42 -41 56 -98h77v-108h-76q-20 -106 -106 -163l172 -264h-206l-132 216h-11h-161v145h149q38 0 66 17.5t42 48.5h-257v108h258q-12 28 -36 44t-57 16h-165v145h525v-107z" />
    <glyph glyph-name="uni20BD" unicode="&#x20bd;" horiz-adv-x="711" 
d="M290 278v-42h201v-107h-201v-129h-175v129h-59v107h59v42h-59v107h59v355h296q61 0 110.5 -16t84.5 -45.5t54 -71t19 -92.5q0 -53 -20 -97t-56 -75t-87 -48t-113 -17h-113zM290 423h103q51 0 78.5 23.5t27.5 62.5t-29 62.5t-77 23.5h-103v-172z" />
    <glyph glyph-name="trademark" unicode="&#x2122;" horiz-adv-x="744" 
d="M293 707h-83v-213h-88v213h-85v73h256v-73zM597 494l-10 157l-69 -157h-34l-70 157l-9 -157h-89l22 286h95l68 -158l66 158h95l24 -286h-89z" />
    <glyph glyph-name="oneeighth" unicode="&#x215b;" horiz-adv-x="948" 
d="M838 231q32 -16 49.5 -42t17.5 -61q0 -61 -44.5 -97.5t-117.5 -36.5t-117.5 36t-44.5 95q0 35 18 62.5t50 43.5q-26 15 -41 39.5t-15 54.5q0 57 41 91t109 34t109 -34t41 -90q0 -31 -14.5 -55t-40.5 -40zM154 296v309l-72 -51l-54 75l151 111h82v-444h-107zM682 697
l-414 -707l-88 54l414 706zM743 363q-18 0 -29 -12.5t-11 -32.5t11 -32t29 -12t29 12t11 32t-11 32.5t-29 12.5zM743 82q23 0 37.5 14.5t14.5 37.5q0 24 -14.5 38.5t-37.5 14.5t-37.5 -14.5t-14.5 -38.5q0 -23 14.5 -37.5t37.5 -14.5z" />
    <glyph glyph-name="threeeighths" unicode="&#x215c;" horiz-adv-x="1008" 
d="M905 231q32 -16 49.5 -42t17.5 -61q0 -61 -44.5 -97.5t-117.5 -36.5t-117.5 36t-44.5 95q0 35 18 62.5t50 43.5q-26 15 -41 39.5t-15 54.5q0 57 41 91t109 34t109 -34t41 -90q0 -31 -14.5 -55t-40.5 -40zM351 437q0 -66 -47.5 -106.5t-130.5 -40.5q-41 0 -78.5 11
t-60.5 30l40 78q15 -14 38.5 -22.5t48.5 -8.5q38 0 58.5 16.5t20.5 42.5t-19 41t-51 15t-56 -15l-29 54l103 121h-131v87h267v-66l-96 -102q56 -6 89.5 -42t33.5 -93zM748 697l-414 -707l-88 54l414 706zM810 363q-18 0 -29 -12.5t-11 -32.5t11 -32t29 -12t29 12t11 32
t-11 32.5t-29 12.5zM810 82q23 0 37.5 14.5t14.5 37.5q0 24 -14.5 38.5t-37.5 14.5t-37.5 -14.5t-14.5 -38.5q0 -23 14.5 -37.5t37.5 -14.5z" />
    <glyph glyph-name="fiveeighths" unicode="&#x215d;" horiz-adv-x="1018" 
d="M913 231q32 -16 49.5 -42t17.5 -61q0 -61 -44.5 -97.5t-117.5 -36.5t-117.5 36t-44.5 95q0 35 18 62.5t50 43.5q-26 15 -41 39.5t-15 54.5q0 57 41 91t109 34t109 -34t41 -90q0 -31 -14.5 -55t-40.5 -40zM360 453q0 -36 -14 -66t-39 -51.5t-60.5 -33.5t-77.5 -12
t-77.5 9.5t-58.5 28.5l32 77q18 -14 43.5 -20.5t51.5 -6.5q41 0 65.5 18.5t24.5 49.5q0 23 -15 37.5t-41 14.5q-19 0 -34 -7.5t-22 -17.5l-71 10l32 257h237v-87h-146l-10 -72q8 4 33 4q65 0 106 -36t41 -96zM757 697l-414 -707l-88 54l414 706zM818 363q-18 0 -29 -12.5
t-11 -32.5t11 -32t29 -12t29 12t11 32t-11 32.5t-29 12.5zM818 82q23 0 37.5 14.5t14.5 37.5q0 24 -14.5 38.5t-37.5 14.5t-37.5 -14.5t-14.5 -38.5q0 -23 14.5 -37.5t37.5 -14.5z" />
    <glyph glyph-name="seveneighths" unicode="&#x215e;" horiz-adv-x="951" 
d="M847 231q32 -16 49.5 -42t17.5 -61q0 -61 -44.5 -97.5t-117.5 -36.5t-117.5 36t-44.5 95q0 35 18 62.5t50 43.5q-26 15 -41 39.5t-15 54.5q0 57 41 91t109 34t109 -34t41 -90q0 -31 -14.5 -55t-40.5 -40zM87 296l119 357h-174v87h312l-145 -444h-112zM691 697l-414 -707
l-88 54l414 706zM752 363q-18 0 -29 -12.5t-11 -32.5t11 -32t29 -12t29 12t11 32t-11 32.5t-29 12.5zM752 82q23 0 37.5 14.5t14.5 37.5q0 24 -14.5 38.5t-37.5 14.5t-37.5 -14.5t-14.5 -38.5q0 -23 14.5 -37.5t37.5 -14.5z" />
    <glyph glyph-name="partialdiff" unicode="&#x2202;" horiz-adv-x="705" 
d="M327 750q77 0 140 -27t107.5 -76.5t69 -119t24.5 -154.5q0 -86 -26.5 -156.5t-74.5 -121t-115 -78t-149 -27.5q-62 0 -113 16t-87 45.5t-56 70.5t-20 91q0 56 31.5 102t90 80.5t141 55.5t183.5 26q-19 60 -57 94t-90 34q-53 0 -94 -23.5t-66 -62.5l-110 113
q52 61 120 89.5t151 28.5zM299 135q77 0 127 53.5t59 144.5q-64 -1 -116 -10.5t-89 -25.5t-57.5 -38t-20.5 -49q0 -34 26.5 -54.5t70.5 -20.5z" />
    <glyph glyph-name="emptyset" unicode="&#x2205;" horiz-adv-x="691" 
d="M573 550q34 -37 52.5 -85.5t18.5 -107.5q0 -64 -21.5 -116t-60.5 -89t-94 -57.5t-121 -20.5q-47 0 -87.5 10t-75.5 28l-34 -38l-66 51l34 38q-34 37 -52.5 85.5t-18.5 108.5q0 63 21.5 115t61 89t95 57.5t122.5 20.5q92 0 160 -38l34 38l66 -51zM223 357q0 -35 11 -63
l167 188q-24 12 -55 12q-56 0 -89.5 -37.5t-33.5 -99.5zM346 220q55 0 88.5 37.5t33.5 99.5q0 34 -11 62l-166 -187q24 -12 55 -12z" />
    <glyph glyph-name="product" unicode="&#x220f;" horiz-adv-x="741" 
d="M662 635h-1v-855h-175v855h-231v-855h-175v1000h582v-145z" />
    <glyph glyph-name="summation" unicode="&#x2211;" 
d="M34 -109l280 392l-270 386v111h595v-145h-383l264 -352l-275 -358h404v-145h-615v111z" />
    <glyph glyph-name="minus" unicode="&#x2212;" horiz-adv-x="620" 
d="M62 422h496v-139h-496v139z" />
    <glyph glyph-name="radical" unicode="&#x221a;" horiz-adv-x="802" 
d="M-1 325h186l123 -353l304 808h186l-405 -1000h-170z" />
    <glyph glyph-name="infinity" unicode="&#x221e;" horiz-adv-x="744" 
d="M514 453q85 0 136 -47.5t51 -126.5q0 -78 -51 -125.5t-136 -47.5q-46 0 -82.5 17.5t-59.5 48.5q-23 -31 -59 -48.5t-83 -17.5q-42 0 -76 12.5t-59 35t-38.5 54.5t-13.5 71t13.5 71.5t38.5 55t59 35t76 12.5q47 0 83 -17.5t59 -49.5q23 32 59.5 49.5t82.5 17.5zM242 214
q27 0 44 18t17 47q0 30 -17 48t-44 18q-29 0 -46 -18t-17 -48q0 -29 17 -47t46 -18zM503 214q26 0 43 18t17 47q0 30 -17 48t-43 18q-29 0 -46 -18t-17 -48q0 -29 17 -47t46 -18z" />
    <glyph glyph-name="integral" unicode="&#x222b;" horiz-adv-x="461" 
d="M329 790q84 0 132 -51l-45 -117q-23 23 -52 23q-22 0 -34 -12t-12 -32v-673q0 -36 -14 -65t-38.5 -49.5t-59 -32t-75.5 -11.5q-43 0 -75.5 13t-56.5 38l46 117q23 -23 51 -23q22 0 34 12t12 32v673q0 36 14 65t39 49.5t59.5 32t74.5 11.5z" />
    <glyph glyph-name="approxequal" unicode="&#x2248;" horiz-adv-x="610" 
d="M410 112q-30 0 -59 7.5t-55.5 17t-49.5 17t-41 7.5q-26 0 -40.5 -10.5t-14.5 -28.5h-90q0 72 39 115t103 43q31 0 59.5 -7.5t55 -16t49 -16t41.5 -7.5q26 0 40.5 8.5t14.5 28.5h90q0 -76 -39 -117t-103 -41zM410 312q-30 0 -59 7.5t-55.5 17t-49.5 17t-41 7.5
q-26 0 -40.5 -10.5t-14.5 -28.5h-90q0 72 39 115t103 43q31 0 59.5 -7.5t55 -16t49 -16t41.5 -7.5q26 0 40.5 8.5t14.5 28.5h90q0 -76 -39 -117t-103 -41z" />
    <glyph glyph-name="notequal" unicode="&#x2260;" horiz-adv-x="618" 
d="M406 390l-20 -75h171v-140h-209l-32 -120h-171l32 120h-116v140h154l20 75h-174v140h212l32 120h171l-32 -120h113v-140h-151z" />
    <glyph glyph-name="lessequal" unicode="&#x2264;" horiz-adv-x="620" 
d="M555 151v-140h-500v140h500zM554 188l-498 200v110l498 200v-159l-262 -96l262 -97v-158z" />
    <glyph glyph-name="greaterequal" unicode="&#x2265;" horiz-adv-x="619" 
d="M565 151v-140h-500v140h500zM66 188v158l263 97l-263 96v159l498 -200v-110z" />
    <glyph glyph-name="lozenge" unicode="&#x25ca;" horiz-adv-x="649" 
d="M615 323l-211 -323h-159l-210 323l210 322h159zM440 323l-115 174l-115 -174l115 -174z" />
    <glyph glyph-name="uniF8FF" unicode="&#xf8ff;" horiz-adv-x="1274" 
d="M76 -10q-8 0 -12.5 5t-4.5 13q0 10 5 15l342 341h-324q-8 0 -15.5 3t-7.5 16q0 5 2 8.5t5 7.5l340 342h-327q-20 0 -20 19v1q0 19 20 19h370q8 0 15.5 -3t7.5 -17q0 -10 -8 -17l-341 -340h330q8 0 14 -6t6 -14v-327l339 338q7 8 17 8q13 0 15.5 -7.5t2.5 -14.5v-324
l340 338q6 8 16 8q8 0 12.5 -5.5t4.5 -13.5q0 -3 -1 -7t-5 -7l-368 -372q-7 -7 -17 -7q-14 0 -17 7.5t-3 15.5v324l-339 -340q-7 -7 -17 -7q-14 0 -17 7.5t-3 15.5v324l-340 -340q-7 -7 -17 -7z" />
    <glyph glyph-name="A.ss01" horiz-adv-x="814" 
d="M408 750q75 0 136.5 -21.5t105 -60.5t67.5 -94t24 -122v-452h-175v198h-318v-198h-175v452q0 67 24 122t68 94t106 60.5t137 21.5zM566 343v102q0 72 -43.5 116t-114.5 44q-72 0 -116 -44t-44 -116v-102h318z" />
    <glyph glyph-name="AE.ss01" horiz-adv-x="988" 
d="M940 145v-145h-485v198h-210v-198h-176v392q0 78 28 142.5t78.5 110t121.5 70.5t158 25h477v-145h-302v-148h267v-145h-267v-157h310zM245 343h210v252q-48 0 -86.5 -15t-66 -42.5t-42.5 -66.5t-15 -86v-42z" />
    <glyph glyph-name="Aacute.ss01" horiz-adv-x="814" 
d="M408 750q75 0 136.5 -21.5t105 -60.5t67.5 -94t24 -122v-452h-175v198h-318v-198h-175v452q0 67 24 122t68 94t106 60.5t137 21.5zM446 813h-144l138 167h197zM566 343v102q0 72 -43.5 116t-114.5 44q-72 0 -116 -44t-44 -116v-102h318z" />
    <glyph glyph-name="Abreve.ss01" horiz-adv-x="814" 
d="M408 750q75 0 136.5 -21.5t105 -60.5t67.5 -94t24 -122v-452h-175v198h-318v-198h-175v452q0 67 24 122t68 94t106 60.5t137 21.5zM408 804q-43 0 -79 12.5t-61 35.5t-39 55.5t-14 72.5h127q0 -35 18.5 -57t47.5 -22q30 0 48 22t18 57h127q0 -40 -14 -72.5t-39 -55.5
t-60.5 -35.5t-79.5 -12.5zM566 343v102q0 72 -43.5 116t-114.5 44q-72 0 -116 -44t-44 -116v-102h318z" />
    <glyph glyph-name="Acircumflex.ss01" horiz-adv-x="814" 
d="M408 750q75 0 136.5 -21.5t105 -60.5t67.5 -94t24 -122v-452h-175v198h-318v-198h-175v452q0 67 24 122t68 94t106 60.5t137 21.5zM351 813h-156l132 167h160l131 -167h-155l-56 69zM566 343v102q0 72 -43.5 116t-114.5 44q-72 0 -116 -44t-44 -116v-102h318z" />
    <glyph glyph-name="Adieresis.ss01" horiz-adv-x="814" 
d="M408 750q75 0 136.5 -21.5t105 -60.5t67.5 -94t24 -122v-452h-175v198h-318v-198h-175v452q0 67 24 122t68 94t106 60.5t137 21.5zM275 803q-45 0 -72 26.5t-27 71.5q0 44 27 71t72 27t71.5 -27t26.5 -71q0 -45 -26.5 -71.5t-71.5 -26.5zM542 803q-45 0 -72 26.5
t-27 71.5q0 44 27 71t72 27t71.5 -27t26.5 -71q0 -45 -26.5 -71.5t-71.5 -26.5zM566 343v102q0 72 -43.5 116t-114.5 44q-72 0 -116 -44t-44 -116v-102h318z" />
    <glyph glyph-name="Agrave.ss01" horiz-adv-x="814" 
d="M408 750q75 0 136.5 -21.5t105 -60.5t67.5 -94t24 -122v-452h-175v198h-318v-198h-175v452q0 67 24 122t68 94t106 60.5t137 21.5zM368 813l-191 167h197l138 -167h-144zM566 343v102q0 72 -43.5 116t-114.5 44q-72 0 -116 -44t-44 -116v-102h318z" />
    <glyph glyph-name="Amacron.ss01" horiz-adv-x="814" 
d="M408 750q75 0 136.5 -21.5t105 -60.5t67.5 -94t24 -122v-452h-175v198h-318v-198h-175v452q0 67 24 122t68 94t106 60.5t137 21.5zM597 807h-379v133h379v-133zM566 343v102q0 72 -43.5 116t-114.5 44q-72 0 -116 -44t-44 -116v-102h318z" />
    <glyph glyph-name="Aogonek.ss01" horiz-adv-x="814" 
d="M745 -202q-19 -13 -41.5 -20.5t-57.5 -7.5q-50 0 -80 26t-30 68q0 37 22 70.5t62 65.5h-54v198h-318v-198h-175v452q0 67 24 122t68 94t106 60.5t137 21.5t136.5 -21.5t105 -60.5t67.5 -94t24 -122v-376l1 1v-77q-84 -53 -84 -107q0 -28 31 -28q12 0 22.5 4t19.5 10z
M566 343v102q0 72 -43.5 116t-114.5 44q-72 0 -116 -44t-44 -116v-102h318z" />
    <glyph glyph-name="Aring.ss01" horiz-adv-x="814" 
d="M408 750q75 0 136.5 -21.5t105 -60.5t67.5 -94t24 -122v-452h-175v198h-318v-198h-175v452q0 67 24 122t68 94t106 60.5t137 21.5zM408 779q-55 0 -88.5 30t-33.5 80q0 49 33.5 79t88.5 30t88 -30t33 -79q0 -50 -33 -80t-88 -30zM566 343v102q0 72 -43.5 116t-114.5 44
q-72 0 -116 -44t-44 -116v-102h318zM408 923q-16 0 -25.5 -9.5t-9.5 -24.5q0 -16 9.5 -25.5t25.5 -9.5q15 0 24.5 9.5t9.5 25.5q0 15 -9.5 24.5t-24.5 9.5z" />
    <glyph glyph-name="Atilde.ss01" horiz-adv-x="814" 
d="M408 750q75 0 136.5 -21.5t105 -60.5t67.5 -94t24 -122v-452h-175v198h-318v-198h-175v452q0 67 24 122t68 94t106 60.5t137 21.5zM328 858q-17 0 -25.5 -10.5t-8.5 -28.5h-90q0 72 33 115.5t88 43.5q24 0 47 -7.5t43.5 -16.5t38.5 -16.5t32 -7.5q34 0 34 38h90
q0 -77 -33 -118t-88 -41q-23 0 -45.5 7.5t-43.5 17t-39.5 17t-32.5 7.5zM566 343v102q0 72 -43.5 116t-114.5 44q-72 0 -116 -44t-44 -116v-102h318z" />
    <glyph glyph-name="C.ss02" horiz-adv-x="648" 
d="M438 -10q-90 0 -163.5 27.5t-126 77t-81.5 120t-29 155.5q0 86 29 156t81.5 119.5t126 77t163.5 27.5q47 0 88.5 -9.5t78.5 -29.5v-160q-28 26 -69.5 40t-95.5 14q-49 0 -90 -17t-69.5 -47.5t-44.5 -74t-16 -96.5t16 -96.5t44.5 -74t69.5 -47.5t90 -17q54 0 95.5 14.5
t69.5 39.5v-160q-37 -20 -78.5 -29.5t-88.5 -9.5z" />
    <glyph glyph-name="Cacute.ss02" horiz-adv-x="648" 
d="M438 -10q-90 0 -163.5 27.5t-126 77t-81.5 120t-29 155.5q0 86 29 156t81.5 119.5t126 77t163.5 27.5q47 0 88.5 -9.5t78.5 -29.5v-160q-28 26 -69.5 40t-95.5 14q-49 0 -90 -17t-69.5 -47.5t-44.5 -74t-16 -96.5t16 -96.5t44.5 -74t69.5 -47.5t90 -17q54 0 95.5 14.5
t69.5 39.5v-160q-37 -20 -78.5 -29.5t-88.5 -9.5zM463 980h197l-191 -167h-144z" />
    <glyph glyph-name="Ccaron.ss02" horiz-adv-x="648" 
d="M38 370q0 86 29 156t81.5 119.5t126 77t163.5 27.5q47 0 88.5 -9.5t78.5 -29.5v-160q-28 26 -69.5 40t-95.5 14q-49 0 -90 -17t-69.5 -47.5t-44.5 -74t-16 -96.5t16 -96.5t44.5 -74t69.5 -47.5t90 -17q54 0 95.5 14.5t69.5 39.5v-160q-37 -20 -78.5 -29.5t-88.5 -9.5
q-90 0 -163.5 27.5t-126 77t-81.5 120t-29 155.5zM218 980h156l56 -69l56 69h155l-131 -167h-160z" />
    <glyph glyph-name="Ccedilla.ss02" horiz-adv-x="648" 
d="M440 605q-49 0 -90 -17t-69.5 -47.5t-44.5 -74t-16 -96.5t16 -96.5t44.5 -74t69.5 -47.5t90 -17q54 0 95.5 14.5t69.5 39.5v-160q-59 -32 -135 -38l-25 -40q44 -4 69.5 -27.5t25.5 -58.5q0 -42 -36.5 -68.5t-99.5 -26.5q-30 0 -57.5 6.5t-44.5 16.5l29 60q10 -7 24 -11.5
t31 -4.5q21 0 32.5 8t11.5 19t-10.5 17t-27.5 6q-16 0 -32 -7l-21 37l40 76q-78 9 -141 39.5t-107.5 79.5t-68.5 114.5t-24 143.5q0 86 29 156t81.5 119.5t126 77t163.5 27.5q47 0 88.5 -9.5t78.5 -29.5v-160q-28 26 -69.5 40t-95.5 14z" />
    <glyph glyph-name="Cdotaccent.ss02" horiz-adv-x="648" 
d="M438 -10q-90 0 -163.5 27.5t-126 77t-81.5 120t-29 155.5q0 86 29 156t81.5 119.5t126 77t163.5 27.5q47 0 88.5 -9.5t78.5 -29.5v-160q-28 26 -69.5 40t-95.5 14q-49 0 -90 -17t-69.5 -47.5t-44.5 -74t-16 -96.5t16 -96.5t44.5 -74t69.5 -47.5t90 -17q54 0 95.5 14.5
t69.5 39.5v-160q-37 -20 -78.5 -29.5t-88.5 -9.5zM431 803q-43 0 -71 27.5t-28 70.5t28 70.5t71 27.5t70.5 -27.5t27.5 -70.5t-27.5 -70.5t-70.5 -27.5z" />
    <glyph glyph-name="J.ss01" horiz-adv-x="596" 
d="M522 266q0 -62 -21 -113t-59.5 -87t-92.5 -56t-120 -20q-63 0 -118 20.5t-100 58.5l87 117q24 -24 54.5 -37.5t65.5 -13.5q58 0 93.5 38t35.5 101v321h-292v145h467v-474z" />
    <glyph glyph-name="Z.ss02" horiz-adv-x="627" 
d="M599 145v-145h-573l303 595h-297v145h561l-304 -595h310z" />
    <glyph glyph-name="Zacute.ss02" horiz-adv-x="627" 
d="M599 145v-145h-573l303 595h-297v145h561l-304 -595h310zM352 813h-144l138 167h197z" />
    <glyph glyph-name="Zcaron.ss02" horiz-adv-x="627" 
d="M599 145v-145h-573l303 595h-297v145h561l-304 -595h310zM101 980h156l56 -69l56 69h155l-131 -167h-160z" />
    <glyph glyph-name="Zdotaccent.ss02" horiz-adv-x="627" 
d="M599 145v-145h-573l303 595h-297v145h561l-304 -595h310zM314 803q-43 0 -71 27.5t-28 70.5t28 70.5t71 27.5t70.5 -27.5t27.5 -70.5t-27.5 -70.5t-70.5 -27.5z" />
    <glyph glyph-name="Zeta.ss02" horiz-adv-x="627" 
d="M599 145v-145h-573l303 595h-297v145h561l-304 -595h310z" />
    <glyph glyph-name="a.ss01" 
d="M626 545v-545h-163l-3 67q-28 -37 -69 -57t-97 -20q-54 0 -101.5 20t-82.5 56.5t-55.5 88.5t-20.5 115q0 64 20.5 116.5t55.5 90t82.5 58t101.5 20.5q56 0 97 -20t69 -58l3 68h163zM333 136q56 0 89.5 37t33.5 100q0 61 -33.5 99t-89.5 38t-89.5 -38t-33.5 -100
q0 -61 33.5 -98.5t89.5 -37.5z" />
    <glyph glyph-name="a.ss02" horiz-adv-x="598" 
d="M536 545v-545h-164l-2 62q-27 -35 -66 -53.5t-82 -18.5t-79 12.5t-61 35.5t-39 55.5t-14 71.5q0 40 17 73t48 56t74.5 36t96.5 13q23 0 49 -2.5t52 -7.5v79h-303v133h473zM271 111q38 0 66 28.5t29 79.5q-21 4 -41 6t-38 2q-38 0 -60 -16.5t-22 -42.5t15.5 -41.5
t50.5 -15.5z" />
    <glyph glyph-name="aacute.ss01" 
d="M626 545v-545h-163l-3 67q-28 -37 -69 -57t-97 -20q-54 0 -101.5 20t-82.5 56.5t-55.5 88.5t-20.5 115q0 64 20.5 116.5t55.5 90t82.5 58t101.5 20.5q56 0 97 -20t69 -58l3 68h163zM379 618h-144l138 167h197zM333 136q56 0 89.5 37t33.5 100q0 61 -33.5 99t-89.5 38
t-89.5 -38t-33.5 -100q0 -61 33.5 -98.5t89.5 -37.5z" />
    <glyph glyph-name="aacute.ss02" horiz-adv-x="598" 
d="M536 545v-545h-164l-2 62q-27 -35 -66 -53.5t-82 -18.5t-79 12.5t-61 35.5t-39 55.5t-14 71.5q0 40 17 73t48 56t74.5 36t96.5 13q23 0 49 -2.5t52 -7.5v79h-303v133h473zM343 618h-144l138 167h197zM271 111q38 0 66 28.5t29 79.5q-21 4 -41 6t-38 2q-38 0 -60 -16.5
t-22 -42.5t15.5 -41.5t50.5 -15.5z" />
    <glyph glyph-name="abreve.ss01" 
d="M626 545v-545h-163l-3 67q-28 -37 -69 -57t-97 -20q-54 0 -101.5 20t-82.5 56.5t-55.5 88.5t-20.5 115q0 64 20.5 116.5t55.5 90t82.5 58t101.5 20.5q56 0 97 -20t69 -58l3 68h163zM341 609q-43 0 -79 12.5t-61 35.5t-39 55.5t-14 72.5h127q0 -35 18.5 -57t47.5 -22
q30 0 48 22t18 57h127q0 -40 -14 -72.5t-39 -55.5t-60.5 -35.5t-79.5 -12.5zM333 136q56 0 89.5 37t33.5 100q0 61 -33.5 99t-89.5 38t-89.5 -38t-33.5 -100q0 -61 33.5 -98.5t89.5 -37.5z" />
    <glyph glyph-name="abreve.ss02" horiz-adv-x="598" 
d="M536 545v-545h-164l-2 62q-27 -35 -66 -53.5t-82 -18.5t-79 12.5t-61 35.5t-39 55.5t-14 71.5q0 40 17 73t48 56t74.5 36t96.5 13q23 0 49 -2.5t52 -7.5v79h-303v133h473zM305 609q-43 0 -79 12.5t-61 35.5t-39 55.5t-14 72.5h127q0 -35 18.5 -57t47.5 -22q30 0 48 22
t18 57h127q0 -40 -14 -72.5t-39 -55.5t-60.5 -35.5t-79.5 -12.5zM271 111q38 0 66 28.5t29 79.5q-21 4 -41 6t-38 2q-38 0 -60 -16.5t-22 -42.5t15.5 -41.5t50.5 -15.5z" />
    <glyph glyph-name="acircumflex.ss01" 
d="M626 545v-545h-163l-3 67q-28 -37 -69 -57t-97 -20q-54 0 -101.5 20t-82.5 56.5t-55.5 88.5t-20.5 115q0 64 20.5 116.5t55.5 90t82.5 58t101.5 20.5q56 0 97 -20t69 -58l3 68h163zM284 618h-156l132 167h160l131 -167h-155l-56 69zM333 136q56 0 89.5 37t33.5 100
q0 61 -33.5 99t-89.5 38t-89.5 -38t-33.5 -100q0 -61 33.5 -98.5t89.5 -37.5z" />
    <glyph glyph-name="acircumflex.ss02" horiz-adv-x="598" 
d="M536 545v-545h-164l-2 62q-27 -35 -66 -53.5t-82 -18.5t-79 12.5t-61 35.5t-39 55.5t-14 71.5q0 40 17 73t48 56t74.5 36t96.5 13q23 0 49 -2.5t52 -7.5v79h-303v133h473zM248 618h-156l132 167h160l131 -167h-155l-56 69zM271 111q38 0 66 28.5t29 79.5q-21 4 -41 6
t-38 2q-38 0 -60 -16.5t-22 -42.5t15.5 -41.5t50.5 -15.5z" />
    <glyph glyph-name="adieresis.ss01" 
d="M626 545v-545h-163l-3 67q-28 -37 -69 -57t-97 -20q-54 0 -101.5 20t-82.5 56.5t-55.5 88.5t-20.5 115q0 64 20.5 116.5t55.5 90t82.5 58t101.5 20.5q56 0 97 -20t69 -58l3 68h163zM208 608q-45 0 -72 26.5t-27 71.5q0 44 27 71t72 27t71.5 -27t26.5 -71
q0 -45 -26.5 -71.5t-71.5 -26.5zM475 608q-45 0 -72 26.5t-27 71.5q0 44 27 71t72 27t71.5 -27t26.5 -71q0 -45 -26.5 -71.5t-71.5 -26.5zM333 136q56 0 89.5 37t33.5 100q0 61 -33.5 99t-89.5 38t-89.5 -38t-33.5 -100q0 -61 33.5 -98.5t89.5 -37.5z" />
    <glyph glyph-name="adieresis.ss02" horiz-adv-x="598" 
d="M63 545h473v-545h-164l-2 62q-27 -35 -66 -53.5t-82 -18.5t-79 12.5t-61 35.5t-39 55.5t-14 71.5q0 40 17 73t48 56t74.5 36t96.5 13q23 0 49 -2.5t52 -7.5v79h-303v133zM172 608q-45 0 -72 26.5t-27 71.5q0 44 27 71t72 27t71.5 -27t26.5 -71q0 -45 -26.5 -71.5
t-71.5 -26.5zM439 608q-45 0 -72 26.5t-27 71.5q0 44 27 71t72 27t71.5 -27t26.5 -71q0 -45 -26.5 -71.5t-71.5 -26.5zM271 111q38 0 66 28.5t29 79.5q-21 4 -41 6t-38 2q-38 0 -60 -16.5t-22 -42.5t15.5 -41.5t50.5 -15.5z" />
    <glyph glyph-name="agrave.ss01" 
d="M626 545v-545h-163l-3 67q-28 -37 -69 -57t-97 -20q-54 0 -101.5 20t-82.5 56.5t-55.5 88.5t-20.5 115q0 64 20.5 116.5t55.5 90t82.5 58t101.5 20.5q56 0 97 -20t69 -58l3 68h163zM302 618l-191 167h197l138 -167h-144zM333 136q56 0 89.5 37t33.5 100q0 61 -33.5 99
t-89.5 38t-89.5 -38t-33.5 -100q0 -61 33.5 -98.5t89.5 -37.5z" />
    <glyph glyph-name="agrave.ss02" horiz-adv-x="598" 
d="M536 545v-545h-164l-2 62q-27 -35 -66 -53.5t-82 -18.5t-79 12.5t-61 35.5t-39 55.5t-14 71.5q0 40 17 73t48 56t74.5 36t96.5 13q23 0 49 -2.5t52 -7.5v79h-303v133h473zM266 618l-191 167h197l138 -167h-144zM271 111q38 0 66 28.5t29 79.5q-21 4 -41 6t-38 2
q-38 0 -60 -16.5t-22 -42.5t15.5 -41.5t50.5 -15.5z" />
    <glyph glyph-name="alpha.ss01" 
d="M626 545v-545h-163l-3 67q-28 -37 -69 -57t-97 -20q-54 0 -101.5 20t-82.5 56.5t-55.5 88.5t-20.5 115q0 64 20.5 116.5t55.5 90t82.5 58t101.5 20.5q56 0 97 -20t69 -58l3 68h163zM333 136q56 0 89.5 37t33.5 100q0 61 -33.5 99t-89.5 38t-89.5 -38t-33.5 -100
q0 -61 33.5 -98.5t89.5 -37.5z" />
    <glyph glyph-name="alpha.ss02" 
d="M626 545v-545h-163l-3 67q-28 -37 -69 -57t-97 -20q-54 0 -101.5 20t-82.5 56.5t-55.5 88.5t-20.5 115q0 64 20.5 116.5t55.5 90t82.5 58t101.5 20.5q56 0 97 -20t69 -58l3 68h163zM333 136q56 0 89.5 37t33.5 100q0 61 -33.5 99t-89.5 38t-89.5 -38t-33.5 -100
q0 -61 33.5 -98.5t89.5 -37.5z" />
    <glyph glyph-name="alphatonos.ss01" 
d="M626 545v-545h-163l-3 67q-28 -37 -69 -57t-97 -20q-54 0 -101.5 20t-82.5 56.5t-55.5 88.5t-20.5 115q0 64 20.5 116.5t55.5 90t82.5 58t101.5 20.5q56 0 97 -20t69 -58l3 68h163zM404 618h-127l33 167h162zM333 136q56 0 89.5 37t33.5 100q0 61 -33.5 99t-89.5 38
t-89.5 -38t-33.5 -100q0 -61 33.5 -98.5t89.5 -37.5z" />
    <glyph glyph-name="alphatonos.ss02" 
d="M626 545v-545h-163l-3 67q-28 -37 -69 -57t-97 -20q-54 0 -101.5 20t-82.5 56.5t-55.5 88.5t-20.5 115q0 64 20.5 116.5t55.5 90t82.5 58t101.5 20.5q56 0 97 -20t69 -58l3 68h163zM404 618h-127l33 167h162zM333 136q56 0 89.5 37t33.5 100q0 61 -33.5 99t-89.5 38
t-89.5 -38t-33.5 -100q0 -61 33.5 -98.5t89.5 -37.5z" />
    <glyph glyph-name="amacron.ss01" 
d="M626 545v-545h-163l-3 67q-28 -37 -69 -57t-97 -20q-54 0 -101.5 20t-82.5 56.5t-55.5 88.5t-20.5 115q0 64 20.5 116.5t55.5 90t82.5 58t101.5 20.5q56 0 97 -20t69 -58l3 68h163zM530 612h-379v133h379v-133zM333 136q56 0 89.5 37t33.5 100q0 61 -33.5 99t-89.5 38
t-89.5 -38t-33.5 -100q0 -61 33.5 -98.5t89.5 -37.5z" />
    <glyph glyph-name="amacron.ss02" horiz-adv-x="598" 
d="M536 545v-545h-164l-2 62q-27 -35 -66 -53.5t-82 -18.5t-79 12.5t-61 35.5t-39 55.5t-14 71.5q0 40 17 73t48 56t74.5 36t96.5 13q23 0 49 -2.5t52 -7.5v79h-303v133h473zM494 612h-379v133h379v-133zM271 111q38 0 66 28.5t29 79.5q-21 4 -41 6t-38 2q-38 0 -60 -16.5
t-22 -42.5t15.5 -41.5t50.5 -15.5z" />
    <glyph glyph-name="aogonek.ss01" 
d="M630 -202q-19 -13 -41.5 -20.5t-57.5 -7.5q-50 0 -80 26t-30 68q0 37 22 70.5t62 65.5h-42l-3 67q-28 -37 -69 -57t-97 -20q-54 0 -101.5 20t-82.5 56.5t-55.5 88.5t-20.5 115q0 64 20.5 116.5t55.5 90t82.5 58t101.5 20.5q56 0 97 -20t69 -58l3 68h163v-469l1 1v-77
q-84 -53 -84 -107q0 -28 31 -28q12 0 22.5 4t19.5 10zM333 136q56 0 89.5 37t33.5 100q0 61 -33.5 99t-89.5 38t-89.5 -38t-33.5 -100q0 -61 33.5 -98.5t89.5 -37.5z" />
    <glyph glyph-name="aogonek.ss02" horiz-adv-x="598" 
d="M539 -202q-19 -13 -41.5 -20.5t-57.5 -7.5q-50 0 -80 26t-30 68q0 37 22 70.5t62 65.5h-42l-2 62q-27 -35 -66 -53.5t-82 -18.5t-79 12.5t-61 35.5t-39 55.5t-14 71.5q0 40 17 73t48 56t74.5 36t96.5 13q23 0 49 -2.5t52 -7.5v79h-303v133h473v-545q-84 -53 -84 -107
q0 -28 31 -28q12 0 22.5 4t19.5 10zM271 111q38 0 66 28.5t29 79.5q-21 4 -41 6t-38 2q-38 0 -60 -16.5t-22 -42.5t15.5 -41.5t50.5 -15.5z" />
    <glyph glyph-name="aring.ss01" 
d="M626 545v-545h-163l-3 67q-28 -37 -69 -57t-97 -20q-54 0 -101.5 20t-82.5 56.5t-55.5 88.5t-20.5 115q0 64 20.5 116.5t55.5 90t82.5 58t101.5 20.5q56 0 97 -20t69 -58l3 68h163zM341 584q-55 0 -88.5 30t-33.5 80q0 49 33.5 79t88.5 30t88 -30t33 -79q0 -50 -33 -80
t-88 -30zM333 136q56 0 89.5 37t33.5 100q0 61 -33.5 99t-89.5 38t-89.5 -38t-33.5 -100q0 -61 33.5 -98.5t89.5 -37.5zM341 728q-16 0 -25.5 -9.5t-9.5 -24.5q0 -16 9.5 -25.5t25.5 -9.5q15 0 24.5 9.5t9.5 25.5q0 15 -9.5 24.5t-24.5 9.5z" />
    <glyph glyph-name="aring.ss02" horiz-adv-x="598" 
d="M536 545v-545h-164l-2 62q-27 -35 -66 -53.5t-82 -18.5t-79 12.5t-61 35.5t-39 55.5t-14 71.5q0 40 17 73t48 56t74.5 36t96.5 13q23 0 49 -2.5t52 -7.5v79h-303v133h473zM305 584q-55 0 -88.5 30t-33.5 80q0 49 33.5 79t88.5 30t88 -30t33 -79q0 -50 -33 -80t-88 -30z
M271 111q38 0 66 28.5t29 79.5q-21 4 -41 6t-38 2q-38 0 -60 -16.5t-22 -42.5t15.5 -41.5t50.5 -15.5zM305 728q-16 0 -25.5 -9.5t-9.5 -24.5q0 -16 9.5 -25.5t25.5 -9.5q15 0 24.5 9.5t9.5 25.5q0 15 -9.5 24.5t-24.5 9.5z" />
    <glyph glyph-name="atilde.ss01" 
d="M626 545v-545h-163l-3 67q-28 -37 -69 -57t-97 -20q-54 0 -101.5 20t-82.5 56.5t-55.5 88.5t-20.5 115q0 64 20.5 116.5t55.5 90t82.5 58t101.5 20.5q56 0 97 -20t69 -58l3 68h163zM262 663q-17 0 -25.5 -10.5t-8.5 -28.5h-90q0 72 33 115.5t88 43.5q24 0 47 -7.5
t43.5 -16.5t38.5 -16.5t32 -7.5q34 0 34 38h90q0 -77 -33 -118t-88 -41q-23 0 -45.5 7.5t-43.5 17t-39.5 17t-32.5 7.5zM333 136q56 0 89.5 37t33.5 100q0 61 -33.5 99t-89.5 38t-89.5 -38t-33.5 -100q0 -61 33.5 -98.5t89.5 -37.5z" />
    <glyph glyph-name="atilde.ss02" horiz-adv-x="598" 
d="M536 545v-545h-164l-2 62q-27 -35 -66 -53.5t-82 -18.5t-79 12.5t-61 35.5t-39 55.5t-14 71.5q0 40 17 73t48 56t74.5 36t96.5 13q23 0 49 -2.5t52 -7.5v79h-303v133h473zM226 663q-17 0 -25.5 -10.5t-8.5 -28.5h-90q0 72 33 115.5t88 43.5q24 0 47 -7.5t43.5 -16.5
t38.5 -16.5t32 -7.5q34 0 34 38h90q0 -77 -33 -118t-88 -41q-23 0 -45.5 7.5t-43.5 17t-39.5 17t-32.5 7.5zM271 111q38 0 66 28.5t29 79.5q-21 4 -41 6t-38 2q-38 0 -60 -16.5t-22 -42.5t15.5 -41.5t50.5 -15.5z" />
    <glyph glyph-name="braceleft.case" horiz-adv-x="454" 
d="M291 -50q-81 0 -129.5 46t-48.5 123v117q0 29 -19.5 45.5t-51.5 16.5h-5v145h5q32 0 51.5 16.5t19.5 44.5v118q0 76 48.5 122t129.5 46q37 0 65 -3.5t55 -9.5v-136q-20 4 -53 4q-32 0 -51 -20.5t-19 -54.5v-86q0 -42 -24.5 -73t-64.5 -41q40 -10 64.5 -40.5t24.5 -72.5
v-86q0 -35 19 -55.5t51 -20.5q16 0 29 1.5t24 3.5v-137q-27 -6 -55 -9.5t-65 -3.5z" />
    <glyph glyph-name="braceright.case" horiz-adv-x="454" 
d="M163 -50q-37 0 -65 3.5t-55 9.5v137q11 -2 24 -3.5t28 -1.5q32 0 51.5 20.5t19.5 55.5v86q0 42 24 72.5t64 40.5q-40 10 -64 41t-24 73v86q0 34 -19.5 54.5t-51.5 20.5t-52 -4v136q27 6 55 9.5t65 3.5q81 0 129.5 -46t48.5 -122v-118q0 -28 19.5 -44.5t51.5 -16.5h5v-145
h-5q-32 0 -51.5 -16.5t-19.5 -45.5v-117q0 -77 -48.5 -123t-129.5 -46z" />
    <glyph glyph-name="bracketleft.case" horiz-adv-x="429" 
d="M79 780h307v-145h-131v-529h131v-146h-307v820z" />
    <glyph glyph-name="bracketright.case" horiz-adv-x="429" 
d="M43 106h131v529h-131v145h307v-820h-307v146z" />
    <glyph glyph-name="brevecombcy" horiz-adv-x="0" 
d="M-218 609q-44 0 -79.5 12.5t-60.5 35.5t-39 55.5t-14 72.5h127q0 -35 18.5 -57t47.5 -22q30 0 48 22t18 57h127q0 -40 -14 -72.5t-39 -55.5t-61 -35.5t-79 -12.5z" />
    <glyph glyph-name="c.ss02" horiz-adv-x="490" 
d="M335 -10q-68 0 -123.5 20.5t-95 57.5t-61 89t-21.5 116q0 63 21.5 115t61 89t95 57.5t123.5 20.5q28 0 56.5 -6t50.5 -17v-157q-17 16 -43 25.5t-55 9.5q-60 0 -97 -37.5t-37 -99.5t37 -99.5t97 -37.5q31 0 58.5 10.5t44.5 27.5v-156q-20 -14 -51.5 -21t-60.5 -7z" />
    <glyph glyph-name="cacute.ss02" horiz-adv-x="490" 
d="M335 -10q-68 0 -123.5 20.5t-95 57.5t-61 89t-21.5 116q0 63 21.5 115t61 89t95 57.5t123.5 20.5q28 0 56.5 -6t50.5 -17v-157q-17 16 -43 25.5t-55 9.5q-60 0 -97 -37.5t-37 -99.5t37 -99.5t97 -37.5q31 0 58.5 10.5t44.5 27.5v-156q-20 -14 -51.5 -21t-60.5 -7z
M354 785h197l-191 -167h-144z" />
    <glyph glyph-name="ccaron.ss02" horiz-adv-x="490" 
d="M344 136q31 0 58.5 10.5t44.5 27.5v-156q-20 -14 -51.5 -21t-60.5 -7q-68 0 -123.5 20.5t-95 57.5t-61 89t-21.5 116q0 63 21.5 115t61 89t95 57.5t123.5 20.5q28 0 56.5 -6t50.5 -17v-157q-17 16 -43 25.5t-55 9.5q-60 0 -97 -37.5t-37 -99.5t37 -99.5t97 -37.5z
M109 785h156l56 -69l56 69h155l-131 -167h-160z" />
    <glyph glyph-name="ccedilla.ss02" horiz-adv-x="490" 
d="M447 18q-18 -12 -45 -19t-53 -9l-24 -39q44 -4 69.5 -27.5t25.5 -58.5q0 -42 -36.5 -68.5t-99.5 -26.5q-30 0 -57.5 6.5t-44.5 16.5l29 60q10 -7 24 -11.5t31 -4.5q21 0 32.5 8t11.5 19t-10.5 17t-27.5 6q-16 0 -32 -7l-21 37l41 80q-52 10 -93.5 34t-71 59.5t-45.5 82
t-16 100.5q0 63 21.5 115t61 89t95 57.5t123.5 20.5q28 0 56.5 -6t50.5 -17v-157q-17 16 -43 25.5t-55 9.5q-60 0 -97 -37.5t-37 -99.5t37 -99.5t97 -37.5q31 0 58.5 10.5t44.5 27.5v-156z" />
    <glyph glyph-name="cdotaccent.ss02" horiz-adv-x="490" 
d="M335 -10q-68 0 -123.5 20.5t-95 57.5t-61 89t-21.5 116q0 63 21.5 115t61 89t95 57.5t123.5 20.5q28 0 56.5 -6t50.5 -17v-157q-17 16 -43 25.5t-55 9.5q-60 0 -97 -37.5t-37 -99.5t37 -99.5t97 -37.5q31 0 58.5 10.5t44.5 27.5v-156q-20 -14 -51.5 -21t-60.5 -7z
M322 608q-43 0 -71 27.5t-28 70.5t28 70.5t71 27.5t70.5 -27.5t27.5 -70.5t-27.5 -70.5t-70.5 -27.5z" />
    <glyph glyph-name="eight.dnom" horiz-adv-x="386" 
d="M288 231q32 -16 49.5 -42t17.5 -61q0 -61 -44.5 -97.5t-117.5 -36.5t-117.5 36t-44.5 95q0 35 18 62.5t50 43.5q-26 15 -41 39.5t-15 54.5q0 57 41 91t109 34t109 -34t41 -90q0 -31 -14.5 -55t-40.5 -40zM193 363q-18 0 -29 -12.5t-11 -32.5t11 -32t29 -12t29 12t11 32
t-11 32.5t-29 12.5zM193 82q23 0 37.5 14.5t14.5 37.5q0 24 -14.5 38.5t-37.5 14.5t-37.5 -14.5t-14.5 -38.5q0 -23 14.5 -37.5t37.5 -14.5z" />
    <glyph glyph-name="eight.lf" horiz-adv-x="626" 
d="M470 386q53 -26 82.5 -71t29.5 -103q0 -50 -19.5 -91t-54.5 -70t-85 -45t-110 -16t-110 16t-85 44.5t-54.5 69t-19.5 89.5q0 59 29.5 104t82.5 72q-44 26 -68 65.5t-24 90.5q0 47 18 85.5t50.5 66t78.5 42.5t102 15t102 -15t78.5 -42t50.5 -65t18 -85q0 -51 -24 -91
t-68 -66zM312 135q40 0 64 24t24 64q0 39 -24 63.5t-64 24.5q-39 0 -63 -24.5t-24 -63.5q0 -40 24 -64t63 -24zM312 605q-30 0 -48.5 -20.5t-18.5 -54.5t18.5 -54t48.5 -20q31 0 49.5 20t18.5 54t-18.5 54.5t-49.5 20.5z" />
    <glyph glyph-name="eight.numr" horiz-adv-x="386" 
d="M288 527q32 -16 49.5 -42t17.5 -61q0 -61 -44.5 -97.5t-117.5 -36.5t-117.5 36t-44.5 95q0 35 18 62.5t50 43.5q-26 15 -41 39.5t-15 54.5q0 57 41 91t109 34t109 -34t41 -90q0 -31 -14.5 -55t-40.5 -40zM193 659q-18 0 -29 -12.5t-11 -32.5t11 -32t29 -12t29 12t11 32
t-11 32.5t-29 12.5zM193 378q23 0 37.5 14.5t14.5 37.5q0 24 -14.5 38.5t-37.5 14.5t-37.5 -14.5t-14.5 -38.5q0 -23 14.5 -37.5t37.5 -14.5z" />
    <glyph glyph-name="eight.osf" horiz-adv-x="615" 
d="M461 386q52 -26 81 -71t29 -103q0 -50 -19 -91t-53.5 -70t-83 -45t-107.5 -16t-108 16t-83.5 44.5t-53.5 69t-19 89.5q0 59 29 104.5t81 71.5q-43 26 -66.5 65.5t-23.5 90.5q0 47 17.5 85.5t49.5 66t77 42.5t100 15t99.5 -15t76.5 -42t49.5 -65t17.5 -85q0 -51 -23.5 -91
t-66.5 -66zM307 135q39 0 63 24t24 64q0 39 -24 63.5t-63 24.5q-40 0 -64 -24.5t-24 -63.5q0 -40 24 -64t64 -24zM307 605q-31 0 -49.5 -20.5t-18.5 -54.5t18.5 -54t49.5 -20q30 0 48.5 20t18.5 54t-18.5 54.5t-48.5 20.5z" />
    <glyph glyph-name="eight.tf" horiz-adv-x="615" 
d="M464 386q53 -26 82.5 -71t29.5 -103q0 -50 -19 -91t-54.5 -70t-85 -45t-109.5 -16q-61 0 -110.5 16t-84.5 44.5t-54.5 69t-19.5 89.5q0 59 29 104.5t83 71.5q-44 26 -68 65.5t-24 90.5q0 47 18 85.5t50.5 66t78.5 42.5t102 15t101.5 -15t78 -42t50.5 -65t18 -85
q0 -51 -24 -91t-68 -66zM307 135q40 0 64 24t24 64q0 39 -24 63.5t-64 24.5q-39 0 -63 -24.5t-24 -63.5q0 -40 24 -64t63 -24zM307 605q-30 0 -48.5 -20.5t-18.5 -54.5t18.5 -54t48.5 -20q31 0 49.5 20t18.5 54t-18.5 54.5t-49.5 20.5z" />
    <glyph glyph-name="eight.tosf" horiz-adv-x="615" 
d="M461 386q52 -26 81 -71t29 -103q0 -50 -19 -91t-53.5 -70t-83 -45t-107.5 -16t-108 16t-83.5 44.5t-53.5 69t-19 89.5q0 59 29 104.5t81 71.5q-43 26 -66.5 65.5t-23.5 90.5q0 47 17.5 85.5t49.5 66t77 42.5t100 15t99.5 -15t76.5 -42t49.5 -65t17.5 -85q0 -51 -23.5 -91
t-66.5 -66zM307 135q40 0 64 24t24 64q0 39 -24 63.5t-64 24.5q-39 0 -63 -24.5t-24 -63.5q0 -40 24 -64t63 -24zM307 605q-30 0 -48.5 -20.5t-18.5 -54.5t18.5 -54t48.5 -20q31 0 49.5 20t18.5 54t-18.5 54.5t-49.5 20.5z" />
    <glyph glyph-name="exclamdown.case" horiz-adv-x="317" 
d="M86 495h145l16 -495h-177zM159 554q-43 0 -71 27t-28 70t28 71t71 28t70.5 -28t27.5 -71t-27.5 -70t-70.5 -27z" />
    <glyph glyph-name="f.ss01" horiz-adv-x="373" 
d="M303 645q-32 0 -51.5 -17t-19.5 -45v-38h123v-139h-123v-406h-170v609q0 41 13.5 74.5t37.5 57t58 36.5t76 13q34 0 67 -5.5t58 -16.5l-11 -132q-14 5 -27.5 7t-30.5 2z" />
    <glyph glyph-name="f.ss02" horiz-adv-x="423" 
d="M283 641v-96h123v-139h-123v-406h-170v406h-85v139h85v235h304v-139h-134z" />
    <glyph glyph-name="fi.ss01" horiz-adv-x="668" 
d="M62 609q0 41 13.5 74.5t37.5 57t58 36.5t76 13q34 0 67 -5.5t58 -16.5l-11 -132q-14 5 -27.5 7t-30.5 2q-32 0 -51.5 -17t-19.5 -45v-38h123v-139h-123v-406h-170v609zM435 545h170v-545h-170v545zM521 608q-43 0 -71 27.5t-28 70.5t28 70.5t71 27.5t70.5 -27.5
t27.5 -70.5t-27.5 -70.5t-70.5 -27.5z" />
    <glyph glyph-name="fi.ss02" horiz-adv-x="717" 
d="M113 780h304v-139h-134v-96h123v-139h-123v-406h-170v406h-85v139h85v235zM484 545h170v-545h-170v545zM570 608q-43 0 -71 27.5t-28 70.5t28 70.5t71 27.5t70.5 -27.5t27.5 -70.5t-27.5 -70.5t-70.5 -27.5z" />
    <glyph glyph-name="five.dnom" horiz-adv-x="369" 
d="M150 -6q-42 0 -77.5 9.5t-58.5 28.5l32 77q18 -14 43.5 -20.5t51.5 -6.5q41 0 65.5 18.5t24.5 49.5q0 23 -15 37.5t-41 14.5q-19 0 -34 -7.5t-22 -17.5l-71 10l32 257h237v-87h-146l-10 -72q8 4 33 4q65 0 106 -36t41 -96q0 -36 -14 -66t-39 -51.5t-60.5 -33.5t-77.5 -12
z" />
    <glyph glyph-name="five.lf" horiz-adv-x="604" 
d="M248 -10q-70 0 -128.5 16t-99.5 48l52 126q32 -23 73.5 -34t86.5 -11q68 0 109 31t41 82q0 40 -25.5 64t-67.5 24q-32 0 -57.5 -11.5t-36.5 -28.5l-117 16l51 428h396v-145h-245l-18 -121q9 3 23 5t35 2q53 0 97.5 -16t77 -44.5t51 -69t18.5 -90.5q0 -61 -23 -111
t-65 -85.5t-100 -55t-128 -19.5z" />
    <glyph glyph-name="five.numr" horiz-adv-x="369" 
d="M150 290q-42 0 -77.5 9.5t-58.5 28.5l32 77q18 -14 43.5 -20.5t51.5 -6.5q41 0 65.5 18.5t24.5 49.5q0 23 -15 37.5t-41 14.5q-19 0 -34 -7.5t-22 -17.5l-71 10l32 257h237v-87h-146l-10 -72q8 4 33 4q65 0 106 -36t41 -96q0 -36 -14 -66t-39 -51.5t-60.5 -33.5
t-77.5 -12z" />
    <glyph glyph-name="five.osf" horiz-adv-x="599" 
d="M246 -110q-69 0 -128 15.5t-99 47.5l52 128q32 -23 73 -34t86 -11q69 0 110 31t41 82q0 41 -25.5 65t-68.5 24q-32 0 -57 -11t-36 -29l-117 17l51 430h396v-139h-246l-23 -130q10 4 25.5 6t38.5 2q51 0 95 -16t75.5 -45t49.5 -70t18 -91q0 -61 -23 -111.5t-64 -86
t-98 -55t-126 -19.5z" />
    <glyph glyph-name="five.tf" horiz-adv-x="615" 
d="M253 -10q-69 0 -128 16t-99 48l52 126q32 -23 73 -34t86 -11q69 0 110 31t41 82q0 40 -25.5 64t-68.5 24q-32 0 -57 -11.5t-36 -28.5l-117 16l51 428h396v-145h-246l-18 -121q9 3 23 5t36 2q53 0 97.5 -16t77 -44.5t50.5 -69t18 -90.5q0 -61 -23 -111t-65 -85.5t-100 -55
t-128 -19.5z" />
    <glyph glyph-name="five.tosf" horiz-adv-x="615" 
d="M254 -110q-69 0 -128 15.5t-99 47.5l52 128q32 -23 73 -34t86 -11q69 0 110 31t41 82q0 41 -25.5 65t-68.5 24q-32 0 -57 -11t-36 -29l-117 17l51 430h396v-139h-246l-23 -130q10 4 25.5 6t38.5 2q51 0 95 -16t75.5 -45t49.5 -70t18 -91q0 -61 -23 -111.5t-64 -86
t-98 -55t-126 -19.5z" />
    <glyph glyph-name="fl.ss01" horiz-adv-x="668" 
d="M62 609q0 41 13.5 74.5t37.5 57t58 36.5t76 13q34 0 67 -5.5t58 -16.5l-11 -132q-14 5 -27.5 7t-30.5 2q-32 0 -51.5 -17t-19.5 -45v-38h123v-139h-123v-406h-170v609zM606 780v-780h-170v780h170z" />
    <glyph glyph-name="fl.ss02" horiz-adv-x="771" 
d="M113 780h304v-139h-134v-96h123v-139h-123v-406h-170v406h-85v139h85v235zM750 140v-140h-265v780h170v-640h95z" />
    <glyph glyph-name="four.dnom" horiz-adv-x="401" 
d="M211 80h-198v73l223 291h82v-275h58v-89h-58v-80h-107v80zM214 165l1 129l-99 -129h98z" />
    <glyph glyph-name="four.lf" horiz-adv-x="660" 
d="M351 134h-330v120l370 486h135v-461h98v-145h-98v-134h-175v134zM356 274l2 221l-168 -221h166z" />
    <glyph glyph-name="four.numr" horiz-adv-x="401" 
d="M211 376h-198v73l223 291h82v-275h58v-89h-58v-80h-107v80zM214 461l1 129l-99 -129h98z" />
    <glyph glyph-name="four.osf" horiz-adv-x="665" 
d="M363 0h-336v108l377 537h129v-505h97v-140h-97v-110h-170v110zM367 135l3 252l-173 -252h170z" />
    <glyph glyph-name="four.tf" horiz-adv-x="615" 
d="M317 134h-309v120l349 486h136v-460h97v-146h-97v-134h-176v134zM323 275l2 220l-148 -220h146z" />
    <glyph glyph-name="four.tosf" horiz-adv-x="615" 
d="M327 0h-315v108l356 537h129v-505h97v-140h-97v-110h-170v110zM331 135l3 240l-152 -240h149z" />
    <glyph glyph-name="g.ss02" 
d="M627 545v-765h-560v139h390v144q-28 -35 -68 -54t-94 -19t-101.5 20.5t-82.5 58t-55.5 90t-20.5 116.5q0 63 20.5 115t55.5 88.5t82.5 56.5t101.5 20q56 0 97 -20t69 -57l3 67h163zM334 136q56 0 89.5 37.5t33.5 99.5t-33.5 99.5t-89.5 37.5t-89.5 -37.5t-33.5 -98.5
q0 -63 33.5 -100.5t89.5 -37.5z" />
    <glyph glyph-name="gbreve.ss02" 
d="M627 545v-765h-560v139h390v144q-28 -35 -68 -54t-94 -19t-101.5 20.5t-82.5 58t-55.5 90t-20.5 116.5q0 63 20.5 115t55.5 88.5t82.5 56.5t101.5 20q56 0 97 -20t69 -57l3 67h163zM343 609q-43 0 -79 12.5t-61 35.5t-39 55.5t-14 72.5h127q0 -35 18.5 -57t47.5 -22
q30 0 48 22t18 57h127q0 -40 -14 -72.5t-39 -55.5t-60.5 -35.5t-79.5 -12.5zM334 136q56 0 89.5 37.5t33.5 99.5t-33.5 99.5t-89.5 37.5t-89.5 -37.5t-33.5 -98.5q0 -63 33.5 -100.5t89.5 -37.5z" />
    <glyph glyph-name="gcommaaccent.ss02" 
d="M627 545v-765h-560v139h390v144q-28 -35 -68 -54t-94 -19t-101.5 20.5t-82.5 58t-55.5 90t-20.5 116.5q0 63 20.5 115t55.5 88.5t82.5 56.5t101.5 20q56 0 97 -20t69 -57l3 67h163zM405 593h-152l67 187h128zM334 136q56 0 89.5 37.5t33.5 99.5t-33.5 99.5t-89.5 37.5
t-89.5 -37.5t-33.5 -98.5q0 -63 33.5 -100.5t89.5 -37.5z" />
    <glyph glyph-name="gdotaccent.ss02" 
d="M627 545v-765h-560v139h390v144q-28 -35 -68 -54t-94 -19t-101.5 20.5t-82.5 58t-55.5 90t-20.5 116.5q0 63 20.5 115t55.5 88.5t82.5 56.5t101.5 20q56 0 97 -20t69 -57l3 67h163zM343 608q-43 0 -71 27.5t-28 70.5t28 70.5t71 27.5t70.5 -27.5t27.5 -70.5t-27.5 -70.5
t-70.5 -27.5zM334 136q56 0 89.5 37.5t33.5 99.5t-33.5 99.5t-89.5 37.5t-89.5 -37.5t-33.5 -98.5q0 -63 33.5 -100.5t89.5 -37.5z" />
    <glyph glyph-name="i.loclTRK" horiz-adv-x="295" 
d="M62 545h170v-545h-170v545zM149 608q-43 0 -71 27.5t-28 70.5t28 70.5t71 27.5t70.5 -27.5t27.5 -70.5t-27.5 -70.5t-70.5 -27.5z" />
    <glyph glyph-name="iota.ss01" horiz-adv-x="294" 
d="M62 545h170v-545h-170v545z" />
    <glyph glyph-name="iota.ss02" horiz-adv-x="294" 
d="M62 545h170v-545h-170v545z" />
    <glyph glyph-name="iotadieresis.ss01" horiz-adv-x="294" 
d="M62 545h170v-545h-170v545zM15 608q-45 0 -72 26.5t-27 71.5q0 44 27 71t72 27t71.5 -27t26.5 -71q0 -45 -26.5 -71.5t-71.5 -26.5zM282 608q-45 0 -72 26.5t-27 71.5q0 44 27 71t72 27t71.5 -27t26.5 -71q0 -45 -26.5 -71.5t-71.5 -26.5z" />
    <glyph glyph-name="iotadieresis.ss02" horiz-adv-x="294" 
d="M62 545h170v-545h-170v545zM15 608q-45 0 -72 26.5t-27 71.5q0 44 27 71t72 27t71.5 -27t26.5 -71q0 -45 -26.5 -71.5t-71.5 -26.5zM282 608q-45 0 -72 26.5t-27 71.5q0 44 27 71t72 27t71.5 -27t26.5 -71q0 -45 -26.5 -71.5t-71.5 -26.5z" />
    <glyph glyph-name="iotadieresistonos.ss01" horiz-adv-x="294" 
d="M62 545h170v-545h-170v545zM-31 624q-35 0 -58.5 23.5t-23.5 58.5t23.5 58.5t58.5 23.5q36 0 59 -23.5t23 -58.5t-23.5 -58.5t-58.5 -23.5zM98 785h146l-69 -167h-109zM333 624q-35 0 -58.5 23.5t-23.5 58.5t23.5 58.5t58.5 23.5t58.5 -23.5t23.5 -58.5t-23.5 -58.5
t-58.5 -23.5z" />
    <glyph glyph-name="iotadieresistonos.ss02" horiz-adv-x="294" 
d="M62 545h170v-545h-170v545zM-31 624q-35 0 -58.5 23.5t-23.5 58.5t23.5 58.5t58.5 23.5q36 0 59 -23.5t23 -58.5t-23.5 -58.5t-58.5 -23.5zM98 785h146l-69 -167h-109zM333 624q-35 0 -58.5 23.5t-23.5 58.5t23.5 58.5t58.5 23.5t58.5 -23.5t23.5 -58.5t-23.5 -58.5
t-58.5 -23.5z" />
    <glyph glyph-name="iotatonos.ss01" horiz-adv-x="294" 
d="M62 545h170v-545h-170v545zM117 785h162l-68 -167h-127z" />
    <glyph glyph-name="iotatonos.ss02" horiz-adv-x="294" 
d="M62 545h170v-545h-170v545zM117 785h162l-68 -167h-127z" />
    <glyph glyph-name="j.ss01" horiz-adv-x="295" 
d="M62 545h170v-765h-170v765zM147 608q-43 0 -70.5 27.5t-27.5 70.5t27.5 70.5t70.5 27.5t70.5 -27.5t27.5 -70.5t-27.5 -70.5t-70.5 -27.5z" />
    <glyph glyph-name="j.ss02" horiz-adv-x="295" 
d="M62 545h170v-765h-170v765zM147 608q-43 0 -70.5 27.5t-27.5 70.5t27.5 70.5t70.5 27.5t70.5 -27.5t27.5 -70.5t-27.5 -70.5t-70.5 -27.5z" />
    <glyph glyph-name="l.ss02" horiz-adv-x="348" 
d="M63 780h170v-640h95v-140h-265v780z" />
    <glyph glyph-name="lacute.ss02" horiz-adv-x="348" 
d="M63 780h170v-640h95v-140h-265v780zM181 1020h197l-191 -167h-144z" />
    <glyph glyph-name="lcaron.ss02" horiz-adv-x="368" 
d="M63 780h170v-640h95v-140h-265v780zM323 780h152l-66 -187h-128z" />
    <glyph glyph-name="lcommaaccent.ss02" horiz-adv-x="348" 
d="M63 780h170v-640h95v-140h-265v780zM118 -52h152l-62 -168h-128z" />
    <glyph glyph-name="lslash.ss02" horiz-adv-x="398" 
d="M359 140v-140h-265v263l-59 -41v136l59 41v381h170v-284l59 42v-135l-59 -42v-221h95z" />
    <glyph glyph-name="nine.dnom" horiz-adv-x="370" 
d="M182 450q73 0 117.5 -39t44.5 -104q0 -43 -14.5 -76.5t-41.5 -71.5l-116 -159h-120l131 171q-5 -1 -11 -1h-13q-27 0 -52.5 9.5t-44.5 27.5t-30.5 43t-11.5 56q0 65 44.5 104.5t117.5 39.5zM130 306q0 -25 14.5 -40t37.5 -15t37.5 15t14.5 40q0 26 -14.5 41t-37.5 15
t-37.5 -15t-14.5 -41z" />
    <glyph glyph-name="nine.lf" horiz-adv-x="603" 
d="M296 750q61 0 110.5 -17t85 -48.5t55 -75t19.5 -97.5q0 -70 -24 -126t-68 -117l-197 -269h-196l219 285q-10 -1 -20 -1h-21q-46 0 -88 16t-74 46t-50.5 71.5t-18.5 92.5q0 54 19.5 98t54.5 75.5t84.5 49t109.5 17.5zM210 511q0 -42 24 -68t63 -26q40 0 64 26t24 68
q0 43 -24 68.5t-64 25.5q-39 0 -63 -25.5t-24 -68.5z" />
    <glyph glyph-name="nine.numr" horiz-adv-x="370" 
d="M182 746q73 0 117.5 -39t44.5 -104q0 -43 -14.5 -76.5t-41.5 -71.5l-116 -159h-120l131 171q-5 -1 -11 -1h-13q-27 0 -52.5 9.5t-44.5 27.5t-30.5 43t-11.5 56q0 65 44.5 104.5t117.5 39.5zM130 602q0 -25 14.5 -40t37.5 -15t37.5 15t14.5 40q0 26 -14.5 41t-37.5 15
t-37.5 -15t-14.5 -41z" />
    <glyph glyph-name="nine.osf" horiz-adv-x="588" 
d="M292 655q59 0 107.5 -17t83 -48t53 -75t18.5 -97q0 -29 -4 -55.5t-13.5 -53t-25 -55.5t-38.5 -62l-222 -304l-159 43l199 261q-8 -1 -17.5 -1.5t-18.5 -0.5q-51 0 -93 16t-72 46t-46 71.5t-16 92.5q0 54 19 98t53.5 75.5t83.5 48.5t108 17zM203 417q0 -43 24 -69t64 -26
q39 0 63 26t24 69q0 42 -24 67.5t-63 25.5q-40 0 -64 -25.5t-24 -67.5z" />
    <glyph glyph-name="nine.tf" horiz-adv-x="615" 
d="M302 750q61 0 110.5 -17t85 -48.5t55 -75t19.5 -97.5q0 -70 -24 -126t-68 -117l-197 -269h-196l219 285q-10 -1 -20 -1h-21q-46 0 -88 16t-74 46t-50.5 71.5t-18.5 92.5q0 54 19.5 98t54.5 75.5t84.5 49t109.5 17.5zM216 511q0 -42 24 -68t63 -26q40 0 64 26t24 68
q0 43 -24 68.5t-64 25.5q-39 0 -63 -25.5t-24 -68.5z" />
    <glyph glyph-name="nine.tosf" horiz-adv-x="615" 
d="M305 655q59 0 107.5 -17t83 -48t53 -75t18.5 -97q0 -29 -4 -55.5t-13.5 -53t-25 -55.5t-38.5 -62l-222 -304l-159 43l199 261q-9 -1 -18 -1.5t-18 -0.5q-51 0 -93 16t-72 46t-46 71.5t-16 92.5q0 54 19 98t53.5 75.5t83.5 48.5t108 17zM216 417q0 -43 24 -69t64 -26
q39 0 63 26t24 69q0 42 -24 67.5t-63 25.5q-40 0 -64 -25.5t-24 -67.5z" />
    <glyph glyph-name="one.dnom" horiz-adv-x="285" 
d="M127 309l-72 -51l-54 75l151 111h82v-444h-107v309z" />
    <glyph glyph-name="one.dnom.ss02" horiz-adv-x="243" 
d="M85 357h-63v87h170v-444h-107v357z" />
    <glyph glyph-name="one.lf" horiz-adv-x="466" 
d="M212 516l-123 -85l-87 124l251 185h134v-740h-175v516z" />
    <glyph glyph-name="one.lf.ss02" horiz-adv-x="390" 
d="M136 595h-105v145h280v-740h-175v595z" />
    <glyph glyph-name="one.numr" horiz-adv-x="285" 
d="M127 605l-72 -51l-54 75l151 111h82v-444h-107v309z" />
    <glyph glyph-name="one.numr.ss02" horiz-adv-x="243" 
d="M85 653h-63v87h170v-444h-107v357z" />
    <glyph glyph-name="one.osf" horiz-adv-x="434" 
d="M185 420l-90 -61l-88 124l219 162h129v-645h-170v420z" />
    <glyph glyph-name="one.osf.ss02" horiz-adv-x="385" 
d="M136 506h-98v139h268v-645h-170v506z" />
    <glyph glyph-name="one.ss02" horiz-adv-x="390" 
d="M136 595h-105v145h280v-740h-175v595z" />
    <glyph glyph-name="one.tf" horiz-adv-x="615" 
d="M573 145v-145h-505v145h198v371l-123 -85l-86 124l251 185h134v-595h131z" />
    <glyph glyph-name="one.tf.ss02" horiz-adv-x="615" 
d="M564 145v-145h-505v145h198v450h-135v145h310v-595h132z" />
    <glyph glyph-name="one.tosf" horiz-adv-x="615" 
d="M572 140v-140h-505v140h179v280l-91 -61l-87 124l219 162h129v-505h156z" />
    <glyph glyph-name="one.tosf.ss02" horiz-adv-x="615" 
d="M567 140v-140h-505v140h186v366h-128v139h298v-505h149z" />
    <glyph glyph-name="oneeighth.ss02" horiz-adv-x="883" 
d="M780 231q32 -16 49.5 -42t17.5 -61q0 -61 -44.5 -97.5t-117.5 -36.5t-117.5 36t-44.5 95q0 35 18 62.5t50 43.5q-26 15 -41 39.5t-15 54.5q0 57 41 91t109 34t109 -34t41 -90q0 -31 -14.5 -55t-40.5 -40zM97 296v357h-63v87h170v-444h-107zM624 697l-414 -707l-88 54
l414 706zM685 363q-18 0 -29 -12.5t-11 -32.5t11 -32t29 -12t29 12t11 32t-11 32.5t-29 12.5zM685 82q23 0 37.5 14.5t14.5 37.5q0 24 -14.5 38.5t-37.5 14.5t-37.5 -14.5t-14.5 -38.5q0 -23 14.5 -37.5t37.5 -14.5z" />
    <glyph glyph-name="onehalf.ss02" horiz-adv-x="874" 
d="M122 44l414 706l88 -53l-414 -707zM520 68l138 150q6 7 17 19t21 26.5t17.5 29.5t7.5 29q0 18 -11 29.5t-30 11.5q-22 0 -34.5 -15.5t-12.5 -39.5l-108 9q0 60 42 96.5t111 36.5t109.5 -33.5t40.5 -87.5q0 -43 -25.5 -81.5t-73.5 -87.5l-71 -73l176 1v-88h-314v68z
M97 653h-63v87h170v-444h-107v357z" />
    <glyph glyph-name="onequarter.ss02" horiz-adv-x="864" 
d="M664 80h-198v73l223 291h82v-275h58v-89h-58v-80h-107v80zM98 653h-63v87h170v-444h-107v357zM123 44l414 706l88 -53l-414 -707zM667 165l1 129l-99 -129h98z" />
    <glyph glyph-name="parenleft.case" horiz-adv-x="376" 
d="M192 -40q-25 33 -51 74t-47.5 92t-35.5 112t-14 132t14 132t35.5 112t47.5 92t51 74h158q-19 -26 -41.5 -69t-42.5 -97t-33.5 -116.5t-13.5 -127.5t13.5 -127.5t33.5 -116.5t42.5 -97t41.5 -69h-158z" />
    <glyph glyph-name="parenright.case" horiz-adv-x="376" 
d="M26 -40q19 26 41.5 69t42.5 97t33.5 116.5t13.5 127.5t-13.5 127.5t-33.5 116.5t-42.5 97t-41.5 69h158q25 -33 51 -74t47.5 -92t35.5 -112t14 -132t-14 -132t-35.5 -112t-47.5 -92t-51 -74h-158z" />
    <glyph glyph-name="phi.ss01" horiz-adv-x="834" 
d="M800 273q0 -60 -21 -110t-60 -86.5t-94 -59t-123 -26.5v-211h-170v211q-67 4 -122 26.5t-94 59t-60.5 86.5t-21.5 110t21.5 109.5t60.5 86t94 59t122 26.5v226h170v-226q68 -4 123 -26.5t94 -59t60 -86t21 -109.5zM209 273q0 -62 33.5 -99.5t89.5 -37.5v274
q-56 0 -89.5 -38t-33.5 -99zM502 136q56 0 89.5 37.5t33.5 99.5q0 61 -33.5 99t-89.5 38v-274z" />
    <glyph glyph-name="phi.ss02" horiz-adv-x="834" 
d="M800 273q0 -60 -21 -110t-60 -86.5t-94 -59t-123 -26.5v-211h-170v211q-67 4 -122 26.5t-94 59t-60.5 86.5t-21.5 110t21.5 109.5t60.5 86t94 59t122 26.5v226h170v-226q68 -4 123 -26.5t94 -59t60 -86t21 -109.5zM209 273q0 -62 33.5 -99.5t89.5 -37.5v274
q-56 0 -89.5 -38t-33.5 -99zM502 136q56 0 89.5 37.5t33.5 99.5q0 61 -33.5 99t-89.5 38v-274z" />
    <glyph glyph-name="pi.ss02" horiz-adv-x="671" 
d="M609 545v-545h-170v406h-207v-406h-170v545h547z" />
    <glyph glyph-name="questiondown.case" horiz-adv-x="565" 
d="M291 -10q-58 0 -105 14.5t-81 41t-52.5 64t-18.5 83.5q0 29 8 51t20.5 40t29 33t33.5 30q17 14 33.5 29t29 32.5t20 38.5t7.5 48h145q0 -46 -9 -80.5t-23.5 -60t-31.5 -44t-33 -33.5q-20 -18 -34 -35.5t-14 -38.5q0 -31 21 -49.5t55 -18.5q32 0 54.5 18.5t26.5 49.5
l162 -8q-3 -46 -21.5 -84t-50 -65t-75 -41.5t-96.5 -14.5zM288 554q-43 0 -70.5 27t-27.5 70t27.5 71t70.5 28t70.5 -28t27.5 -71t-27.5 -70t-70.5 -27z" />
    <glyph glyph-name="seven.dnom" horiz-adv-x="332" 
d="M327 444l-145 -444h-112l119 357h-174v87h312z" />
    <glyph glyph-name="seven.lf" horiz-adv-x="556" 
d="M541 740l-242 -740h-185l201 595h-292v145h518z" />
    <glyph glyph-name="seven.numr" horiz-adv-x="332" 
d="M327 740l-145 -444h-112l119 357h-174v87h312z" />
    <glyph glyph-name="seven.osf" horiz-adv-x="572" 
d="M548 645l-248 -757l-164 43l186 575h-292v139h518z" />
    <glyph glyph-name="seven.tf" horiz-adv-x="615" 
d="M571 740l-242 -740h-185l201 595h-292v145h518z" />
    <glyph glyph-name="seven.tosf" horiz-adv-x="615" 
d="M569 645l-248 -757l-163 43l186 575h-293v139h518z" />
    <glyph glyph-name="six.dnom" horiz-adv-x="370" 
d="M211 274q27 0 52.5 -9.5t44.5 -27.5t30.5 -43t11.5 -56q0 -65 -44.5 -104.5t-117.5 -39.5t-117.5 39t-44.5 104q0 43 14.5 76.5t41.5 71.5l116 159h120l-131 -171q5 1 11 1h13zM188 82q23 0 37.5 15t14.5 41q0 25 -14.5 40t-37.5 15t-37.5 -15t-14.5 -40q0 -26 14.5 -41
t37.5 -15z" />
    <glyph glyph-name="six.lf" horiz-adv-x="603" 
d="M344 456q47 0 88.5 -16t73.5 -46t50.5 -71.5t18.5 -92.5q0 -54 -19.5 -98t-54.5 -75.5t-84.5 -49t-109.5 -17.5q-61 0 -110.5 17t-85 48.5t-55 75t-19.5 97.5q0 71 24.5 126.5t67.5 116.5l197 269h196l-219 -285q10 1 20 1h21zM306 135q39 0 63 25.5t24 68.5q0 42 -24 68
t-63 26q-40 0 -64 -26t-24 -68q0 -43 24 -68.5t64 -25.5z" />
    <glyph glyph-name="six.numr" horiz-adv-x="370" 
d="M211 570q27 0 52.5 -9.5t44.5 -27.5t30.5 -43t11.5 -56q0 -65 -44.5 -104.5t-117.5 -39.5t-117.5 39t-44.5 104q0 43 14.5 76.5t41.5 71.5l116 159h120l-131 -171q5 1 11 1h13zM188 378q23 0 37.5 15t14.5 41q0 25 -14.5 40t-37.5 15t-37.5 -15t-14.5 -40q0 -26 14.5 -41
t37.5 -15z" />
    <glyph glyph-name="six.osf" horiz-adv-x="595" 
d="M338 456q51 0 92.5 -16t71.5 -46t46 -71.5t16 -92.5q0 -54 -19 -98t-53.5 -75.5t-83 -49t-107.5 -17.5t-107.5 17t-83 48.5t-53.5 75t-19 97.5q0 29 4 55t13.5 52.5t25 55.5t38.5 63l210 286h191l-219 -286q9 1 18 1.5t19 0.5zM300 135q40 0 64 25.5t24 68.5q0 42 -24 68
t-64 26q-39 0 -63 -26t-24 -68q0 -43 24 -68.5t63 -25.5z" />
    <glyph glyph-name="six.tf" horiz-adv-x="615" 
d="M350 456q47 0 88.5 -16t73.5 -46t50.5 -71.5t18.5 -92.5q0 -54 -19 -98t-54.5 -75.5t-85 -49t-109.5 -17.5q-61 0 -110.5 17t-84.5 48.5t-54.5 75t-19.5 97.5q0 71 24 126.5t67 116.5l197 269h196l-219 -285q10 1 20 1h21zM312 135q39 0 63 25.5t24 68.5q0 42 -24 68
t-63 26q-40 0 -64 -26t-24 -68q0 -43 24 -68.5t64 -25.5z" />
    <glyph glyph-name="six.tosf" horiz-adv-x="615" 
d="M348 456q51 0 92.5 -16t71.5 -46t46 -71.5t16 -92.5q0 -54 -19 -98t-53.5 -75.5t-83 -49t-107.5 -17.5t-107.5 17t-83 48.5t-53.5 75t-19 97.5q0 29 4 55t13.5 52.5t25 55.5t38.5 63l210 286h191l-219 -286q9 1 18 1.5t19 0.5zM310 135q40 0 64 25.5t24 68.5q0 42 -24 68
t-64 26q-39 0 -63 -26t-24 -68q0 -43 24 -68.5t63 -25.5z" />
    <glyph glyph-name="slash.case" horiz-adv-x="443" 
d="M236 740h171l-201 -740h-171z" />
    <glyph glyph-name="t.ss01" horiz-adv-x="405" 
d="M290 136q46 0 87 17v-136q-32 -14 -69.5 -20.5t-72.5 -6.5q-40 0 -72.5 13t-56 37t-36.5 57.5t-13 74.5v533h170v-160h142v-139h-142v-198q0 -32 17.5 -52t45.5 -20z" />
    <glyph glyph-name="t.ss02" horiz-adv-x="420" 
d="M402 406h-105v-406h-170v406h-104v139h104v160h170v-160h105v-139z" />
    <glyph glyph-name="tau.ss02" horiz-adv-x="546" 
d="M530 406h-171v-406h-170v406h-172v139h513v-139z" />
    </font>
</defs>
</svg>
